M48
; DRILL file {KiCad 7.0.5} date Tue Jul 11 17:47:12 2023
; FORMAT={-:-/ absolute / metric / decimal}
; #@! TF.CreationDate,2023-07-11T17:47:12+06:00
; #@! TF.GenerationSoftware,Kicad,Pcbnew,7.0.5
; #@! TF.FileFunction,Plated,1,2,PTH
FMAT,2
METRIC
; #@! TA.AperFunction,Plated,PTH,ComponentDrill
T1C1.000
%
G90
G05
T1
X73.0Y-44.65
X73.0Y-47.19
X73.0Y-49.73
X73.0Y-52.27
X73.0Y-54.81
X73.0Y-57.35
X79.92Y-40.0
X82.46Y-40.0
X85.0Y-40.0
X87.54Y-40.0
X103.46Y-40.0
X106.0Y-40.0
X108.54Y-40.0
X111.08Y-40.0
X118.0Y-50.46
X118.0Y-53.0
X125.95Y-44.37
X125.95Y-59.61
X128.49Y-44.37
X128.49Y-59.61
X131.03Y-44.37
X131.03Y-59.61
X133.57Y-44.37
X133.57Y-59.61
X136.11Y-44.37
X136.11Y-59.61
X138.65Y-44.37
X138.65Y-59.61
X141.19Y-44.37
X141.19Y-59.61
X143.73Y-44.37
X143.73Y-59.61
X146.27Y-44.37
X146.27Y-59.61
X148.81Y-44.37
X148.81Y-59.61
X151.35Y-44.37
X151.35Y-59.61
X153.89Y-44.37
X153.89Y-59.61
X156.43Y-44.37
X156.43Y-59.61
X158.97Y-44.37
X158.97Y-59.61
X161.51Y-44.37
X161.51Y-59.61
T0
M30
