%TF.GenerationSoftware,KiCad,Pcbnew,7.0.5*%
%TF.CreationDate,2024-01-19T10:16:40+06:00*%
%TF.ProjectId,Meteo_station,4d657465-6f5f-4737-9461-74696f6e2e6b,rev?*%
%TF.SameCoordinates,Original*%
%TF.FileFunction,Legend,Bot*%
%TF.FilePolarity,Positive*%
%FSLAX46Y46*%
G04 Gerber Fmt 4.6, Leading zero omitted, Abs format (unit mm)*
G04 Created by KiCad (PCBNEW 7.0.5) date 2024-01-19 10:16:40*
%MOMM*%
%LPD*%
G01*
G04 APERTURE LIST*
%ADD10C,0.150000*%
%ADD11C,0.120000*%
G04 APERTURE END LIST*
D10*
%TO.C,R7*%
X85614166Y-26362819D02*
X85947499Y-25886628D01*
X86185594Y-26362819D02*
X86185594Y-25362819D01*
X86185594Y-25362819D02*
X85804642Y-25362819D01*
X85804642Y-25362819D02*
X85709404Y-25410438D01*
X85709404Y-25410438D02*
X85661785Y-25458057D01*
X85661785Y-25458057D02*
X85614166Y-25553295D01*
X85614166Y-25553295D02*
X85614166Y-25696152D01*
X85614166Y-25696152D02*
X85661785Y-25791390D01*
X85661785Y-25791390D02*
X85709404Y-25839009D01*
X85709404Y-25839009D02*
X85804642Y-25886628D01*
X85804642Y-25886628D02*
X86185594Y-25886628D01*
X85280832Y-25362819D02*
X84614166Y-25362819D01*
X84614166Y-25362819D02*
X85042737Y-26362819D01*
%TO.C,R6*%
X91098666Y-23442819D02*
X91431999Y-22966628D01*
X91670094Y-23442819D02*
X91670094Y-22442819D01*
X91670094Y-22442819D02*
X91289142Y-22442819D01*
X91289142Y-22442819D02*
X91193904Y-22490438D01*
X91193904Y-22490438D02*
X91146285Y-22538057D01*
X91146285Y-22538057D02*
X91098666Y-22633295D01*
X91098666Y-22633295D02*
X91098666Y-22776152D01*
X91098666Y-22776152D02*
X91146285Y-22871390D01*
X91146285Y-22871390D02*
X91193904Y-22919009D01*
X91193904Y-22919009D02*
X91289142Y-22966628D01*
X91289142Y-22966628D02*
X91670094Y-22966628D01*
X90241523Y-22442819D02*
X90431999Y-22442819D01*
X90431999Y-22442819D02*
X90527237Y-22490438D01*
X90527237Y-22490438D02*
X90574856Y-22538057D01*
X90574856Y-22538057D02*
X90670094Y-22680914D01*
X90670094Y-22680914D02*
X90717713Y-22871390D01*
X90717713Y-22871390D02*
X90717713Y-23252342D01*
X90717713Y-23252342D02*
X90670094Y-23347580D01*
X90670094Y-23347580D02*
X90622475Y-23395200D01*
X90622475Y-23395200D02*
X90527237Y-23442819D01*
X90527237Y-23442819D02*
X90336761Y-23442819D01*
X90336761Y-23442819D02*
X90241523Y-23395200D01*
X90241523Y-23395200D02*
X90193904Y-23347580D01*
X90193904Y-23347580D02*
X90146285Y-23252342D01*
X90146285Y-23252342D02*
X90146285Y-23014247D01*
X90146285Y-23014247D02*
X90193904Y-22919009D01*
X90193904Y-22919009D02*
X90241523Y-22871390D01*
X90241523Y-22871390D02*
X90336761Y-22823771D01*
X90336761Y-22823771D02*
X90527237Y-22823771D01*
X90527237Y-22823771D02*
X90622475Y-22871390D01*
X90622475Y-22871390D02*
X90670094Y-22919009D01*
X90670094Y-22919009D02*
X90717713Y-23014247D01*
D11*
%TO.C,R7*%
X85220436Y-26951000D02*
X85674564Y-26951000D01*
X85220436Y-28421000D02*
X85674564Y-28421000D01*
%TO.C,R6*%
X91159064Y-25373000D02*
X90704936Y-25373000D01*
X91159064Y-23903000D02*
X90704936Y-23903000D01*
%TD*%
M02*
