%TF.GenerationSoftware,KiCad,Pcbnew,7.0.5*%
%TF.CreationDate,2023-07-11T17:47:13+06:00*%
%TF.ProjectId,Meteo_braslet,4d657465-6f5f-4627-9261-736c65742e6b,rev?*%
%TF.SameCoordinates,Original*%
%TF.FileFunction,Drillmap*%
%TF.FilePolarity,Positive*%
%FSLAX45Y45*%
G04 Gerber Fmt 4.5, Leading zero omitted, Abs format (unit mm)*
G04 Created by KiCad (PCBNEW 7.0.5) date 2023-07-11 17:47:13*
%MOMM*%
%LPD*%
G01*
G04 APERTURE LIST*
%ADD10C,0.100000*%
%ADD11C,0.200000*%
G04 APERTURE END LIST*
D10*
X3300000Y-3500000D02*
X16800000Y-3500000D01*
X16800000Y-6800000D01*
X3300000Y-6800000D01*
X3300000Y-3500000D01*
D11*
D10*
X7250000Y-4415000D02*
X7350000Y-4515000D01*
X7350000Y-4415000D02*
X7250000Y-4515000D01*
X7250000Y-4669000D02*
X7350000Y-4769000D01*
X7350000Y-4669000D02*
X7250000Y-4769000D01*
X7250000Y-4923000D02*
X7350000Y-5023000D01*
X7350000Y-4923000D02*
X7250000Y-5023000D01*
X7250000Y-5177000D02*
X7350000Y-5277000D01*
X7350000Y-5177000D02*
X7250000Y-5277000D01*
X7250000Y-5431000D02*
X7350000Y-5531000D01*
X7350000Y-5431000D02*
X7250000Y-5531000D01*
X7250000Y-5685000D02*
X7350000Y-5785000D01*
X7350000Y-5685000D02*
X7250000Y-5785000D01*
X7942000Y-3950000D02*
X8042000Y-4050000D01*
X8042000Y-3950000D02*
X7942000Y-4050000D01*
X8196000Y-3950000D02*
X8296000Y-4050000D01*
X8296000Y-3950000D02*
X8196000Y-4050000D01*
X8450000Y-3950000D02*
X8550000Y-4050000D01*
X8550000Y-3950000D02*
X8450000Y-4050000D01*
X8704000Y-3950000D02*
X8804000Y-4050000D01*
X8804000Y-3950000D02*
X8704000Y-4050000D01*
X10296000Y-3950000D02*
X10396000Y-4050000D01*
X10396000Y-3950000D02*
X10296000Y-4050000D01*
X10550000Y-3950000D02*
X10650000Y-4050000D01*
X10650000Y-3950000D02*
X10550000Y-4050000D01*
X10804000Y-3950000D02*
X10904000Y-4050000D01*
X10904000Y-3950000D02*
X10804000Y-4050000D01*
X11058000Y-3950000D02*
X11158000Y-4050000D01*
X11158000Y-3950000D02*
X11058000Y-4050000D01*
X11750000Y-4996000D02*
X11850000Y-5096000D01*
X11850000Y-4996000D02*
X11750000Y-5096000D01*
X11750000Y-5250000D02*
X11850000Y-5350000D01*
X11850000Y-5250000D02*
X11750000Y-5350000D01*
X12545000Y-4387000D02*
X12645000Y-4487000D01*
X12645000Y-4387000D02*
X12545000Y-4487000D01*
X12545000Y-5911000D02*
X12645000Y-6011000D01*
X12645000Y-5911000D02*
X12545000Y-6011000D01*
X12799000Y-4387000D02*
X12899000Y-4487000D01*
X12899000Y-4387000D02*
X12799000Y-4487000D01*
X12799000Y-5911000D02*
X12899000Y-6011000D01*
X12899000Y-5911000D02*
X12799000Y-6011000D01*
X13053000Y-4387000D02*
X13153000Y-4487000D01*
X13153000Y-4387000D02*
X13053000Y-4487000D01*
X13053000Y-5911000D02*
X13153000Y-6011000D01*
X13153000Y-5911000D02*
X13053000Y-6011000D01*
X13307000Y-4387000D02*
X13407000Y-4487000D01*
X13407000Y-4387000D02*
X13307000Y-4487000D01*
X13307000Y-5911000D02*
X13407000Y-6011000D01*
X13407000Y-5911000D02*
X13307000Y-6011000D01*
X13561000Y-4387000D02*
X13661000Y-4487000D01*
X13661000Y-4387000D02*
X13561000Y-4487000D01*
X13561000Y-5911000D02*
X13661000Y-6011000D01*
X13661000Y-5911000D02*
X13561000Y-6011000D01*
X13815000Y-4387000D02*
X13915000Y-4487000D01*
X13915000Y-4387000D02*
X13815000Y-4487000D01*
X13815000Y-5911000D02*
X13915000Y-6011000D01*
X13915000Y-5911000D02*
X13815000Y-6011000D01*
X14069000Y-4387000D02*
X14169000Y-4487000D01*
X14169000Y-4387000D02*
X14069000Y-4487000D01*
X14069000Y-5911000D02*
X14169000Y-6011000D01*
X14169000Y-5911000D02*
X14069000Y-6011000D01*
X14323000Y-4387000D02*
X14423000Y-4487000D01*
X14423000Y-4387000D02*
X14323000Y-4487000D01*
X14323000Y-5911000D02*
X14423000Y-6011000D01*
X14423000Y-5911000D02*
X14323000Y-6011000D01*
X14577000Y-4387000D02*
X14677000Y-4487000D01*
X14677000Y-4387000D02*
X14577000Y-4487000D01*
X14577000Y-5911000D02*
X14677000Y-6011000D01*
X14677000Y-5911000D02*
X14577000Y-6011000D01*
X14831000Y-4387000D02*
X14931000Y-4487000D01*
X14931000Y-4387000D02*
X14831000Y-4487000D01*
X14831000Y-5911000D02*
X14931000Y-6011000D01*
X14931000Y-5911000D02*
X14831000Y-6011000D01*
X15085000Y-4387000D02*
X15185000Y-4487000D01*
X15185000Y-4387000D02*
X15085000Y-4487000D01*
X15085000Y-5911000D02*
X15185000Y-6011000D01*
X15185000Y-5911000D02*
X15085000Y-6011000D01*
X15339000Y-4387000D02*
X15439000Y-4487000D01*
X15439000Y-4387000D02*
X15339000Y-4487000D01*
X15339000Y-5911000D02*
X15439000Y-6011000D01*
X15439000Y-5911000D02*
X15339000Y-6011000D01*
X15593000Y-4387000D02*
X15693000Y-4487000D01*
X15693000Y-4387000D02*
X15593000Y-4487000D01*
X15593000Y-5911000D02*
X15693000Y-6011000D01*
X15693000Y-5911000D02*
X15593000Y-6011000D01*
X15847000Y-4387000D02*
X15947000Y-4487000D01*
X15947000Y-4387000D02*
X15847000Y-4487000D01*
X15847000Y-5911000D02*
X15947000Y-6011000D01*
X15947000Y-5911000D02*
X15847000Y-6011000D01*
X16101000Y-4387000D02*
X16201000Y-4487000D01*
X16201000Y-4387000D02*
X16101000Y-4487000D01*
X16101000Y-5911000D02*
X16201000Y-6011000D01*
X16201000Y-5911000D02*
X16101000Y-6011000D01*
D11*
X3555777Y-7116484D02*
X3555777Y-6916484D01*
X3555777Y-6916484D02*
X3603396Y-6916484D01*
X3603396Y-6916484D02*
X3631967Y-6926008D01*
X3631967Y-6926008D02*
X3651015Y-6945055D01*
X3651015Y-6945055D02*
X3660539Y-6964103D01*
X3660539Y-6964103D02*
X3670062Y-7002198D01*
X3670062Y-7002198D02*
X3670062Y-7030769D01*
X3670062Y-7030769D02*
X3660539Y-7068865D01*
X3660539Y-7068865D02*
X3651015Y-7087912D01*
X3651015Y-7087912D02*
X3631967Y-7106960D01*
X3631967Y-7106960D02*
X3603396Y-7116484D01*
X3603396Y-7116484D02*
X3555777Y-7116484D01*
X3755777Y-7116484D02*
X3755777Y-6983150D01*
X3755777Y-7021246D02*
X3765301Y-7002198D01*
X3765301Y-7002198D02*
X3774824Y-6992674D01*
X3774824Y-6992674D02*
X3793872Y-6983150D01*
X3793872Y-6983150D02*
X3812920Y-6983150D01*
X3879586Y-7116484D02*
X3879586Y-6983150D01*
X3879586Y-6916484D02*
X3870062Y-6926008D01*
X3870062Y-6926008D02*
X3879586Y-6935531D01*
X3879586Y-6935531D02*
X3889110Y-6926008D01*
X3889110Y-6926008D02*
X3879586Y-6916484D01*
X3879586Y-6916484D02*
X3879586Y-6935531D01*
X4003396Y-7116484D02*
X3984348Y-7106960D01*
X3984348Y-7106960D02*
X3974824Y-7087912D01*
X3974824Y-7087912D02*
X3974824Y-6916484D01*
X4108158Y-7116484D02*
X4089110Y-7106960D01*
X4089110Y-7106960D02*
X4079586Y-7087912D01*
X4079586Y-7087912D02*
X4079586Y-6916484D01*
X4336729Y-7116484D02*
X4336729Y-6916484D01*
X4336729Y-6916484D02*
X4403396Y-7059341D01*
X4403396Y-7059341D02*
X4470063Y-6916484D01*
X4470063Y-6916484D02*
X4470063Y-7116484D01*
X4651015Y-7116484D02*
X4651015Y-7011722D01*
X4651015Y-7011722D02*
X4641491Y-6992674D01*
X4641491Y-6992674D02*
X4622444Y-6983150D01*
X4622444Y-6983150D02*
X4584348Y-6983150D01*
X4584348Y-6983150D02*
X4565301Y-6992674D01*
X4651015Y-7106960D02*
X4631967Y-7116484D01*
X4631967Y-7116484D02*
X4584348Y-7116484D01*
X4584348Y-7116484D02*
X4565301Y-7106960D01*
X4565301Y-7106960D02*
X4555777Y-7087912D01*
X4555777Y-7087912D02*
X4555777Y-7068865D01*
X4555777Y-7068865D02*
X4565301Y-7049817D01*
X4565301Y-7049817D02*
X4584348Y-7040293D01*
X4584348Y-7040293D02*
X4631967Y-7040293D01*
X4631967Y-7040293D02*
X4651015Y-7030769D01*
X4746253Y-6983150D02*
X4746253Y-7183150D01*
X4746253Y-6992674D02*
X4765301Y-6983150D01*
X4765301Y-6983150D02*
X4803396Y-6983150D01*
X4803396Y-6983150D02*
X4822444Y-6992674D01*
X4822444Y-6992674D02*
X4831967Y-7002198D01*
X4831967Y-7002198D02*
X4841491Y-7021246D01*
X4841491Y-7021246D02*
X4841491Y-7078388D01*
X4841491Y-7078388D02*
X4831967Y-7097436D01*
X4831967Y-7097436D02*
X4822444Y-7106960D01*
X4822444Y-7106960D02*
X4803396Y-7116484D01*
X4803396Y-7116484D02*
X4765301Y-7116484D01*
X4765301Y-7116484D02*
X4746253Y-7106960D01*
X4927205Y-7097436D02*
X4936729Y-7106960D01*
X4936729Y-7106960D02*
X4927205Y-7116484D01*
X4927205Y-7116484D02*
X4917682Y-7106960D01*
X4917682Y-7106960D02*
X4927205Y-7097436D01*
X4927205Y-7097436D02*
X4927205Y-7116484D01*
X4927205Y-6992674D02*
X4936729Y-7002198D01*
X4936729Y-7002198D02*
X4927205Y-7011722D01*
X4927205Y-7011722D02*
X4917682Y-7002198D01*
X4917682Y-7002198D02*
X4927205Y-6992674D01*
X4927205Y-6992674D02*
X4927205Y-7011722D01*
D10*
X3195000Y-7395000D02*
X3295000Y-7495000D01*
X3295000Y-7395000D02*
X3195000Y-7495000D01*
D11*
X3660539Y-7536484D02*
X3546253Y-7536484D01*
X3603396Y-7536484D02*
X3603396Y-7336484D01*
X3603396Y-7336484D02*
X3584348Y-7365055D01*
X3584348Y-7365055D02*
X3565301Y-7384103D01*
X3565301Y-7384103D02*
X3546253Y-7393627D01*
X3746253Y-7517436D02*
X3755777Y-7526960D01*
X3755777Y-7526960D02*
X3746253Y-7536484D01*
X3746253Y-7536484D02*
X3736729Y-7526960D01*
X3736729Y-7526960D02*
X3746253Y-7517436D01*
X3746253Y-7517436D02*
X3746253Y-7536484D01*
X3879586Y-7336484D02*
X3898634Y-7336484D01*
X3898634Y-7336484D02*
X3917682Y-7346008D01*
X3917682Y-7346008D02*
X3927205Y-7355531D01*
X3927205Y-7355531D02*
X3936729Y-7374579D01*
X3936729Y-7374579D02*
X3946253Y-7412674D01*
X3946253Y-7412674D02*
X3946253Y-7460293D01*
X3946253Y-7460293D02*
X3936729Y-7498388D01*
X3936729Y-7498388D02*
X3927205Y-7517436D01*
X3927205Y-7517436D02*
X3917682Y-7526960D01*
X3917682Y-7526960D02*
X3898634Y-7536484D01*
X3898634Y-7536484D02*
X3879586Y-7536484D01*
X3879586Y-7536484D02*
X3860539Y-7526960D01*
X3860539Y-7526960D02*
X3851015Y-7517436D01*
X3851015Y-7517436D02*
X3841491Y-7498388D01*
X3841491Y-7498388D02*
X3831967Y-7460293D01*
X3831967Y-7460293D02*
X3831967Y-7412674D01*
X3831967Y-7412674D02*
X3841491Y-7374579D01*
X3841491Y-7374579D02*
X3851015Y-7355531D01*
X3851015Y-7355531D02*
X3860539Y-7346008D01*
X3860539Y-7346008D02*
X3879586Y-7336484D01*
X4070062Y-7336484D02*
X4089110Y-7336484D01*
X4089110Y-7336484D02*
X4108158Y-7346008D01*
X4108158Y-7346008D02*
X4117682Y-7355531D01*
X4117682Y-7355531D02*
X4127205Y-7374579D01*
X4127205Y-7374579D02*
X4136729Y-7412674D01*
X4136729Y-7412674D02*
X4136729Y-7460293D01*
X4136729Y-7460293D02*
X4127205Y-7498388D01*
X4127205Y-7498388D02*
X4117682Y-7517436D01*
X4117682Y-7517436D02*
X4108158Y-7526960D01*
X4108158Y-7526960D02*
X4089110Y-7536484D01*
X4089110Y-7536484D02*
X4070062Y-7536484D01*
X4070062Y-7536484D02*
X4051015Y-7526960D01*
X4051015Y-7526960D02*
X4041491Y-7517436D01*
X4041491Y-7517436D02*
X4031967Y-7498388D01*
X4031967Y-7498388D02*
X4022443Y-7460293D01*
X4022443Y-7460293D02*
X4022443Y-7412674D01*
X4022443Y-7412674D02*
X4031967Y-7374579D01*
X4031967Y-7374579D02*
X4041491Y-7355531D01*
X4041491Y-7355531D02*
X4051015Y-7346008D01*
X4051015Y-7346008D02*
X4070062Y-7336484D01*
X4260539Y-7336484D02*
X4279586Y-7336484D01*
X4279586Y-7336484D02*
X4298634Y-7346008D01*
X4298634Y-7346008D02*
X4308158Y-7355531D01*
X4308158Y-7355531D02*
X4317682Y-7374579D01*
X4317682Y-7374579D02*
X4327205Y-7412674D01*
X4327205Y-7412674D02*
X4327205Y-7460293D01*
X4327205Y-7460293D02*
X4317682Y-7498388D01*
X4317682Y-7498388D02*
X4308158Y-7517436D01*
X4308158Y-7517436D02*
X4298634Y-7526960D01*
X4298634Y-7526960D02*
X4279586Y-7536484D01*
X4279586Y-7536484D02*
X4260539Y-7536484D01*
X4260539Y-7536484D02*
X4241491Y-7526960D01*
X4241491Y-7526960D02*
X4231967Y-7517436D01*
X4231967Y-7517436D02*
X4222444Y-7498388D01*
X4222444Y-7498388D02*
X4212920Y-7460293D01*
X4212920Y-7460293D02*
X4212920Y-7412674D01*
X4212920Y-7412674D02*
X4222444Y-7374579D01*
X4222444Y-7374579D02*
X4231967Y-7355531D01*
X4231967Y-7355531D02*
X4241491Y-7346008D01*
X4241491Y-7346008D02*
X4260539Y-7336484D01*
X4412920Y-7536484D02*
X4412920Y-7403150D01*
X4412920Y-7422198D02*
X4422444Y-7412674D01*
X4422444Y-7412674D02*
X4441491Y-7403150D01*
X4441491Y-7403150D02*
X4470063Y-7403150D01*
X4470063Y-7403150D02*
X4489110Y-7412674D01*
X4489110Y-7412674D02*
X4498634Y-7431722D01*
X4498634Y-7431722D02*
X4498634Y-7536484D01*
X4498634Y-7431722D02*
X4508158Y-7412674D01*
X4508158Y-7412674D02*
X4527205Y-7403150D01*
X4527205Y-7403150D02*
X4555777Y-7403150D01*
X4555777Y-7403150D02*
X4574825Y-7412674D01*
X4574825Y-7412674D02*
X4584348Y-7431722D01*
X4584348Y-7431722D02*
X4584348Y-7536484D01*
X4679586Y-7536484D02*
X4679586Y-7403150D01*
X4679586Y-7422198D02*
X4689110Y-7412674D01*
X4689110Y-7412674D02*
X4708158Y-7403150D01*
X4708158Y-7403150D02*
X4736729Y-7403150D01*
X4736729Y-7403150D02*
X4755777Y-7412674D01*
X4755777Y-7412674D02*
X4765301Y-7431722D01*
X4765301Y-7431722D02*
X4765301Y-7536484D01*
X4765301Y-7431722D02*
X4774825Y-7412674D01*
X4774825Y-7412674D02*
X4793872Y-7403150D01*
X4793872Y-7403150D02*
X4822444Y-7403150D01*
X4822444Y-7403150D02*
X4841491Y-7412674D01*
X4841491Y-7412674D02*
X4851015Y-7431722D01*
X4851015Y-7431722D02*
X4851015Y-7536484D01*
X5241491Y-7326960D02*
X5070063Y-7584103D01*
X5498634Y-7336484D02*
X5517682Y-7336484D01*
X5517682Y-7336484D02*
X5536729Y-7346008D01*
X5536729Y-7346008D02*
X5546253Y-7355531D01*
X5546253Y-7355531D02*
X5555777Y-7374579D01*
X5555777Y-7374579D02*
X5565301Y-7412674D01*
X5565301Y-7412674D02*
X5565301Y-7460293D01*
X5565301Y-7460293D02*
X5555777Y-7498388D01*
X5555777Y-7498388D02*
X5546253Y-7517436D01*
X5546253Y-7517436D02*
X5536729Y-7526960D01*
X5536729Y-7526960D02*
X5517682Y-7536484D01*
X5517682Y-7536484D02*
X5498634Y-7536484D01*
X5498634Y-7536484D02*
X5479587Y-7526960D01*
X5479587Y-7526960D02*
X5470063Y-7517436D01*
X5470063Y-7517436D02*
X5460539Y-7498388D01*
X5460539Y-7498388D02*
X5451015Y-7460293D01*
X5451015Y-7460293D02*
X5451015Y-7412674D01*
X5451015Y-7412674D02*
X5460539Y-7374579D01*
X5460539Y-7374579D02*
X5470063Y-7355531D01*
X5470063Y-7355531D02*
X5479587Y-7346008D01*
X5479587Y-7346008D02*
X5498634Y-7336484D01*
X5651015Y-7517436D02*
X5660539Y-7526960D01*
X5660539Y-7526960D02*
X5651015Y-7536484D01*
X5651015Y-7536484D02*
X5641491Y-7526960D01*
X5641491Y-7526960D02*
X5651015Y-7517436D01*
X5651015Y-7517436D02*
X5651015Y-7536484D01*
X5784348Y-7336484D02*
X5803396Y-7336484D01*
X5803396Y-7336484D02*
X5822444Y-7346008D01*
X5822444Y-7346008D02*
X5831967Y-7355531D01*
X5831967Y-7355531D02*
X5841491Y-7374579D01*
X5841491Y-7374579D02*
X5851015Y-7412674D01*
X5851015Y-7412674D02*
X5851015Y-7460293D01*
X5851015Y-7460293D02*
X5841491Y-7498388D01*
X5841491Y-7498388D02*
X5831967Y-7517436D01*
X5831967Y-7517436D02*
X5822444Y-7526960D01*
X5822444Y-7526960D02*
X5803396Y-7536484D01*
X5803396Y-7536484D02*
X5784348Y-7536484D01*
X5784348Y-7536484D02*
X5765301Y-7526960D01*
X5765301Y-7526960D02*
X5755777Y-7517436D01*
X5755777Y-7517436D02*
X5746253Y-7498388D01*
X5746253Y-7498388D02*
X5736729Y-7460293D01*
X5736729Y-7460293D02*
X5736729Y-7412674D01*
X5736729Y-7412674D02*
X5746253Y-7374579D01*
X5746253Y-7374579D02*
X5755777Y-7355531D01*
X5755777Y-7355531D02*
X5765301Y-7346008D01*
X5765301Y-7346008D02*
X5784348Y-7336484D01*
X5917682Y-7336484D02*
X6041491Y-7336484D01*
X6041491Y-7336484D02*
X5974825Y-7412674D01*
X5974825Y-7412674D02*
X6003396Y-7412674D01*
X6003396Y-7412674D02*
X6022444Y-7422198D01*
X6022444Y-7422198D02*
X6031967Y-7431722D01*
X6031967Y-7431722D02*
X6041491Y-7450769D01*
X6041491Y-7450769D02*
X6041491Y-7498388D01*
X6041491Y-7498388D02*
X6031967Y-7517436D01*
X6031967Y-7517436D02*
X6022444Y-7526960D01*
X6022444Y-7526960D02*
X6003396Y-7536484D01*
X6003396Y-7536484D02*
X5946253Y-7536484D01*
X5946253Y-7536484D02*
X5927206Y-7526960D01*
X5927206Y-7526960D02*
X5917682Y-7517436D01*
X6136729Y-7536484D02*
X6174825Y-7536484D01*
X6174825Y-7536484D02*
X6193872Y-7526960D01*
X6193872Y-7526960D02*
X6203396Y-7517436D01*
X6203396Y-7517436D02*
X6222444Y-7488865D01*
X6222444Y-7488865D02*
X6231967Y-7450769D01*
X6231967Y-7450769D02*
X6231967Y-7374579D01*
X6231967Y-7374579D02*
X6222444Y-7355531D01*
X6222444Y-7355531D02*
X6212920Y-7346008D01*
X6212920Y-7346008D02*
X6193872Y-7336484D01*
X6193872Y-7336484D02*
X6155777Y-7336484D01*
X6155777Y-7336484D02*
X6136729Y-7346008D01*
X6136729Y-7346008D02*
X6127206Y-7355531D01*
X6127206Y-7355531D02*
X6117682Y-7374579D01*
X6117682Y-7374579D02*
X6117682Y-7422198D01*
X6117682Y-7422198D02*
X6127206Y-7441246D01*
X6127206Y-7441246D02*
X6136729Y-7450769D01*
X6136729Y-7450769D02*
X6155777Y-7460293D01*
X6155777Y-7460293D02*
X6193872Y-7460293D01*
X6193872Y-7460293D02*
X6212920Y-7450769D01*
X6212920Y-7450769D02*
X6222444Y-7441246D01*
X6222444Y-7441246D02*
X6231967Y-7422198D01*
X6403396Y-7403150D02*
X6403396Y-7536484D01*
X6355777Y-7326960D02*
X6308158Y-7469817D01*
X6308158Y-7469817D02*
X6431967Y-7469817D01*
X6498634Y-7336484D02*
X6498634Y-7374579D01*
X6574825Y-7336484D02*
X6574825Y-7374579D01*
X6870063Y-7612674D02*
X6860539Y-7603150D01*
X6860539Y-7603150D02*
X6841491Y-7574579D01*
X6841491Y-7574579D02*
X6831968Y-7555531D01*
X6831968Y-7555531D02*
X6822444Y-7526960D01*
X6822444Y-7526960D02*
X6812920Y-7479341D01*
X6812920Y-7479341D02*
X6812920Y-7441246D01*
X6812920Y-7441246D02*
X6822444Y-7393627D01*
X6822444Y-7393627D02*
X6831968Y-7365055D01*
X6831968Y-7365055D02*
X6841491Y-7346008D01*
X6841491Y-7346008D02*
X6860539Y-7317436D01*
X6860539Y-7317436D02*
X6870063Y-7307912D01*
X7031968Y-7403150D02*
X7031968Y-7536484D01*
X6984348Y-7326960D02*
X6936729Y-7469817D01*
X6936729Y-7469817D02*
X7060539Y-7469817D01*
X7222444Y-7336484D02*
X7184348Y-7336484D01*
X7184348Y-7336484D02*
X7165301Y-7346008D01*
X7165301Y-7346008D02*
X7155777Y-7355531D01*
X7155777Y-7355531D02*
X7136729Y-7384103D01*
X7136729Y-7384103D02*
X7127206Y-7422198D01*
X7127206Y-7422198D02*
X7127206Y-7498388D01*
X7127206Y-7498388D02*
X7136729Y-7517436D01*
X7136729Y-7517436D02*
X7146253Y-7526960D01*
X7146253Y-7526960D02*
X7165301Y-7536484D01*
X7165301Y-7536484D02*
X7203396Y-7536484D01*
X7203396Y-7536484D02*
X7222444Y-7526960D01*
X7222444Y-7526960D02*
X7231968Y-7517436D01*
X7231968Y-7517436D02*
X7241491Y-7498388D01*
X7241491Y-7498388D02*
X7241491Y-7450769D01*
X7241491Y-7450769D02*
X7231968Y-7431722D01*
X7231968Y-7431722D02*
X7222444Y-7422198D01*
X7222444Y-7422198D02*
X7203396Y-7412674D01*
X7203396Y-7412674D02*
X7165301Y-7412674D01*
X7165301Y-7412674D02*
X7146253Y-7422198D01*
X7146253Y-7422198D02*
X7136729Y-7431722D01*
X7136729Y-7431722D02*
X7127206Y-7450769D01*
X7479587Y-7536484D02*
X7479587Y-7336484D01*
X7565301Y-7536484D02*
X7565301Y-7431722D01*
X7565301Y-7431722D02*
X7555777Y-7412674D01*
X7555777Y-7412674D02*
X7536730Y-7403150D01*
X7536730Y-7403150D02*
X7508158Y-7403150D01*
X7508158Y-7403150D02*
X7489110Y-7412674D01*
X7489110Y-7412674D02*
X7479587Y-7422198D01*
X7689110Y-7536484D02*
X7670063Y-7526960D01*
X7670063Y-7526960D02*
X7660539Y-7517436D01*
X7660539Y-7517436D02*
X7651015Y-7498388D01*
X7651015Y-7498388D02*
X7651015Y-7441246D01*
X7651015Y-7441246D02*
X7660539Y-7422198D01*
X7660539Y-7422198D02*
X7670063Y-7412674D01*
X7670063Y-7412674D02*
X7689110Y-7403150D01*
X7689110Y-7403150D02*
X7717682Y-7403150D01*
X7717682Y-7403150D02*
X7736730Y-7412674D01*
X7736730Y-7412674D02*
X7746253Y-7422198D01*
X7746253Y-7422198D02*
X7755777Y-7441246D01*
X7755777Y-7441246D02*
X7755777Y-7498388D01*
X7755777Y-7498388D02*
X7746253Y-7517436D01*
X7746253Y-7517436D02*
X7736730Y-7526960D01*
X7736730Y-7526960D02*
X7717682Y-7536484D01*
X7717682Y-7536484D02*
X7689110Y-7536484D01*
X7870063Y-7536484D02*
X7851015Y-7526960D01*
X7851015Y-7526960D02*
X7841491Y-7507912D01*
X7841491Y-7507912D02*
X7841491Y-7336484D01*
X8022444Y-7526960D02*
X8003396Y-7536484D01*
X8003396Y-7536484D02*
X7965301Y-7536484D01*
X7965301Y-7536484D02*
X7946253Y-7526960D01*
X7946253Y-7526960D02*
X7936730Y-7507912D01*
X7936730Y-7507912D02*
X7936730Y-7431722D01*
X7936730Y-7431722D02*
X7946253Y-7412674D01*
X7946253Y-7412674D02*
X7965301Y-7403150D01*
X7965301Y-7403150D02*
X8003396Y-7403150D01*
X8003396Y-7403150D02*
X8022444Y-7412674D01*
X8022444Y-7412674D02*
X8031968Y-7431722D01*
X8031968Y-7431722D02*
X8031968Y-7450769D01*
X8031968Y-7450769D02*
X7936730Y-7469817D01*
X8108158Y-7526960D02*
X8127206Y-7536484D01*
X8127206Y-7536484D02*
X8165301Y-7536484D01*
X8165301Y-7536484D02*
X8184349Y-7526960D01*
X8184349Y-7526960D02*
X8193872Y-7507912D01*
X8193872Y-7507912D02*
X8193872Y-7498388D01*
X8193872Y-7498388D02*
X8184349Y-7479341D01*
X8184349Y-7479341D02*
X8165301Y-7469817D01*
X8165301Y-7469817D02*
X8136730Y-7469817D01*
X8136730Y-7469817D02*
X8117682Y-7460293D01*
X8117682Y-7460293D02*
X8108158Y-7441246D01*
X8108158Y-7441246D02*
X8108158Y-7431722D01*
X8108158Y-7431722D02*
X8117682Y-7412674D01*
X8117682Y-7412674D02*
X8136730Y-7403150D01*
X8136730Y-7403150D02*
X8165301Y-7403150D01*
X8165301Y-7403150D02*
X8184349Y-7412674D01*
X8260539Y-7612674D02*
X8270063Y-7603150D01*
X8270063Y-7603150D02*
X8289111Y-7574579D01*
X8289111Y-7574579D02*
X8298634Y-7555531D01*
X8298634Y-7555531D02*
X8308158Y-7526960D01*
X8308158Y-7526960D02*
X8317682Y-7479341D01*
X8317682Y-7479341D02*
X8317682Y-7441246D01*
X8317682Y-7441246D02*
X8308158Y-7393627D01*
X8308158Y-7393627D02*
X8298634Y-7365055D01*
X8298634Y-7365055D02*
X8289111Y-7346008D01*
X8289111Y-7346008D02*
X8270063Y-7317436D01*
X8270063Y-7317436D02*
X8260539Y-7307912D01*
M02*
