G04 #@! TF.GenerationSoftware,KiCad,Pcbnew,7.0.5*
G04 #@! TF.CreationDate,2023-07-11T17:47:05+06:00*
G04 #@! TF.ProjectId,Meteo_braslet,4d657465-6f5f-4627-9261-736c65742e6b,rev?*
G04 #@! TF.SameCoordinates,Original*
G04 #@! TF.FileFunction,Legend,Top*
G04 #@! TF.FilePolarity,Positive*
%FSLAX46Y46*%
G04 Gerber Fmt 4.6, Leading zero omitted, Abs format (unit mm)*
G04 Created by KiCad (PCBNEW 7.0.5) date 2023-07-11 17:47:05*
%MOMM*%
%LPD*%
G01*
G04 APERTURE LIST*
%ADD10C,0.300000*%
%ADD11C,0.150000*%
%ADD12C,0.120000*%
%ADD13C,2.500000*%
%ADD14R,1.700000X1.700000*%
%ADD15O,1.700000X1.700000*%
%ADD16R,1.600000X1.600000*%
%ADD17O,1.600000X1.600000*%
G04 APERTURE END LIST*
D10*
X134554510Y-65800828D02*
X134554510Y-64300828D01*
X134554510Y-64300828D02*
X135125939Y-64300828D01*
X135125939Y-64300828D02*
X135268796Y-64372257D01*
X135268796Y-64372257D02*
X135340225Y-64443685D01*
X135340225Y-64443685D02*
X135411653Y-64586542D01*
X135411653Y-64586542D02*
X135411653Y-64800828D01*
X135411653Y-64800828D02*
X135340225Y-64943685D01*
X135340225Y-64943685D02*
X135268796Y-65015114D01*
X135268796Y-65015114D02*
X135125939Y-65086542D01*
X135125939Y-65086542D02*
X134554510Y-65086542D01*
X136340225Y-64300828D02*
X136625939Y-64300828D01*
X136625939Y-64300828D02*
X136768796Y-64372257D01*
X136768796Y-64372257D02*
X136911653Y-64515114D01*
X136911653Y-64515114D02*
X136983082Y-64800828D01*
X136983082Y-64800828D02*
X136983082Y-65300828D01*
X136983082Y-65300828D02*
X136911653Y-65586542D01*
X136911653Y-65586542D02*
X136768796Y-65729400D01*
X136768796Y-65729400D02*
X136625939Y-65800828D01*
X136625939Y-65800828D02*
X136340225Y-65800828D01*
X136340225Y-65800828D02*
X136197368Y-65729400D01*
X136197368Y-65729400D02*
X136054510Y-65586542D01*
X136054510Y-65586542D02*
X135983082Y-65300828D01*
X135983082Y-65300828D02*
X135983082Y-64800828D01*
X135983082Y-64800828D02*
X136054510Y-64515114D01*
X136054510Y-64515114D02*
X136197368Y-64372257D01*
X136197368Y-64372257D02*
X136340225Y-64300828D01*
X137483082Y-64300828D02*
X137840225Y-65800828D01*
X137840225Y-65800828D02*
X138125939Y-64729400D01*
X138125939Y-64729400D02*
X138411654Y-65800828D01*
X138411654Y-65800828D02*
X138768797Y-64300828D01*
X139340225Y-65015114D02*
X139840225Y-65015114D01*
X140054511Y-65800828D02*
X139340225Y-65800828D01*
X139340225Y-65800828D02*
X139340225Y-64300828D01*
X139340225Y-64300828D02*
X140054511Y-64300828D01*
X141554511Y-65800828D02*
X141054511Y-65086542D01*
X140697368Y-65800828D02*
X140697368Y-64300828D01*
X140697368Y-64300828D02*
X141268797Y-64300828D01*
X141268797Y-64300828D02*
X141411654Y-64372257D01*
X141411654Y-64372257D02*
X141483083Y-64443685D01*
X141483083Y-64443685D02*
X141554511Y-64586542D01*
X141554511Y-64586542D02*
X141554511Y-64800828D01*
X141554511Y-64800828D02*
X141483083Y-64943685D01*
X141483083Y-64943685D02*
X141411654Y-65015114D01*
X141411654Y-65015114D02*
X141268797Y-65086542D01*
X141268797Y-65086542D02*
X140697368Y-65086542D01*
X142197368Y-65015114D02*
X142697368Y-65015114D01*
X142911654Y-65800828D02*
X142197368Y-65800828D01*
X142197368Y-65800828D02*
X142197368Y-64300828D01*
X142197368Y-64300828D02*
X142911654Y-64300828D01*
X143554511Y-65800828D02*
X143554511Y-64300828D01*
X143554511Y-64300828D02*
X143911654Y-64300828D01*
X143911654Y-64300828D02*
X144125940Y-64372257D01*
X144125940Y-64372257D02*
X144268797Y-64515114D01*
X144268797Y-64515114D02*
X144340226Y-64657971D01*
X144340226Y-64657971D02*
X144411654Y-64943685D01*
X144411654Y-64943685D02*
X144411654Y-65157971D01*
X144411654Y-65157971D02*
X144340226Y-65443685D01*
X144340226Y-65443685D02*
X144268797Y-65586542D01*
X144268797Y-65586542D02*
X144125940Y-65729400D01*
X144125940Y-65729400D02*
X143911654Y-65800828D01*
X143911654Y-65800828D02*
X143554511Y-65800828D01*
X146697368Y-65015114D02*
X146911654Y-65086542D01*
X146911654Y-65086542D02*
X146983083Y-65157971D01*
X146983083Y-65157971D02*
X147054511Y-65300828D01*
X147054511Y-65300828D02*
X147054511Y-65515114D01*
X147054511Y-65515114D02*
X146983083Y-65657971D01*
X146983083Y-65657971D02*
X146911654Y-65729400D01*
X146911654Y-65729400D02*
X146768797Y-65800828D01*
X146768797Y-65800828D02*
X146197368Y-65800828D01*
X146197368Y-65800828D02*
X146197368Y-64300828D01*
X146197368Y-64300828D02*
X146697368Y-64300828D01*
X146697368Y-64300828D02*
X146840226Y-64372257D01*
X146840226Y-64372257D02*
X146911654Y-64443685D01*
X146911654Y-64443685D02*
X146983083Y-64586542D01*
X146983083Y-64586542D02*
X146983083Y-64729400D01*
X146983083Y-64729400D02*
X146911654Y-64872257D01*
X146911654Y-64872257D02*
X146840226Y-64943685D01*
X146840226Y-64943685D02*
X146697368Y-65015114D01*
X146697368Y-65015114D02*
X146197368Y-65015114D01*
X147983083Y-65086542D02*
X147983083Y-65800828D01*
X147483083Y-64300828D02*
X147983083Y-65086542D01*
X147983083Y-65086542D02*
X148483083Y-64300828D01*
X150125939Y-65800828D02*
X150125939Y-64300828D01*
X150125939Y-64300828D02*
X150483082Y-64300828D01*
X150483082Y-64300828D02*
X150697368Y-64372257D01*
X150697368Y-64372257D02*
X150840225Y-64515114D01*
X150840225Y-64515114D02*
X150911654Y-64657971D01*
X150911654Y-64657971D02*
X150983082Y-64943685D01*
X150983082Y-64943685D02*
X150983082Y-65157971D01*
X150983082Y-65157971D02*
X150911654Y-65443685D01*
X150911654Y-65443685D02*
X150840225Y-65586542D01*
X150840225Y-65586542D02*
X150697368Y-65729400D01*
X150697368Y-65729400D02*
X150483082Y-65800828D01*
X150483082Y-65800828D02*
X150125939Y-65800828D01*
X151911654Y-64300828D02*
X152197368Y-64300828D01*
X152197368Y-64300828D02*
X152340225Y-64372257D01*
X152340225Y-64372257D02*
X152483082Y-64515114D01*
X152483082Y-64515114D02*
X152554511Y-64800828D01*
X152554511Y-64800828D02*
X152554511Y-65300828D01*
X152554511Y-65300828D02*
X152483082Y-65586542D01*
X152483082Y-65586542D02*
X152340225Y-65729400D01*
X152340225Y-65729400D02*
X152197368Y-65800828D01*
X152197368Y-65800828D02*
X151911654Y-65800828D01*
X151911654Y-65800828D02*
X151768797Y-65729400D01*
X151768797Y-65729400D02*
X151625939Y-65586542D01*
X151625939Y-65586542D02*
X151554511Y-65300828D01*
X151554511Y-65300828D02*
X151554511Y-64800828D01*
X151554511Y-64800828D02*
X151625939Y-64515114D01*
X151625939Y-64515114D02*
X151768797Y-64372257D01*
X151768797Y-64372257D02*
X151911654Y-64300828D01*
X153125940Y-65729400D02*
X153340226Y-65800828D01*
X153340226Y-65800828D02*
X153697368Y-65800828D01*
X153697368Y-65800828D02*
X153840226Y-65729400D01*
X153840226Y-65729400D02*
X153911654Y-65657971D01*
X153911654Y-65657971D02*
X153983083Y-65515114D01*
X153983083Y-65515114D02*
X153983083Y-65372257D01*
X153983083Y-65372257D02*
X153911654Y-65229400D01*
X153911654Y-65229400D02*
X153840226Y-65157971D01*
X153840226Y-65157971D02*
X153697368Y-65086542D01*
X153697368Y-65086542D02*
X153411654Y-65015114D01*
X153411654Y-65015114D02*
X153268797Y-64943685D01*
X153268797Y-64943685D02*
X153197368Y-64872257D01*
X153197368Y-64872257D02*
X153125940Y-64729400D01*
X153125940Y-64729400D02*
X153125940Y-64586542D01*
X153125940Y-64586542D02*
X153197368Y-64443685D01*
X153197368Y-64443685D02*
X153268797Y-64372257D01*
X153268797Y-64372257D02*
X153411654Y-64300828D01*
X153411654Y-64300828D02*
X153768797Y-64300828D01*
X153768797Y-64300828D02*
X153983083Y-64372257D01*
X154625939Y-65800828D02*
X154625939Y-64300828D01*
X154625939Y-65015114D02*
X155483082Y-65015114D01*
X155483082Y-65800828D02*
X155483082Y-64300828D01*
X156125940Y-65372257D02*
X156840226Y-65372257D01*
X155983083Y-65800828D02*
X156483083Y-64300828D01*
X156483083Y-64300828D02*
X156983083Y-65800828D01*
X157483082Y-65800828D02*
X157483082Y-64300828D01*
X157483082Y-64300828D02*
X158340225Y-65800828D01*
X158340225Y-65800828D02*
X158340225Y-64300828D01*
X59516919Y-49385828D02*
X59516919Y-47885828D01*
X59516919Y-47885828D02*
X59874062Y-47885828D01*
X59874062Y-47885828D02*
X60088348Y-47957257D01*
X60088348Y-47957257D02*
X60231205Y-48100114D01*
X60231205Y-48100114D02*
X60302634Y-48242971D01*
X60302634Y-48242971D02*
X60374062Y-48528685D01*
X60374062Y-48528685D02*
X60374062Y-48742971D01*
X60374062Y-48742971D02*
X60302634Y-49028685D01*
X60302634Y-49028685D02*
X60231205Y-49171542D01*
X60231205Y-49171542D02*
X60088348Y-49314400D01*
X60088348Y-49314400D02*
X59874062Y-49385828D01*
X59874062Y-49385828D02*
X59516919Y-49385828D01*
X60945491Y-49314400D02*
X61159777Y-49385828D01*
X61159777Y-49385828D02*
X61516919Y-49385828D01*
X61516919Y-49385828D02*
X61659777Y-49314400D01*
X61659777Y-49314400D02*
X61731205Y-49242971D01*
X61731205Y-49242971D02*
X61802634Y-49100114D01*
X61802634Y-49100114D02*
X61802634Y-48957257D01*
X61802634Y-48957257D02*
X61731205Y-48814400D01*
X61731205Y-48814400D02*
X61659777Y-48742971D01*
X61659777Y-48742971D02*
X61516919Y-48671542D01*
X61516919Y-48671542D02*
X61231205Y-48600114D01*
X61231205Y-48600114D02*
X61088348Y-48528685D01*
X61088348Y-48528685D02*
X61016919Y-48457257D01*
X61016919Y-48457257D02*
X60945491Y-48314400D01*
X60945491Y-48314400D02*
X60945491Y-48171542D01*
X60945491Y-48171542D02*
X61016919Y-48028685D01*
X61016919Y-48028685D02*
X61088348Y-47957257D01*
X61088348Y-47957257D02*
X61231205Y-47885828D01*
X61231205Y-47885828D02*
X61588348Y-47885828D01*
X61588348Y-47885828D02*
X61802634Y-47957257D01*
X62302633Y-47885828D02*
X63231205Y-47885828D01*
X63231205Y-47885828D02*
X62731205Y-48457257D01*
X62731205Y-48457257D02*
X62945490Y-48457257D01*
X62945490Y-48457257D02*
X63088348Y-48528685D01*
X63088348Y-48528685D02*
X63159776Y-48600114D01*
X63159776Y-48600114D02*
X63231205Y-48742971D01*
X63231205Y-48742971D02*
X63231205Y-49100114D01*
X63231205Y-49100114D02*
X63159776Y-49242971D01*
X63159776Y-49242971D02*
X63088348Y-49314400D01*
X63088348Y-49314400D02*
X62945490Y-49385828D01*
X62945490Y-49385828D02*
X62516919Y-49385828D01*
X62516919Y-49385828D02*
X62374062Y-49314400D01*
X62374062Y-49314400D02*
X62302633Y-49242971D01*
X63802633Y-48028685D02*
X63874061Y-47957257D01*
X63874061Y-47957257D02*
X64016919Y-47885828D01*
X64016919Y-47885828D02*
X64374061Y-47885828D01*
X64374061Y-47885828D02*
X64516919Y-47957257D01*
X64516919Y-47957257D02*
X64588347Y-48028685D01*
X64588347Y-48028685D02*
X64659776Y-48171542D01*
X64659776Y-48171542D02*
X64659776Y-48314400D01*
X64659776Y-48314400D02*
X64588347Y-48528685D01*
X64588347Y-48528685D02*
X63731204Y-49385828D01*
X63731204Y-49385828D02*
X64659776Y-49385828D01*
X65159775Y-47885828D02*
X66088347Y-47885828D01*
X66088347Y-47885828D02*
X65588347Y-48457257D01*
X65588347Y-48457257D02*
X65802632Y-48457257D01*
X65802632Y-48457257D02*
X65945490Y-48528685D01*
X65945490Y-48528685D02*
X66016918Y-48600114D01*
X66016918Y-48600114D02*
X66088347Y-48742971D01*
X66088347Y-48742971D02*
X66088347Y-49100114D01*
X66088347Y-49100114D02*
X66016918Y-49242971D01*
X66016918Y-49242971D02*
X65945490Y-49314400D01*
X65945490Y-49314400D02*
X65802632Y-49385828D01*
X65802632Y-49385828D02*
X65374061Y-49385828D01*
X65374061Y-49385828D02*
X65231204Y-49314400D01*
X65231204Y-49314400D02*
X65159775Y-49242971D01*
X67516918Y-49385828D02*
X66659775Y-49385828D01*
X67088346Y-49385828D02*
X67088346Y-47885828D01*
X67088346Y-47885828D02*
X66945489Y-48100114D01*
X66945489Y-48100114D02*
X66802632Y-48242971D01*
X66802632Y-48242971D02*
X66659775Y-48314400D01*
X51016918Y-51800828D02*
X50516918Y-51086542D01*
X50159775Y-51800828D02*
X50159775Y-50300828D01*
X50159775Y-50300828D02*
X50731204Y-50300828D01*
X50731204Y-50300828D02*
X50874061Y-50372257D01*
X50874061Y-50372257D02*
X50945490Y-50443685D01*
X50945490Y-50443685D02*
X51016918Y-50586542D01*
X51016918Y-50586542D02*
X51016918Y-50800828D01*
X51016918Y-50800828D02*
X50945490Y-50943685D01*
X50945490Y-50943685D02*
X50874061Y-51015114D01*
X50874061Y-51015114D02*
X50731204Y-51086542D01*
X50731204Y-51086542D02*
X50159775Y-51086542D01*
X52231204Y-51729400D02*
X52088347Y-51800828D01*
X52088347Y-51800828D02*
X51802633Y-51800828D01*
X51802633Y-51800828D02*
X51659775Y-51729400D01*
X51659775Y-51729400D02*
X51588347Y-51586542D01*
X51588347Y-51586542D02*
X51588347Y-51015114D01*
X51588347Y-51015114D02*
X51659775Y-50872257D01*
X51659775Y-50872257D02*
X51802633Y-50800828D01*
X51802633Y-50800828D02*
X52088347Y-50800828D01*
X52088347Y-50800828D02*
X52231204Y-50872257D01*
X52231204Y-50872257D02*
X52302633Y-51015114D01*
X52302633Y-51015114D02*
X52302633Y-51157971D01*
X52302633Y-51157971D02*
X51588347Y-51300828D01*
X53588347Y-51800828D02*
X53588347Y-51015114D01*
X53588347Y-51015114D02*
X53516918Y-50872257D01*
X53516918Y-50872257D02*
X53374061Y-50800828D01*
X53374061Y-50800828D02*
X53088347Y-50800828D01*
X53088347Y-50800828D02*
X52945489Y-50872257D01*
X53588347Y-51729400D02*
X53445489Y-51800828D01*
X53445489Y-51800828D02*
X53088347Y-51800828D01*
X53088347Y-51800828D02*
X52945489Y-51729400D01*
X52945489Y-51729400D02*
X52874061Y-51586542D01*
X52874061Y-51586542D02*
X52874061Y-51443685D01*
X52874061Y-51443685D02*
X52945489Y-51300828D01*
X52945489Y-51300828D02*
X53088347Y-51229400D01*
X53088347Y-51229400D02*
X53445489Y-51229400D01*
X53445489Y-51229400D02*
X53588347Y-51157971D01*
X54516918Y-51800828D02*
X54374061Y-51729400D01*
X54374061Y-51729400D02*
X54302632Y-51586542D01*
X54302632Y-51586542D02*
X54302632Y-50300828D01*
X56016918Y-50800828D02*
X56588346Y-50800828D01*
X56231203Y-50300828D02*
X56231203Y-51586542D01*
X56231203Y-51586542D02*
X56302632Y-51729400D01*
X56302632Y-51729400D02*
X56445489Y-51800828D01*
X56445489Y-51800828D02*
X56588346Y-51800828D01*
X57088346Y-51800828D02*
X57088346Y-50800828D01*
X57088346Y-50300828D02*
X57016918Y-50372257D01*
X57016918Y-50372257D02*
X57088346Y-50443685D01*
X57088346Y-50443685D02*
X57159775Y-50372257D01*
X57159775Y-50372257D02*
X57088346Y-50300828D01*
X57088346Y-50300828D02*
X57088346Y-50443685D01*
X57802632Y-51800828D02*
X57802632Y-50800828D01*
X57802632Y-50943685D02*
X57874061Y-50872257D01*
X57874061Y-50872257D02*
X58016918Y-50800828D01*
X58016918Y-50800828D02*
X58231204Y-50800828D01*
X58231204Y-50800828D02*
X58374061Y-50872257D01*
X58374061Y-50872257D02*
X58445490Y-51015114D01*
X58445490Y-51015114D02*
X58445490Y-51800828D01*
X58445490Y-51015114D02*
X58516918Y-50872257D01*
X58516918Y-50872257D02*
X58659775Y-50800828D01*
X58659775Y-50800828D02*
X58874061Y-50800828D01*
X58874061Y-50800828D02*
X59016918Y-50872257D01*
X59016918Y-50872257D02*
X59088347Y-51015114D01*
X59088347Y-51015114D02*
X59088347Y-51800828D01*
X60374061Y-51729400D02*
X60231204Y-51800828D01*
X60231204Y-51800828D02*
X59945490Y-51800828D01*
X59945490Y-51800828D02*
X59802632Y-51729400D01*
X59802632Y-51729400D02*
X59731204Y-51586542D01*
X59731204Y-51586542D02*
X59731204Y-51015114D01*
X59731204Y-51015114D02*
X59802632Y-50872257D01*
X59802632Y-50872257D02*
X59945490Y-50800828D01*
X59945490Y-50800828D02*
X60231204Y-50800828D01*
X60231204Y-50800828D02*
X60374061Y-50872257D01*
X60374061Y-50872257D02*
X60445490Y-51015114D01*
X60445490Y-51015114D02*
X60445490Y-51157971D01*
X60445490Y-51157971D02*
X59731204Y-51300828D01*
X62874061Y-51729400D02*
X62731203Y-51800828D01*
X62731203Y-51800828D02*
X62445489Y-51800828D01*
X62445489Y-51800828D02*
X62302632Y-51729400D01*
X62302632Y-51729400D02*
X62231203Y-51657971D01*
X62231203Y-51657971D02*
X62159775Y-51515114D01*
X62159775Y-51515114D02*
X62159775Y-51086542D01*
X62159775Y-51086542D02*
X62231203Y-50943685D01*
X62231203Y-50943685D02*
X62302632Y-50872257D01*
X62302632Y-50872257D02*
X62445489Y-50800828D01*
X62445489Y-50800828D02*
X62731203Y-50800828D01*
X62731203Y-50800828D02*
X62874061Y-50872257D01*
X63731203Y-51800828D02*
X63588346Y-51729400D01*
X63588346Y-51729400D02*
X63516917Y-51586542D01*
X63516917Y-51586542D02*
X63516917Y-50300828D01*
X64516917Y-51800828D02*
X64374060Y-51729400D01*
X64374060Y-51729400D02*
X64302631Y-51657971D01*
X64302631Y-51657971D02*
X64231203Y-51515114D01*
X64231203Y-51515114D02*
X64231203Y-51086542D01*
X64231203Y-51086542D02*
X64302631Y-50943685D01*
X64302631Y-50943685D02*
X64374060Y-50872257D01*
X64374060Y-50872257D02*
X64516917Y-50800828D01*
X64516917Y-50800828D02*
X64731203Y-50800828D01*
X64731203Y-50800828D02*
X64874060Y-50872257D01*
X64874060Y-50872257D02*
X64945489Y-50943685D01*
X64945489Y-50943685D02*
X65016917Y-51086542D01*
X65016917Y-51086542D02*
X65016917Y-51515114D01*
X65016917Y-51515114D02*
X64945489Y-51657971D01*
X64945489Y-51657971D02*
X64874060Y-51729400D01*
X64874060Y-51729400D02*
X64731203Y-51800828D01*
X64731203Y-51800828D02*
X64516917Y-51800828D01*
X66302632Y-51729400D02*
X66159774Y-51800828D01*
X66159774Y-51800828D02*
X65874060Y-51800828D01*
X65874060Y-51800828D02*
X65731203Y-51729400D01*
X65731203Y-51729400D02*
X65659774Y-51657971D01*
X65659774Y-51657971D02*
X65588346Y-51515114D01*
X65588346Y-51515114D02*
X65588346Y-51086542D01*
X65588346Y-51086542D02*
X65659774Y-50943685D01*
X65659774Y-50943685D02*
X65731203Y-50872257D01*
X65731203Y-50872257D02*
X65874060Y-50800828D01*
X65874060Y-50800828D02*
X66159774Y-50800828D01*
X66159774Y-50800828D02*
X66302632Y-50872257D01*
X66945488Y-51800828D02*
X66945488Y-50300828D01*
X67088346Y-51229400D02*
X67516917Y-51800828D01*
X67516917Y-50800828D02*
X66945488Y-51372257D01*
X80054510Y-45015114D02*
X80268796Y-45086542D01*
X80268796Y-45086542D02*
X80340225Y-45157971D01*
X80340225Y-45157971D02*
X80411653Y-45300828D01*
X80411653Y-45300828D02*
X80411653Y-45515114D01*
X80411653Y-45515114D02*
X80340225Y-45657971D01*
X80340225Y-45657971D02*
X80268796Y-45729400D01*
X80268796Y-45729400D02*
X80125939Y-45800828D01*
X80125939Y-45800828D02*
X79554510Y-45800828D01*
X79554510Y-45800828D02*
X79554510Y-44300828D01*
X79554510Y-44300828D02*
X80054510Y-44300828D01*
X80054510Y-44300828D02*
X80197368Y-44372257D01*
X80197368Y-44372257D02*
X80268796Y-44443685D01*
X80268796Y-44443685D02*
X80340225Y-44586542D01*
X80340225Y-44586542D02*
X80340225Y-44729400D01*
X80340225Y-44729400D02*
X80268796Y-44872257D01*
X80268796Y-44872257D02*
X80197368Y-44943685D01*
X80197368Y-44943685D02*
X80054510Y-45015114D01*
X80054510Y-45015114D02*
X79554510Y-45015114D01*
X81054510Y-45800828D02*
X81054510Y-44300828D01*
X81054510Y-44300828D02*
X81554510Y-45372257D01*
X81554510Y-45372257D02*
X82054510Y-44300828D01*
X82054510Y-44300828D02*
X82054510Y-45800828D01*
X82768796Y-45015114D02*
X83268796Y-45015114D01*
X83483082Y-45800828D02*
X82768796Y-45800828D01*
X82768796Y-45800828D02*
X82768796Y-44300828D01*
X82768796Y-44300828D02*
X83483082Y-44300828D01*
X84054511Y-44443685D02*
X84125939Y-44372257D01*
X84125939Y-44372257D02*
X84268797Y-44300828D01*
X84268797Y-44300828D02*
X84625939Y-44300828D01*
X84625939Y-44300828D02*
X84768797Y-44372257D01*
X84768797Y-44372257D02*
X84840225Y-44443685D01*
X84840225Y-44443685D02*
X84911654Y-44586542D01*
X84911654Y-44586542D02*
X84911654Y-44729400D01*
X84911654Y-44729400D02*
X84840225Y-44943685D01*
X84840225Y-44943685D02*
X83983082Y-45800828D01*
X83983082Y-45800828D02*
X84911654Y-45800828D01*
X85768796Y-44943685D02*
X85625939Y-44872257D01*
X85625939Y-44872257D02*
X85554510Y-44800828D01*
X85554510Y-44800828D02*
X85483082Y-44657971D01*
X85483082Y-44657971D02*
X85483082Y-44586542D01*
X85483082Y-44586542D02*
X85554510Y-44443685D01*
X85554510Y-44443685D02*
X85625939Y-44372257D01*
X85625939Y-44372257D02*
X85768796Y-44300828D01*
X85768796Y-44300828D02*
X86054510Y-44300828D01*
X86054510Y-44300828D02*
X86197368Y-44372257D01*
X86197368Y-44372257D02*
X86268796Y-44443685D01*
X86268796Y-44443685D02*
X86340225Y-44586542D01*
X86340225Y-44586542D02*
X86340225Y-44657971D01*
X86340225Y-44657971D02*
X86268796Y-44800828D01*
X86268796Y-44800828D02*
X86197368Y-44872257D01*
X86197368Y-44872257D02*
X86054510Y-44943685D01*
X86054510Y-44943685D02*
X85768796Y-44943685D01*
X85768796Y-44943685D02*
X85625939Y-45015114D01*
X85625939Y-45015114D02*
X85554510Y-45086542D01*
X85554510Y-45086542D02*
X85483082Y-45229400D01*
X85483082Y-45229400D02*
X85483082Y-45515114D01*
X85483082Y-45515114D02*
X85554510Y-45657971D01*
X85554510Y-45657971D02*
X85625939Y-45729400D01*
X85625939Y-45729400D02*
X85768796Y-45800828D01*
X85768796Y-45800828D02*
X86054510Y-45800828D01*
X86054510Y-45800828D02*
X86197368Y-45729400D01*
X86197368Y-45729400D02*
X86268796Y-45657971D01*
X86268796Y-45657971D02*
X86340225Y-45515114D01*
X86340225Y-45515114D02*
X86340225Y-45229400D01*
X86340225Y-45229400D02*
X86268796Y-45086542D01*
X86268796Y-45086542D02*
X86197368Y-45015114D01*
X86197368Y-45015114D02*
X86054510Y-44943685D01*
X87268796Y-44300828D02*
X87411653Y-44300828D01*
X87411653Y-44300828D02*
X87554510Y-44372257D01*
X87554510Y-44372257D02*
X87625939Y-44443685D01*
X87625939Y-44443685D02*
X87697367Y-44586542D01*
X87697367Y-44586542D02*
X87768796Y-44872257D01*
X87768796Y-44872257D02*
X87768796Y-45229400D01*
X87768796Y-45229400D02*
X87697367Y-45515114D01*
X87697367Y-45515114D02*
X87625939Y-45657971D01*
X87625939Y-45657971D02*
X87554510Y-45729400D01*
X87554510Y-45729400D02*
X87411653Y-45800828D01*
X87411653Y-45800828D02*
X87268796Y-45800828D01*
X87268796Y-45800828D02*
X87125939Y-45729400D01*
X87125939Y-45729400D02*
X87054510Y-45657971D01*
X87054510Y-45657971D02*
X86983081Y-45515114D01*
X86983081Y-45515114D02*
X86911653Y-45229400D01*
X86911653Y-45229400D02*
X86911653Y-44872257D01*
X86911653Y-44872257D02*
X86983081Y-44586542D01*
X86983081Y-44586542D02*
X87054510Y-44443685D01*
X87054510Y-44443685D02*
X87125939Y-44372257D01*
X87125939Y-44372257D02*
X87268796Y-44300828D01*
X103483082Y-46314400D02*
X103625939Y-46385828D01*
X103625939Y-46385828D02*
X103911653Y-46385828D01*
X103911653Y-46385828D02*
X104054510Y-46314400D01*
X104054510Y-46314400D02*
X104125939Y-46171542D01*
X104125939Y-46171542D02*
X104125939Y-46100114D01*
X104125939Y-46100114D02*
X104054510Y-45957257D01*
X104054510Y-45957257D02*
X103911653Y-45885828D01*
X103911653Y-45885828D02*
X103697368Y-45885828D01*
X103697368Y-45885828D02*
X103554510Y-45814400D01*
X103554510Y-45814400D02*
X103483082Y-45671542D01*
X103483082Y-45671542D02*
X103483082Y-45600114D01*
X103483082Y-45600114D02*
X103554510Y-45457257D01*
X103554510Y-45457257D02*
X103697368Y-45385828D01*
X103697368Y-45385828D02*
X103911653Y-45385828D01*
X103911653Y-45385828D02*
X104054510Y-45457257D01*
X104697368Y-46314400D02*
X104840225Y-46385828D01*
X104840225Y-46385828D02*
X105125939Y-46385828D01*
X105125939Y-46385828D02*
X105268796Y-46314400D01*
X105268796Y-46314400D02*
X105340225Y-46171542D01*
X105340225Y-46171542D02*
X105340225Y-46100114D01*
X105340225Y-46100114D02*
X105268796Y-45957257D01*
X105268796Y-45957257D02*
X105125939Y-45885828D01*
X105125939Y-45885828D02*
X104911654Y-45885828D01*
X104911654Y-45885828D02*
X104768796Y-45814400D01*
X104768796Y-45814400D02*
X104697368Y-45671542D01*
X104697368Y-45671542D02*
X104697368Y-45600114D01*
X104697368Y-45600114D02*
X104768796Y-45457257D01*
X104768796Y-45457257D02*
X104911654Y-45385828D01*
X104911654Y-45385828D02*
X105125939Y-45385828D01*
X105125939Y-45385828D02*
X105268796Y-45457257D01*
X106625940Y-46385828D02*
X106625940Y-44885828D01*
X106625940Y-46314400D02*
X106483082Y-46385828D01*
X106483082Y-46385828D02*
X106197368Y-46385828D01*
X106197368Y-46385828D02*
X106054511Y-46314400D01*
X106054511Y-46314400D02*
X105983082Y-46242971D01*
X105983082Y-46242971D02*
X105911654Y-46100114D01*
X105911654Y-46100114D02*
X105911654Y-45671542D01*
X105911654Y-45671542D02*
X105983082Y-45528685D01*
X105983082Y-45528685D02*
X106054511Y-45457257D01*
X106054511Y-45457257D02*
X106197368Y-45385828D01*
X106197368Y-45385828D02*
X106483082Y-45385828D01*
X106483082Y-45385828D02*
X106625940Y-45457257D01*
X108125940Y-46385828D02*
X107268797Y-46385828D01*
X107697368Y-46385828D02*
X107697368Y-44885828D01*
X107697368Y-44885828D02*
X107554511Y-45100114D01*
X107554511Y-45100114D02*
X107411654Y-45242971D01*
X107411654Y-45242971D02*
X107268797Y-45314400D01*
X108625939Y-44885828D02*
X109554511Y-44885828D01*
X109554511Y-44885828D02*
X109054511Y-45457257D01*
X109054511Y-45457257D02*
X109268796Y-45457257D01*
X109268796Y-45457257D02*
X109411654Y-45528685D01*
X109411654Y-45528685D02*
X109483082Y-45600114D01*
X109483082Y-45600114D02*
X109554511Y-45742971D01*
X109554511Y-45742971D02*
X109554511Y-46100114D01*
X109554511Y-46100114D02*
X109483082Y-46242971D01*
X109483082Y-46242971D02*
X109411654Y-46314400D01*
X109411654Y-46314400D02*
X109268796Y-46385828D01*
X109268796Y-46385828D02*
X108840225Y-46385828D01*
X108840225Y-46385828D02*
X108697368Y-46314400D01*
X108697368Y-46314400D02*
X108625939Y-46242971D01*
X110483082Y-44885828D02*
X110625939Y-44885828D01*
X110625939Y-44885828D02*
X110768796Y-44957257D01*
X110768796Y-44957257D02*
X110840225Y-45028685D01*
X110840225Y-45028685D02*
X110911653Y-45171542D01*
X110911653Y-45171542D02*
X110983082Y-45457257D01*
X110983082Y-45457257D02*
X110983082Y-45814400D01*
X110983082Y-45814400D02*
X110911653Y-46100114D01*
X110911653Y-46100114D02*
X110840225Y-46242971D01*
X110840225Y-46242971D02*
X110768796Y-46314400D01*
X110768796Y-46314400D02*
X110625939Y-46385828D01*
X110625939Y-46385828D02*
X110483082Y-46385828D01*
X110483082Y-46385828D02*
X110340225Y-46314400D01*
X110340225Y-46314400D02*
X110268796Y-46242971D01*
X110268796Y-46242971D02*
X110197367Y-46100114D01*
X110197367Y-46100114D02*
X110125939Y-45814400D01*
X110125939Y-45814400D02*
X110125939Y-45457257D01*
X110125939Y-45457257D02*
X110197367Y-45171542D01*
X110197367Y-45171542D02*
X110268796Y-45028685D01*
X110268796Y-45028685D02*
X110340225Y-44957257D01*
X110340225Y-44957257D02*
X110483082Y-44885828D01*
X112268796Y-44885828D02*
X111983081Y-44885828D01*
X111983081Y-44885828D02*
X111840224Y-44957257D01*
X111840224Y-44957257D02*
X111768796Y-45028685D01*
X111768796Y-45028685D02*
X111625938Y-45242971D01*
X111625938Y-45242971D02*
X111554510Y-45528685D01*
X111554510Y-45528685D02*
X111554510Y-46100114D01*
X111554510Y-46100114D02*
X111625938Y-46242971D01*
X111625938Y-46242971D02*
X111697367Y-46314400D01*
X111697367Y-46314400D02*
X111840224Y-46385828D01*
X111840224Y-46385828D02*
X112125938Y-46385828D01*
X112125938Y-46385828D02*
X112268796Y-46314400D01*
X112268796Y-46314400D02*
X112340224Y-46242971D01*
X112340224Y-46242971D02*
X112411653Y-46100114D01*
X112411653Y-46100114D02*
X112411653Y-45742971D01*
X112411653Y-45742971D02*
X112340224Y-45600114D01*
X112340224Y-45600114D02*
X112268796Y-45528685D01*
X112268796Y-45528685D02*
X112125938Y-45457257D01*
X112125938Y-45457257D02*
X111840224Y-45457257D01*
X111840224Y-45457257D02*
X111697367Y-45528685D01*
X111697367Y-45528685D02*
X111625938Y-45600114D01*
X111625938Y-45600114D02*
X111554510Y-45742971D01*
X104340225Y-48800828D02*
X103483082Y-48800828D01*
X103911653Y-48800828D02*
X103911653Y-47300828D01*
X103911653Y-47300828D02*
X103768796Y-47515114D01*
X103768796Y-47515114D02*
X103625939Y-47657971D01*
X103625939Y-47657971D02*
X103483082Y-47729400D01*
X104911653Y-47443685D02*
X104983081Y-47372257D01*
X104983081Y-47372257D02*
X105125939Y-47300828D01*
X105125939Y-47300828D02*
X105483081Y-47300828D01*
X105483081Y-47300828D02*
X105625939Y-47372257D01*
X105625939Y-47372257D02*
X105697367Y-47443685D01*
X105697367Y-47443685D02*
X105768796Y-47586542D01*
X105768796Y-47586542D02*
X105768796Y-47729400D01*
X105768796Y-47729400D02*
X105697367Y-47943685D01*
X105697367Y-47943685D02*
X104840224Y-48800828D01*
X104840224Y-48800828D02*
X105768796Y-48800828D01*
X106625938Y-47943685D02*
X106483081Y-47872257D01*
X106483081Y-47872257D02*
X106411652Y-47800828D01*
X106411652Y-47800828D02*
X106340224Y-47657971D01*
X106340224Y-47657971D02*
X106340224Y-47586542D01*
X106340224Y-47586542D02*
X106411652Y-47443685D01*
X106411652Y-47443685D02*
X106483081Y-47372257D01*
X106483081Y-47372257D02*
X106625938Y-47300828D01*
X106625938Y-47300828D02*
X106911652Y-47300828D01*
X106911652Y-47300828D02*
X107054510Y-47372257D01*
X107054510Y-47372257D02*
X107125938Y-47443685D01*
X107125938Y-47443685D02*
X107197367Y-47586542D01*
X107197367Y-47586542D02*
X107197367Y-47657971D01*
X107197367Y-47657971D02*
X107125938Y-47800828D01*
X107125938Y-47800828D02*
X107054510Y-47872257D01*
X107054510Y-47872257D02*
X106911652Y-47943685D01*
X106911652Y-47943685D02*
X106625938Y-47943685D01*
X106625938Y-47943685D02*
X106483081Y-48015114D01*
X106483081Y-48015114D02*
X106411652Y-48086542D01*
X106411652Y-48086542D02*
X106340224Y-48229400D01*
X106340224Y-48229400D02*
X106340224Y-48515114D01*
X106340224Y-48515114D02*
X106411652Y-48657971D01*
X106411652Y-48657971D02*
X106483081Y-48729400D01*
X106483081Y-48729400D02*
X106625938Y-48800828D01*
X106625938Y-48800828D02*
X106911652Y-48800828D01*
X106911652Y-48800828D02*
X107054510Y-48729400D01*
X107054510Y-48729400D02*
X107125938Y-48657971D01*
X107125938Y-48657971D02*
X107197367Y-48515114D01*
X107197367Y-48515114D02*
X107197367Y-48229400D01*
X107197367Y-48229400D02*
X107125938Y-48086542D01*
X107125938Y-48086542D02*
X107054510Y-48015114D01*
X107054510Y-48015114D02*
X106911652Y-47943685D01*
X107697366Y-48800828D02*
X108483081Y-47800828D01*
X107697366Y-47800828D02*
X108483081Y-48800828D01*
X109697367Y-47300828D02*
X109411652Y-47300828D01*
X109411652Y-47300828D02*
X109268795Y-47372257D01*
X109268795Y-47372257D02*
X109197367Y-47443685D01*
X109197367Y-47443685D02*
X109054509Y-47657971D01*
X109054509Y-47657971D02*
X108983081Y-47943685D01*
X108983081Y-47943685D02*
X108983081Y-48515114D01*
X108983081Y-48515114D02*
X109054509Y-48657971D01*
X109054509Y-48657971D02*
X109125938Y-48729400D01*
X109125938Y-48729400D02*
X109268795Y-48800828D01*
X109268795Y-48800828D02*
X109554509Y-48800828D01*
X109554509Y-48800828D02*
X109697367Y-48729400D01*
X109697367Y-48729400D02*
X109768795Y-48657971D01*
X109768795Y-48657971D02*
X109840224Y-48515114D01*
X109840224Y-48515114D02*
X109840224Y-48157971D01*
X109840224Y-48157971D02*
X109768795Y-48015114D01*
X109768795Y-48015114D02*
X109697367Y-47943685D01*
X109697367Y-47943685D02*
X109554509Y-47872257D01*
X109554509Y-47872257D02*
X109268795Y-47872257D01*
X109268795Y-47872257D02*
X109125938Y-47943685D01*
X109125938Y-47943685D02*
X109054509Y-48015114D01*
X109054509Y-48015114D02*
X108983081Y-48157971D01*
X111125938Y-47800828D02*
X111125938Y-48800828D01*
X110768795Y-47229400D02*
X110411652Y-48300828D01*
X110411652Y-48300828D02*
X111340223Y-48300828D01*
X137483082Y-52372257D02*
X138197368Y-52372257D01*
X137340225Y-52800828D02*
X137840225Y-51300828D01*
X137840225Y-51300828D02*
X138340225Y-52800828D01*
X138840224Y-52800828D02*
X138840224Y-51800828D01*
X138840224Y-52086542D02*
X138911653Y-51943685D01*
X138911653Y-51943685D02*
X138983082Y-51872257D01*
X138983082Y-51872257D02*
X139125939Y-51800828D01*
X139125939Y-51800828D02*
X139268796Y-51800828D01*
X140411653Y-52800828D02*
X140411653Y-51300828D01*
X140411653Y-52729400D02*
X140268795Y-52800828D01*
X140268795Y-52800828D02*
X139983081Y-52800828D01*
X139983081Y-52800828D02*
X139840224Y-52729400D01*
X139840224Y-52729400D02*
X139768795Y-52657971D01*
X139768795Y-52657971D02*
X139697367Y-52515114D01*
X139697367Y-52515114D02*
X139697367Y-52086542D01*
X139697367Y-52086542D02*
X139768795Y-51943685D01*
X139768795Y-51943685D02*
X139840224Y-51872257D01*
X139840224Y-51872257D02*
X139983081Y-51800828D01*
X139983081Y-51800828D02*
X140268795Y-51800828D01*
X140268795Y-51800828D02*
X140411653Y-51872257D01*
X141768796Y-51800828D02*
X141768796Y-52800828D01*
X141125938Y-51800828D02*
X141125938Y-52586542D01*
X141125938Y-52586542D02*
X141197367Y-52729400D01*
X141197367Y-52729400D02*
X141340224Y-52800828D01*
X141340224Y-52800828D02*
X141554510Y-52800828D01*
X141554510Y-52800828D02*
X141697367Y-52729400D01*
X141697367Y-52729400D02*
X141768796Y-52657971D01*
X142483081Y-52800828D02*
X142483081Y-51800828D01*
X142483081Y-51300828D02*
X142411653Y-51372257D01*
X142411653Y-51372257D02*
X142483081Y-51443685D01*
X142483081Y-51443685D02*
X142554510Y-51372257D01*
X142554510Y-51372257D02*
X142483081Y-51300828D01*
X142483081Y-51300828D02*
X142483081Y-51443685D01*
X143197367Y-51800828D02*
X143197367Y-52800828D01*
X143197367Y-51943685D02*
X143268796Y-51872257D01*
X143268796Y-51872257D02*
X143411653Y-51800828D01*
X143411653Y-51800828D02*
X143625939Y-51800828D01*
X143625939Y-51800828D02*
X143768796Y-51872257D01*
X143768796Y-51872257D02*
X143840225Y-52015114D01*
X143840225Y-52015114D02*
X143840225Y-52800828D01*
X144768796Y-52800828D02*
X144625939Y-52729400D01*
X144625939Y-52729400D02*
X144554510Y-52657971D01*
X144554510Y-52657971D02*
X144483082Y-52515114D01*
X144483082Y-52515114D02*
X144483082Y-52086542D01*
X144483082Y-52086542D02*
X144554510Y-51943685D01*
X144554510Y-51943685D02*
X144625939Y-51872257D01*
X144625939Y-51872257D02*
X144768796Y-51800828D01*
X144768796Y-51800828D02*
X144983082Y-51800828D01*
X144983082Y-51800828D02*
X145125939Y-51872257D01*
X145125939Y-51872257D02*
X145197368Y-51943685D01*
X145197368Y-51943685D02*
X145268796Y-52086542D01*
X145268796Y-52086542D02*
X145268796Y-52515114D01*
X145268796Y-52515114D02*
X145197368Y-52657971D01*
X145197368Y-52657971D02*
X145125939Y-52729400D01*
X145125939Y-52729400D02*
X144983082Y-52800828D01*
X144983082Y-52800828D02*
X144768796Y-52800828D01*
X147054510Y-51800828D02*
X147054510Y-52800828D01*
X147054510Y-51943685D02*
X147125939Y-51872257D01*
X147125939Y-51872257D02*
X147268796Y-51800828D01*
X147268796Y-51800828D02*
X147483082Y-51800828D01*
X147483082Y-51800828D02*
X147625939Y-51872257D01*
X147625939Y-51872257D02*
X147697368Y-52015114D01*
X147697368Y-52015114D02*
X147697368Y-52800828D01*
X149054511Y-52800828D02*
X149054511Y-52015114D01*
X149054511Y-52015114D02*
X148983082Y-51872257D01*
X148983082Y-51872257D02*
X148840225Y-51800828D01*
X148840225Y-51800828D02*
X148554511Y-51800828D01*
X148554511Y-51800828D02*
X148411653Y-51872257D01*
X149054511Y-52729400D02*
X148911653Y-52800828D01*
X148911653Y-52800828D02*
X148554511Y-52800828D01*
X148554511Y-52800828D02*
X148411653Y-52729400D01*
X148411653Y-52729400D02*
X148340225Y-52586542D01*
X148340225Y-52586542D02*
X148340225Y-52443685D01*
X148340225Y-52443685D02*
X148411653Y-52300828D01*
X148411653Y-52300828D02*
X148554511Y-52229400D01*
X148554511Y-52229400D02*
X148911653Y-52229400D01*
X148911653Y-52229400D02*
X149054511Y-52157971D01*
X149768796Y-51800828D02*
X149768796Y-52800828D01*
X149768796Y-51943685D02*
X149840225Y-51872257D01*
X149840225Y-51872257D02*
X149983082Y-51800828D01*
X149983082Y-51800828D02*
X150197368Y-51800828D01*
X150197368Y-51800828D02*
X150340225Y-51872257D01*
X150340225Y-51872257D02*
X150411654Y-52015114D01*
X150411654Y-52015114D02*
X150411654Y-52800828D01*
X151340225Y-52800828D02*
X151197368Y-52729400D01*
X151197368Y-52729400D02*
X151125939Y-52657971D01*
X151125939Y-52657971D02*
X151054511Y-52515114D01*
X151054511Y-52515114D02*
X151054511Y-52086542D01*
X151054511Y-52086542D02*
X151125939Y-51943685D01*
X151125939Y-51943685D02*
X151197368Y-51872257D01*
X151197368Y-51872257D02*
X151340225Y-51800828D01*
X151340225Y-51800828D02*
X151554511Y-51800828D01*
X151554511Y-51800828D02*
X151697368Y-51872257D01*
X151697368Y-51872257D02*
X151768797Y-51943685D01*
X151768797Y-51943685D02*
X151840225Y-52086542D01*
X151840225Y-52086542D02*
X151840225Y-52515114D01*
X151840225Y-52515114D02*
X151768797Y-52657971D01*
X151768797Y-52657971D02*
X151697368Y-52729400D01*
X151697368Y-52729400D02*
X151554511Y-52800828D01*
X151554511Y-52800828D02*
X151340225Y-52800828D01*
D11*
X40238095Y-65454819D02*
X40238095Y-64454819D01*
X40238095Y-64931009D02*
X40809523Y-64931009D01*
X40809523Y-65454819D02*
X40809523Y-64454819D01*
X41714285Y-64788152D02*
X41714285Y-65454819D01*
X41476190Y-64407200D02*
X41238095Y-65121485D01*
X41238095Y-65121485D02*
X41857142Y-65121485D01*
X164238095Y-61954819D02*
X164238095Y-60954819D01*
X164238095Y-61431009D02*
X164809523Y-61431009D01*
X164809523Y-61954819D02*
X164809523Y-60954819D01*
X165190476Y-60954819D02*
X165809523Y-60954819D01*
X165809523Y-60954819D02*
X165476190Y-61335771D01*
X165476190Y-61335771D02*
X165619047Y-61335771D01*
X165619047Y-61335771D02*
X165714285Y-61383390D01*
X165714285Y-61383390D02*
X165761904Y-61431009D01*
X165761904Y-61431009D02*
X165809523Y-61526247D01*
X165809523Y-61526247D02*
X165809523Y-61764342D01*
X165809523Y-61764342D02*
X165761904Y-61859580D01*
X165761904Y-61859580D02*
X165714285Y-61907200D01*
X165714285Y-61907200D02*
X165619047Y-61954819D01*
X165619047Y-61954819D02*
X165333333Y-61954819D01*
X165333333Y-61954819D02*
X165238095Y-61907200D01*
X165238095Y-61907200D02*
X165190476Y-61859580D01*
X159238095Y-38454819D02*
X159238095Y-37454819D01*
X159238095Y-37931009D02*
X159809523Y-37931009D01*
X159809523Y-38454819D02*
X159809523Y-37454819D01*
X160238095Y-37550057D02*
X160285714Y-37502438D01*
X160285714Y-37502438D02*
X160380952Y-37454819D01*
X160380952Y-37454819D02*
X160619047Y-37454819D01*
X160619047Y-37454819D02*
X160714285Y-37502438D01*
X160714285Y-37502438D02*
X160761904Y-37550057D01*
X160761904Y-37550057D02*
X160809523Y-37645295D01*
X160809523Y-37645295D02*
X160809523Y-37740533D01*
X160809523Y-37740533D02*
X160761904Y-37883390D01*
X160761904Y-37883390D02*
X160190476Y-38454819D01*
X160190476Y-38454819D02*
X160809523Y-38454819D01*
X40238095Y-38454819D02*
X40238095Y-37454819D01*
X40238095Y-37931009D02*
X40809523Y-37931009D01*
X40809523Y-38454819D02*
X40809523Y-37454819D01*
X41809523Y-38454819D02*
X41238095Y-38454819D01*
X41523809Y-38454819D02*
X41523809Y-37454819D01*
X41523809Y-37454819D02*
X41428571Y-37597676D01*
X41428571Y-37597676D02*
X41333333Y-37692914D01*
X41333333Y-37692914D02*
X41238095Y-37740533D01*
X117666666Y-54784819D02*
X117666666Y-55499104D01*
X117666666Y-55499104D02*
X117619047Y-55641961D01*
X117619047Y-55641961D02*
X117523809Y-55737200D01*
X117523809Y-55737200D02*
X117380952Y-55784819D01*
X117380952Y-55784819D02*
X117285714Y-55784819D01*
X118571428Y-55118152D02*
X118571428Y-55784819D01*
X118333333Y-54737200D02*
X118095238Y-55451485D01*
X118095238Y-55451485D02*
X118714285Y-55451485D01*
X99666666Y-39454819D02*
X99666666Y-40169104D01*
X99666666Y-40169104D02*
X99619047Y-40311961D01*
X99619047Y-40311961D02*
X99523809Y-40407200D01*
X99523809Y-40407200D02*
X99380952Y-40454819D01*
X99380952Y-40454819D02*
X99285714Y-40454819D01*
X100047619Y-39454819D02*
X100666666Y-39454819D01*
X100666666Y-39454819D02*
X100333333Y-39835771D01*
X100333333Y-39835771D02*
X100476190Y-39835771D01*
X100476190Y-39835771D02*
X100571428Y-39883390D01*
X100571428Y-39883390D02*
X100619047Y-39931009D01*
X100619047Y-39931009D02*
X100666666Y-40026247D01*
X100666666Y-40026247D02*
X100666666Y-40264342D01*
X100666666Y-40264342D02*
X100619047Y-40359580D01*
X100619047Y-40359580D02*
X100571428Y-40407200D01*
X100571428Y-40407200D02*
X100476190Y-40454819D01*
X100476190Y-40454819D02*
X100190476Y-40454819D01*
X100190476Y-40454819D02*
X100095238Y-40407200D01*
X100095238Y-40407200D02*
X100047619Y-40359580D01*
X90666666Y-39454819D02*
X90666666Y-40169104D01*
X90666666Y-40169104D02*
X90619047Y-40311961D01*
X90619047Y-40311961D02*
X90523809Y-40407200D01*
X90523809Y-40407200D02*
X90380952Y-40454819D01*
X90380952Y-40454819D02*
X90285714Y-40454819D01*
X91095238Y-39550057D02*
X91142857Y-39502438D01*
X91142857Y-39502438D02*
X91238095Y-39454819D01*
X91238095Y-39454819D02*
X91476190Y-39454819D01*
X91476190Y-39454819D02*
X91571428Y-39502438D01*
X91571428Y-39502438D02*
X91619047Y-39550057D01*
X91619047Y-39550057D02*
X91666666Y-39645295D01*
X91666666Y-39645295D02*
X91666666Y-39740533D01*
X91666666Y-39740533D02*
X91619047Y-39883390D01*
X91619047Y-39883390D02*
X91047619Y-40454819D01*
X91047619Y-40454819D02*
X91666666Y-40454819D01*
X72666666Y-41454819D02*
X72666666Y-42169104D01*
X72666666Y-42169104D02*
X72619047Y-42311961D01*
X72619047Y-42311961D02*
X72523809Y-42407200D01*
X72523809Y-42407200D02*
X72380952Y-42454819D01*
X72380952Y-42454819D02*
X72285714Y-42454819D01*
X73666666Y-42454819D02*
X73095238Y-42454819D01*
X73380952Y-42454819D02*
X73380952Y-41454819D01*
X73380952Y-41454819D02*
X73285714Y-41597676D01*
X73285714Y-41597676D02*
X73190476Y-41692914D01*
X73190476Y-41692914D02*
X73095238Y-41740533D01*
X120155714Y-60169104D02*
X120631904Y-60169104D01*
X120060476Y-60454819D02*
X120393809Y-59454819D01*
X120393809Y-59454819D02*
X120727142Y-60454819D01*
X121584285Y-60454819D02*
X121012857Y-60454819D01*
X121298571Y-60454819D02*
X121298571Y-59454819D01*
X121298571Y-59454819D02*
X121203333Y-59597676D01*
X121203333Y-59597676D02*
X121108095Y-59692914D01*
X121108095Y-59692914D02*
X121012857Y-59740533D01*
X160964819Y-53251904D02*
X161774342Y-53251904D01*
X161774342Y-53251904D02*
X161869580Y-53204285D01*
X161869580Y-53204285D02*
X161917200Y-53156666D01*
X161917200Y-53156666D02*
X161964819Y-53061428D01*
X161964819Y-53061428D02*
X161964819Y-52870952D01*
X161964819Y-52870952D02*
X161917200Y-52775714D01*
X161917200Y-52775714D02*
X161869580Y-52728095D01*
X161869580Y-52728095D02*
X161774342Y-52680476D01*
X161774342Y-52680476D02*
X160964819Y-52680476D01*
X161917200Y-52251904D02*
X161964819Y-52109047D01*
X161964819Y-52109047D02*
X161964819Y-51870952D01*
X161964819Y-51870952D02*
X161917200Y-51775714D01*
X161917200Y-51775714D02*
X161869580Y-51728095D01*
X161869580Y-51728095D02*
X161774342Y-51680476D01*
X161774342Y-51680476D02*
X161679104Y-51680476D01*
X161679104Y-51680476D02*
X161583866Y-51728095D01*
X161583866Y-51728095D02*
X161536247Y-51775714D01*
X161536247Y-51775714D02*
X161488628Y-51870952D01*
X161488628Y-51870952D02*
X161441009Y-52061428D01*
X161441009Y-52061428D02*
X161393390Y-52156666D01*
X161393390Y-52156666D02*
X161345771Y-52204285D01*
X161345771Y-52204285D02*
X161250533Y-52251904D01*
X161250533Y-52251904D02*
X161155295Y-52251904D01*
X161155295Y-52251904D02*
X161060057Y-52204285D01*
X161060057Y-52204285D02*
X161012438Y-52156666D01*
X161012438Y-52156666D02*
X160964819Y-52061428D01*
X160964819Y-52061428D02*
X160964819Y-51823333D01*
X160964819Y-51823333D02*
X161012438Y-51680476D01*
X161441009Y-50918571D02*
X161488628Y-50775714D01*
X161488628Y-50775714D02*
X161536247Y-50728095D01*
X161536247Y-50728095D02*
X161631485Y-50680476D01*
X161631485Y-50680476D02*
X161774342Y-50680476D01*
X161774342Y-50680476D02*
X161869580Y-50728095D01*
X161869580Y-50728095D02*
X161917200Y-50775714D01*
X161917200Y-50775714D02*
X161964819Y-50870952D01*
X161964819Y-50870952D02*
X161964819Y-51251904D01*
X161964819Y-51251904D02*
X160964819Y-51251904D01*
X160964819Y-51251904D02*
X160964819Y-50918571D01*
X160964819Y-50918571D02*
X161012438Y-50823333D01*
X161012438Y-50823333D02*
X161060057Y-50775714D01*
X161060057Y-50775714D02*
X161155295Y-50728095D01*
X161155295Y-50728095D02*
X161250533Y-50728095D01*
X161250533Y-50728095D02*
X161345771Y-50775714D01*
X161345771Y-50775714D02*
X161393390Y-50823333D01*
X161393390Y-50823333D02*
X161441009Y-50918571D01*
X161441009Y-50918571D02*
X161441009Y-51251904D01*
D12*
X119330000Y-53000000D02*
X119330000Y-54330000D01*
X119330000Y-49130000D02*
X116670000Y-49130000D01*
X119330000Y-51730000D02*
X119330000Y-49130000D01*
X119330000Y-51730000D02*
X116670000Y-51730000D01*
X119330000Y-54330000D02*
X118000000Y-54330000D01*
X116670000Y-51730000D02*
X116670000Y-49130000D01*
X104730000Y-38670000D02*
X112410000Y-38670000D01*
X103460000Y-41330000D02*
X102130000Y-41330000D01*
X112410000Y-41330000D02*
X112410000Y-38670000D01*
X104730000Y-41330000D02*
X104730000Y-38670000D01*
X102130000Y-41330000D02*
X102130000Y-40000000D01*
X104730000Y-41330000D02*
X112410000Y-41330000D01*
X86270000Y-38670000D02*
X78590000Y-38670000D01*
X88870000Y-38670000D02*
X88870000Y-40000000D01*
X86270000Y-38670000D02*
X86270000Y-41330000D01*
X78590000Y-38670000D02*
X78590000Y-41330000D01*
X87540000Y-38670000D02*
X88870000Y-38670000D01*
X86270000Y-41330000D02*
X78590000Y-41330000D01*
X74330000Y-56080000D02*
X74330000Y-43320000D01*
X74330000Y-57350000D02*
X74330000Y-58680000D01*
X74330000Y-58680000D02*
X73000000Y-58680000D01*
X74330000Y-56080000D02*
X71670000Y-56080000D01*
X74330000Y-43320000D02*
X71670000Y-43320000D01*
X71670000Y-56080000D02*
X71670000Y-43320000D01*
X124680000Y-58340000D02*
X124680000Y-61010000D01*
X167990000Y-48050000D02*
X167990000Y-55930000D01*
X165450000Y-42970000D02*
X122010000Y-42970000D01*
X167990000Y-55930000D02*
X157570000Y-55930000D01*
X157570000Y-48050000D02*
X167990000Y-48050000D01*
X165450000Y-42970000D02*
X165450000Y-48050000D01*
X127220000Y-61010000D02*
X165450000Y-61010000D01*
X162780000Y-58340000D02*
X162780000Y-61010000D01*
X124680000Y-45640000D02*
X162780000Y-45640000D01*
X127220000Y-58340000D02*
X124680000Y-58340000D01*
X162780000Y-45640000D02*
X162780000Y-42970000D01*
X124680000Y-45640000D02*
X124680000Y-42970000D01*
X127220000Y-58340000D02*
X127220000Y-61010000D01*
X122010000Y-42970000D02*
X122010000Y-61010000D01*
X165450000Y-61010000D02*
X165450000Y-55930000D01*
X122010000Y-61010000D02*
X124680000Y-61010000D01*
X157570000Y-55930000D02*
X157570000Y-48050000D01*
X127220000Y-58340000D02*
X162780000Y-58340000D01*
%LPC*%
D13*
X36000000Y-65000000D03*
X165000000Y-65000000D03*
X165000000Y-38000000D03*
X36000000Y-38000000D03*
D14*
X118000000Y-53000000D03*
D15*
X118000000Y-50460000D03*
D14*
X103460000Y-40000000D03*
D15*
X106000000Y-40000000D03*
X108540000Y-40000000D03*
X111080000Y-40000000D03*
X79920000Y-40000000D03*
X82460000Y-40000000D03*
X85000000Y-40000000D03*
D14*
X87540000Y-40000000D03*
X73000000Y-57350000D03*
D15*
X73000000Y-54810000D03*
X73000000Y-52270000D03*
X73000000Y-49730000D03*
X73000000Y-47190000D03*
X73000000Y-44650000D03*
D16*
X125950000Y-59610000D03*
D17*
X128490000Y-59610000D03*
X131030000Y-59610000D03*
X133570000Y-59610000D03*
X136110000Y-59610000D03*
X138650000Y-59610000D03*
X141190000Y-59610000D03*
X143730000Y-59610000D03*
X146270000Y-59610000D03*
X148810000Y-59610000D03*
X151350000Y-59610000D03*
X153890000Y-59610000D03*
X156430000Y-59610000D03*
X158970000Y-59610000D03*
X161510000Y-59610000D03*
X161510000Y-44370000D03*
X158970000Y-44370000D03*
X156430000Y-44370000D03*
X153890000Y-44370000D03*
X151350000Y-44370000D03*
X148810000Y-44370000D03*
X146270000Y-44370000D03*
X143730000Y-44370000D03*
X141190000Y-44370000D03*
X138650000Y-44370000D03*
X136110000Y-44370000D03*
X133570000Y-44370000D03*
X131030000Y-44370000D03*
X128490000Y-44370000D03*
X125950000Y-44370000D03*
%LPD*%
M02*
