G04 #@! TF.GenerationSoftware,KiCad,Pcbnew,7.0.5*
G04 #@! TF.CreationDate,2023-07-11T17:47:05+06:00*
G04 #@! TF.ProjectId,Meteo_braslet,4d657465-6f5f-4627-9261-736c65742e6b,rev?*
G04 #@! TF.SameCoordinates,Original*
G04 #@! TF.FileFunction,Copper,L2,Bot*
G04 #@! TF.FilePolarity,Positive*
%FSLAX46Y46*%
G04 Gerber Fmt 4.6, Leading zero omitted, Abs format (unit mm)*
G04 Created by KiCad (PCBNEW 7.0.5) date 2023-07-11 17:47:05*
%MOMM*%
%LPD*%
G01*
G04 APERTURE LIST*
G04 #@! TA.AperFunction,ComponentPad*
%ADD10R,1.700000X1.700000*%
G04 #@! TD*
G04 #@! TA.AperFunction,ComponentPad*
%ADD11O,1.700000X1.700000*%
G04 #@! TD*
G04 #@! TA.AperFunction,ComponentPad*
%ADD12R,1.600000X1.600000*%
G04 #@! TD*
G04 #@! TA.AperFunction,ComponentPad*
%ADD13O,1.600000X1.600000*%
G04 #@! TD*
G04 #@! TA.AperFunction,Conductor*
%ADD14C,0.254000*%
G04 #@! TD*
G04 APERTURE END LIST*
D10*
X118000000Y-53000000D03*
D11*
X118000000Y-50460000D03*
D10*
X103460000Y-40000000D03*
D11*
X106000000Y-40000000D03*
X108540000Y-40000000D03*
X111080000Y-40000000D03*
X79920000Y-40000000D03*
X82460000Y-40000000D03*
X85000000Y-40000000D03*
D10*
X87540000Y-40000000D03*
X73000000Y-57350000D03*
D11*
X73000000Y-54810000D03*
X73000000Y-52270000D03*
X73000000Y-49730000D03*
X73000000Y-47190000D03*
X73000000Y-44650000D03*
D12*
X125950000Y-59610000D03*
D13*
X128490000Y-59610000D03*
X131030000Y-59610000D03*
X133570000Y-59610000D03*
X136110000Y-59610000D03*
X138650000Y-59610000D03*
X141190000Y-59610000D03*
X143730000Y-59610000D03*
X146270000Y-59610000D03*
X148810000Y-59610000D03*
X151350000Y-59610000D03*
X153890000Y-59610000D03*
X156430000Y-59610000D03*
X158970000Y-59610000D03*
X161510000Y-59610000D03*
X161510000Y-44370000D03*
X158970000Y-44370000D03*
X156430000Y-44370000D03*
X153890000Y-44370000D03*
X151350000Y-44370000D03*
X148810000Y-44370000D03*
X146270000Y-44370000D03*
X143730000Y-44370000D03*
X141190000Y-44370000D03*
X138650000Y-44370000D03*
X136110000Y-44370000D03*
X133570000Y-44370000D03*
X131030000Y-44370000D03*
X128490000Y-44370000D03*
X125950000Y-44370000D03*
D14*
X141190000Y-44370000D02*
X133142000Y-36322000D01*
X133142000Y-36322000D02*
X108540081Y-36322000D01*
X108540081Y-36322000D02*
X82459844Y-36322000D01*
X108540000Y-40000000D02*
X108540000Y-36322081D01*
X82460000Y-40000000D02*
X82460000Y-36322156D01*
X82459844Y-36322000D02*
X78359000Y-36322000D01*
X78359000Y-36322000D02*
X76200000Y-38481000D01*
X76200000Y-38481000D02*
X76200000Y-46530000D01*
X76200000Y-46530000D02*
X73000000Y-49730000D01*
X108540000Y-36322081D02*
X108540081Y-36322000D01*
X82460000Y-36322156D02*
X82459844Y-36322000D01*
G04 #@! TA.AperFunction,Conductor*
G36*
X167942539Y-35020185D02*
G01*
X167988294Y-35072989D01*
X167999500Y-35124500D01*
X167999500Y-67875500D01*
X167979815Y-67942539D01*
X167927011Y-67988294D01*
X167875500Y-67999500D01*
X33124500Y-67999500D01*
X33057461Y-67979815D01*
X33011706Y-67927011D01*
X33000500Y-67875500D01*
X33000500Y-65124334D01*
X34499500Y-65124334D01*
X34540429Y-65369616D01*
X34621169Y-65604802D01*
X34621172Y-65604811D01*
X34739524Y-65823506D01*
X34739526Y-65823509D01*
X34892262Y-66019744D01*
X35051744Y-66166557D01*
X35075217Y-66188166D01*
X35283393Y-66324173D01*
X35511118Y-66424063D01*
X35752175Y-66485107D01*
X35752179Y-66485108D01*
X35752181Y-66485108D01*
X35752186Y-66485109D01*
X35905589Y-66497819D01*
X35937933Y-66500500D01*
X35937937Y-66500500D01*
X36062063Y-66500500D01*
X36062067Y-66500500D01*
X36124677Y-66495311D01*
X36247813Y-66485109D01*
X36247816Y-66485108D01*
X36247821Y-66485108D01*
X36488881Y-66424063D01*
X36716607Y-66324173D01*
X36924785Y-66188164D01*
X37107738Y-66019744D01*
X37260474Y-65823509D01*
X37378828Y-65604810D01*
X37459571Y-65369614D01*
X37500500Y-65124335D01*
X37500500Y-65124334D01*
X163499500Y-65124334D01*
X163540429Y-65369616D01*
X163621169Y-65604802D01*
X163621172Y-65604811D01*
X163739524Y-65823506D01*
X163739526Y-65823509D01*
X163892262Y-66019744D01*
X164051744Y-66166557D01*
X164075217Y-66188166D01*
X164283393Y-66324173D01*
X164511118Y-66424063D01*
X164752175Y-66485107D01*
X164752179Y-66485108D01*
X164752181Y-66485108D01*
X164752186Y-66485109D01*
X164905589Y-66497819D01*
X164937933Y-66500500D01*
X164937937Y-66500500D01*
X165062063Y-66500500D01*
X165062067Y-66500500D01*
X165124677Y-66495311D01*
X165247813Y-66485109D01*
X165247816Y-66485108D01*
X165247821Y-66485108D01*
X165488881Y-66424063D01*
X165716607Y-66324173D01*
X165924785Y-66188164D01*
X166107738Y-66019744D01*
X166260474Y-65823509D01*
X166378828Y-65604810D01*
X166459571Y-65369614D01*
X166500500Y-65124335D01*
X166500500Y-64875665D01*
X166459571Y-64630386D01*
X166378828Y-64395190D01*
X166260474Y-64176491D01*
X166107738Y-63980256D01*
X165924785Y-63811836D01*
X165924782Y-63811833D01*
X165716606Y-63675826D01*
X165488881Y-63575936D01*
X165247824Y-63514892D01*
X165247813Y-63514890D01*
X165062077Y-63499500D01*
X165062067Y-63499500D01*
X164937933Y-63499500D01*
X164937922Y-63499500D01*
X164752186Y-63514890D01*
X164752175Y-63514892D01*
X164511118Y-63575936D01*
X164283393Y-63675826D01*
X164075217Y-63811833D01*
X163892261Y-63980257D01*
X163739524Y-64176493D01*
X163621172Y-64395188D01*
X163621169Y-64395197D01*
X163540429Y-64630383D01*
X163499500Y-64875665D01*
X163499500Y-65124334D01*
X37500500Y-65124334D01*
X37500500Y-64875665D01*
X37459571Y-64630386D01*
X37378828Y-64395190D01*
X37260474Y-64176491D01*
X37107738Y-63980256D01*
X36924785Y-63811836D01*
X36924782Y-63811833D01*
X36716606Y-63675826D01*
X36488881Y-63575936D01*
X36247824Y-63514892D01*
X36247813Y-63514890D01*
X36062077Y-63499500D01*
X36062067Y-63499500D01*
X35937933Y-63499500D01*
X35937922Y-63499500D01*
X35752186Y-63514890D01*
X35752175Y-63514892D01*
X35511118Y-63575936D01*
X35283393Y-63675826D01*
X35075217Y-63811833D01*
X34892261Y-63980257D01*
X34739524Y-64176493D01*
X34621172Y-64395188D01*
X34621169Y-64395197D01*
X34540429Y-64630383D01*
X34499500Y-64875665D01*
X34499500Y-65124334D01*
X33000500Y-65124334D01*
X33000500Y-60457870D01*
X124649500Y-60457870D01*
X124649501Y-60457876D01*
X124655908Y-60517483D01*
X124706202Y-60652328D01*
X124706206Y-60652335D01*
X124792452Y-60767544D01*
X124792455Y-60767547D01*
X124907664Y-60853793D01*
X124907671Y-60853797D01*
X125042517Y-60904091D01*
X125042516Y-60904091D01*
X125049444Y-60904835D01*
X125102127Y-60910500D01*
X126797872Y-60910499D01*
X126857483Y-60904091D01*
X126992331Y-60853796D01*
X127107546Y-60767546D01*
X127193796Y-60652331D01*
X127244091Y-60517483D01*
X127247862Y-60482401D01*
X127274599Y-60417855D01*
X127331990Y-60378006D01*
X127401816Y-60375511D01*
X127461905Y-60411163D01*
X127472726Y-60424536D01*
X127489956Y-60449143D01*
X127650858Y-60610045D01*
X127650861Y-60610047D01*
X127837266Y-60740568D01*
X128043504Y-60836739D01*
X128263308Y-60895635D01*
X128425230Y-60909801D01*
X128489998Y-60915468D01*
X128490000Y-60915468D01*
X128490002Y-60915468D01*
X128546807Y-60910498D01*
X128716692Y-60895635D01*
X128936496Y-60836739D01*
X129142734Y-60740568D01*
X129329139Y-60610047D01*
X129490047Y-60449139D01*
X129620568Y-60262734D01*
X129647618Y-60204724D01*
X129693790Y-60152285D01*
X129760983Y-60133133D01*
X129827865Y-60153348D01*
X129872382Y-60204725D01*
X129899429Y-60262728D01*
X129899432Y-60262734D01*
X130029954Y-60449141D01*
X130190858Y-60610045D01*
X130190861Y-60610047D01*
X130377266Y-60740568D01*
X130583504Y-60836739D01*
X130803308Y-60895635D01*
X130965230Y-60909801D01*
X131029998Y-60915468D01*
X131030000Y-60915468D01*
X131030002Y-60915468D01*
X131086807Y-60910498D01*
X131256692Y-60895635D01*
X131476496Y-60836739D01*
X131682734Y-60740568D01*
X131869139Y-60610047D01*
X132030047Y-60449139D01*
X132160568Y-60262734D01*
X132187895Y-60204129D01*
X132234064Y-60151695D01*
X132301257Y-60132542D01*
X132368139Y-60152757D01*
X132412657Y-60204133D01*
X132439865Y-60262482D01*
X132570342Y-60448820D01*
X132731179Y-60609657D01*
X132917517Y-60740134D01*
X133123673Y-60836265D01*
X133123682Y-60836269D01*
X133319999Y-60888872D01*
X133320000Y-60888871D01*
X133320000Y-60045501D01*
X133427685Y-60094680D01*
X133534237Y-60110000D01*
X133605763Y-60110000D01*
X133712315Y-60094680D01*
X133819999Y-60045501D01*
X133819999Y-60888871D01*
X133819999Y-60888872D01*
X134016317Y-60836269D01*
X134016326Y-60836265D01*
X134222482Y-60740134D01*
X134408820Y-60609657D01*
X134569657Y-60448820D01*
X134700132Y-60262484D01*
X134727341Y-60204134D01*
X134773513Y-60151695D01*
X134840707Y-60132542D01*
X134907588Y-60152757D01*
X134952106Y-60204133D01*
X134979431Y-60262732D01*
X134979432Y-60262734D01*
X135109954Y-60449141D01*
X135270858Y-60610045D01*
X135270861Y-60610047D01*
X135457266Y-60740568D01*
X135663504Y-60836739D01*
X135883308Y-60895635D01*
X136045230Y-60909801D01*
X136109998Y-60915468D01*
X136110000Y-60915468D01*
X136110002Y-60915468D01*
X136166807Y-60910498D01*
X136336692Y-60895635D01*
X136556496Y-60836739D01*
X136762734Y-60740568D01*
X136949139Y-60610047D01*
X137110047Y-60449139D01*
X137240568Y-60262734D01*
X137267618Y-60204724D01*
X137313790Y-60152285D01*
X137380983Y-60133133D01*
X137447865Y-60153348D01*
X137492382Y-60204725D01*
X137519429Y-60262728D01*
X137519432Y-60262734D01*
X137649954Y-60449141D01*
X137810858Y-60610045D01*
X137810861Y-60610047D01*
X137997266Y-60740568D01*
X138203504Y-60836739D01*
X138423308Y-60895635D01*
X138585230Y-60909801D01*
X138649998Y-60915468D01*
X138650000Y-60915468D01*
X138650002Y-60915468D01*
X138706807Y-60910498D01*
X138876692Y-60895635D01*
X139096496Y-60836739D01*
X139302734Y-60740568D01*
X139489139Y-60610047D01*
X139650047Y-60449139D01*
X139780568Y-60262734D01*
X139807618Y-60204724D01*
X139853790Y-60152285D01*
X139920983Y-60133133D01*
X139987865Y-60153348D01*
X140032382Y-60204725D01*
X140059429Y-60262728D01*
X140059432Y-60262734D01*
X140189954Y-60449141D01*
X140350858Y-60610045D01*
X140350861Y-60610047D01*
X140537266Y-60740568D01*
X140743504Y-60836739D01*
X140963308Y-60895635D01*
X141125230Y-60909801D01*
X141189998Y-60915468D01*
X141190000Y-60915468D01*
X141190002Y-60915468D01*
X141246807Y-60910498D01*
X141416692Y-60895635D01*
X141636496Y-60836739D01*
X141842734Y-60740568D01*
X142029139Y-60610047D01*
X142190047Y-60449139D01*
X142320568Y-60262734D01*
X142347618Y-60204724D01*
X142393790Y-60152285D01*
X142460983Y-60133133D01*
X142527865Y-60153348D01*
X142572382Y-60204725D01*
X142599429Y-60262728D01*
X142599432Y-60262734D01*
X142729954Y-60449141D01*
X142890858Y-60610045D01*
X142890861Y-60610047D01*
X143077266Y-60740568D01*
X143283504Y-60836739D01*
X143503308Y-60895635D01*
X143665230Y-60909801D01*
X143729998Y-60915468D01*
X143730000Y-60915468D01*
X143730002Y-60915468D01*
X143786807Y-60910498D01*
X143956692Y-60895635D01*
X144176496Y-60836739D01*
X144382734Y-60740568D01*
X144569139Y-60610047D01*
X144730047Y-60449139D01*
X144860568Y-60262734D01*
X144887618Y-60204724D01*
X144933790Y-60152285D01*
X145000983Y-60133133D01*
X145067865Y-60153348D01*
X145112382Y-60204725D01*
X145139429Y-60262728D01*
X145139432Y-60262734D01*
X145269954Y-60449141D01*
X145430858Y-60610045D01*
X145430861Y-60610047D01*
X145617266Y-60740568D01*
X145823504Y-60836739D01*
X146043308Y-60895635D01*
X146205230Y-60909801D01*
X146269998Y-60915468D01*
X146270000Y-60915468D01*
X146270002Y-60915468D01*
X146326807Y-60910498D01*
X146496692Y-60895635D01*
X146716496Y-60836739D01*
X146922734Y-60740568D01*
X147109139Y-60610047D01*
X147270047Y-60449139D01*
X147400568Y-60262734D01*
X147427618Y-60204724D01*
X147473790Y-60152285D01*
X147540983Y-60133133D01*
X147607865Y-60153348D01*
X147652382Y-60204725D01*
X147679429Y-60262728D01*
X147679432Y-60262734D01*
X147809954Y-60449141D01*
X147970858Y-60610045D01*
X147970861Y-60610047D01*
X148157266Y-60740568D01*
X148363504Y-60836739D01*
X148583308Y-60895635D01*
X148745230Y-60909801D01*
X148809998Y-60915468D01*
X148810000Y-60915468D01*
X148810002Y-60915468D01*
X148866807Y-60910498D01*
X149036692Y-60895635D01*
X149256496Y-60836739D01*
X149462734Y-60740568D01*
X149649139Y-60610047D01*
X149810047Y-60449139D01*
X149940568Y-60262734D01*
X149967618Y-60204724D01*
X150013790Y-60152285D01*
X150080983Y-60133133D01*
X150147865Y-60153348D01*
X150192382Y-60204725D01*
X150219429Y-60262728D01*
X150219432Y-60262734D01*
X150349954Y-60449141D01*
X150510858Y-60610045D01*
X150510861Y-60610047D01*
X150697266Y-60740568D01*
X150903504Y-60836739D01*
X151123308Y-60895635D01*
X151285230Y-60909801D01*
X151349998Y-60915468D01*
X151350000Y-60915468D01*
X151350002Y-60915468D01*
X151406807Y-60910498D01*
X151576692Y-60895635D01*
X151796496Y-60836739D01*
X152002734Y-60740568D01*
X152189139Y-60610047D01*
X152350047Y-60449139D01*
X152480568Y-60262734D01*
X152507618Y-60204724D01*
X152553790Y-60152285D01*
X152620983Y-60133133D01*
X152687865Y-60153348D01*
X152732382Y-60204725D01*
X152759429Y-60262728D01*
X152759432Y-60262734D01*
X152889954Y-60449141D01*
X153050858Y-60610045D01*
X153050861Y-60610047D01*
X153237266Y-60740568D01*
X153443504Y-60836739D01*
X153663308Y-60895635D01*
X153825230Y-60909801D01*
X153889998Y-60915468D01*
X153890000Y-60915468D01*
X153890002Y-60915468D01*
X153946807Y-60910498D01*
X154116692Y-60895635D01*
X154336496Y-60836739D01*
X154542734Y-60740568D01*
X154729139Y-60610047D01*
X154890047Y-60449139D01*
X155020568Y-60262734D01*
X155047618Y-60204724D01*
X155093790Y-60152285D01*
X155160983Y-60133133D01*
X155227865Y-60153348D01*
X155272382Y-60204725D01*
X155299429Y-60262728D01*
X155299432Y-60262734D01*
X155429954Y-60449141D01*
X155590858Y-60610045D01*
X155590861Y-60610047D01*
X155777266Y-60740568D01*
X155983504Y-60836739D01*
X156203308Y-60895635D01*
X156365230Y-60909801D01*
X156429998Y-60915468D01*
X156430000Y-60915468D01*
X156430002Y-60915468D01*
X156486807Y-60910498D01*
X156656692Y-60895635D01*
X156876496Y-60836739D01*
X157082734Y-60740568D01*
X157269139Y-60610047D01*
X157430047Y-60449139D01*
X157560568Y-60262734D01*
X157587618Y-60204724D01*
X157633790Y-60152285D01*
X157700983Y-60133133D01*
X157767865Y-60153348D01*
X157812382Y-60204725D01*
X157839429Y-60262728D01*
X157839432Y-60262734D01*
X157969954Y-60449141D01*
X158130858Y-60610045D01*
X158130861Y-60610047D01*
X158317266Y-60740568D01*
X158523504Y-60836739D01*
X158743308Y-60895635D01*
X158905230Y-60909801D01*
X158969998Y-60915468D01*
X158970000Y-60915468D01*
X158970002Y-60915468D01*
X159026807Y-60910498D01*
X159196692Y-60895635D01*
X159416496Y-60836739D01*
X159622734Y-60740568D01*
X159809139Y-60610047D01*
X159970047Y-60449139D01*
X160100568Y-60262734D01*
X160127618Y-60204724D01*
X160173790Y-60152285D01*
X160240983Y-60133133D01*
X160307865Y-60153348D01*
X160352382Y-60204725D01*
X160379429Y-60262728D01*
X160379432Y-60262734D01*
X160509954Y-60449141D01*
X160670858Y-60610045D01*
X160670861Y-60610047D01*
X160857266Y-60740568D01*
X161063504Y-60836739D01*
X161283308Y-60895635D01*
X161445230Y-60909801D01*
X161509998Y-60915468D01*
X161510000Y-60915468D01*
X161510002Y-60915468D01*
X161566807Y-60910498D01*
X161736692Y-60895635D01*
X161956496Y-60836739D01*
X162162734Y-60740568D01*
X162349139Y-60610047D01*
X162510047Y-60449139D01*
X162640568Y-60262734D01*
X162736739Y-60056496D01*
X162795635Y-59836692D01*
X162815468Y-59610000D01*
X162795635Y-59383308D01*
X162736739Y-59163504D01*
X162640568Y-58957266D01*
X162510047Y-58770861D01*
X162510045Y-58770858D01*
X162349141Y-58609954D01*
X162162734Y-58479432D01*
X162162732Y-58479431D01*
X161956497Y-58383261D01*
X161956488Y-58383258D01*
X161736697Y-58324366D01*
X161736693Y-58324365D01*
X161736692Y-58324365D01*
X161736691Y-58324364D01*
X161736686Y-58324364D01*
X161510002Y-58304532D01*
X161509998Y-58304532D01*
X161283313Y-58324364D01*
X161283302Y-58324366D01*
X161063511Y-58383258D01*
X161063502Y-58383261D01*
X160857267Y-58479431D01*
X160857265Y-58479432D01*
X160670858Y-58609954D01*
X160509954Y-58770858D01*
X160379432Y-58957265D01*
X160379431Y-58957267D01*
X160352382Y-59015275D01*
X160306209Y-59067714D01*
X160239016Y-59086866D01*
X160172135Y-59066650D01*
X160127618Y-59015275D01*
X160100686Y-58957520D01*
X160100568Y-58957266D01*
X159970047Y-58770861D01*
X159970045Y-58770858D01*
X159809141Y-58609954D01*
X159622734Y-58479432D01*
X159622732Y-58479431D01*
X159416497Y-58383261D01*
X159416488Y-58383258D01*
X159196697Y-58324366D01*
X159196693Y-58324365D01*
X159196692Y-58324365D01*
X159196691Y-58324364D01*
X159196686Y-58324364D01*
X158970002Y-58304532D01*
X158969998Y-58304532D01*
X158743313Y-58324364D01*
X158743302Y-58324366D01*
X158523511Y-58383258D01*
X158523502Y-58383261D01*
X158317267Y-58479431D01*
X158317265Y-58479432D01*
X158130858Y-58609954D01*
X157969954Y-58770858D01*
X157839432Y-58957265D01*
X157839431Y-58957267D01*
X157812382Y-59015275D01*
X157766209Y-59067714D01*
X157699016Y-59086866D01*
X157632135Y-59066650D01*
X157587618Y-59015275D01*
X157560686Y-58957520D01*
X157560568Y-58957266D01*
X157430047Y-58770861D01*
X157430045Y-58770858D01*
X157269141Y-58609954D01*
X157082734Y-58479432D01*
X157082732Y-58479431D01*
X156876497Y-58383261D01*
X156876488Y-58383258D01*
X156656697Y-58324366D01*
X156656693Y-58324365D01*
X156656692Y-58324365D01*
X156656691Y-58324364D01*
X156656686Y-58324364D01*
X156430002Y-58304532D01*
X156429998Y-58304532D01*
X156203313Y-58324364D01*
X156203302Y-58324366D01*
X155983511Y-58383258D01*
X155983502Y-58383261D01*
X155777267Y-58479431D01*
X155777265Y-58479432D01*
X155590858Y-58609954D01*
X155429954Y-58770858D01*
X155299432Y-58957265D01*
X155299431Y-58957267D01*
X155272382Y-59015275D01*
X155226209Y-59067714D01*
X155159016Y-59086866D01*
X155092135Y-59066650D01*
X155047618Y-59015275D01*
X155020686Y-58957520D01*
X155020568Y-58957266D01*
X154890047Y-58770861D01*
X154890045Y-58770858D01*
X154729141Y-58609954D01*
X154542734Y-58479432D01*
X154542732Y-58479431D01*
X154336497Y-58383261D01*
X154336488Y-58383258D01*
X154116697Y-58324366D01*
X154116693Y-58324365D01*
X154116692Y-58324365D01*
X154116691Y-58324364D01*
X154116686Y-58324364D01*
X153890002Y-58304532D01*
X153889998Y-58304532D01*
X153663313Y-58324364D01*
X153663302Y-58324366D01*
X153443511Y-58383258D01*
X153443502Y-58383261D01*
X153237267Y-58479431D01*
X153237265Y-58479432D01*
X153050858Y-58609954D01*
X152889954Y-58770858D01*
X152759432Y-58957265D01*
X152759431Y-58957267D01*
X152732382Y-59015275D01*
X152686209Y-59067714D01*
X152619016Y-59086866D01*
X152552135Y-59066650D01*
X152507618Y-59015275D01*
X152480686Y-58957520D01*
X152480568Y-58957266D01*
X152350047Y-58770861D01*
X152350045Y-58770858D01*
X152189141Y-58609954D01*
X152002734Y-58479432D01*
X152002732Y-58479431D01*
X151796497Y-58383261D01*
X151796488Y-58383258D01*
X151576697Y-58324366D01*
X151576693Y-58324365D01*
X151576692Y-58324365D01*
X151576691Y-58324364D01*
X151576686Y-58324364D01*
X151350002Y-58304532D01*
X151349998Y-58304532D01*
X151123313Y-58324364D01*
X151123302Y-58324366D01*
X150903511Y-58383258D01*
X150903502Y-58383261D01*
X150697267Y-58479431D01*
X150697265Y-58479432D01*
X150510858Y-58609954D01*
X150349954Y-58770858D01*
X150219432Y-58957265D01*
X150219431Y-58957267D01*
X150192382Y-59015275D01*
X150146209Y-59067714D01*
X150079016Y-59086866D01*
X150012135Y-59066650D01*
X149967618Y-59015275D01*
X149940686Y-58957520D01*
X149940568Y-58957266D01*
X149810047Y-58770861D01*
X149810045Y-58770858D01*
X149649141Y-58609954D01*
X149462734Y-58479432D01*
X149462732Y-58479431D01*
X149256497Y-58383261D01*
X149256488Y-58383258D01*
X149036697Y-58324366D01*
X149036693Y-58324365D01*
X149036692Y-58324365D01*
X149036691Y-58324364D01*
X149036686Y-58324364D01*
X148810002Y-58304532D01*
X148809998Y-58304532D01*
X148583313Y-58324364D01*
X148583302Y-58324366D01*
X148363511Y-58383258D01*
X148363502Y-58383261D01*
X148157267Y-58479431D01*
X148157265Y-58479432D01*
X147970858Y-58609954D01*
X147809954Y-58770858D01*
X147679432Y-58957265D01*
X147679431Y-58957267D01*
X147652382Y-59015275D01*
X147606209Y-59067714D01*
X147539016Y-59086866D01*
X147472135Y-59066650D01*
X147427618Y-59015275D01*
X147400686Y-58957520D01*
X147400568Y-58957266D01*
X147270047Y-58770861D01*
X147270045Y-58770858D01*
X147109141Y-58609954D01*
X146922734Y-58479432D01*
X146922732Y-58479431D01*
X146716497Y-58383261D01*
X146716488Y-58383258D01*
X146496697Y-58324366D01*
X146496693Y-58324365D01*
X146496692Y-58324365D01*
X146496691Y-58324364D01*
X146496686Y-58324364D01*
X146270002Y-58304532D01*
X146269998Y-58304532D01*
X146043313Y-58324364D01*
X146043302Y-58324366D01*
X145823511Y-58383258D01*
X145823502Y-58383261D01*
X145617267Y-58479431D01*
X145617265Y-58479432D01*
X145430858Y-58609954D01*
X145269954Y-58770858D01*
X145139432Y-58957265D01*
X145139431Y-58957267D01*
X145112382Y-59015275D01*
X145066209Y-59067714D01*
X144999016Y-59086866D01*
X144932135Y-59066650D01*
X144887618Y-59015275D01*
X144860686Y-58957520D01*
X144860568Y-58957266D01*
X144730047Y-58770861D01*
X144730045Y-58770858D01*
X144569141Y-58609954D01*
X144382734Y-58479432D01*
X144382732Y-58479431D01*
X144176497Y-58383261D01*
X144176488Y-58383258D01*
X143956697Y-58324366D01*
X143956693Y-58324365D01*
X143956692Y-58324365D01*
X143956691Y-58324364D01*
X143956686Y-58324364D01*
X143730002Y-58304532D01*
X143729998Y-58304532D01*
X143503313Y-58324364D01*
X143503302Y-58324366D01*
X143283511Y-58383258D01*
X143283502Y-58383261D01*
X143077267Y-58479431D01*
X143077265Y-58479432D01*
X142890858Y-58609954D01*
X142729954Y-58770858D01*
X142599432Y-58957265D01*
X142599431Y-58957267D01*
X142572382Y-59015275D01*
X142526209Y-59067714D01*
X142459016Y-59086866D01*
X142392135Y-59066650D01*
X142347618Y-59015275D01*
X142320686Y-58957520D01*
X142320568Y-58957266D01*
X142190047Y-58770861D01*
X142190045Y-58770858D01*
X142029141Y-58609954D01*
X141842734Y-58479432D01*
X141842732Y-58479431D01*
X141636497Y-58383261D01*
X141636488Y-58383258D01*
X141416697Y-58324366D01*
X141416693Y-58324365D01*
X141416692Y-58324365D01*
X141416691Y-58324364D01*
X141416686Y-58324364D01*
X141190002Y-58304532D01*
X141189998Y-58304532D01*
X140963313Y-58324364D01*
X140963302Y-58324366D01*
X140743511Y-58383258D01*
X140743502Y-58383261D01*
X140537267Y-58479431D01*
X140537265Y-58479432D01*
X140350858Y-58609954D01*
X140189954Y-58770858D01*
X140059432Y-58957265D01*
X140059431Y-58957267D01*
X140032382Y-59015275D01*
X139986209Y-59067714D01*
X139919016Y-59086866D01*
X139852135Y-59066650D01*
X139807618Y-59015275D01*
X139780686Y-58957520D01*
X139780568Y-58957266D01*
X139650047Y-58770861D01*
X139650045Y-58770858D01*
X139489141Y-58609954D01*
X139302734Y-58479432D01*
X139302732Y-58479431D01*
X139096497Y-58383261D01*
X139096488Y-58383258D01*
X138876697Y-58324366D01*
X138876693Y-58324365D01*
X138876692Y-58324365D01*
X138876691Y-58324364D01*
X138876686Y-58324364D01*
X138650002Y-58304532D01*
X138649998Y-58304532D01*
X138423313Y-58324364D01*
X138423302Y-58324366D01*
X138203511Y-58383258D01*
X138203502Y-58383261D01*
X137997267Y-58479431D01*
X137997265Y-58479432D01*
X137810858Y-58609954D01*
X137649954Y-58770858D01*
X137519432Y-58957265D01*
X137519431Y-58957267D01*
X137492382Y-59015275D01*
X137446209Y-59067714D01*
X137379016Y-59086866D01*
X137312135Y-59066650D01*
X137267618Y-59015275D01*
X137240686Y-58957520D01*
X137240568Y-58957266D01*
X137110047Y-58770861D01*
X137110045Y-58770858D01*
X136949141Y-58609954D01*
X136762734Y-58479432D01*
X136762732Y-58479431D01*
X136556497Y-58383261D01*
X136556488Y-58383258D01*
X136336697Y-58324366D01*
X136336693Y-58324365D01*
X136336692Y-58324365D01*
X136336691Y-58324364D01*
X136336686Y-58324364D01*
X136110002Y-58304532D01*
X136109998Y-58304532D01*
X135883313Y-58324364D01*
X135883302Y-58324366D01*
X135663511Y-58383258D01*
X135663502Y-58383261D01*
X135457267Y-58479431D01*
X135457265Y-58479432D01*
X135270858Y-58609954D01*
X135109954Y-58770858D01*
X134979434Y-58957263D01*
X134979432Y-58957266D01*
X134952383Y-59015274D01*
X134952106Y-59015867D01*
X134905933Y-59068306D01*
X134838739Y-59087457D01*
X134771858Y-59067241D01*
X134727342Y-59015865D01*
X134700135Y-58957520D01*
X134700134Y-58957518D01*
X134569657Y-58771179D01*
X134408820Y-58610342D01*
X134222482Y-58479865D01*
X134016328Y-58383734D01*
X133819999Y-58331127D01*
X133819999Y-59174498D01*
X133712315Y-59125320D01*
X133605763Y-59110000D01*
X133534237Y-59110000D01*
X133427685Y-59125320D01*
X133320000Y-59174498D01*
X133320000Y-58331127D01*
X133123671Y-58383734D01*
X132917517Y-58479865D01*
X132731179Y-58610342D01*
X132570342Y-58771179D01*
X132439867Y-58957515D01*
X132412657Y-59015867D01*
X132366484Y-59068306D01*
X132299290Y-59087457D01*
X132232409Y-59067241D01*
X132187893Y-59015865D01*
X132187617Y-59015274D01*
X132160568Y-58957266D01*
X132030047Y-58770861D01*
X132030045Y-58770858D01*
X131869141Y-58609954D01*
X131682734Y-58479432D01*
X131682732Y-58479431D01*
X131476497Y-58383261D01*
X131476488Y-58383258D01*
X131256697Y-58324366D01*
X131256693Y-58324365D01*
X131256692Y-58324365D01*
X131256691Y-58324364D01*
X131256686Y-58324364D01*
X131030002Y-58304532D01*
X131029998Y-58304532D01*
X130803313Y-58324364D01*
X130803302Y-58324366D01*
X130583511Y-58383258D01*
X130583502Y-58383261D01*
X130377267Y-58479431D01*
X130377265Y-58479432D01*
X130190858Y-58609954D01*
X130029954Y-58770858D01*
X129899432Y-58957265D01*
X129899430Y-58957268D01*
X129872380Y-59015277D01*
X129826207Y-59067715D01*
X129759013Y-59086866D01*
X129692132Y-59066649D01*
X129647619Y-59015277D01*
X129620568Y-58957266D01*
X129542856Y-58846280D01*
X129490045Y-58770858D01*
X129329141Y-58609954D01*
X129142734Y-58479432D01*
X129142732Y-58479431D01*
X128936497Y-58383261D01*
X128936488Y-58383258D01*
X128716697Y-58324366D01*
X128716693Y-58324365D01*
X128716692Y-58324365D01*
X128716691Y-58324364D01*
X128716686Y-58324364D01*
X128490002Y-58304532D01*
X128489998Y-58304532D01*
X128263313Y-58324364D01*
X128263302Y-58324366D01*
X128043511Y-58383258D01*
X128043502Y-58383261D01*
X127837267Y-58479431D01*
X127837265Y-58479432D01*
X127650858Y-58609954D01*
X127489954Y-58770858D01*
X127472725Y-58795464D01*
X127418147Y-58839088D01*
X127348648Y-58846280D01*
X127286294Y-58814757D01*
X127250882Y-58754526D01*
X127247861Y-58737591D01*
X127244091Y-58702516D01*
X127193797Y-58567671D01*
X127193793Y-58567664D01*
X127107547Y-58452455D01*
X127107544Y-58452452D01*
X126992335Y-58366206D01*
X126992328Y-58366202D01*
X126857482Y-58315908D01*
X126857483Y-58315908D01*
X126797883Y-58309501D01*
X126797881Y-58309500D01*
X126797873Y-58309500D01*
X126797864Y-58309500D01*
X125102129Y-58309500D01*
X125102123Y-58309501D01*
X125042516Y-58315908D01*
X124907671Y-58366202D01*
X124907664Y-58366206D01*
X124792455Y-58452452D01*
X124792452Y-58452455D01*
X124706206Y-58567664D01*
X124706202Y-58567671D01*
X124655908Y-58702517D01*
X124649501Y-58762116D01*
X124649500Y-58762135D01*
X124649500Y-60457870D01*
X33000500Y-60457870D01*
X33000500Y-54810000D01*
X71644341Y-54810000D01*
X71664936Y-55045403D01*
X71664938Y-55045413D01*
X71726094Y-55273655D01*
X71726096Y-55273659D01*
X71726097Y-55273663D01*
X71825965Y-55487829D01*
X71825965Y-55487830D01*
X71825967Y-55487834D01*
X71934281Y-55642521D01*
X71961501Y-55681396D01*
X71961506Y-55681402D01*
X72083818Y-55803714D01*
X72117303Y-55865037D01*
X72112319Y-55934729D01*
X72070447Y-55990662D01*
X72039471Y-56007577D01*
X71907912Y-56056646D01*
X71907906Y-56056649D01*
X71792812Y-56142809D01*
X71792809Y-56142812D01*
X71706649Y-56257906D01*
X71706645Y-56257913D01*
X71656403Y-56392620D01*
X71656401Y-56392627D01*
X71650000Y-56452155D01*
X71650000Y-57100000D01*
X72566314Y-57100000D01*
X72540507Y-57140156D01*
X72500000Y-57278111D01*
X72500000Y-57421889D01*
X72540507Y-57559844D01*
X72566314Y-57600000D01*
X71650000Y-57600000D01*
X71650000Y-58247844D01*
X71656401Y-58307372D01*
X71656403Y-58307379D01*
X71706645Y-58442086D01*
X71706649Y-58442093D01*
X71792809Y-58557187D01*
X71792812Y-58557190D01*
X71907906Y-58643350D01*
X71907913Y-58643354D01*
X72042620Y-58693596D01*
X72042627Y-58693598D01*
X72102155Y-58699999D01*
X72102172Y-58700000D01*
X72750000Y-58700000D01*
X72750000Y-57785501D01*
X72857685Y-57834680D01*
X72964237Y-57850000D01*
X73035763Y-57850000D01*
X73142315Y-57834680D01*
X73250000Y-57785501D01*
X73250000Y-58700000D01*
X73897828Y-58700000D01*
X73897844Y-58699999D01*
X73957372Y-58693598D01*
X73957379Y-58693596D01*
X74092086Y-58643354D01*
X74092093Y-58643350D01*
X74207187Y-58557190D01*
X74207190Y-58557187D01*
X74293350Y-58442093D01*
X74293354Y-58442086D01*
X74343596Y-58307379D01*
X74343598Y-58307372D01*
X74349999Y-58247844D01*
X74350000Y-58247827D01*
X74350000Y-57600000D01*
X73433686Y-57600000D01*
X73459493Y-57559844D01*
X73500000Y-57421889D01*
X73500000Y-57278111D01*
X73459493Y-57140156D01*
X73433686Y-57100000D01*
X74350000Y-57100000D01*
X74350000Y-56452172D01*
X74349999Y-56452155D01*
X74343598Y-56392627D01*
X74343596Y-56392620D01*
X74293354Y-56257913D01*
X74293350Y-56257906D01*
X74207190Y-56142812D01*
X74207187Y-56142809D01*
X74092093Y-56056649D01*
X74092088Y-56056646D01*
X73960528Y-56007577D01*
X73904595Y-55965705D01*
X73880178Y-55900241D01*
X73895030Y-55831968D01*
X73916175Y-55803720D01*
X74038495Y-55681401D01*
X74174035Y-55487830D01*
X74273903Y-55273663D01*
X74335063Y-55045408D01*
X74355659Y-54810000D01*
X74335063Y-54574592D01*
X74288626Y-54401285D01*
X74273905Y-54346344D01*
X74273904Y-54346343D01*
X74273903Y-54346337D01*
X74174035Y-54132171D01*
X74145973Y-54092093D01*
X74038494Y-53938597D01*
X73871402Y-53771506D01*
X73871396Y-53771501D01*
X73685842Y-53641575D01*
X73642217Y-53586998D01*
X73635023Y-53517500D01*
X73666546Y-53455145D01*
X73685842Y-53438425D01*
X73708026Y-53422891D01*
X73871401Y-53308495D01*
X74038495Y-53141401D01*
X74174035Y-52947830D01*
X74273903Y-52733663D01*
X74335063Y-52505408D01*
X74355659Y-52270000D01*
X74335063Y-52034592D01*
X74273903Y-51806337D01*
X74174035Y-51592171D01*
X74144676Y-51550241D01*
X74038494Y-51398597D01*
X73871402Y-51231506D01*
X73871396Y-51231501D01*
X73685842Y-51101575D01*
X73642217Y-51046998D01*
X73635023Y-50977500D01*
X73666546Y-50915145D01*
X73685842Y-50898425D01*
X73708026Y-50882891D01*
X73871401Y-50768495D01*
X74038495Y-50601401D01*
X74137505Y-50460000D01*
X116644341Y-50460000D01*
X116664936Y-50695403D01*
X116664938Y-50695413D01*
X116726094Y-50923655D01*
X116726096Y-50923659D01*
X116726097Y-50923663D01*
X116751202Y-50977500D01*
X116825965Y-51137830D01*
X116825967Y-51137834D01*
X116934281Y-51292521D01*
X116961501Y-51331396D01*
X116961506Y-51331402D01*
X117083818Y-51453714D01*
X117117303Y-51515037D01*
X117112319Y-51584729D01*
X117070447Y-51640662D01*
X117039471Y-51657577D01*
X116907912Y-51706646D01*
X116907906Y-51706649D01*
X116792812Y-51792809D01*
X116792809Y-51792812D01*
X116706649Y-51907906D01*
X116706645Y-51907913D01*
X116656403Y-52042620D01*
X116656401Y-52042627D01*
X116650000Y-52102155D01*
X116650000Y-52750000D01*
X117566314Y-52750000D01*
X117540507Y-52790156D01*
X117500000Y-52928111D01*
X117500000Y-53071889D01*
X117540507Y-53209844D01*
X117566314Y-53250000D01*
X116650000Y-53250000D01*
X116650000Y-53897844D01*
X116656401Y-53957372D01*
X116656403Y-53957379D01*
X116706645Y-54092086D01*
X116706649Y-54092093D01*
X116792809Y-54207187D01*
X116792812Y-54207190D01*
X116907906Y-54293350D01*
X116907913Y-54293354D01*
X117042620Y-54343596D01*
X117042627Y-54343598D01*
X117102155Y-54349999D01*
X117102172Y-54350000D01*
X117750000Y-54350000D01*
X117750000Y-53435501D01*
X117857685Y-53484680D01*
X117964237Y-53500000D01*
X118035763Y-53500000D01*
X118142315Y-53484680D01*
X118249999Y-53435501D01*
X118249999Y-54349999D01*
X118250000Y-54350000D01*
X118897828Y-54350000D01*
X118897844Y-54349999D01*
X118957372Y-54343598D01*
X118957379Y-54343596D01*
X119092086Y-54293354D01*
X119092093Y-54293350D01*
X119207187Y-54207190D01*
X119207190Y-54207187D01*
X119293350Y-54092093D01*
X119293354Y-54092086D01*
X119343596Y-53957379D01*
X119343598Y-53957372D01*
X119349999Y-53897844D01*
X119350000Y-53897827D01*
X119350000Y-53250000D01*
X118433686Y-53250000D01*
X118459493Y-53209844D01*
X118500000Y-53071889D01*
X118500000Y-52928111D01*
X118459493Y-52790156D01*
X118433686Y-52750000D01*
X119350000Y-52750000D01*
X119350000Y-52102172D01*
X119349999Y-52102155D01*
X119343598Y-52042627D01*
X119343596Y-52042620D01*
X119293354Y-51907913D01*
X119293350Y-51907906D01*
X119207190Y-51792812D01*
X119207187Y-51792809D01*
X119092093Y-51706649D01*
X119092088Y-51706646D01*
X118960528Y-51657577D01*
X118904595Y-51615705D01*
X118880178Y-51550241D01*
X118895030Y-51481968D01*
X118916175Y-51453720D01*
X119038495Y-51331401D01*
X119174035Y-51137830D01*
X119273903Y-50923663D01*
X119335063Y-50695408D01*
X119355659Y-50460000D01*
X119335063Y-50224592D01*
X119273903Y-49996337D01*
X119174035Y-49782171D01*
X119038495Y-49588599D01*
X119038494Y-49588597D01*
X118871402Y-49421506D01*
X118871395Y-49421501D01*
X118677834Y-49285967D01*
X118677830Y-49285965D01*
X118635733Y-49266335D01*
X118463663Y-49186097D01*
X118463659Y-49186096D01*
X118463655Y-49186094D01*
X118235413Y-49124938D01*
X118235403Y-49124936D01*
X118000001Y-49104341D01*
X117999999Y-49104341D01*
X117764596Y-49124936D01*
X117764586Y-49124938D01*
X117536344Y-49186094D01*
X117536335Y-49186098D01*
X117322171Y-49285964D01*
X117322169Y-49285965D01*
X117128597Y-49421505D01*
X116961505Y-49588597D01*
X116825965Y-49782169D01*
X116825964Y-49782171D01*
X116726098Y-49996335D01*
X116726094Y-49996344D01*
X116664938Y-50224586D01*
X116664936Y-50224596D01*
X116644341Y-50459999D01*
X116644341Y-50460000D01*
X74137505Y-50460000D01*
X74174035Y-50407830D01*
X74273903Y-50193663D01*
X74335063Y-49965408D01*
X74355659Y-49730000D01*
X74335063Y-49494592D01*
X74308740Y-49396356D01*
X74310404Y-49326506D01*
X74340833Y-49276584D01*
X76585043Y-47032374D01*
X76597325Y-47022537D01*
X76597144Y-47022318D01*
X76603153Y-47017345D01*
X76603162Y-47017340D01*
X76650072Y-46967385D01*
X76651311Y-46966106D01*
X76671623Y-46945796D01*
X76675892Y-46940290D01*
X76679676Y-46935859D01*
X76711693Y-46901767D01*
X76721389Y-46884128D01*
X76732073Y-46867861D01*
X76744408Y-46851962D01*
X76762978Y-46809046D01*
X76765534Y-46803827D01*
X76788072Y-46762834D01*
X76793078Y-46743334D01*
X76799382Y-46724924D01*
X76807370Y-46706465D01*
X76807373Y-46706459D01*
X76814687Y-46660280D01*
X76815868Y-46654570D01*
X76827500Y-46609272D01*
X76827500Y-46589135D01*
X76829027Y-46569735D01*
X76832174Y-46549867D01*
X76827775Y-46503329D01*
X76827500Y-46497491D01*
X76827500Y-38792281D01*
X76847185Y-38725242D01*
X76863819Y-38704600D01*
X78582600Y-36985819D01*
X78643923Y-36952334D01*
X78670281Y-36949500D01*
X81708500Y-36949500D01*
X81775539Y-36969185D01*
X81821294Y-37021989D01*
X81832500Y-37073500D01*
X81832500Y-38726173D01*
X81812815Y-38793212D01*
X81779624Y-38827748D01*
X81588594Y-38961508D01*
X81421505Y-39128597D01*
X81291575Y-39314158D01*
X81236998Y-39357783D01*
X81167500Y-39364977D01*
X81105145Y-39333454D01*
X81088425Y-39314158D01*
X80958494Y-39128597D01*
X80791402Y-38961506D01*
X80791395Y-38961501D01*
X80597834Y-38825967D01*
X80597830Y-38825965D01*
X80592557Y-38823506D01*
X80383663Y-38726097D01*
X80383659Y-38726096D01*
X80383655Y-38726094D01*
X80155413Y-38664938D01*
X80155403Y-38664936D01*
X79920001Y-38644341D01*
X79919999Y-38644341D01*
X79684596Y-38664936D01*
X79684586Y-38664938D01*
X79456344Y-38726094D01*
X79456335Y-38726098D01*
X79242171Y-38825964D01*
X79242169Y-38825965D01*
X79048597Y-38961505D01*
X78881505Y-39128597D01*
X78745965Y-39322169D01*
X78745964Y-39322171D01*
X78646098Y-39536335D01*
X78646094Y-39536344D01*
X78584938Y-39764586D01*
X78584936Y-39764596D01*
X78564341Y-39999999D01*
X78564341Y-40000000D01*
X78584936Y-40235403D01*
X78584938Y-40235413D01*
X78646094Y-40463655D01*
X78646096Y-40463659D01*
X78646097Y-40463663D01*
X78726004Y-40635023D01*
X78745965Y-40677830D01*
X78745967Y-40677834D01*
X78854281Y-40832521D01*
X78881505Y-40871401D01*
X79048599Y-41038495D01*
X79145384Y-41106264D01*
X79242165Y-41174032D01*
X79242167Y-41174033D01*
X79242170Y-41174035D01*
X79456337Y-41273903D01*
X79684592Y-41335063D01*
X79861034Y-41350500D01*
X79919999Y-41355659D01*
X79920000Y-41355659D01*
X79920001Y-41355659D01*
X79978966Y-41350500D01*
X80155408Y-41335063D01*
X80383663Y-41273903D01*
X80597830Y-41174035D01*
X80791401Y-41038495D01*
X80958495Y-40871401D01*
X81088426Y-40685840D01*
X81143001Y-40642217D01*
X81212499Y-40635023D01*
X81274854Y-40666546D01*
X81291574Y-40685841D01*
X81421505Y-40871401D01*
X81588599Y-41038495D01*
X81685384Y-41106264D01*
X81782165Y-41174032D01*
X81782167Y-41174033D01*
X81782170Y-41174035D01*
X81996337Y-41273903D01*
X82224592Y-41335063D01*
X82401034Y-41350500D01*
X82459999Y-41355659D01*
X82460000Y-41355659D01*
X82460001Y-41355659D01*
X82518966Y-41350500D01*
X82695408Y-41335063D01*
X82923663Y-41273903D01*
X83137830Y-41174035D01*
X83331401Y-41038495D01*
X83498495Y-40871401D01*
X83628730Y-40685405D01*
X83683307Y-40641781D01*
X83752805Y-40634587D01*
X83815160Y-40666110D01*
X83831879Y-40685405D01*
X83961890Y-40871078D01*
X84128917Y-41038105D01*
X84322421Y-41173600D01*
X84536507Y-41273429D01*
X84536516Y-41273433D01*
X84750000Y-41330634D01*
X84750000Y-40435501D01*
X84857685Y-40484680D01*
X84964237Y-40500000D01*
X85035763Y-40500000D01*
X85142315Y-40484680D01*
X85250000Y-40435501D01*
X85250000Y-41330633D01*
X85463483Y-41273433D01*
X85463492Y-41273429D01*
X85677578Y-41173600D01*
X85871078Y-41038108D01*
X85993133Y-40916053D01*
X86054456Y-40882568D01*
X86124148Y-40887552D01*
X86180082Y-40929423D01*
X86196997Y-40960401D01*
X86246202Y-41092328D01*
X86246206Y-41092335D01*
X86332452Y-41207544D01*
X86332455Y-41207547D01*
X86447664Y-41293793D01*
X86447671Y-41293797D01*
X86582517Y-41344091D01*
X86582516Y-41344091D01*
X86589444Y-41344835D01*
X86642127Y-41350500D01*
X88437872Y-41350499D01*
X88497483Y-41344091D01*
X88632331Y-41293796D01*
X88747546Y-41207546D01*
X88833796Y-41092331D01*
X88884091Y-40957483D01*
X88890500Y-40897873D01*
X88890499Y-39102128D01*
X88884091Y-39042517D01*
X88883002Y-39039598D01*
X88833797Y-38907671D01*
X88833793Y-38907664D01*
X88747547Y-38792455D01*
X88747544Y-38792452D01*
X88632335Y-38706206D01*
X88632328Y-38706202D01*
X88497482Y-38655908D01*
X88497483Y-38655908D01*
X88437883Y-38649501D01*
X88437881Y-38649500D01*
X88437873Y-38649500D01*
X88437864Y-38649500D01*
X86642129Y-38649500D01*
X86642123Y-38649501D01*
X86582516Y-38655908D01*
X86447671Y-38706202D01*
X86447664Y-38706206D01*
X86332455Y-38792452D01*
X86332452Y-38792455D01*
X86246206Y-38907664D01*
X86246202Y-38907671D01*
X86196997Y-39039598D01*
X86155126Y-39095532D01*
X86089661Y-39119949D01*
X86021388Y-39105097D01*
X85993134Y-39083946D01*
X85871082Y-38961894D01*
X85677578Y-38826399D01*
X85463492Y-38726570D01*
X85463486Y-38726567D01*
X85250000Y-38669364D01*
X85250000Y-39564498D01*
X85142315Y-39515320D01*
X85035763Y-39500000D01*
X84964237Y-39500000D01*
X84857685Y-39515320D01*
X84750000Y-39564498D01*
X84750000Y-38669364D01*
X84749999Y-38669364D01*
X84536513Y-38726567D01*
X84536507Y-38726570D01*
X84322422Y-38826399D01*
X84322420Y-38826400D01*
X84128926Y-38961886D01*
X84128920Y-38961891D01*
X83961891Y-39128920D01*
X83961890Y-39128922D01*
X83831880Y-39314595D01*
X83777303Y-39358219D01*
X83707804Y-39365412D01*
X83645450Y-39333890D01*
X83628730Y-39314594D01*
X83498494Y-39128597D01*
X83331402Y-38961506D01*
X83331401Y-38961505D01*
X83140376Y-38827748D01*
X83096752Y-38773171D01*
X83087500Y-38726173D01*
X83087500Y-37073500D01*
X83107185Y-37006461D01*
X83159989Y-36960706D01*
X83211500Y-36949500D01*
X107788500Y-36949500D01*
X107855539Y-36969185D01*
X107901294Y-37021989D01*
X107912500Y-37073500D01*
X107912499Y-38726173D01*
X107892814Y-38793213D01*
X107859623Y-38827748D01*
X107668594Y-38961508D01*
X107501505Y-39128597D01*
X107371575Y-39314158D01*
X107316998Y-39357783D01*
X107247500Y-39364977D01*
X107185145Y-39333454D01*
X107168425Y-39314158D01*
X107038494Y-39128597D01*
X106871402Y-38961506D01*
X106871395Y-38961501D01*
X106677834Y-38825967D01*
X106677830Y-38825965D01*
X106672557Y-38823506D01*
X106463663Y-38726097D01*
X106463659Y-38726096D01*
X106463655Y-38726094D01*
X106235413Y-38664938D01*
X106235403Y-38664936D01*
X106000001Y-38644341D01*
X105999999Y-38644341D01*
X105764596Y-38664936D01*
X105764586Y-38664938D01*
X105536344Y-38726094D01*
X105536335Y-38726098D01*
X105322171Y-38825964D01*
X105322169Y-38825965D01*
X105128600Y-38961503D01*
X105006284Y-39083819D01*
X104944961Y-39117303D01*
X104875269Y-39112319D01*
X104819336Y-39070447D01*
X104802421Y-39039470D01*
X104753354Y-38907913D01*
X104753350Y-38907906D01*
X104667190Y-38792812D01*
X104667187Y-38792809D01*
X104552093Y-38706649D01*
X104552086Y-38706645D01*
X104417379Y-38656403D01*
X104417372Y-38656401D01*
X104357844Y-38650000D01*
X103710000Y-38650000D01*
X103710000Y-39564498D01*
X103602315Y-39515320D01*
X103495763Y-39500000D01*
X103424237Y-39500000D01*
X103317685Y-39515320D01*
X103210000Y-39564498D01*
X103210000Y-38650000D01*
X102562155Y-38650000D01*
X102502627Y-38656401D01*
X102502620Y-38656403D01*
X102367913Y-38706645D01*
X102367906Y-38706649D01*
X102252812Y-38792809D01*
X102252809Y-38792812D01*
X102166649Y-38907906D01*
X102166645Y-38907913D01*
X102116403Y-39042620D01*
X102116401Y-39042627D01*
X102110000Y-39102155D01*
X102110000Y-39750000D01*
X103026314Y-39750000D01*
X103000507Y-39790156D01*
X102960000Y-39928111D01*
X102960000Y-40071889D01*
X103000507Y-40209844D01*
X103026314Y-40250000D01*
X102110000Y-40250000D01*
X102110000Y-40897844D01*
X102116401Y-40957372D01*
X102116403Y-40957379D01*
X102166645Y-41092086D01*
X102166649Y-41092093D01*
X102252809Y-41207187D01*
X102252812Y-41207190D01*
X102367906Y-41293350D01*
X102367913Y-41293354D01*
X102502620Y-41343596D01*
X102502627Y-41343598D01*
X102562155Y-41349999D01*
X102562172Y-41350000D01*
X103210000Y-41350000D01*
X103210000Y-40435501D01*
X103317685Y-40484680D01*
X103424237Y-40500000D01*
X103495763Y-40500000D01*
X103602315Y-40484680D01*
X103710000Y-40435501D01*
X103710000Y-41350000D01*
X104357828Y-41350000D01*
X104357844Y-41349999D01*
X104417372Y-41343598D01*
X104417379Y-41343596D01*
X104552086Y-41293354D01*
X104552093Y-41293350D01*
X104667187Y-41207190D01*
X104667190Y-41207187D01*
X104753350Y-41092093D01*
X104753354Y-41092086D01*
X104802422Y-40960529D01*
X104844293Y-40904595D01*
X104909757Y-40880178D01*
X104978030Y-40895030D01*
X105006285Y-40916181D01*
X105128599Y-41038495D01*
X105225384Y-41106265D01*
X105322165Y-41174032D01*
X105322167Y-41174033D01*
X105322170Y-41174035D01*
X105536337Y-41273903D01*
X105764592Y-41335063D01*
X105941034Y-41350500D01*
X105999999Y-41355659D01*
X106000000Y-41355659D01*
X106000001Y-41355659D01*
X106058966Y-41350500D01*
X106235408Y-41335063D01*
X106463663Y-41273903D01*
X106677830Y-41174035D01*
X106871401Y-41038495D01*
X107038495Y-40871401D01*
X107168426Y-40685840D01*
X107223001Y-40642217D01*
X107292499Y-40635023D01*
X107354854Y-40666546D01*
X107371574Y-40685841D01*
X107501505Y-40871401D01*
X107668599Y-41038495D01*
X107765384Y-41106265D01*
X107862165Y-41174032D01*
X107862167Y-41174033D01*
X107862170Y-41174035D01*
X108076337Y-41273903D01*
X108304592Y-41335063D01*
X108481034Y-41350500D01*
X108539999Y-41355659D01*
X108540000Y-41355659D01*
X108540001Y-41355659D01*
X108598966Y-41350500D01*
X108775408Y-41335063D01*
X109003663Y-41273903D01*
X109217830Y-41174035D01*
X109411401Y-41038495D01*
X109578495Y-40871401D01*
X109708426Y-40685841D01*
X109763002Y-40642217D01*
X109832500Y-40635023D01*
X109894855Y-40666546D01*
X109911575Y-40685842D01*
X110041500Y-40871395D01*
X110041505Y-40871401D01*
X110208599Y-41038495D01*
X110305384Y-41106265D01*
X110402165Y-41174032D01*
X110402167Y-41174033D01*
X110402170Y-41174035D01*
X110616337Y-41273903D01*
X110844592Y-41335063D01*
X111021034Y-41350500D01*
X111079999Y-41355659D01*
X111080000Y-41355659D01*
X111080001Y-41355659D01*
X111138966Y-41350500D01*
X111315408Y-41335063D01*
X111543663Y-41273903D01*
X111757830Y-41174035D01*
X111951401Y-41038495D01*
X112118495Y-40871401D01*
X112254035Y-40677830D01*
X112353903Y-40463663D01*
X112415063Y-40235408D01*
X112435659Y-40000000D01*
X112415063Y-39764592D01*
X112353903Y-39536337D01*
X112254035Y-39322171D01*
X112248731Y-39314595D01*
X112118494Y-39128597D01*
X111951402Y-38961506D01*
X111951395Y-38961501D01*
X111757834Y-38825967D01*
X111757830Y-38825965D01*
X111752557Y-38823506D01*
X111543663Y-38726097D01*
X111543659Y-38726096D01*
X111543655Y-38726094D01*
X111315413Y-38664938D01*
X111315403Y-38664936D01*
X111080001Y-38644341D01*
X111079999Y-38644341D01*
X110844596Y-38664936D01*
X110844586Y-38664938D01*
X110616344Y-38726094D01*
X110616335Y-38726098D01*
X110402171Y-38825964D01*
X110402169Y-38825965D01*
X110208597Y-38961505D01*
X110041505Y-39128597D01*
X109911575Y-39314158D01*
X109856998Y-39357783D01*
X109787500Y-39364977D01*
X109725145Y-39333454D01*
X109708425Y-39314158D01*
X109578494Y-39128597D01*
X109411402Y-38961506D01*
X109411401Y-38961505D01*
X109220376Y-38827748D01*
X109176752Y-38773171D01*
X109167500Y-38726173D01*
X109167500Y-37073500D01*
X109187185Y-37006461D01*
X109239989Y-36960706D01*
X109291500Y-36949500D01*
X132830719Y-36949500D01*
X132897758Y-36969185D01*
X132918400Y-36985819D01*
X138789491Y-42856910D01*
X138822976Y-42918233D01*
X138817992Y-42987925D01*
X138776120Y-43043858D01*
X138710656Y-43068275D01*
X138691003Y-43068119D01*
X138650002Y-43064532D01*
X138649998Y-43064532D01*
X138423313Y-43084364D01*
X138423302Y-43084366D01*
X138203511Y-43143258D01*
X138203502Y-43143261D01*
X137997267Y-43239431D01*
X137997265Y-43239432D01*
X137810858Y-43369954D01*
X137649954Y-43530858D01*
X137519432Y-43717265D01*
X137519431Y-43717267D01*
X137492382Y-43775275D01*
X137446209Y-43827714D01*
X137379016Y-43846866D01*
X137312135Y-43826650D01*
X137267618Y-43775275D01*
X137240686Y-43717520D01*
X137240568Y-43717266D01*
X137110047Y-43530861D01*
X137110045Y-43530858D01*
X136949141Y-43369954D01*
X136762734Y-43239432D01*
X136762732Y-43239431D01*
X136556497Y-43143261D01*
X136556488Y-43143258D01*
X136336697Y-43084366D01*
X136336693Y-43084365D01*
X136336692Y-43084365D01*
X136336691Y-43084364D01*
X136336686Y-43084364D01*
X136110002Y-43064532D01*
X136109998Y-43064532D01*
X135883313Y-43084364D01*
X135883302Y-43084366D01*
X135663511Y-43143258D01*
X135663502Y-43143261D01*
X135457267Y-43239431D01*
X135457265Y-43239432D01*
X135270858Y-43369954D01*
X135109954Y-43530858D01*
X134979432Y-43717265D01*
X134979431Y-43717267D01*
X134952382Y-43775275D01*
X134906209Y-43827714D01*
X134839016Y-43846866D01*
X134772135Y-43826650D01*
X134727618Y-43775275D01*
X134700686Y-43717520D01*
X134700568Y-43717266D01*
X134570047Y-43530861D01*
X134570045Y-43530858D01*
X134409141Y-43369954D01*
X134222734Y-43239432D01*
X134222732Y-43239431D01*
X134016497Y-43143261D01*
X134016488Y-43143258D01*
X133796697Y-43084366D01*
X133796693Y-43084365D01*
X133796692Y-43084365D01*
X133796691Y-43084364D01*
X133796686Y-43084364D01*
X133570002Y-43064532D01*
X133569998Y-43064532D01*
X133343313Y-43084364D01*
X133343302Y-43084366D01*
X133123511Y-43143258D01*
X133123502Y-43143261D01*
X132917267Y-43239431D01*
X132917265Y-43239432D01*
X132730858Y-43369954D01*
X132569954Y-43530858D01*
X132439432Y-43717265D01*
X132439431Y-43717267D01*
X132412382Y-43775275D01*
X132366209Y-43827714D01*
X132299016Y-43846866D01*
X132232135Y-43826650D01*
X132187618Y-43775275D01*
X132160686Y-43717520D01*
X132160568Y-43717266D01*
X132030047Y-43530861D01*
X132030045Y-43530858D01*
X131869141Y-43369954D01*
X131682734Y-43239432D01*
X131682732Y-43239431D01*
X131476497Y-43143261D01*
X131476488Y-43143258D01*
X131256697Y-43084366D01*
X131256693Y-43084365D01*
X131256692Y-43084365D01*
X131256691Y-43084364D01*
X131256686Y-43084364D01*
X131030002Y-43064532D01*
X131029998Y-43064532D01*
X130803313Y-43084364D01*
X130803302Y-43084366D01*
X130583511Y-43143258D01*
X130583502Y-43143261D01*
X130377267Y-43239431D01*
X130377265Y-43239432D01*
X130190858Y-43369954D01*
X130029954Y-43530858D01*
X129899434Y-43717263D01*
X129899432Y-43717266D01*
X129872383Y-43775274D01*
X129872106Y-43775867D01*
X129825933Y-43828306D01*
X129758739Y-43847457D01*
X129691858Y-43827241D01*
X129647342Y-43775865D01*
X129620135Y-43717520D01*
X129620134Y-43717518D01*
X129489657Y-43531179D01*
X129328820Y-43370342D01*
X129142482Y-43239865D01*
X128936328Y-43143734D01*
X128740000Y-43091127D01*
X128740000Y-43934498D01*
X128632315Y-43885320D01*
X128525763Y-43870000D01*
X128454237Y-43870000D01*
X128347685Y-43885320D01*
X128240000Y-43934498D01*
X128240000Y-43091127D01*
X128043671Y-43143734D01*
X127837517Y-43239865D01*
X127651179Y-43370342D01*
X127490342Y-43531179D01*
X127359867Y-43717515D01*
X127332657Y-43775867D01*
X127286484Y-43828306D01*
X127219290Y-43847457D01*
X127152409Y-43827241D01*
X127107893Y-43775865D01*
X127107617Y-43775274D01*
X127080568Y-43717266D01*
X126950047Y-43530861D01*
X126950045Y-43530858D01*
X126789141Y-43369954D01*
X126602734Y-43239432D01*
X126602732Y-43239431D01*
X126396497Y-43143261D01*
X126396488Y-43143258D01*
X126176697Y-43084366D01*
X126176693Y-43084365D01*
X126176692Y-43084365D01*
X126176691Y-43084364D01*
X126176686Y-43084364D01*
X125950002Y-43064532D01*
X125949998Y-43064532D01*
X125723313Y-43084364D01*
X125723302Y-43084366D01*
X125503511Y-43143258D01*
X125503502Y-43143261D01*
X125297267Y-43239431D01*
X125297265Y-43239432D01*
X125110858Y-43369954D01*
X124949954Y-43530858D01*
X124819432Y-43717265D01*
X124819431Y-43717267D01*
X124723261Y-43923502D01*
X124723258Y-43923511D01*
X124664366Y-44143302D01*
X124664364Y-44143313D01*
X124644532Y-44369998D01*
X124644532Y-44370001D01*
X124664364Y-44596686D01*
X124664366Y-44596697D01*
X124723258Y-44816488D01*
X124723261Y-44816497D01*
X124819431Y-45022732D01*
X124819432Y-45022734D01*
X124949954Y-45209141D01*
X125110858Y-45370045D01*
X125110861Y-45370047D01*
X125297266Y-45500568D01*
X125503504Y-45596739D01*
X125723308Y-45655635D01*
X125885230Y-45669801D01*
X125949998Y-45675468D01*
X125950000Y-45675468D01*
X125950002Y-45675468D01*
X126006672Y-45670509D01*
X126176692Y-45655635D01*
X126396496Y-45596739D01*
X126602734Y-45500568D01*
X126789139Y-45370047D01*
X126950047Y-45209139D01*
X127080568Y-45022734D01*
X127107895Y-44964129D01*
X127154064Y-44911695D01*
X127221257Y-44892542D01*
X127288139Y-44912757D01*
X127332657Y-44964133D01*
X127359865Y-45022482D01*
X127490342Y-45208820D01*
X127651179Y-45369657D01*
X127837517Y-45500134D01*
X128043673Y-45596265D01*
X128043682Y-45596269D01*
X128239999Y-45648872D01*
X128240000Y-45648871D01*
X128240000Y-44805501D01*
X128347685Y-44854680D01*
X128454237Y-44870000D01*
X128525763Y-44870000D01*
X128632315Y-44854680D01*
X128740000Y-44805501D01*
X128740000Y-45648872D01*
X128936317Y-45596269D01*
X128936326Y-45596265D01*
X129142482Y-45500134D01*
X129328820Y-45369657D01*
X129489657Y-45208820D01*
X129620132Y-45022484D01*
X129647341Y-44964134D01*
X129693513Y-44911695D01*
X129760707Y-44892542D01*
X129827588Y-44912757D01*
X129872105Y-44964132D01*
X129894088Y-45011275D01*
X129899431Y-45022732D01*
X129899432Y-45022734D01*
X130029954Y-45209141D01*
X130190858Y-45370045D01*
X130190861Y-45370047D01*
X130377266Y-45500568D01*
X130583504Y-45596739D01*
X130803308Y-45655635D01*
X130965230Y-45669801D01*
X131029998Y-45675468D01*
X131030000Y-45675468D01*
X131030002Y-45675468D01*
X131086672Y-45670509D01*
X131256692Y-45655635D01*
X131476496Y-45596739D01*
X131682734Y-45500568D01*
X131869139Y-45370047D01*
X132030047Y-45209139D01*
X132160568Y-45022734D01*
X132187618Y-44964724D01*
X132233790Y-44912285D01*
X132300983Y-44893133D01*
X132367865Y-44913348D01*
X132412382Y-44964725D01*
X132439429Y-45022728D01*
X132439432Y-45022734D01*
X132569954Y-45209141D01*
X132730858Y-45370045D01*
X132730861Y-45370047D01*
X132917266Y-45500568D01*
X133123504Y-45596739D01*
X133343308Y-45655635D01*
X133505230Y-45669801D01*
X133569998Y-45675468D01*
X133570000Y-45675468D01*
X133570002Y-45675468D01*
X133626673Y-45670509D01*
X133796692Y-45655635D01*
X134016496Y-45596739D01*
X134222734Y-45500568D01*
X134409139Y-45370047D01*
X134570047Y-45209139D01*
X134700568Y-45022734D01*
X134727618Y-44964724D01*
X134773790Y-44912285D01*
X134840983Y-44893133D01*
X134907865Y-44913348D01*
X134952382Y-44964725D01*
X134979429Y-45022728D01*
X134979432Y-45022734D01*
X135109954Y-45209141D01*
X135270858Y-45370045D01*
X135270861Y-45370047D01*
X135457266Y-45500568D01*
X135663504Y-45596739D01*
X135883308Y-45655635D01*
X136045230Y-45669801D01*
X136109998Y-45675468D01*
X136110000Y-45675468D01*
X136110002Y-45675468D01*
X136166672Y-45670509D01*
X136336692Y-45655635D01*
X136556496Y-45596739D01*
X136762734Y-45500568D01*
X136949139Y-45370047D01*
X137110047Y-45209139D01*
X137240568Y-45022734D01*
X137267618Y-44964724D01*
X137313790Y-44912285D01*
X137380983Y-44893133D01*
X137447865Y-44913348D01*
X137492382Y-44964725D01*
X137519429Y-45022728D01*
X137519432Y-45022734D01*
X137649954Y-45209141D01*
X137810858Y-45370045D01*
X137810861Y-45370047D01*
X137997266Y-45500568D01*
X138203504Y-45596739D01*
X138423308Y-45655635D01*
X138585230Y-45669801D01*
X138649998Y-45675468D01*
X138650000Y-45675468D01*
X138650002Y-45675468D01*
X138706672Y-45670509D01*
X138876692Y-45655635D01*
X139096496Y-45596739D01*
X139302734Y-45500568D01*
X139489139Y-45370047D01*
X139650047Y-45209139D01*
X139780568Y-45022734D01*
X139807618Y-44964724D01*
X139853790Y-44912285D01*
X139920983Y-44893133D01*
X139987865Y-44913348D01*
X140032382Y-44964725D01*
X140059429Y-45022728D01*
X140059432Y-45022734D01*
X140189954Y-45209141D01*
X140350858Y-45370045D01*
X140350861Y-45370047D01*
X140537266Y-45500568D01*
X140743504Y-45596739D01*
X140963308Y-45655635D01*
X141125230Y-45669801D01*
X141189998Y-45675468D01*
X141190000Y-45675468D01*
X141190002Y-45675468D01*
X141246672Y-45670509D01*
X141416692Y-45655635D01*
X141636496Y-45596739D01*
X141842734Y-45500568D01*
X142029139Y-45370047D01*
X142190047Y-45209139D01*
X142320568Y-45022734D01*
X142347618Y-44964724D01*
X142393790Y-44912285D01*
X142460983Y-44893133D01*
X142527865Y-44913348D01*
X142572382Y-44964725D01*
X142599429Y-45022728D01*
X142599432Y-45022734D01*
X142729954Y-45209141D01*
X142890858Y-45370045D01*
X142890861Y-45370047D01*
X143077266Y-45500568D01*
X143283504Y-45596739D01*
X143503308Y-45655635D01*
X143665230Y-45669801D01*
X143729998Y-45675468D01*
X143730000Y-45675468D01*
X143730002Y-45675468D01*
X143786673Y-45670509D01*
X143956692Y-45655635D01*
X144176496Y-45596739D01*
X144382734Y-45500568D01*
X144569139Y-45370047D01*
X144730047Y-45209139D01*
X144860568Y-45022734D01*
X144887618Y-44964724D01*
X144933790Y-44912285D01*
X145000983Y-44893133D01*
X145067865Y-44913348D01*
X145112382Y-44964725D01*
X145139429Y-45022728D01*
X145139432Y-45022734D01*
X145269954Y-45209141D01*
X145430858Y-45370045D01*
X145430861Y-45370047D01*
X145617266Y-45500568D01*
X145823504Y-45596739D01*
X146043308Y-45655635D01*
X146205230Y-45669801D01*
X146269998Y-45675468D01*
X146270000Y-45675468D01*
X146270002Y-45675468D01*
X146326672Y-45670509D01*
X146496692Y-45655635D01*
X146716496Y-45596739D01*
X146922734Y-45500568D01*
X147109139Y-45370047D01*
X147270047Y-45209139D01*
X147400568Y-45022734D01*
X147427618Y-44964724D01*
X147473790Y-44912285D01*
X147540983Y-44893133D01*
X147607865Y-44913348D01*
X147652382Y-44964725D01*
X147679429Y-45022728D01*
X147679432Y-45022734D01*
X147809954Y-45209141D01*
X147970858Y-45370045D01*
X147970861Y-45370047D01*
X148157266Y-45500568D01*
X148363504Y-45596739D01*
X148583308Y-45655635D01*
X148745230Y-45669801D01*
X148809998Y-45675468D01*
X148810000Y-45675468D01*
X148810002Y-45675468D01*
X148866673Y-45670509D01*
X149036692Y-45655635D01*
X149256496Y-45596739D01*
X149462734Y-45500568D01*
X149649139Y-45370047D01*
X149810047Y-45209139D01*
X149940568Y-45022734D01*
X149967618Y-44964724D01*
X150013790Y-44912285D01*
X150080983Y-44893133D01*
X150147865Y-44913348D01*
X150192382Y-44964725D01*
X150219429Y-45022728D01*
X150219432Y-45022734D01*
X150349954Y-45209141D01*
X150510858Y-45370045D01*
X150510861Y-45370047D01*
X150697266Y-45500568D01*
X150903504Y-45596739D01*
X151123308Y-45655635D01*
X151285230Y-45669801D01*
X151349998Y-45675468D01*
X151350000Y-45675468D01*
X151350002Y-45675468D01*
X151406672Y-45670509D01*
X151576692Y-45655635D01*
X151796496Y-45596739D01*
X152002734Y-45500568D01*
X152189139Y-45370047D01*
X152350047Y-45209139D01*
X152480568Y-45022734D01*
X152507619Y-44964721D01*
X152553788Y-44912286D01*
X152620981Y-44893133D01*
X152687862Y-44913348D01*
X152732380Y-44964722D01*
X152759432Y-45022734D01*
X152815317Y-45102546D01*
X152889954Y-45209141D01*
X153050858Y-45370045D01*
X153050861Y-45370047D01*
X153237266Y-45500568D01*
X153443504Y-45596739D01*
X153663308Y-45655635D01*
X153825230Y-45669801D01*
X153889998Y-45675468D01*
X153890000Y-45675468D01*
X153890002Y-45675468D01*
X153946673Y-45670509D01*
X154116692Y-45655635D01*
X154336496Y-45596739D01*
X154542734Y-45500568D01*
X154729139Y-45370047D01*
X154890047Y-45209139D01*
X155020568Y-45022734D01*
X155047619Y-44964721D01*
X155093788Y-44912286D01*
X155160981Y-44893133D01*
X155227862Y-44913348D01*
X155272380Y-44964722D01*
X155299432Y-45022734D01*
X155355317Y-45102546D01*
X155429954Y-45209141D01*
X155590858Y-45370045D01*
X155590861Y-45370047D01*
X155777266Y-45500568D01*
X155983504Y-45596739D01*
X156203308Y-45655635D01*
X156365230Y-45669801D01*
X156429998Y-45675468D01*
X156430000Y-45675468D01*
X156430002Y-45675468D01*
X156486672Y-45670509D01*
X156656692Y-45655635D01*
X156876496Y-45596739D01*
X157082734Y-45500568D01*
X157269139Y-45370047D01*
X157430047Y-45209139D01*
X157560568Y-45022734D01*
X157587619Y-44964721D01*
X157633788Y-44912286D01*
X157700981Y-44893133D01*
X157767862Y-44913348D01*
X157812380Y-44964722D01*
X157839432Y-45022734D01*
X157895317Y-45102546D01*
X157969954Y-45209141D01*
X158130858Y-45370045D01*
X158130861Y-45370047D01*
X158317266Y-45500568D01*
X158523504Y-45596739D01*
X158743308Y-45655635D01*
X158905230Y-45669801D01*
X158969998Y-45675468D01*
X158970000Y-45675468D01*
X158970002Y-45675468D01*
X159026672Y-45670509D01*
X159196692Y-45655635D01*
X159416496Y-45596739D01*
X159622734Y-45500568D01*
X159809139Y-45370047D01*
X159970047Y-45209139D01*
X160100568Y-45022734D01*
X160127619Y-44964721D01*
X160173788Y-44912286D01*
X160240981Y-44893133D01*
X160307862Y-44913348D01*
X160352380Y-44964722D01*
X160379432Y-45022734D01*
X160435316Y-45102546D01*
X160509954Y-45209141D01*
X160670858Y-45370045D01*
X160670861Y-45370047D01*
X160857266Y-45500568D01*
X161063504Y-45596739D01*
X161283308Y-45655635D01*
X161445230Y-45669801D01*
X161509998Y-45675468D01*
X161510000Y-45675468D01*
X161510002Y-45675468D01*
X161566672Y-45670509D01*
X161736692Y-45655635D01*
X161956496Y-45596739D01*
X162162734Y-45500568D01*
X162349139Y-45370047D01*
X162510047Y-45209139D01*
X162640568Y-45022734D01*
X162736739Y-44816496D01*
X162795635Y-44596692D01*
X162815468Y-44370000D01*
X162795635Y-44143308D01*
X162736739Y-43923504D01*
X162640568Y-43717266D01*
X162510047Y-43530861D01*
X162510045Y-43530858D01*
X162349141Y-43369954D01*
X162162734Y-43239432D01*
X162162732Y-43239431D01*
X161956497Y-43143261D01*
X161956488Y-43143258D01*
X161736697Y-43084366D01*
X161736693Y-43084365D01*
X161736692Y-43084365D01*
X161736691Y-43084364D01*
X161736686Y-43084364D01*
X161510002Y-43064532D01*
X161509998Y-43064532D01*
X161283313Y-43084364D01*
X161283302Y-43084366D01*
X161063511Y-43143258D01*
X161063502Y-43143261D01*
X160857267Y-43239431D01*
X160857265Y-43239432D01*
X160670858Y-43369954D01*
X160509954Y-43530858D01*
X160379432Y-43717265D01*
X160379430Y-43717268D01*
X160352380Y-43775277D01*
X160306207Y-43827715D01*
X160239013Y-43846866D01*
X160172132Y-43826649D01*
X160127619Y-43775277D01*
X160100568Y-43717266D01*
X159970047Y-43530861D01*
X159970045Y-43530858D01*
X159809141Y-43369954D01*
X159622734Y-43239432D01*
X159622732Y-43239431D01*
X159416497Y-43143261D01*
X159416488Y-43143258D01*
X159196697Y-43084366D01*
X159196693Y-43084365D01*
X159196692Y-43084365D01*
X159196691Y-43084364D01*
X159196686Y-43084364D01*
X158970002Y-43064532D01*
X158969998Y-43064532D01*
X158743313Y-43084364D01*
X158743302Y-43084366D01*
X158523511Y-43143258D01*
X158523502Y-43143261D01*
X158317267Y-43239431D01*
X158317265Y-43239432D01*
X158130858Y-43369954D01*
X157969954Y-43530858D01*
X157839432Y-43717265D01*
X157839431Y-43717267D01*
X157812382Y-43775275D01*
X157766209Y-43827714D01*
X157699016Y-43846866D01*
X157632135Y-43826650D01*
X157587618Y-43775275D01*
X157560686Y-43717520D01*
X157560568Y-43717266D01*
X157430047Y-43530861D01*
X157430045Y-43530858D01*
X157269141Y-43369954D01*
X157082734Y-43239432D01*
X157082732Y-43239431D01*
X156876497Y-43143261D01*
X156876488Y-43143258D01*
X156656697Y-43084366D01*
X156656693Y-43084365D01*
X156656692Y-43084365D01*
X156656691Y-43084364D01*
X156656686Y-43084364D01*
X156430002Y-43064532D01*
X156429998Y-43064532D01*
X156203313Y-43084364D01*
X156203302Y-43084366D01*
X155983511Y-43143258D01*
X155983502Y-43143261D01*
X155777267Y-43239431D01*
X155777265Y-43239432D01*
X155590858Y-43369954D01*
X155429954Y-43530858D01*
X155299432Y-43717265D01*
X155299431Y-43717267D01*
X155272382Y-43775275D01*
X155226209Y-43827714D01*
X155159016Y-43846866D01*
X155092135Y-43826650D01*
X155047618Y-43775275D01*
X155020686Y-43717520D01*
X155020568Y-43717266D01*
X154890047Y-43530861D01*
X154890045Y-43530858D01*
X154729141Y-43369954D01*
X154542734Y-43239432D01*
X154542732Y-43239431D01*
X154336497Y-43143261D01*
X154336488Y-43143258D01*
X154116697Y-43084366D01*
X154116693Y-43084365D01*
X154116692Y-43084365D01*
X154116691Y-43084364D01*
X154116686Y-43084364D01*
X153890002Y-43064532D01*
X153889998Y-43064532D01*
X153663313Y-43084364D01*
X153663302Y-43084366D01*
X153443511Y-43143258D01*
X153443502Y-43143261D01*
X153237267Y-43239431D01*
X153237265Y-43239432D01*
X153050858Y-43369954D01*
X152889954Y-43530858D01*
X152759432Y-43717265D01*
X152759431Y-43717267D01*
X152732382Y-43775275D01*
X152686209Y-43827714D01*
X152619016Y-43846866D01*
X152552135Y-43826650D01*
X152507618Y-43775275D01*
X152480686Y-43717520D01*
X152480568Y-43717266D01*
X152350047Y-43530861D01*
X152350045Y-43530858D01*
X152189141Y-43369954D01*
X152002734Y-43239432D01*
X152002732Y-43239431D01*
X151796497Y-43143261D01*
X151796488Y-43143258D01*
X151576697Y-43084366D01*
X151576693Y-43084365D01*
X151576692Y-43084365D01*
X151576691Y-43084364D01*
X151576686Y-43084364D01*
X151350002Y-43064532D01*
X151349998Y-43064532D01*
X151123313Y-43084364D01*
X151123302Y-43084366D01*
X150903511Y-43143258D01*
X150903502Y-43143261D01*
X150697267Y-43239431D01*
X150697265Y-43239432D01*
X150510858Y-43369954D01*
X150349954Y-43530858D01*
X150219432Y-43717265D01*
X150219431Y-43717267D01*
X150192382Y-43775275D01*
X150146209Y-43827714D01*
X150079016Y-43846866D01*
X150012135Y-43826650D01*
X149967618Y-43775275D01*
X149940686Y-43717520D01*
X149940568Y-43717266D01*
X149810047Y-43530861D01*
X149810045Y-43530858D01*
X149649141Y-43369954D01*
X149462734Y-43239432D01*
X149462732Y-43239431D01*
X149256497Y-43143261D01*
X149256488Y-43143258D01*
X149036697Y-43084366D01*
X149036693Y-43084365D01*
X149036692Y-43084365D01*
X149036691Y-43084364D01*
X149036686Y-43084364D01*
X148810002Y-43064532D01*
X148809998Y-43064532D01*
X148583313Y-43084364D01*
X148583302Y-43084366D01*
X148363511Y-43143258D01*
X148363502Y-43143261D01*
X148157267Y-43239431D01*
X148157265Y-43239432D01*
X147970858Y-43369954D01*
X147809954Y-43530858D01*
X147679432Y-43717265D01*
X147679431Y-43717267D01*
X147652382Y-43775275D01*
X147606209Y-43827714D01*
X147539016Y-43846866D01*
X147472135Y-43826650D01*
X147427618Y-43775275D01*
X147400686Y-43717520D01*
X147400568Y-43717266D01*
X147270047Y-43530861D01*
X147270045Y-43530858D01*
X147109141Y-43369954D01*
X146922734Y-43239432D01*
X146922732Y-43239431D01*
X146716497Y-43143261D01*
X146716488Y-43143258D01*
X146496697Y-43084366D01*
X146496693Y-43084365D01*
X146496692Y-43084365D01*
X146496691Y-43084364D01*
X146496686Y-43084364D01*
X146270002Y-43064532D01*
X146269998Y-43064532D01*
X146043313Y-43084364D01*
X146043302Y-43084366D01*
X145823511Y-43143258D01*
X145823502Y-43143261D01*
X145617267Y-43239431D01*
X145617265Y-43239432D01*
X145430858Y-43369954D01*
X145269954Y-43530858D01*
X145139432Y-43717265D01*
X145139431Y-43717267D01*
X145112382Y-43775275D01*
X145066209Y-43827714D01*
X144999016Y-43846866D01*
X144932135Y-43826650D01*
X144887618Y-43775275D01*
X144860686Y-43717520D01*
X144860568Y-43717266D01*
X144730047Y-43530861D01*
X144730045Y-43530858D01*
X144569141Y-43369954D01*
X144382734Y-43239432D01*
X144382732Y-43239431D01*
X144176497Y-43143261D01*
X144176488Y-43143258D01*
X143956697Y-43084366D01*
X143956693Y-43084365D01*
X143956692Y-43084365D01*
X143956691Y-43084364D01*
X143956686Y-43084364D01*
X143730002Y-43064532D01*
X143729998Y-43064532D01*
X143503313Y-43084364D01*
X143503302Y-43084366D01*
X143283511Y-43143258D01*
X143283502Y-43143261D01*
X143077267Y-43239431D01*
X143077265Y-43239432D01*
X142890858Y-43369954D01*
X142729954Y-43530858D01*
X142599432Y-43717265D01*
X142599431Y-43717267D01*
X142572382Y-43775275D01*
X142526209Y-43827714D01*
X142459016Y-43846866D01*
X142392135Y-43826650D01*
X142347618Y-43775275D01*
X142320686Y-43717520D01*
X142320568Y-43717266D01*
X142190047Y-43530861D01*
X142190045Y-43530858D01*
X142029141Y-43369954D01*
X141842734Y-43239432D01*
X141842732Y-43239431D01*
X141636497Y-43143261D01*
X141636488Y-43143258D01*
X141416697Y-43084366D01*
X141416693Y-43084365D01*
X141416692Y-43084365D01*
X141416691Y-43084364D01*
X141416686Y-43084364D01*
X141190002Y-43064532D01*
X141189998Y-43064532D01*
X140963313Y-43084364D01*
X140963302Y-43084366D01*
X140897182Y-43102083D01*
X140827332Y-43100420D01*
X140777408Y-43069989D01*
X135583083Y-37875664D01*
X163499499Y-37875664D01*
X163499500Y-37875665D01*
X163499500Y-38124335D01*
X163512450Y-38201943D01*
X163540429Y-38369616D01*
X163621169Y-38604802D01*
X163621172Y-38604811D01*
X163728154Y-38802496D01*
X163739526Y-38823509D01*
X163892262Y-39019744D01*
X164001114Y-39119949D01*
X164075217Y-39188166D01*
X164283393Y-39324173D01*
X164511118Y-39424063D01*
X164752175Y-39485107D01*
X164752179Y-39485108D01*
X164752181Y-39485108D01*
X164752186Y-39485109D01*
X164905589Y-39497819D01*
X164937933Y-39500500D01*
X164937937Y-39500500D01*
X165062063Y-39500500D01*
X165062067Y-39500500D01*
X165124677Y-39495311D01*
X165247813Y-39485109D01*
X165247816Y-39485108D01*
X165247821Y-39485108D01*
X165488881Y-39424063D01*
X165716607Y-39324173D01*
X165924785Y-39188164D01*
X166107738Y-39019744D01*
X166260474Y-38823509D01*
X166378828Y-38604810D01*
X166459571Y-38369614D01*
X166500500Y-38124335D01*
X166500500Y-37875665D01*
X166459571Y-37630386D01*
X166378828Y-37395190D01*
X166260474Y-37176491D01*
X166107738Y-36980256D01*
X165924785Y-36811836D01*
X165924782Y-36811833D01*
X165716606Y-36675826D01*
X165488881Y-36575936D01*
X165247824Y-36514892D01*
X165247813Y-36514890D01*
X165062077Y-36499500D01*
X165062067Y-36499500D01*
X164937933Y-36499500D01*
X164937922Y-36499500D01*
X164752186Y-36514890D01*
X164752175Y-36514892D01*
X164511118Y-36575936D01*
X164283393Y-36675826D01*
X164075217Y-36811833D01*
X163892261Y-36980257D01*
X163739524Y-37176493D01*
X163621172Y-37395188D01*
X163621169Y-37395197D01*
X163540429Y-37630383D01*
X163499499Y-37875664D01*
X135583083Y-37875664D01*
X133644376Y-35936957D01*
X133634531Y-35924668D01*
X133634313Y-35924849D01*
X133629340Y-35918837D01*
X133579443Y-35871981D01*
X133578043Y-35870624D01*
X133557797Y-35850377D01*
X133552296Y-35846111D01*
X133547848Y-35842312D01*
X133513768Y-35810308D01*
X133513763Y-35810304D01*
X133496122Y-35800606D01*
X133479857Y-35789922D01*
X133463963Y-35777593D01*
X133463962Y-35777592D01*
X133441212Y-35767747D01*
X133421054Y-35759023D01*
X133415807Y-35756453D01*
X133374837Y-35733929D01*
X133374828Y-35733926D01*
X133355334Y-35728920D01*
X133336933Y-35722620D01*
X133318459Y-35714626D01*
X133318452Y-35714624D01*
X133272287Y-35707313D01*
X133266563Y-35706128D01*
X133221279Y-35694500D01*
X133221272Y-35694500D01*
X133201142Y-35694500D01*
X133181743Y-35692973D01*
X133161868Y-35689825D01*
X133161867Y-35689825D01*
X133115321Y-35694225D01*
X133109483Y-35694500D01*
X108623046Y-35694500D01*
X108607391Y-35692771D01*
X108607365Y-35693054D01*
X108591835Y-35691585D01*
X108591856Y-35691353D01*
X108587519Y-35691012D01*
X108587499Y-35691332D01*
X108579716Y-35690842D01*
X108579714Y-35690842D01*
X108579711Y-35690842D01*
X108579709Y-35690842D01*
X108562010Y-35691955D01*
X108523500Y-35694378D01*
X108519628Y-35694500D01*
X82530219Y-35694500D01*
X82506987Y-35692304D01*
X82499715Y-35690917D01*
X82491928Y-35690427D01*
X82491949Y-35690081D01*
X82487514Y-35689871D01*
X82487508Y-35690070D01*
X82479711Y-35689825D01*
X82433165Y-35694225D01*
X82427327Y-35694500D01*
X78441967Y-35694500D01*
X78426319Y-35692772D01*
X78426293Y-35693054D01*
X78418524Y-35692319D01*
X78350121Y-35694469D01*
X78348174Y-35694500D01*
X78319521Y-35694500D01*
X78312607Y-35695373D01*
X78306790Y-35695830D01*
X78260058Y-35697299D01*
X78260054Y-35697300D01*
X78240722Y-35702916D01*
X78221682Y-35706859D01*
X78201712Y-35709382D01*
X78201708Y-35709383D01*
X78158237Y-35726594D01*
X78152710Y-35728486D01*
X78107812Y-35741530D01*
X78107805Y-35741533D01*
X78090480Y-35751779D01*
X78073010Y-35760337D01*
X78054298Y-35767745D01*
X78016463Y-35795233D01*
X78011580Y-35798440D01*
X77971346Y-35822234D01*
X77957106Y-35836474D01*
X77942320Y-35849102D01*
X77926033Y-35860936D01*
X77926032Y-35860936D01*
X77896227Y-35896963D01*
X77892295Y-35901285D01*
X75814953Y-37978626D01*
X75802669Y-37988469D01*
X75802849Y-37988687D01*
X75796838Y-37993660D01*
X75749981Y-38043556D01*
X75748628Y-38044951D01*
X75728379Y-38065200D01*
X75728375Y-38065205D01*
X75724106Y-38070709D01*
X75720315Y-38075147D01*
X75688308Y-38109230D01*
X75688305Y-38109234D01*
X75678606Y-38126877D01*
X75667928Y-38143133D01*
X75655594Y-38159034D01*
X75655589Y-38159042D01*
X75637025Y-38201943D01*
X75634454Y-38207191D01*
X75611927Y-38248167D01*
X75606920Y-38267668D01*
X75600621Y-38286064D01*
X75593893Y-38301612D01*
X75592625Y-38304544D01*
X75592624Y-38304546D01*
X75585312Y-38350716D01*
X75584127Y-38356438D01*
X75572500Y-38401723D01*
X75572500Y-38421858D01*
X75570973Y-38441257D01*
X75567825Y-38461131D01*
X75572225Y-38507677D01*
X75572500Y-38513515D01*
X75572500Y-46218718D01*
X75552815Y-46285757D01*
X75536181Y-46306399D01*
X74567340Y-47275239D01*
X74506017Y-47308724D01*
X74436325Y-47303740D01*
X74380392Y-47261868D01*
X74355975Y-47196404D01*
X74355806Y-47191683D01*
X74355659Y-47189999D01*
X74335063Y-46954592D01*
X74283682Y-46762832D01*
X74273905Y-46726344D01*
X74273904Y-46726343D01*
X74273903Y-46726337D01*
X74174035Y-46512171D01*
X74038495Y-46318599D01*
X74038494Y-46318597D01*
X73871402Y-46151506D01*
X73871396Y-46151501D01*
X73685842Y-46021575D01*
X73642217Y-45966998D01*
X73635023Y-45897500D01*
X73666546Y-45835145D01*
X73685842Y-45818425D01*
X73708026Y-45802891D01*
X73871401Y-45688495D01*
X74038495Y-45521401D01*
X74174035Y-45327830D01*
X74273903Y-45113663D01*
X74335063Y-44885408D01*
X74355659Y-44650000D01*
X74335063Y-44414592D01*
X74273903Y-44186337D01*
X74174035Y-43972171D01*
X74155044Y-43945048D01*
X74038494Y-43778597D01*
X73871402Y-43611506D01*
X73871395Y-43611501D01*
X73677834Y-43475967D01*
X73677830Y-43475965D01*
X73677829Y-43475964D01*
X73463663Y-43376097D01*
X73463659Y-43376096D01*
X73463655Y-43376094D01*
X73235413Y-43314938D01*
X73235403Y-43314936D01*
X73000001Y-43294341D01*
X72999999Y-43294341D01*
X72764596Y-43314936D01*
X72764586Y-43314938D01*
X72536344Y-43376094D01*
X72536335Y-43376098D01*
X72322171Y-43475964D01*
X72322169Y-43475965D01*
X72128597Y-43611505D01*
X71961505Y-43778597D01*
X71825965Y-43972169D01*
X71825964Y-43972171D01*
X71726098Y-44186335D01*
X71726094Y-44186344D01*
X71664938Y-44414586D01*
X71664936Y-44414596D01*
X71644341Y-44649999D01*
X71644341Y-44650000D01*
X71664936Y-44885403D01*
X71664938Y-44885413D01*
X71726094Y-45113655D01*
X71726096Y-45113659D01*
X71726097Y-45113663D01*
X71825965Y-45327830D01*
X71825967Y-45327834D01*
X71961501Y-45521395D01*
X71961506Y-45521402D01*
X72128597Y-45688493D01*
X72128603Y-45688498D01*
X72314158Y-45818425D01*
X72357783Y-45873002D01*
X72364977Y-45942500D01*
X72333454Y-46004855D01*
X72314158Y-46021575D01*
X72128597Y-46151505D01*
X71961505Y-46318597D01*
X71825965Y-46512169D01*
X71825964Y-46512171D01*
X71726098Y-46726335D01*
X71726094Y-46726344D01*
X71664938Y-46954586D01*
X71664936Y-46954596D01*
X71644341Y-47189999D01*
X71644341Y-47190000D01*
X71664936Y-47425403D01*
X71664938Y-47425413D01*
X71726094Y-47653655D01*
X71726096Y-47653659D01*
X71726097Y-47653663D01*
X71825965Y-47867829D01*
X71825965Y-47867830D01*
X71825967Y-47867834D01*
X71961501Y-48061395D01*
X71961506Y-48061402D01*
X72128597Y-48228493D01*
X72128603Y-48228498D01*
X72314158Y-48358425D01*
X72357783Y-48413002D01*
X72364977Y-48482500D01*
X72333454Y-48544855D01*
X72314158Y-48561575D01*
X72128597Y-48691505D01*
X71961505Y-48858597D01*
X71825965Y-49052169D01*
X71825964Y-49052171D01*
X71726098Y-49266335D01*
X71726094Y-49266344D01*
X71664938Y-49494586D01*
X71664936Y-49494596D01*
X71644341Y-49729999D01*
X71644341Y-49730000D01*
X71664936Y-49965403D01*
X71664938Y-49965413D01*
X71726094Y-50193655D01*
X71726096Y-50193659D01*
X71726097Y-50193663D01*
X71825965Y-50407829D01*
X71825965Y-50407830D01*
X71825967Y-50407834D01*
X71961501Y-50601395D01*
X71961506Y-50601402D01*
X72128597Y-50768493D01*
X72128603Y-50768498D01*
X72314158Y-50898425D01*
X72357783Y-50953002D01*
X72364977Y-51022500D01*
X72333454Y-51084855D01*
X72314158Y-51101575D01*
X72128597Y-51231505D01*
X71961505Y-51398597D01*
X71825965Y-51592169D01*
X71825964Y-51592171D01*
X71726098Y-51806335D01*
X71726094Y-51806344D01*
X71664938Y-52034586D01*
X71664936Y-52034596D01*
X71644341Y-52269999D01*
X71644341Y-52270000D01*
X71664936Y-52505403D01*
X71664938Y-52505413D01*
X71726094Y-52733655D01*
X71726096Y-52733659D01*
X71726097Y-52733663D01*
X71816770Y-52928111D01*
X71825965Y-52947830D01*
X71825967Y-52947834D01*
X71961501Y-53141395D01*
X71961506Y-53141402D01*
X72128597Y-53308493D01*
X72128603Y-53308498D01*
X72314158Y-53438425D01*
X72357783Y-53493002D01*
X72364977Y-53562500D01*
X72333454Y-53624855D01*
X72314158Y-53641575D01*
X72128597Y-53771505D01*
X71961505Y-53938597D01*
X71825965Y-54132169D01*
X71825964Y-54132171D01*
X71726098Y-54346335D01*
X71726094Y-54346344D01*
X71664938Y-54574586D01*
X71664936Y-54574596D01*
X71644341Y-54809999D01*
X71644341Y-54810000D01*
X33000500Y-54810000D01*
X33000500Y-37875665D01*
X34499499Y-37875665D01*
X34499500Y-37875665D01*
X34499500Y-38124335D01*
X34512450Y-38201943D01*
X34540429Y-38369616D01*
X34621169Y-38604802D01*
X34621172Y-38604811D01*
X34728154Y-38802496D01*
X34739526Y-38823509D01*
X34892262Y-39019744D01*
X35001114Y-39119949D01*
X35075217Y-39188166D01*
X35283393Y-39324173D01*
X35511118Y-39424063D01*
X35752175Y-39485107D01*
X35752179Y-39485108D01*
X35752181Y-39485108D01*
X35752186Y-39485109D01*
X35905589Y-39497819D01*
X35937933Y-39500500D01*
X35937937Y-39500500D01*
X36062063Y-39500500D01*
X36062067Y-39500500D01*
X36124677Y-39495311D01*
X36247813Y-39485109D01*
X36247816Y-39485108D01*
X36247821Y-39485108D01*
X36488881Y-39424063D01*
X36716607Y-39324173D01*
X36924785Y-39188164D01*
X37107738Y-39019744D01*
X37260474Y-38823509D01*
X37378828Y-38604810D01*
X37459571Y-38369614D01*
X37500500Y-38124335D01*
X37500500Y-37875665D01*
X37459571Y-37630386D01*
X37378828Y-37395190D01*
X37260474Y-37176491D01*
X37107738Y-36980256D01*
X36924785Y-36811836D01*
X36924782Y-36811833D01*
X36716606Y-36675826D01*
X36488881Y-36575936D01*
X36247824Y-36514892D01*
X36247813Y-36514890D01*
X36062077Y-36499500D01*
X36062067Y-36499500D01*
X35937933Y-36499500D01*
X35937922Y-36499500D01*
X35752186Y-36514890D01*
X35752175Y-36514892D01*
X35511118Y-36575936D01*
X35283393Y-36675826D01*
X35075217Y-36811833D01*
X34892261Y-36980257D01*
X34739524Y-37176493D01*
X34621172Y-37395188D01*
X34621169Y-37395197D01*
X34540429Y-37630383D01*
X34499499Y-37875665D01*
X33000500Y-37875665D01*
X33000500Y-35124500D01*
X33020185Y-35057461D01*
X33072989Y-35011706D01*
X33124500Y-35000500D01*
X167875500Y-35000500D01*
X167942539Y-35020185D01*
G37*
G04 #@! TD.AperFunction*
M02*
