%TF.GenerationSoftware,KiCad,Pcbnew,7.0.5*%
%TF.CreationDate,2024-01-19T10:16:40+06:00*%
%TF.ProjectId,Meteo_station,4d657465-6f5f-4737-9461-74696f6e2e6b,rev?*%
%TF.SameCoordinates,Original*%
%TF.FileFunction,Copper,L2,Bot*%
%TF.FilePolarity,Positive*%
%FSLAX46Y46*%
G04 Gerber Fmt 4.6, Leading zero omitted, Abs format (unit mm)*
G04 Created by KiCad (PCBNEW 7.0.5) date 2024-01-19 10:16:40*
%MOMM*%
%LPD*%
G01*
G04 APERTURE LIST*
G04 Aperture macros list*
%AMRoundRect*
0 Rectangle with rounded corners*
0 $1 Rounding radius*
0 $2 $3 $4 $5 $6 $7 $8 $9 X,Y pos of 4 corners*
0 Add a 4 corners polygon primitive as box body*
4,1,4,$2,$3,$4,$5,$6,$7,$8,$9,$2,$3,0*
0 Add four circle primitives for the rounded corners*
1,1,$1+$1,$2,$3*
1,1,$1+$1,$4,$5*
1,1,$1+$1,$6,$7*
1,1,$1+$1,$8,$9*
0 Add four rect primitives between the rounded corners*
20,1,$1+$1,$2,$3,$4,$5,0*
20,1,$1+$1,$4,$5,$6,$7,0*
20,1,$1+$1,$6,$7,$8,$9,0*
20,1,$1+$1,$8,$9,$2,$3,0*%
G04 Aperture macros list end*
%TA.AperFunction,ComponentPad*%
%ADD10C,1.600000*%
%TD*%
%TA.AperFunction,ComponentPad*%
%ADD11O,1.600000X1.600000*%
%TD*%
%TA.AperFunction,ComponentPad*%
%ADD12C,2.000000*%
%TD*%
%TA.AperFunction,ComponentPad*%
%ADD13R,1.700000X1.700000*%
%TD*%
%TA.AperFunction,ComponentPad*%
%ADD14O,1.700000X1.700000*%
%TD*%
%TA.AperFunction,ComponentPad*%
%ADD15R,1.600000X1.600000*%
%TD*%
%TA.AperFunction,SMDPad,CuDef*%
%ADD16RoundRect,0.250000X-0.262500X-0.450000X0.262500X-0.450000X0.262500X0.450000X-0.262500X0.450000X0*%
%TD*%
%TA.AperFunction,SMDPad,CuDef*%
%ADD17RoundRect,0.250000X0.262500X0.450000X-0.262500X0.450000X-0.262500X-0.450000X0.262500X-0.450000X0*%
%TD*%
%TA.AperFunction,Conductor*%
%ADD18C,1.000000*%
%TD*%
%TA.AperFunction,Conductor*%
%ADD19C,0.500000*%
%TD*%
G04 APERTURE END LIST*
D10*
%TO.P,R3,1*%
%TO.N,BTN_RIGHT*%
X131910000Y-51619000D03*
D11*
%TO.P,R3,2*%
%TO.N,GND*%
X116670000Y-51619000D03*
%TD*%
D12*
%TO.P,SW3,1,1*%
%TO.N,+5V*%
X97040000Y-43369000D03*
X103540000Y-43369000D03*
%TO.P,SW3,2,2*%
%TO.N,BTN_RIGHT*%
X97040000Y-47869000D03*
X103540000Y-47869000D03*
%TD*%
%TO.P,SW2,1,1*%
%TO.N,+5V*%
X97040000Y-33369000D03*
X103540000Y-33369000D03*
%TO.P,SW2,2,2*%
%TO.N,BTN_DOWN*%
X97040000Y-37869000D03*
X103540000Y-37869000D03*
%TD*%
D10*
%TO.P,R1,1*%
%TO.N,BTN_UP*%
X112290000Y-55039000D03*
D11*
%TO.P,R1,2*%
%TO.N,GND*%
X112290000Y-39799000D03*
%TD*%
D10*
%TO.P,R5,1*%
%TO.N,BTN_OK*%
X136652000Y-57619000D03*
D11*
%TO.P,R5,2*%
%TO.N,GND*%
X151892000Y-57619000D03*
%TD*%
D13*
%TO.P,J1,1,Pin_1*%
%TO.N,GND*%
X114290000Y-23619000D03*
D14*
%TO.P,J1,2,Pin_2*%
%TO.N,Net-(A1-VIN)*%
X111750000Y-23619000D03*
%TD*%
D12*
%TO.P,SW4,1,1*%
%TO.N,+5V*%
X97040000Y-53369000D03*
X103540000Y-53369000D03*
%TO.P,SW4,2,2*%
%TO.N,BTN_LEFT*%
X97040000Y-57869000D03*
X103540000Y-57869000D03*
%TD*%
D13*
%TO.P,J3,1,Pin_1*%
%TO.N,GND*%
X74490000Y-23619000D03*
D14*
%TO.P,J3,2,Pin_2*%
%TO.N,+5V*%
X77030000Y-23619000D03*
%TO.P,J3,3,Pin_3*%
%TO.N,I2C-*%
X79570000Y-23619000D03*
%TO.P,J3,4,Pin_4*%
%TO.N,I2C+*%
X82110000Y-23619000D03*
%TD*%
D12*
%TO.P,SW1,1,1*%
%TO.N,+5V*%
X97040000Y-23369000D03*
X103540000Y-23369000D03*
%TO.P,SW1,2,2*%
%TO.N,BTN_UP*%
X97040000Y-27869000D03*
X103540000Y-27869000D03*
%TD*%
D10*
%TO.P,R4,1*%
%TO.N,BTN_LEFT*%
X136652000Y-51619000D03*
D11*
%TO.P,R4,2*%
%TO.N,GND*%
X151892000Y-51619000D03*
%TD*%
D15*
%TO.P,A1,1,D1/TX*%
%TO.N,unconnected-(A1-D1{slash}TX-Pad1)*%
X120730000Y-45619000D03*
D11*
%TO.P,A1,2,D0/RX*%
%TO.N,unconnected-(A1-D0{slash}RX-Pad2)*%
X123270000Y-45619000D03*
%TO.P,A1,3,~{RESET}*%
%TO.N,unconnected-(A1-~{RESET}-Pad3)*%
X125810000Y-45619000D03*
%TO.P,A1,4,GND*%
%TO.N,GND*%
X128350000Y-45619000D03*
%TO.P,A1,5,D2*%
%TO.N,BTN_UP*%
X130890000Y-45619000D03*
%TO.P,A1,6,D3*%
%TO.N,BTN_DOWN*%
X133430000Y-45619000D03*
%TO.P,A1,7,D4*%
%TO.N,BTN_RIGHT*%
X135970000Y-45619000D03*
%TO.P,A1,8,D5*%
%TO.N,BTN_LEFT*%
X138510000Y-45619000D03*
%TO.P,A1,9,D6*%
%TO.N,BTN_OK*%
X141050000Y-45619000D03*
%TO.P,A1,10,D7*%
%TO.N,unconnected-(A1-D7-Pad10)*%
X143590000Y-45619000D03*
%TO.P,A1,11,D8*%
%TO.N,unconnected-(A1-D8-Pad11)*%
X146130000Y-45619000D03*
%TO.P,A1,12,D9*%
%TO.N,unconnected-(A1-D9-Pad12)*%
X148670000Y-45619000D03*
%TO.P,A1,13,D10*%
%TO.N,unconnected-(A1-D10-Pad13)*%
X151210000Y-45619000D03*
%TO.P,A1,14,D11*%
%TO.N,unconnected-(A1-D11-Pad14)*%
X153750000Y-45619000D03*
%TO.P,A1,15,D12*%
%TO.N,unconnected-(A1-D12-Pad15)*%
X156290000Y-45619000D03*
%TO.P,A1,16,D13*%
%TO.N,unconnected-(A1-D13-Pad16)*%
X156290000Y-30379000D03*
%TO.P,A1,17,3V3*%
%TO.N,+3.3V*%
X153750000Y-30379000D03*
%TO.P,A1,18,AREF*%
%TO.N,unconnected-(A1-AREF-Pad18)*%
X151210000Y-30379000D03*
%TO.P,A1,19,A0*%
%TO.N,unconnected-(A1-A0-Pad19)*%
X148670000Y-30379000D03*
%TO.P,A1,20,A1*%
%TO.N,unconnected-(A1-A1-Pad20)*%
X146130000Y-30379000D03*
%TO.P,A1,21,A2*%
%TO.N,unconnected-(A1-A2-Pad21)*%
X143590000Y-30379000D03*
%TO.P,A1,22,A3*%
%TO.N,unconnected-(A1-A3-Pad22)*%
X141050000Y-30379000D03*
%TO.P,A1,23,A4*%
%TO.N,I2C+*%
X138510000Y-30379000D03*
%TO.P,A1,24,A5*%
%TO.N,I2C-*%
X135970000Y-30379000D03*
%TO.P,A1,25,A6*%
%TO.N,unconnected-(A1-A6-Pad25)*%
X133430000Y-30379000D03*
%TO.P,A1,26,A7*%
%TO.N,unconnected-(A1-A7-Pad26)*%
X130890000Y-30379000D03*
%TO.P,A1,27,+5V*%
%TO.N,+5V*%
X128350000Y-30379000D03*
%TO.P,A1,28,~{RESET}*%
%TO.N,unconnected-(A1-~{RESET}-Pad28)*%
X125810000Y-30379000D03*
%TO.P,A1,29,GND*%
%TO.N,GND*%
X123270000Y-30379000D03*
%TO.P,A1,30,VIN*%
%TO.N,Net-(A1-VIN)*%
X120730000Y-30379000D03*
%TD*%
D13*
%TO.P,J2,1,Pin_1*%
%TO.N,+3.3V*%
X68290000Y-50539000D03*
D14*
%TO.P,J2,2,Pin_2*%
%TO.N,GND*%
X68290000Y-53079000D03*
%TO.P,J2,3,Pin_3*%
%TO.N,I2C-*%
X68290000Y-55619000D03*
%TO.P,J2,4,Pin_4*%
%TO.N,I2C+*%
X68290000Y-58159000D03*
%TD*%
D10*
%TO.P,R2,1*%
%TO.N,BTN_DOWN*%
X131910000Y-57619000D03*
D11*
%TO.P,R2,2*%
%TO.N,GND*%
X116670000Y-57619000D03*
%TD*%
D13*
%TO.P,J4,1,Pin_1*%
%TO.N,GND*%
X60830000Y-23619000D03*
D14*
%TO.P,J4,2,Pin_2*%
%TO.N,+5V*%
X58290000Y-23619000D03*
%TO.P,J4,3,Pin_3*%
%TO.N,I2C+*%
X55750000Y-23619000D03*
%TO.P,J4,4,Pin_4*%
%TO.N,I2C-*%
X53210000Y-23619000D03*
%TO.P,J4,5,Pin_5*%
%TO.N,unconnected-(J4-Pin_5-Pad5)*%
X50670000Y-23619000D03*
%TO.P,J4,6,Pin_6*%
%TO.N,unconnected-(J4-Pin_6-Pad6)*%
X48130000Y-23619000D03*
%TD*%
D12*
%TO.P,SW5,1,1*%
%TO.N,+5V*%
X86040000Y-53369000D03*
X92540000Y-53369000D03*
%TO.P,SW5,2,2*%
%TO.N,BTN_OK*%
X86040000Y-57869000D03*
X92540000Y-57869000D03*
%TD*%
D16*
%TO.P,R7,1*%
%TO.N,+5V*%
X84535000Y-27686000D03*
%TO.P,R7,2*%
%TO.N,I2C+*%
X86360000Y-27686000D03*
%TD*%
D17*
%TO.P,R6,1*%
%TO.N,+5V*%
X91844500Y-24638000D03*
%TO.P,R6,2*%
%TO.N,I2C-*%
X90019500Y-24638000D03*
%TD*%
D18*
%TO.N,+5V*%
X91844500Y-24638000D02*
X93726000Y-24638000D01*
X86455000Y-33369000D02*
X97040000Y-33369000D01*
X94995000Y-23369000D02*
X97040000Y-23369000D01*
X84535000Y-27686000D02*
X84535000Y-31449000D01*
X93726000Y-24638000D02*
X94995000Y-23369000D01*
X84535000Y-31449000D02*
X86455000Y-33369000D01*
%TO.N,BTN_UP*%
X112290000Y-55039000D02*
X112290000Y-58188000D01*
X117546000Y-27869000D02*
X103540000Y-27869000D01*
X141666000Y-59611000D02*
X146746000Y-54531000D01*
X113713000Y-59611000D02*
X141666000Y-59611000D01*
X159446000Y-49959000D02*
X159446000Y-29639000D01*
X118824000Y-26591000D02*
X117546000Y-27869000D01*
X146746000Y-54531000D02*
X154874000Y-54531000D01*
X156398000Y-26591000D02*
X118824000Y-26591000D01*
X97040000Y-27869000D02*
X103540000Y-27869000D01*
X154874000Y-54531000D02*
X159446000Y-49959000D01*
X112290000Y-58188000D02*
X113713000Y-59611000D01*
X159446000Y-29639000D02*
X156398000Y-26591000D01*
%TO.N,BTN_DOWN*%
X107581000Y-41910000D02*
X131572000Y-41910000D01*
X131572000Y-41910000D02*
X133430000Y-43768000D01*
X133430000Y-43768000D02*
X133430000Y-45619000D01*
X103540000Y-37869000D02*
X107581000Y-41910000D01*
X97040000Y-37869000D02*
X103540000Y-37869000D01*
%TO.N,BTN_RIGHT*%
X135970000Y-45640000D02*
X135970000Y-45619000D01*
X117719000Y-47869000D02*
X121469000Y-51619000D01*
X103540000Y-47869000D02*
X97040000Y-47869000D01*
X121469000Y-51619000D02*
X131910000Y-51619000D01*
X103540000Y-47869000D02*
X117719000Y-47869000D01*
%TO.N,BTN_LEFT*%
X103675000Y-57869000D02*
X103540000Y-57869000D01*
X133740000Y-54531000D02*
X136652000Y-51619000D01*
X115758000Y-54531000D02*
X133740000Y-54531000D01*
X97040000Y-57869000D02*
X103540000Y-57869000D01*
X115758000Y-54531000D02*
X113218000Y-51991000D01*
X109553000Y-51991000D02*
X103675000Y-57869000D01*
X113218000Y-51991000D02*
X109553000Y-51991000D01*
%TO.N,BTN_OK*%
X89215000Y-57869000D02*
X92540000Y-57869000D01*
X86040000Y-57869000D02*
X89215000Y-57869000D01*
X137475000Y-39164000D02*
X141050000Y-42739000D01*
X92675842Y-35703158D02*
X111789158Y-35703158D01*
X111789158Y-35703158D02*
X115250000Y-39164000D01*
X89215000Y-39164000D02*
X92675842Y-35703158D01*
X89215000Y-57869000D02*
X89215000Y-39164000D01*
X115250000Y-39164000D02*
X137475000Y-39164000D01*
X141050000Y-42739000D02*
X141050000Y-45619000D01*
D19*
%TO.N,I2C+*%
X86317921Y-25103922D02*
X86317920Y-25103921D01*
X132900000Y-35989000D02*
X119060000Y-35989000D01*
X65017000Y-58159000D02*
X44196000Y-37338000D01*
X86317920Y-25103921D02*
X86360000Y-25146000D01*
X114166795Y-31095795D02*
X87737795Y-31095795D01*
X74347500Y-58159000D02*
X82110000Y-50396500D01*
X68290000Y-58159000D02*
X74347500Y-58159000D01*
X68290000Y-58159000D02*
X65017000Y-58159000D01*
X55750000Y-22222000D02*
X55750000Y-23619000D01*
X86360000Y-29718000D02*
X86360000Y-27686000D01*
X86035082Y-23406869D02*
X86035081Y-23406868D01*
X86360000Y-25146000D02*
X86360000Y-27686000D01*
X87737795Y-31095795D02*
X86360000Y-29718000D01*
X86035080Y-23901843D02*
X86035081Y-23901842D01*
X85610815Y-25316053D02*
X85610814Y-25316054D01*
X85327974Y-23619000D02*
X85540107Y-23406868D01*
X82110000Y-50396500D02*
X82110000Y-23619000D01*
X45466000Y-21336000D02*
X54864000Y-21336000D01*
X44196000Y-22606000D02*
X45466000Y-21336000D01*
X44196000Y-37338000D02*
X44196000Y-22606000D01*
X85610814Y-25316054D02*
X85822946Y-25103921D01*
X54864000Y-21336000D02*
X55750000Y-22222000D01*
X119060000Y-35989000D02*
X114166795Y-31095795D01*
X138510000Y-30379000D02*
X132900000Y-35989000D01*
X85327975Y-23618999D02*
X85327974Y-23619000D01*
X85115840Y-25316053D02*
X85115840Y-25316054D01*
X82110000Y-23619000D02*
X84833000Y-23619000D01*
X82113000Y-23622000D02*
X82110000Y-23619000D01*
X86035081Y-23901842D02*
X85115840Y-24821079D01*
X85115874Y-24821113D02*
G75*
G03*
X85115840Y-25316053I247426J-247487D01*
G01*
X86317888Y-25103955D02*
G75*
G03*
X85822946Y-25103921I-247488J-247445D01*
G01*
X86035125Y-23901888D02*
G75*
G03*
X86035081Y-23406868I-247525J247488D01*
G01*
X85115813Y-25316081D02*
G75*
G03*
X85610815Y-25316053I247487J247481D01*
G01*
X86035088Y-23406863D02*
G75*
G03*
X85540107Y-23406868I-247488J-247537D01*
G01*
X84833013Y-23618987D02*
G75*
G03*
X85327975Y-23618999I247487J247487D01*
G01*
%TO.N,I2C-*%
X53210000Y-32490000D02*
X53840223Y-32490000D01*
X129766000Y-34036000D02*
X129766000Y-33479445D01*
X53210000Y-30390000D02*
X52579777Y-30390000D01*
X130466000Y-34036000D02*
X130466000Y-34592555D01*
X114615000Y-29639000D02*
X119012000Y-34036000D01*
X52579777Y-33890000D02*
X53210000Y-33890000D01*
X79570000Y-40160000D02*
X79028033Y-40160000D01*
X52579762Y-36690000D02*
X53210000Y-36690000D01*
X53210000Y-33190000D02*
X52579777Y-33190000D01*
X52579777Y-29690000D02*
X53210000Y-29690000D01*
X53210000Y-43558000D02*
X65271000Y-55619000D01*
X53840223Y-31790000D02*
X53210000Y-31790000D01*
X53210000Y-31790000D02*
X52579777Y-31790000D01*
X53840223Y-28990000D02*
X53560000Y-28990000D01*
X68290000Y-55619000D02*
X73395000Y-55619000D01*
X79028033Y-40860000D02*
X79220000Y-40860000D01*
X52579777Y-31090000D02*
X53210000Y-31090000D01*
X119012000Y-34036000D02*
X128016000Y-34036000D01*
X129066000Y-33686000D02*
X129066000Y-34592555D01*
X53560000Y-28290000D02*
X53840223Y-28290000D01*
X88694000Y-21384000D02*
X80325000Y-21384000D01*
X53560000Y-28990000D02*
X52579777Y-28990000D01*
X53840223Y-30390000D02*
X53210000Y-30390000D01*
X79220000Y-40860000D02*
X80111967Y-40860000D01*
X52579777Y-32490000D02*
X53210000Y-32490000D01*
X53210000Y-34590000D02*
X52579762Y-34590000D01*
X90019500Y-24638000D02*
X90019500Y-22709500D01*
X80111967Y-40160000D02*
X79570000Y-40160000D01*
X130466000Y-33479445D02*
X130466000Y-34036000D01*
X90019500Y-28043500D02*
X91615000Y-29639000D01*
X131166000Y-34592555D02*
X131166000Y-34386000D01*
X80325000Y-21384000D02*
X79570000Y-22139000D01*
X73395000Y-55619000D02*
X79570000Y-49444000D01*
X129766000Y-34592555D02*
X129766000Y-34036000D01*
X129066000Y-33479445D02*
X129066000Y-33686000D01*
X53210000Y-41216933D02*
X53210000Y-43558000D01*
X53840223Y-35990000D02*
X53210000Y-35990000D01*
X79570000Y-39110000D02*
X79570000Y-34038880D01*
X53210000Y-36690000D02*
X53840238Y-36690000D01*
X79570000Y-22139000D02*
X79570000Y-23619000D01*
X53210000Y-29690000D02*
X53840223Y-29690000D01*
X53210000Y-33890000D02*
X53840238Y-33890000D01*
X53840223Y-33190000D02*
X53210000Y-33190000D01*
X53840238Y-37390000D02*
X53560000Y-37390000D01*
X90019500Y-22709500D02*
X88694000Y-21384000D01*
X65271000Y-55619000D02*
X68290000Y-55619000D01*
X79570000Y-49444000D02*
X79570000Y-41910000D01*
X52579762Y-35290000D02*
X53210000Y-35290000D01*
X128366000Y-33686000D02*
X128366000Y-33479445D01*
X131516000Y-34036000D02*
X132313000Y-34036000D01*
X53210000Y-35290000D02*
X53840223Y-35290000D01*
X53210000Y-31090000D02*
X53840223Y-31090000D01*
X79028033Y-39460000D02*
X79220000Y-39460000D01*
X90019500Y-24638000D02*
X90019500Y-28043500D01*
X53210000Y-35990000D02*
X52579762Y-35990000D01*
X53210000Y-37740000D02*
X53210000Y-41216933D01*
X91615000Y-29639000D02*
X114615000Y-29639000D01*
X79570000Y-34038880D02*
X79570000Y-23619000D01*
X53210000Y-23619000D02*
X53210000Y-27940000D01*
X132313000Y-34036000D02*
X135970000Y-30379000D01*
X79220000Y-41560000D02*
X79028033Y-41560000D01*
X53840238Y-34590000D02*
X53210000Y-34590000D01*
X79570000Y-41910000D02*
G75*
G03*
X79220000Y-41560000I-350000J0D01*
G01*
X52579762Y-35989962D02*
G75*
G03*
X52229762Y-36340000I38J-350038D01*
G01*
X54190200Y-30040000D02*
G75*
G03*
X53840223Y-29690000I-350000J0D01*
G01*
X52579762Y-34589962D02*
G75*
G03*
X52229762Y-34940000I38J-350038D01*
G01*
X130116000Y-33129400D02*
G75*
G03*
X129766000Y-33479445I0J-350000D01*
G01*
X54190200Y-32840000D02*
G75*
G03*
X53840223Y-32490000I-350000J0D01*
G01*
X52229800Y-32140000D02*
G75*
G03*
X52579777Y-32490000I350000J0D01*
G01*
X78678000Y-41210000D02*
G75*
G03*
X79028033Y-41560000I350000J0D01*
G01*
X54190200Y-31440000D02*
G75*
G03*
X53840223Y-31090000I-350000J0D01*
G01*
X54190200Y-28640000D02*
G75*
G03*
X53840223Y-28290000I-350000J0D01*
G01*
X53840223Y-35990023D02*
G75*
G03*
X54190223Y-35640000I-23J350023D01*
G01*
X129065955Y-33479445D02*
G75*
G03*
X128716000Y-33129445I-349955J45D01*
G01*
X79028033Y-40860033D02*
G75*
G03*
X78678033Y-41210000I-33J-349967D01*
G01*
X53840238Y-37390038D02*
G75*
G03*
X54190238Y-37040000I-38J350038D01*
G01*
X52579777Y-30389977D02*
G75*
G03*
X52229777Y-30740000I23J-350023D01*
G01*
X79028033Y-39460033D02*
G75*
G03*
X78678033Y-39810000I-33J-349967D01*
G01*
X129066045Y-34592555D02*
G75*
G03*
X129416000Y-34942555I349955J-45D01*
G01*
X79220000Y-39460000D02*
G75*
G03*
X79570000Y-39110000I0J350000D01*
G01*
X54190200Y-37040000D02*
G75*
G03*
X53840238Y-36690000I-350000J0D01*
G01*
X52579777Y-33189977D02*
G75*
G03*
X52229777Y-33540000I23J-350023D01*
G01*
X53840223Y-31790023D02*
G75*
G03*
X54190223Y-31440000I-23J350023D01*
G01*
X130465955Y-33479445D02*
G75*
G03*
X130116000Y-33129445I-349955J45D01*
G01*
X128016000Y-34036000D02*
G75*
G03*
X128366000Y-33686000I0J350000D01*
G01*
X130466045Y-34592555D02*
G75*
G03*
X130816000Y-34942555I349955J-45D01*
G01*
X53840223Y-33190023D02*
G75*
G03*
X54190223Y-32840000I-23J350023D01*
G01*
X53840238Y-34590038D02*
G75*
G03*
X54190238Y-34240000I-38J350038D01*
G01*
X53210000Y-27940000D02*
G75*
G03*
X53560000Y-28290000I350000J0D01*
G01*
X80462000Y-40510000D02*
G75*
G03*
X80111967Y-40160000I-350000J0D01*
G01*
X53840223Y-28990023D02*
G75*
G03*
X54190223Y-28640000I-23J350023D01*
G01*
X54190200Y-35640000D02*
G75*
G03*
X53840223Y-35290000I-350000J0D01*
G01*
X80111967Y-40859967D02*
G75*
G03*
X80461967Y-40510000I33J349967D01*
G01*
X52229800Y-30740000D02*
G75*
G03*
X52579777Y-31090000I350000J0D01*
G01*
X52229800Y-29340000D02*
G75*
G03*
X52579777Y-29690000I350000J0D01*
G01*
X52229800Y-34940000D02*
G75*
G03*
X52579762Y-35290000I350000J0D01*
G01*
X130816000Y-34942600D02*
G75*
G03*
X131166000Y-34592555I0J350000D01*
G01*
X131516000Y-34036000D02*
G75*
G03*
X131166000Y-34386000I0J-350000D01*
G01*
X52229800Y-33540000D02*
G75*
G03*
X52579777Y-33890000I350000J0D01*
G01*
X54190200Y-34240000D02*
G75*
G03*
X53840238Y-33890000I-350000J0D01*
G01*
X52579777Y-31789977D02*
G75*
G03*
X52229777Y-32140000I23J-350023D01*
G01*
X129416000Y-34942600D02*
G75*
G03*
X129766000Y-34592555I0J350000D01*
G01*
X128716000Y-33129400D02*
G75*
G03*
X128366000Y-33479445I0J-350000D01*
G01*
X78678000Y-39810000D02*
G75*
G03*
X79028033Y-40160000I350000J0D01*
G01*
X53840223Y-30390023D02*
G75*
G03*
X54190223Y-30040000I-23J350023D01*
G01*
X53560000Y-37390000D02*
G75*
G03*
X53210000Y-37740000I0J-350000D01*
G01*
X52579777Y-28989977D02*
G75*
G03*
X52229777Y-29340000I23J-350023D01*
G01*
X52229800Y-36340000D02*
G75*
G03*
X52579762Y-36690000I350000J0D01*
G01*
%TD*%
%TA.AperFunction,Conductor*%
%TO.N,GND*%
G36*
X44888808Y-20639185D02*
G01*
X44934563Y-20691989D01*
X44944507Y-20761147D01*
X44915482Y-20824703D01*
X44909450Y-20831181D01*
X43710358Y-22030272D01*
X43696729Y-22042051D01*
X43677468Y-22056390D01*
X43643898Y-22096397D01*
X43640253Y-22100376D01*
X43634407Y-22106223D01*
X43614618Y-22131251D01*
X43613481Y-22132647D01*
X43564694Y-22190790D01*
X43560729Y-22196819D01*
X43560682Y-22196788D01*
X43556630Y-22203147D01*
X43556679Y-22203177D01*
X43552889Y-22209321D01*
X43520812Y-22278110D01*
X43520027Y-22279731D01*
X43485957Y-22347572D01*
X43483488Y-22354357D01*
X43483432Y-22354336D01*
X43480960Y-22361450D01*
X43481015Y-22361469D01*
X43478743Y-22368325D01*
X43463391Y-22442670D01*
X43463001Y-22444428D01*
X43445499Y-22518279D01*
X43444661Y-22525454D01*
X43444601Y-22525447D01*
X43443835Y-22532945D01*
X43443895Y-22532951D01*
X43443265Y-22540140D01*
X43445474Y-22616021D01*
X43445500Y-22617825D01*
X43445500Y-37274294D01*
X43444191Y-37292263D01*
X43440710Y-37316025D01*
X43445264Y-37368064D01*
X43445500Y-37373470D01*
X43445500Y-37381712D01*
X43449202Y-37413391D01*
X43449383Y-37415159D01*
X43452065Y-37445811D01*
X43456000Y-37490792D01*
X43457461Y-37497867D01*
X43457403Y-37497878D01*
X43459034Y-37505237D01*
X43459092Y-37505224D01*
X43460757Y-37512249D01*
X43486708Y-37583551D01*
X43487299Y-37585253D01*
X43511182Y-37657326D01*
X43514236Y-37663874D01*
X43514182Y-37663898D01*
X43517470Y-37670688D01*
X43517521Y-37670663D01*
X43520761Y-37677113D01*
X43520762Y-37677114D01*
X43520763Y-37677117D01*
X43562494Y-37740567D01*
X43563443Y-37742058D01*
X43603289Y-37806657D01*
X43607766Y-37812319D01*
X43607719Y-37812356D01*
X43612482Y-37818202D01*
X43612528Y-37818164D01*
X43617173Y-37823699D01*
X43672363Y-37875768D01*
X43673657Y-37877025D01*
X64441267Y-58644634D01*
X64453048Y-58658266D01*
X64467390Y-58677530D01*
X64507420Y-58711119D01*
X64511392Y-58714759D01*
X64514312Y-58717679D01*
X64517221Y-58720589D01*
X64542250Y-58740379D01*
X64543646Y-58741517D01*
X64601786Y-58790302D01*
X64601787Y-58790302D01*
X64601789Y-58790304D01*
X64607818Y-58794270D01*
X64607785Y-58794319D01*
X64614143Y-58798369D01*
X64614175Y-58798319D01*
X64620317Y-58802107D01*
X64620319Y-58802108D01*
X64620323Y-58802111D01*
X64689132Y-58834197D01*
X64690754Y-58834983D01*
X64708338Y-58843814D01*
X64758567Y-58869040D01*
X64758569Y-58869040D01*
X64765361Y-58871513D01*
X64765340Y-58871570D01*
X64772455Y-58874043D01*
X64772475Y-58873986D01*
X64779324Y-58876256D01*
X64779327Y-58876256D01*
X64779328Y-58876257D01*
X64853705Y-58891613D01*
X64855414Y-58891993D01*
X64870308Y-58895523D01*
X64929273Y-58909499D01*
X64929276Y-58909499D01*
X64929279Y-58909500D01*
X64929282Y-58909500D01*
X64936452Y-58910338D01*
X64936444Y-58910397D01*
X64943945Y-58911164D01*
X64943951Y-58911105D01*
X64951140Y-58911734D01*
X64951144Y-58911733D01*
X64951145Y-58911734D01*
X64979230Y-58910916D01*
X65027033Y-58909526D01*
X65028836Y-58909500D01*
X67102299Y-58909500D01*
X67169338Y-58929185D01*
X67203873Y-58962376D01*
X67251504Y-59030401D01*
X67251505Y-59030401D01*
X67418599Y-59197495D01*
X67490482Y-59247828D01*
X67612165Y-59333032D01*
X67612167Y-59333033D01*
X67612170Y-59333035D01*
X67826337Y-59432903D01*
X68054592Y-59494063D01*
X68242918Y-59510539D01*
X68289999Y-59514659D01*
X68290000Y-59514659D01*
X68290001Y-59514659D01*
X68329234Y-59511226D01*
X68525408Y-59494063D01*
X68753663Y-59432903D01*
X68967830Y-59333035D01*
X69161401Y-59197495D01*
X69328495Y-59030401D01*
X69376126Y-58962376D01*
X69430704Y-58918751D01*
X69477701Y-58909500D01*
X74283795Y-58909500D01*
X74301765Y-58910809D01*
X74325523Y-58914289D01*
X74377568Y-58909735D01*
X74382970Y-58909500D01*
X74391204Y-58909500D01*
X74391209Y-58909500D01*
X74422958Y-58905788D01*
X74424575Y-58905622D01*
X74500297Y-58898999D01*
X74500305Y-58898996D01*
X74507366Y-58897539D01*
X74507378Y-58897598D01*
X74514743Y-58895965D01*
X74514729Y-58895906D01*
X74521751Y-58894241D01*
X74521755Y-58894241D01*
X74593087Y-58868277D01*
X74594786Y-58867688D01*
X74597206Y-58866886D01*
X74666834Y-58843814D01*
X74666842Y-58843808D01*
X74673382Y-58840760D01*
X74673408Y-58840816D01*
X74680190Y-58837532D01*
X74680163Y-58837478D01*
X74686609Y-58834239D01*
X74686617Y-58834237D01*
X74750112Y-58792475D01*
X74751477Y-58791605D01*
X74816156Y-58751712D01*
X74816161Y-58751706D01*
X74821825Y-58747229D01*
X74821863Y-58747277D01*
X74827700Y-58742522D01*
X74827661Y-58742475D01*
X74833191Y-58737833D01*
X74833196Y-58737830D01*
X74885299Y-58682602D01*
X74886492Y-58681374D01*
X80198861Y-53369005D01*
X84534357Y-53369005D01*
X84554890Y-53616812D01*
X84554892Y-53616824D01*
X84615936Y-53857881D01*
X84715826Y-54085606D01*
X84851833Y-54293782D01*
X84881670Y-54326193D01*
X85020256Y-54476738D01*
X85216491Y-54629474D01*
X85435190Y-54747828D01*
X85670386Y-54828571D01*
X85915665Y-54869500D01*
X86164335Y-54869500D01*
X86409614Y-54828571D01*
X86644810Y-54747828D01*
X86863509Y-54629474D01*
X87059744Y-54476738D01*
X87228164Y-54293785D01*
X87364173Y-54085607D01*
X87464063Y-53857881D01*
X87525108Y-53616821D01*
X87527457Y-53588474D01*
X87545643Y-53369005D01*
X87545643Y-53368994D01*
X87525109Y-53121187D01*
X87525107Y-53121175D01*
X87464063Y-52880118D01*
X87364173Y-52652393D01*
X87228166Y-52444217D01*
X87170939Y-52382052D01*
X87059744Y-52261262D01*
X86863509Y-52108526D01*
X86863507Y-52108525D01*
X86863506Y-52108524D01*
X86644811Y-51990172D01*
X86644802Y-51990169D01*
X86409616Y-51909429D01*
X86164335Y-51868500D01*
X85915665Y-51868500D01*
X85670383Y-51909429D01*
X85435197Y-51990169D01*
X85435188Y-51990172D01*
X85216493Y-52108524D01*
X85020257Y-52261261D01*
X84851833Y-52444217D01*
X84715826Y-52652393D01*
X84615936Y-52880118D01*
X84554892Y-53121175D01*
X84554890Y-53121187D01*
X84534357Y-53368994D01*
X84534357Y-53369005D01*
X80198861Y-53369005D01*
X82595642Y-50972224D01*
X82609271Y-50960447D01*
X82628530Y-50946110D01*
X82662101Y-50906101D01*
X82665761Y-50902106D01*
X82671588Y-50896280D01*
X82671588Y-50896279D01*
X82671591Y-50896277D01*
X82691380Y-50871247D01*
X82692509Y-50869862D01*
X82694879Y-50867036D01*
X82741302Y-50811714D01*
X82741305Y-50811707D01*
X82745274Y-50805675D01*
X82745325Y-50805708D01*
X82749372Y-50799356D01*
X82749320Y-50799324D01*
X82753111Y-50793177D01*
X82759320Y-50779861D01*
X82785226Y-50724304D01*
X82785952Y-50722805D01*
X82820040Y-50654933D01*
X82820043Y-50654917D01*
X82822509Y-50648146D01*
X82822567Y-50648167D01*
X82825043Y-50641046D01*
X82824986Y-50641028D01*
X82827256Y-50634177D01*
X82830399Y-50618954D01*
X82842626Y-50559734D01*
X82842976Y-50558155D01*
X82860500Y-50484221D01*
X82860500Y-50484212D01*
X82861338Y-50477048D01*
X82861398Y-50477055D01*
X82862164Y-50469555D01*
X82862105Y-50469550D01*
X82862734Y-50462359D01*
X82860526Y-50386457D01*
X82860500Y-50384654D01*
X82860500Y-24806700D01*
X82880185Y-24739661D01*
X82913375Y-24705126D01*
X82981401Y-24657495D01*
X83148495Y-24490401D01*
X83196126Y-24422376D01*
X83250704Y-24378751D01*
X83297701Y-24369500D01*
X84280443Y-24369500D01*
X84347482Y-24389185D01*
X84393237Y-24441989D01*
X84403181Y-24511147D01*
X84392820Y-24545916D01*
X84325295Y-24690684D01*
X84275438Y-24876686D01*
X84275437Y-24876694D01*
X84258640Y-25068516D01*
X84258640Y-25068518D01*
X84258640Y-25068521D01*
X84258640Y-25068524D01*
X84270982Y-25209698D01*
X84275412Y-25260368D01*
X84325240Y-25446364D01*
X84325243Y-25446374D01*
X84406618Y-25620897D01*
X84406618Y-25620898D01*
X84517066Y-25778644D01*
X84517073Y-25778653D01*
X84521983Y-25783563D01*
X84532321Y-25796253D01*
X84532366Y-25796216D01*
X84537008Y-25801748D01*
X84537009Y-25801749D01*
X84537010Y-25801750D01*
X84591280Y-25852951D01*
X84592541Y-25854176D01*
X84653207Y-25914843D01*
X84653213Y-25914848D01*
X84810957Y-26025301D01*
X84810964Y-26025305D01*
X84985493Y-26106685D01*
X84985494Y-26106685D01*
X84985498Y-26106687D01*
X85171516Y-26156524D01*
X85363362Y-26173299D01*
X85363365Y-26173298D01*
X85363369Y-26173299D01*
X85363370Y-26173299D01*
X85450356Y-26165682D01*
X85474684Y-26163552D01*
X85543185Y-26177313D01*
X85593371Y-26225925D01*
X85609500Y-26287079D01*
X85609500Y-26611269D01*
X85589815Y-26678308D01*
X85573181Y-26698950D01*
X85535181Y-26736950D01*
X85473858Y-26770435D01*
X85404166Y-26765451D01*
X85359819Y-26736951D01*
X85321818Y-26698950D01*
X85266156Y-26643288D01*
X85116834Y-26551186D01*
X84950297Y-26496001D01*
X84950295Y-26496000D01*
X84847510Y-26485500D01*
X84222498Y-26485500D01*
X84222480Y-26485501D01*
X84119703Y-26496000D01*
X84119700Y-26496001D01*
X83953168Y-26551185D01*
X83953163Y-26551187D01*
X83803842Y-26643289D01*
X83679789Y-26767342D01*
X83587687Y-26916663D01*
X83587685Y-26916666D01*
X83587686Y-26916666D01*
X83532501Y-27083203D01*
X83532501Y-27083204D01*
X83532500Y-27083204D01*
X83522000Y-27185983D01*
X83522000Y-28186001D01*
X83522001Y-28186019D01*
X83533189Y-28295533D01*
X83532839Y-28295568D01*
X83534500Y-28311259D01*
X83534499Y-31435506D01*
X83534479Y-31437075D01*
X83532243Y-31525361D01*
X83532243Y-31525370D01*
X83543064Y-31585739D01*
X83543718Y-31590404D01*
X83549925Y-31651430D01*
X83549927Y-31651444D01*
X83560208Y-31684213D01*
X83562079Y-31691837D01*
X83568142Y-31725652D01*
X83568142Y-31725655D01*
X83590894Y-31782612D01*
X83592474Y-31787051D01*
X83610841Y-31845588D01*
X83610844Y-31845595D01*
X83627509Y-31875619D01*
X83630879Y-31882714D01*
X83640526Y-31906865D01*
X83643622Y-31914614D01*
X83643627Y-31914624D01*
X83677377Y-31965833D01*
X83679818Y-31969863D01*
X83709588Y-32023498D01*
X83709589Y-32023499D01*
X83709591Y-32023502D01*
X83731968Y-32049567D01*
X83736693Y-32055835D01*
X83748416Y-32073622D01*
X83755598Y-32084519D01*
X83798978Y-32127899D01*
X83802169Y-32131343D01*
X83842131Y-32177892D01*
X83842130Y-32177892D01*
X83869299Y-32198923D01*
X83875186Y-32204107D01*
X84864676Y-33193596D01*
X85737987Y-34066907D01*
X85739052Y-34067998D01*
X85755790Y-34085606D01*
X85799940Y-34132052D01*
X85799947Y-34132058D01*
X85834053Y-34155795D01*
X85850303Y-34167106D01*
X85854044Y-34169926D01*
X85901593Y-34208698D01*
X85932045Y-34224604D01*
X85938758Y-34228672D01*
X85966951Y-34248295D01*
X86023329Y-34272489D01*
X86027578Y-34274507D01*
X86081951Y-34302909D01*
X86109489Y-34310788D01*
X86114974Y-34312358D01*
X86122368Y-34314990D01*
X86153942Y-34328540D01*
X86153945Y-34328540D01*
X86153946Y-34328541D01*
X86214022Y-34340887D01*
X86218600Y-34342010D01*
X86232501Y-34345987D01*
X86277582Y-34358887D01*
X86311839Y-34361495D01*
X86319614Y-34362586D01*
X86353255Y-34369500D01*
X86353259Y-34369500D01*
X86414598Y-34369500D01*
X86419304Y-34369678D01*
X86454062Y-34372325D01*
X86480475Y-34374337D01*
X86480475Y-34374336D01*
X86480476Y-34374337D01*
X86514559Y-34369996D01*
X86522389Y-34369500D01*
X95867145Y-34369500D01*
X95934184Y-34389185D01*
X95958374Y-34409517D01*
X96020252Y-34476734D01*
X96020259Y-34476741D01*
X96025482Y-34480806D01*
X96066294Y-34537517D01*
X96069967Y-34607290D01*
X96035335Y-34667973D01*
X95973392Y-34700299D01*
X95949318Y-34702658D01*
X92689335Y-34702658D01*
X92687772Y-34702638D01*
X92599479Y-34700401D01*
X92599470Y-34700401D01*
X92539102Y-34711222D01*
X92534437Y-34711876D01*
X92473405Y-34718083D01*
X92473397Y-34718085D01*
X92440623Y-34728368D01*
X92432996Y-34730240D01*
X92399192Y-34736299D01*
X92342226Y-34759052D01*
X92337790Y-34760631D01*
X92279256Y-34778998D01*
X92279254Y-34778999D01*
X92249227Y-34795664D01*
X92242135Y-34799032D01*
X92210225Y-34811779D01*
X92158996Y-34845541D01*
X92154968Y-34847982D01*
X92101344Y-34877746D01*
X92101341Y-34877748D01*
X92075269Y-34900128D01*
X92069002Y-34904853D01*
X92040324Y-34923756D01*
X92040317Y-34923761D01*
X91996958Y-34967120D01*
X91993503Y-34970322D01*
X91946948Y-35010290D01*
X91946947Y-35010291D01*
X91925918Y-35037458D01*
X91920726Y-35043352D01*
X88517091Y-38446987D01*
X88515967Y-38448083D01*
X88451946Y-38508942D01*
X88416899Y-38559294D01*
X88414062Y-38563056D01*
X88375302Y-38610592D01*
X88375299Y-38610597D01*
X88359392Y-38641047D01*
X88355324Y-38647761D01*
X88335702Y-38675954D01*
X88311509Y-38732330D01*
X88309488Y-38736584D01*
X88281091Y-38790951D01*
X88281090Y-38790952D01*
X88271640Y-38823975D01*
X88269007Y-38831371D01*
X88255459Y-38862943D01*
X88243113Y-38923019D01*
X88241990Y-38927595D01*
X88225113Y-38986577D01*
X88225113Y-38986579D01*
X88222503Y-39020841D01*
X88221414Y-39028608D01*
X88220899Y-39031119D01*
X88214500Y-39062258D01*
X88214500Y-39123597D01*
X88214321Y-39128306D01*
X88209662Y-39189474D01*
X88211707Y-39205527D01*
X88214003Y-39223560D01*
X88214500Y-39231388D01*
X88214500Y-56744500D01*
X88194815Y-56811539D01*
X88142011Y-56857294D01*
X88090500Y-56868500D01*
X87212855Y-56868500D01*
X87145816Y-56848815D01*
X87121626Y-56828483D01*
X87059747Y-56761265D01*
X87059744Y-56761262D01*
X86926424Y-56657495D01*
X86863509Y-56608526D01*
X86863507Y-56608525D01*
X86863506Y-56608524D01*
X86644811Y-56490172D01*
X86644802Y-56490169D01*
X86409616Y-56409429D01*
X86164335Y-56368500D01*
X85915665Y-56368500D01*
X85670383Y-56409429D01*
X85435197Y-56490169D01*
X85435188Y-56490172D01*
X85216493Y-56608524D01*
X85020257Y-56761261D01*
X84851833Y-56944217D01*
X84715826Y-57152393D01*
X84615936Y-57380118D01*
X84554892Y-57621175D01*
X84554890Y-57621187D01*
X84534357Y-57868994D01*
X84534357Y-57869000D01*
X84554890Y-58116812D01*
X84554892Y-58116824D01*
X84615936Y-58357881D01*
X84715826Y-58585606D01*
X84851833Y-58793782D01*
X84864152Y-58807164D01*
X85020256Y-58976738D01*
X85216491Y-59129474D01*
X85435190Y-59247828D01*
X85670386Y-59328571D01*
X85915665Y-59369500D01*
X86164335Y-59369500D01*
X86409614Y-59328571D01*
X86644810Y-59247828D01*
X86863509Y-59129474D01*
X87059744Y-58976738D01*
X87095476Y-58937923D01*
X87121626Y-58909517D01*
X87181513Y-58873526D01*
X87212855Y-58869500D01*
X89113259Y-58869500D01*
X89188071Y-58869500D01*
X89191211Y-58869580D01*
X89217842Y-58870930D01*
X89265936Y-58873369D01*
X89281856Y-58870930D01*
X89300633Y-58869500D01*
X91367145Y-58869500D01*
X91434184Y-58889185D01*
X91458374Y-58909517D01*
X91520252Y-58976734D01*
X91520256Y-58976738D01*
X91716491Y-59129474D01*
X91935190Y-59247828D01*
X92170386Y-59328571D01*
X92415665Y-59369500D01*
X92664335Y-59369500D01*
X92909614Y-59328571D01*
X93144810Y-59247828D01*
X93363509Y-59129474D01*
X93559744Y-58976738D01*
X93728164Y-58793785D01*
X93864173Y-58585607D01*
X93964063Y-58357881D01*
X94025108Y-58116821D01*
X94039210Y-57946641D01*
X94045643Y-57869000D01*
X95534357Y-57869000D01*
X95554890Y-58116812D01*
X95554892Y-58116824D01*
X95615936Y-58357881D01*
X95715826Y-58585606D01*
X95851833Y-58793782D01*
X95864152Y-58807164D01*
X96020256Y-58976738D01*
X96216491Y-59129474D01*
X96435190Y-59247828D01*
X96670386Y-59328571D01*
X96915665Y-59369500D01*
X97164335Y-59369500D01*
X97409614Y-59328571D01*
X97644810Y-59247828D01*
X97863509Y-59129474D01*
X98059744Y-58976738D01*
X98095476Y-58937923D01*
X98121626Y-58909517D01*
X98181513Y-58873526D01*
X98212855Y-58869500D01*
X102367145Y-58869500D01*
X102434184Y-58889185D01*
X102458374Y-58909517D01*
X102520252Y-58976734D01*
X102520256Y-58976738D01*
X102716491Y-59129474D01*
X102935190Y-59247828D01*
X103170386Y-59328571D01*
X103415665Y-59369500D01*
X103664335Y-59369500D01*
X103909614Y-59328571D01*
X104144810Y-59247828D01*
X104363509Y-59129474D01*
X104559744Y-58976738D01*
X104728164Y-58793785D01*
X104864173Y-58585607D01*
X104964063Y-58357881D01*
X105025108Y-58116821D01*
X105037888Y-57962575D01*
X105063042Y-57897392D01*
X105073776Y-57885143D01*
X109931101Y-53027819D01*
X109992425Y-52994334D01*
X110018783Y-52991500D01*
X112752217Y-52991500D01*
X112819256Y-53011185D01*
X112839898Y-53027819D01*
X115041005Y-55228926D01*
X115042070Y-55230017D01*
X115077252Y-55267028D01*
X115102939Y-55294051D01*
X115102945Y-55294056D01*
X115153295Y-55329101D01*
X115157047Y-55331929D01*
X115204592Y-55370697D01*
X115204595Y-55370698D01*
X115204597Y-55370700D01*
X115235039Y-55386601D01*
X115241753Y-55390668D01*
X115269947Y-55410292D01*
X115269953Y-55410296D01*
X115326331Y-55434490D01*
X115330569Y-55436502D01*
X115384951Y-55464909D01*
X115417973Y-55474356D01*
X115425365Y-55476989D01*
X115456940Y-55490539D01*
X115456941Y-55490540D01*
X115470054Y-55493234D01*
X115517055Y-55502892D01*
X115521595Y-55504006D01*
X115580582Y-55520886D01*
X115614841Y-55523494D01*
X115622609Y-55524585D01*
X115656255Y-55531500D01*
X115656259Y-55531500D01*
X115717601Y-55531500D01*
X115722308Y-55531678D01*
X115749597Y-55533757D01*
X115783475Y-55536337D01*
X115783475Y-55536336D01*
X115783476Y-55536337D01*
X115817559Y-55531996D01*
X115825389Y-55531500D01*
X133726507Y-55531500D01*
X133728069Y-55531519D01*
X133765283Y-55532462D01*
X133816358Y-55533757D01*
X133816358Y-55533756D01*
X133816363Y-55533757D01*
X133876753Y-55522932D01*
X133881412Y-55522280D01*
X133923607Y-55517988D01*
X133942438Y-55516074D01*
X133975227Y-55505786D01*
X133982840Y-55503918D01*
X134016653Y-55497858D01*
X134073621Y-55475101D01*
X134078053Y-55473524D01*
X134136588Y-55455159D01*
X134166627Y-55438484D01*
X134173708Y-55435122D01*
X134205617Y-55422377D01*
X134256854Y-55388608D01*
X134260851Y-55386187D01*
X134314502Y-55356409D01*
X134340568Y-55334030D01*
X134346843Y-55329300D01*
X134347145Y-55329101D01*
X134375519Y-55310402D01*
X134418892Y-55267027D01*
X134422350Y-55263823D01*
X134461691Y-55230050D01*
X134468895Y-55223866D01*
X134489928Y-55196691D01*
X134495098Y-55190821D01*
X136740034Y-52945885D01*
X136801355Y-52912402D01*
X136816900Y-52910041D01*
X136878692Y-52904635D01*
X137098496Y-52845739D01*
X137304734Y-52749568D01*
X137491139Y-52619047D01*
X137652047Y-52458139D01*
X137782568Y-52271734D01*
X137878739Y-52065496D01*
X137937635Y-51845692D01*
X137957468Y-51619000D01*
X137937635Y-51392308D01*
X137931389Y-51368999D01*
X150613127Y-51368999D01*
X150613128Y-51369000D01*
X151576314Y-51369000D01*
X151564359Y-51380955D01*
X151506835Y-51493852D01*
X151487014Y-51619000D01*
X151506835Y-51744148D01*
X151564359Y-51857045D01*
X151576314Y-51869000D01*
X150613128Y-51869000D01*
X150665730Y-52065317D01*
X150665734Y-52065326D01*
X150761865Y-52271482D01*
X150892342Y-52457820D01*
X151053179Y-52618657D01*
X151239517Y-52749134D01*
X151445673Y-52845265D01*
X151445682Y-52845269D01*
X151641999Y-52897872D01*
X151642000Y-52897871D01*
X151642000Y-51934686D01*
X151653955Y-51946641D01*
X151766852Y-52004165D01*
X151860519Y-52019000D01*
X151923481Y-52019000D01*
X152017148Y-52004165D01*
X152130045Y-51946641D01*
X152142000Y-51934685D01*
X152142000Y-52897872D01*
X152338317Y-52845269D01*
X152338326Y-52845265D01*
X152544482Y-52749134D01*
X152730820Y-52618657D01*
X152891657Y-52457820D01*
X153022134Y-52271482D01*
X153118265Y-52065326D01*
X153118269Y-52065317D01*
X153170872Y-51869000D01*
X152207686Y-51869000D01*
X152219641Y-51857045D01*
X152277165Y-51744148D01*
X152296986Y-51619000D01*
X152277165Y-51493852D01*
X152219641Y-51380955D01*
X152207686Y-51369000D01*
X153170872Y-51369000D01*
X153170872Y-51368999D01*
X153118269Y-51172682D01*
X153118265Y-51172673D01*
X153022134Y-50966517D01*
X152891657Y-50780179D01*
X152730820Y-50619342D01*
X152544482Y-50488865D01*
X152338328Y-50392734D01*
X152142000Y-50340127D01*
X152142000Y-51303314D01*
X152130045Y-51291359D01*
X152017148Y-51233835D01*
X151923481Y-51219000D01*
X151860519Y-51219000D01*
X151766852Y-51233835D01*
X151653955Y-51291359D01*
X151642000Y-51303313D01*
X151642000Y-50340127D01*
X151445671Y-50392734D01*
X151239517Y-50488865D01*
X151053179Y-50619342D01*
X150892342Y-50780179D01*
X150761865Y-50966517D01*
X150665734Y-51172673D01*
X150665730Y-51172682D01*
X150613127Y-51368999D01*
X137931389Y-51368999D01*
X137878739Y-51172504D01*
X137782568Y-50966266D01*
X137652047Y-50779861D01*
X137652045Y-50779858D01*
X137491141Y-50618954D01*
X137304734Y-50488432D01*
X137304732Y-50488431D01*
X137098497Y-50392261D01*
X137098488Y-50392258D01*
X136878697Y-50333366D01*
X136878693Y-50333365D01*
X136878692Y-50333365D01*
X136878691Y-50333364D01*
X136878686Y-50333364D01*
X136652002Y-50313532D01*
X136651998Y-50313532D01*
X136425313Y-50333364D01*
X136425302Y-50333366D01*
X136205511Y-50392258D01*
X136205502Y-50392261D01*
X135999267Y-50488431D01*
X135999265Y-50488432D01*
X135812858Y-50618954D01*
X135651954Y-50779858D01*
X135521432Y-50966265D01*
X135521431Y-50966267D01*
X135425261Y-51172502D01*
X135425258Y-51172511D01*
X135366365Y-51392307D01*
X135360958Y-51454095D01*
X135335504Y-51519163D01*
X135325111Y-51530966D01*
X133361899Y-53494181D01*
X133300576Y-53527666D01*
X133274218Y-53530500D01*
X116223783Y-53530500D01*
X116156744Y-53510815D01*
X116136102Y-53494181D01*
X115043341Y-52401420D01*
X114010920Y-51368999D01*
X115391127Y-51368999D01*
X115391128Y-51369000D01*
X116354314Y-51369000D01*
X116342359Y-51380955D01*
X116284835Y-51493852D01*
X116265014Y-51619000D01*
X116284835Y-51744148D01*
X116342359Y-51857045D01*
X116354314Y-51869000D01*
X115391128Y-51869000D01*
X115443730Y-52065317D01*
X115443734Y-52065326D01*
X115539865Y-52271482D01*
X115670342Y-52457820D01*
X115831179Y-52618657D01*
X116017517Y-52749134D01*
X116223673Y-52845265D01*
X116223682Y-52845269D01*
X116419999Y-52897872D01*
X116420000Y-52897871D01*
X116420000Y-51934685D01*
X116431955Y-51946641D01*
X116544852Y-52004165D01*
X116638519Y-52019000D01*
X116701481Y-52019000D01*
X116795148Y-52004165D01*
X116908045Y-51946641D01*
X116920000Y-51934686D01*
X116920000Y-52897872D01*
X117116317Y-52845269D01*
X117116326Y-52845265D01*
X117322482Y-52749134D01*
X117508820Y-52618657D01*
X117669657Y-52457820D01*
X117800134Y-52271482D01*
X117896265Y-52065326D01*
X117896269Y-52065317D01*
X117948872Y-51869000D01*
X116985686Y-51869000D01*
X116997641Y-51857045D01*
X117055165Y-51744148D01*
X117074986Y-51619000D01*
X117055165Y-51493852D01*
X116997641Y-51380955D01*
X116985686Y-51369000D01*
X117948872Y-51369000D01*
X117948872Y-51368999D01*
X117896269Y-51172682D01*
X117896265Y-51172673D01*
X117800134Y-50966517D01*
X117669657Y-50780179D01*
X117508820Y-50619342D01*
X117322482Y-50488865D01*
X117116328Y-50392734D01*
X116920000Y-50340127D01*
X116920000Y-51303314D01*
X116908045Y-51291359D01*
X116795148Y-51233835D01*
X116701481Y-51219000D01*
X116638519Y-51219000D01*
X116544852Y-51233835D01*
X116431955Y-51291359D01*
X116419999Y-51303314D01*
X116420000Y-50340127D01*
X116223671Y-50392734D01*
X116017517Y-50488865D01*
X115831179Y-50619342D01*
X115670342Y-50780179D01*
X115539865Y-50966517D01*
X115443734Y-51172673D01*
X115443730Y-51172682D01*
X115391127Y-51368999D01*
X114010920Y-51368999D01*
X113934972Y-51293051D01*
X113933914Y-51291965D01*
X113873064Y-51227951D01*
X113873060Y-51227948D01*
X113873059Y-51227947D01*
X113847165Y-51209924D01*
X113822709Y-51192902D01*
X113818946Y-51190064D01*
X113771413Y-51151305D01*
X113771406Y-51151300D01*
X113740959Y-51135397D01*
X113734251Y-51131334D01*
X113706049Y-51111705D01*
X113706046Y-51111703D01*
X113706045Y-51111703D01*
X113706041Y-51111701D01*
X113649680Y-51087514D01*
X113645424Y-51085493D01*
X113591057Y-51057094D01*
X113591050Y-51057091D01*
X113591049Y-51057091D01*
X113585008Y-51055362D01*
X113558030Y-51047642D01*
X113550630Y-51045008D01*
X113519057Y-51031459D01*
X113519058Y-51031459D01*
X113458966Y-51019109D01*
X113454391Y-51017986D01*
X113395420Y-51001113D01*
X113395425Y-51001113D01*
X113361158Y-50998503D01*
X113353380Y-50997412D01*
X113319742Y-50990500D01*
X113319741Y-50990500D01*
X113258402Y-50990500D01*
X113253695Y-50990321D01*
X113248121Y-50989896D01*
X113192524Y-50985662D01*
X113172589Y-50988201D01*
X113158440Y-50990003D01*
X113150611Y-50990500D01*
X109566452Y-50990500D01*
X109564889Y-50990480D01*
X109476636Y-50988244D01*
X109476635Y-50988244D01*
X109476626Y-50988244D01*
X109416263Y-50999064D01*
X109411597Y-50999718D01*
X109350564Y-51005925D01*
X109317780Y-51016210D01*
X109310153Y-51018082D01*
X109276349Y-51024141D01*
X109219381Y-51046895D01*
X109214945Y-51048474D01*
X109156414Y-51066840D01*
X109156410Y-51066842D01*
X109126378Y-51083510D01*
X109119284Y-51086879D01*
X109087382Y-51099623D01*
X109087377Y-51099625D01*
X109036156Y-51133381D01*
X109032128Y-51135822D01*
X108978501Y-51165588D01*
X108952434Y-51187965D01*
X108946165Y-51192692D01*
X108917484Y-51211595D01*
X108917478Y-51211600D01*
X108874109Y-51254968D01*
X108870655Y-51258169D01*
X108824102Y-51298136D01*
X108803076Y-51325298D01*
X108797885Y-51331192D01*
X103791949Y-56337129D01*
X103730626Y-56370614D01*
X103683864Y-56371758D01*
X103668269Y-56369156D01*
X103664335Y-56368500D01*
X103415665Y-56368500D01*
X103170383Y-56409429D01*
X102935197Y-56490169D01*
X102935188Y-56490172D01*
X102716493Y-56608524D01*
X102520255Y-56761262D01*
X102520252Y-56761265D01*
X102458374Y-56828483D01*
X102398487Y-56864474D01*
X102367145Y-56868500D01*
X98212855Y-56868500D01*
X98145816Y-56848815D01*
X98121626Y-56828483D01*
X98059747Y-56761265D01*
X98059744Y-56761262D01*
X97926424Y-56657495D01*
X97863509Y-56608526D01*
X97863507Y-56608525D01*
X97863506Y-56608524D01*
X97644811Y-56490172D01*
X97644802Y-56490169D01*
X97409616Y-56409429D01*
X97164335Y-56368500D01*
X96915665Y-56368500D01*
X96670383Y-56409429D01*
X96435197Y-56490169D01*
X96435188Y-56490172D01*
X96216493Y-56608524D01*
X96020257Y-56761261D01*
X95851833Y-56944217D01*
X95715826Y-57152393D01*
X95615936Y-57380118D01*
X95554892Y-57621175D01*
X95554890Y-57621187D01*
X95534357Y-57868994D01*
X95534357Y-57869000D01*
X94045643Y-57869000D01*
X94045643Y-57868994D01*
X94025109Y-57621187D01*
X94025107Y-57621175D01*
X93964063Y-57380118D01*
X93864173Y-57152393D01*
X93728166Y-56944217D01*
X93654757Y-56864474D01*
X93559744Y-56761262D01*
X93363509Y-56608526D01*
X93363507Y-56608525D01*
X93363506Y-56608524D01*
X93144811Y-56490172D01*
X93144802Y-56490169D01*
X92909616Y-56409429D01*
X92664335Y-56368500D01*
X92415665Y-56368500D01*
X92170383Y-56409429D01*
X91935197Y-56490169D01*
X91935188Y-56490172D01*
X91716493Y-56608524D01*
X91520255Y-56761262D01*
X91520252Y-56761265D01*
X91458374Y-56828483D01*
X91398487Y-56864474D01*
X91367145Y-56868500D01*
X90339500Y-56868500D01*
X90272461Y-56848815D01*
X90226706Y-56796011D01*
X90215500Y-56744500D01*
X90215500Y-53369005D01*
X91034357Y-53369005D01*
X91054890Y-53616812D01*
X91054892Y-53616824D01*
X91115936Y-53857881D01*
X91215826Y-54085606D01*
X91351833Y-54293782D01*
X91381670Y-54326193D01*
X91520256Y-54476738D01*
X91716491Y-54629474D01*
X91935190Y-54747828D01*
X92170386Y-54828571D01*
X92415665Y-54869500D01*
X92664335Y-54869500D01*
X92909614Y-54828571D01*
X93144810Y-54747828D01*
X93363509Y-54629474D01*
X93559744Y-54476738D01*
X93728164Y-54293785D01*
X93864173Y-54085607D01*
X93964063Y-53857881D01*
X94025108Y-53616821D01*
X94027457Y-53588474D01*
X94045643Y-53369005D01*
X95534357Y-53369005D01*
X95554890Y-53616812D01*
X95554892Y-53616824D01*
X95615936Y-53857881D01*
X95715826Y-54085606D01*
X95851833Y-54293782D01*
X95881670Y-54326193D01*
X96020256Y-54476738D01*
X96216491Y-54629474D01*
X96435190Y-54747828D01*
X96670386Y-54828571D01*
X96915665Y-54869500D01*
X97164335Y-54869500D01*
X97409614Y-54828571D01*
X97644810Y-54747828D01*
X97863509Y-54629474D01*
X98059744Y-54476738D01*
X98228164Y-54293785D01*
X98364173Y-54085607D01*
X98464063Y-53857881D01*
X98525108Y-53616821D01*
X98527457Y-53588474D01*
X98545643Y-53369005D01*
X102034357Y-53369005D01*
X102054890Y-53616812D01*
X102054892Y-53616824D01*
X102115936Y-53857881D01*
X102215826Y-54085606D01*
X102351833Y-54293782D01*
X102381670Y-54326193D01*
X102520256Y-54476738D01*
X102716491Y-54629474D01*
X102935190Y-54747828D01*
X103170386Y-54828571D01*
X103415665Y-54869500D01*
X103664335Y-54869500D01*
X103909614Y-54828571D01*
X104144810Y-54747828D01*
X104363509Y-54629474D01*
X104559744Y-54476738D01*
X104728164Y-54293785D01*
X104864173Y-54085607D01*
X104964063Y-53857881D01*
X105025108Y-53616821D01*
X105027457Y-53588474D01*
X105045643Y-53369005D01*
X105045643Y-53368994D01*
X105025109Y-53121187D01*
X105025107Y-53121175D01*
X104964063Y-52880118D01*
X104864173Y-52652393D01*
X104728166Y-52444217D01*
X104670939Y-52382052D01*
X104559744Y-52261262D01*
X104363509Y-52108526D01*
X104363507Y-52108525D01*
X104363506Y-52108524D01*
X104144811Y-51990172D01*
X104144802Y-51990169D01*
X103909616Y-51909429D01*
X103664335Y-51868500D01*
X103415665Y-51868500D01*
X103170383Y-51909429D01*
X102935197Y-51990169D01*
X102935188Y-51990172D01*
X102716493Y-52108524D01*
X102520257Y-52261261D01*
X102351833Y-52444217D01*
X102215826Y-52652393D01*
X102115936Y-52880118D01*
X102054892Y-53121175D01*
X102054890Y-53121187D01*
X102034357Y-53368994D01*
X102034357Y-53369005D01*
X98545643Y-53369005D01*
X98545643Y-53368994D01*
X98525109Y-53121187D01*
X98525107Y-53121175D01*
X98464063Y-52880118D01*
X98364173Y-52652393D01*
X98228166Y-52444217D01*
X98170939Y-52382052D01*
X98059744Y-52261262D01*
X97863509Y-52108526D01*
X97863507Y-52108525D01*
X97863506Y-52108524D01*
X97644811Y-51990172D01*
X97644802Y-51990169D01*
X97409616Y-51909429D01*
X97164335Y-51868500D01*
X96915665Y-51868500D01*
X96670383Y-51909429D01*
X96435197Y-51990169D01*
X96435188Y-51990172D01*
X96216493Y-52108524D01*
X96020257Y-52261261D01*
X95851833Y-52444217D01*
X95715826Y-52652393D01*
X95615936Y-52880118D01*
X95554892Y-53121175D01*
X95554890Y-53121187D01*
X95534357Y-53368994D01*
X95534357Y-53369005D01*
X94045643Y-53369005D01*
X94045643Y-53368994D01*
X94025109Y-53121187D01*
X94025107Y-53121175D01*
X93964063Y-52880118D01*
X93864173Y-52652393D01*
X93728166Y-52444217D01*
X93670939Y-52382052D01*
X93559744Y-52261262D01*
X93363509Y-52108526D01*
X93363507Y-52108525D01*
X93363506Y-52108524D01*
X93144811Y-51990172D01*
X93144802Y-51990169D01*
X92909616Y-51909429D01*
X92664335Y-51868500D01*
X92415665Y-51868500D01*
X92170383Y-51909429D01*
X91935197Y-51990169D01*
X91935188Y-51990172D01*
X91716493Y-52108524D01*
X91520257Y-52261261D01*
X91351833Y-52444217D01*
X91215826Y-52652393D01*
X91115936Y-52880118D01*
X91054892Y-53121175D01*
X91054890Y-53121187D01*
X91034357Y-53368994D01*
X91034357Y-53369005D01*
X90215500Y-53369005D01*
X90215500Y-47869005D01*
X95534357Y-47869005D01*
X95554890Y-48116812D01*
X95554892Y-48116824D01*
X95615936Y-48357881D01*
X95715826Y-48585606D01*
X95851833Y-48793782D01*
X95851836Y-48793785D01*
X96020256Y-48976738D01*
X96216491Y-49129474D01*
X96252219Y-49148809D01*
X96430337Y-49245202D01*
X96435190Y-49247828D01*
X96670386Y-49328571D01*
X96915665Y-49369500D01*
X97164335Y-49369500D01*
X97409614Y-49328571D01*
X97644810Y-49247828D01*
X97863509Y-49129474D01*
X98059744Y-48976738D01*
X98084194Y-48950177D01*
X98121626Y-48909517D01*
X98181513Y-48873526D01*
X98212855Y-48869500D01*
X102367145Y-48869500D01*
X102434184Y-48889185D01*
X102458374Y-48909517D01*
X102520252Y-48976734D01*
X102520256Y-48976738D01*
X102716491Y-49129474D01*
X102752219Y-49148809D01*
X102930337Y-49245202D01*
X102935190Y-49247828D01*
X103170386Y-49328571D01*
X103415665Y-49369500D01*
X103664335Y-49369500D01*
X103909614Y-49328571D01*
X104144810Y-49247828D01*
X104363509Y-49129474D01*
X104559744Y-48976738D01*
X104584194Y-48950177D01*
X104621626Y-48909517D01*
X104681513Y-48873526D01*
X104712855Y-48869500D01*
X117253217Y-48869500D01*
X117320256Y-48889185D01*
X117340898Y-48905819D01*
X120751986Y-52316906D01*
X120753051Y-52317997D01*
X120810499Y-52378432D01*
X120813940Y-52382052D01*
X120813947Y-52382058D01*
X120848053Y-52405795D01*
X120864303Y-52417106D01*
X120868044Y-52419926D01*
X120915593Y-52458698D01*
X120946045Y-52474604D01*
X120952758Y-52478672D01*
X120980951Y-52498295D01*
X121037329Y-52522489D01*
X121041578Y-52524507D01*
X121095951Y-52552909D01*
X121123489Y-52560788D01*
X121128974Y-52562358D01*
X121136368Y-52564990D01*
X121167942Y-52578540D01*
X121167945Y-52578540D01*
X121167946Y-52578541D01*
X121228022Y-52590887D01*
X121232600Y-52592010D01*
X121246501Y-52595987D01*
X121291582Y-52608887D01*
X121325839Y-52611495D01*
X121333614Y-52612586D01*
X121367255Y-52619500D01*
X121367259Y-52619500D01*
X121428598Y-52619500D01*
X121433304Y-52619678D01*
X121468062Y-52622325D01*
X121494475Y-52624337D01*
X121494475Y-52624336D01*
X121494476Y-52624337D01*
X121528559Y-52619996D01*
X121536389Y-52619500D01*
X131032412Y-52619500D01*
X131099451Y-52639185D01*
X131103523Y-52641917D01*
X131257266Y-52749568D01*
X131463504Y-52845739D01*
X131683308Y-52904635D01*
X131845230Y-52918801D01*
X131909998Y-52924468D01*
X131910000Y-52924468D01*
X131910002Y-52924468D01*
X131966673Y-52919509D01*
X132136692Y-52904635D01*
X132356496Y-52845739D01*
X132562734Y-52749568D01*
X132749139Y-52619047D01*
X132910047Y-52458139D01*
X133040568Y-52271734D01*
X133136739Y-52065496D01*
X133195635Y-51845692D01*
X133215468Y-51619000D01*
X133195635Y-51392308D01*
X133136739Y-51172504D01*
X133040568Y-50966266D01*
X132910047Y-50779861D01*
X132910045Y-50779858D01*
X132749141Y-50618954D01*
X132562734Y-50488432D01*
X132562732Y-50488431D01*
X132356497Y-50392261D01*
X132356488Y-50392258D01*
X132136697Y-50333366D01*
X132136693Y-50333365D01*
X132136692Y-50333365D01*
X132136691Y-50333364D01*
X132136686Y-50333364D01*
X131910002Y-50313532D01*
X131909998Y-50313532D01*
X131683313Y-50333364D01*
X131683302Y-50333366D01*
X131463511Y-50392258D01*
X131463502Y-50392261D01*
X131257267Y-50488431D01*
X131257265Y-50488432D01*
X131223024Y-50512408D01*
X131123378Y-50582181D01*
X131103535Y-50596075D01*
X131037329Y-50618402D01*
X131032412Y-50618500D01*
X121934782Y-50618500D01*
X121867743Y-50598815D01*
X121847101Y-50582181D01*
X120154105Y-48889185D01*
X118435973Y-47171053D01*
X118434915Y-47169967D01*
X118374061Y-47105949D01*
X118374060Y-47105948D01*
X118374059Y-47105947D01*
X118346204Y-47086559D01*
X118323709Y-47070902D01*
X118319946Y-47068064D01*
X118272413Y-47029305D01*
X118272406Y-47029300D01*
X118241959Y-47013397D01*
X118235251Y-47009334D01*
X118207049Y-46989705D01*
X118207046Y-46989703D01*
X118207045Y-46989703D01*
X118207041Y-46989701D01*
X118150680Y-46965514D01*
X118146424Y-46963493D01*
X118092057Y-46935094D01*
X118092050Y-46935091D01*
X118092049Y-46935091D01*
X118086008Y-46933362D01*
X118059030Y-46925642D01*
X118051630Y-46923008D01*
X118020057Y-46909459D01*
X118020058Y-46909459D01*
X117959966Y-46897109D01*
X117955391Y-46895986D01*
X117896420Y-46879113D01*
X117896425Y-46879113D01*
X117862158Y-46876503D01*
X117854380Y-46875412D01*
X117820742Y-46868500D01*
X117820741Y-46868500D01*
X117759402Y-46868500D01*
X117754695Y-46868321D01*
X117749121Y-46867896D01*
X117693524Y-46863662D01*
X117673589Y-46866201D01*
X117659440Y-46868003D01*
X117651611Y-46868500D01*
X104712855Y-46868500D01*
X104645816Y-46848815D01*
X104621626Y-46828483D01*
X104559747Y-46761265D01*
X104559744Y-46761262D01*
X104377026Y-46619047D01*
X104363509Y-46608526D01*
X104363507Y-46608525D01*
X104363506Y-46608524D01*
X104144811Y-46490172D01*
X104144802Y-46490169D01*
X103909616Y-46409429D01*
X103664335Y-46368500D01*
X103415665Y-46368500D01*
X103170383Y-46409429D01*
X102935197Y-46490169D01*
X102935188Y-46490172D01*
X102716493Y-46608524D01*
X102520255Y-46761262D01*
X102520252Y-46761265D01*
X102458374Y-46828483D01*
X102398487Y-46864474D01*
X102367145Y-46868500D01*
X98212855Y-46868500D01*
X98145816Y-46848815D01*
X98121626Y-46828483D01*
X98059747Y-46761265D01*
X98059744Y-46761262D01*
X97877026Y-46619047D01*
X97863509Y-46608526D01*
X97863507Y-46608525D01*
X97863506Y-46608524D01*
X97644811Y-46490172D01*
X97644802Y-46490169D01*
X97409616Y-46409429D01*
X97164335Y-46368500D01*
X96915665Y-46368500D01*
X96670383Y-46409429D01*
X96435197Y-46490169D01*
X96435188Y-46490172D01*
X96216493Y-46608524D01*
X96020257Y-46761261D01*
X95851833Y-46944217D01*
X95715826Y-47152393D01*
X95615936Y-47380118D01*
X95554892Y-47621175D01*
X95554890Y-47621187D01*
X95534357Y-47868994D01*
X95534357Y-47869005D01*
X90215500Y-47869005D01*
X90215500Y-43369005D01*
X95534357Y-43369005D01*
X95554890Y-43616812D01*
X95554892Y-43616824D01*
X95615936Y-43857881D01*
X95715826Y-44085606D01*
X95851833Y-44293782D01*
X95851836Y-44293785D01*
X96020256Y-44476738D01*
X96216491Y-44629474D01*
X96216493Y-44629475D01*
X96432414Y-44746326D01*
X96435190Y-44747828D01*
X96670386Y-44828571D01*
X96915665Y-44869500D01*
X97164335Y-44869500D01*
X97409614Y-44828571D01*
X97644810Y-44747828D01*
X97863509Y-44629474D01*
X98059744Y-44476738D01*
X98228164Y-44293785D01*
X98364173Y-44085607D01*
X98464063Y-43857881D01*
X98525108Y-43616821D01*
X98527491Y-43588064D01*
X98545643Y-43369005D01*
X102034357Y-43369005D01*
X102054890Y-43616812D01*
X102054892Y-43616824D01*
X102115936Y-43857881D01*
X102215826Y-44085606D01*
X102351833Y-44293782D01*
X102351836Y-44293785D01*
X102520256Y-44476738D01*
X102716491Y-44629474D01*
X102716493Y-44629475D01*
X102932414Y-44746326D01*
X102935190Y-44747828D01*
X103170386Y-44828571D01*
X103415665Y-44869500D01*
X103664335Y-44869500D01*
X103909614Y-44828571D01*
X104144810Y-44747828D01*
X104363509Y-44629474D01*
X104559744Y-44476738D01*
X104728164Y-44293785D01*
X104864173Y-44085607D01*
X104964063Y-43857881D01*
X105025108Y-43616821D01*
X105027491Y-43588064D01*
X105045643Y-43369005D01*
X105045643Y-43368994D01*
X105025109Y-43121187D01*
X105025107Y-43121175D01*
X104964063Y-42880118D01*
X104864173Y-42652393D01*
X104728166Y-42444217D01*
X104692412Y-42405378D01*
X104559744Y-42261262D01*
X104363509Y-42108526D01*
X104363507Y-42108525D01*
X104363506Y-42108524D01*
X104144811Y-41990172D01*
X104144802Y-41990169D01*
X103909616Y-41909429D01*
X103664335Y-41868500D01*
X103415665Y-41868500D01*
X103170383Y-41909429D01*
X102935197Y-41990169D01*
X102935188Y-41990172D01*
X102716493Y-42108524D01*
X102520257Y-42261261D01*
X102351833Y-42444217D01*
X102215826Y-42652393D01*
X102115936Y-42880118D01*
X102054892Y-43121175D01*
X102054890Y-43121187D01*
X102034357Y-43368994D01*
X102034357Y-43369005D01*
X98545643Y-43369005D01*
X98545643Y-43368994D01*
X98525109Y-43121187D01*
X98525107Y-43121175D01*
X98464063Y-42880118D01*
X98364173Y-42652393D01*
X98228166Y-42444217D01*
X98192412Y-42405378D01*
X98059744Y-42261262D01*
X97863509Y-42108526D01*
X97863507Y-42108525D01*
X97863506Y-42108524D01*
X97644811Y-41990172D01*
X97644802Y-41990169D01*
X97409616Y-41909429D01*
X97164335Y-41868500D01*
X96915665Y-41868500D01*
X96670383Y-41909429D01*
X96435197Y-41990169D01*
X96435188Y-41990172D01*
X96216493Y-42108524D01*
X96020257Y-42261261D01*
X95851833Y-42444217D01*
X95715826Y-42652393D01*
X95615936Y-42880118D01*
X95554892Y-43121175D01*
X95554890Y-43121187D01*
X95534357Y-43368994D01*
X95534357Y-43369005D01*
X90215500Y-43369005D01*
X90215500Y-39629782D01*
X90235185Y-39562743D01*
X90251814Y-39542106D01*
X93053943Y-36739977D01*
X93115267Y-36706492D01*
X93141625Y-36703658D01*
X95790593Y-36703658D01*
X95857632Y-36723343D01*
X95903387Y-36776147D01*
X95913331Y-36845305D01*
X95884306Y-36908861D01*
X95881822Y-36911641D01*
X95851836Y-36944213D01*
X95715826Y-37152393D01*
X95615936Y-37380118D01*
X95554892Y-37621175D01*
X95554890Y-37621187D01*
X95534357Y-37868994D01*
X95534357Y-37869005D01*
X95554890Y-38116812D01*
X95554892Y-38116824D01*
X95615936Y-38357881D01*
X95715826Y-38585606D01*
X95851833Y-38793782D01*
X95878659Y-38822923D01*
X96020256Y-38976738D01*
X96216491Y-39129474D01*
X96216493Y-39129475D01*
X96404811Y-39231388D01*
X96435190Y-39247828D01*
X96670386Y-39328571D01*
X96915665Y-39369500D01*
X97164335Y-39369500D01*
X97409614Y-39328571D01*
X97644810Y-39247828D01*
X97863509Y-39129474D01*
X98059744Y-38976738D01*
X98084194Y-38950177D01*
X98121626Y-38909517D01*
X98181513Y-38873526D01*
X98212855Y-38869500D01*
X102367145Y-38869500D01*
X102434184Y-38889185D01*
X102458374Y-38909517D01*
X102505012Y-38960179D01*
X102520256Y-38976738D01*
X102716491Y-39129474D01*
X102716493Y-39129475D01*
X102904811Y-39231388D01*
X102935190Y-39247828D01*
X103170386Y-39328571D01*
X103415665Y-39369500D01*
X103574217Y-39369500D01*
X103641256Y-39389185D01*
X103661898Y-39405819D01*
X106863986Y-42607906D01*
X106865051Y-42608997D01*
X106906302Y-42652393D01*
X106925940Y-42673052D01*
X106925947Y-42673058D01*
X106960053Y-42696795D01*
X106976303Y-42708106D01*
X106980044Y-42710926D01*
X107027593Y-42749698D01*
X107058045Y-42765604D01*
X107064758Y-42769672D01*
X107092951Y-42789295D01*
X107149329Y-42813489D01*
X107153578Y-42815507D01*
X107207951Y-42843909D01*
X107235489Y-42851788D01*
X107240974Y-42853358D01*
X107248368Y-42855990D01*
X107279942Y-42869540D01*
X107279945Y-42869540D01*
X107279946Y-42869541D01*
X107340022Y-42881887D01*
X107344600Y-42883010D01*
X107358501Y-42886987D01*
X107403582Y-42899887D01*
X107437839Y-42902495D01*
X107445614Y-42903586D01*
X107479255Y-42910500D01*
X107479259Y-42910500D01*
X107540598Y-42910500D01*
X107545304Y-42910678D01*
X107580062Y-42913325D01*
X107606475Y-42915337D01*
X107606475Y-42915336D01*
X107606476Y-42915337D01*
X107640559Y-42910996D01*
X107648389Y-42910500D01*
X131106217Y-42910500D01*
X131173256Y-42930185D01*
X131193898Y-42946819D01*
X132393181Y-44146101D01*
X132426666Y-44207424D01*
X132429500Y-44233782D01*
X132429500Y-44741410D01*
X132409815Y-44808449D01*
X132407076Y-44812532D01*
X132299431Y-44966267D01*
X132272382Y-45024275D01*
X132226209Y-45076714D01*
X132159016Y-45095866D01*
X132092135Y-45075650D01*
X132047618Y-45024275D01*
X132020686Y-44966520D01*
X132020568Y-44966266D01*
X131890047Y-44779861D01*
X131890045Y-44779858D01*
X131729141Y-44618954D01*
X131542734Y-44488432D01*
X131542732Y-44488431D01*
X131336497Y-44392261D01*
X131336488Y-44392258D01*
X131116697Y-44333366D01*
X131116693Y-44333365D01*
X131116692Y-44333365D01*
X131116691Y-44333364D01*
X131116686Y-44333364D01*
X130890002Y-44313532D01*
X130889998Y-44313532D01*
X130663313Y-44333364D01*
X130663302Y-44333366D01*
X130443511Y-44392258D01*
X130443502Y-44392261D01*
X130237267Y-44488431D01*
X130237265Y-44488432D01*
X130050858Y-44618954D01*
X129889954Y-44779858D01*
X129759433Y-44966264D01*
X129759432Y-44966266D01*
X129759315Y-44966518D01*
X129732106Y-45024867D01*
X129685933Y-45077306D01*
X129618739Y-45096457D01*
X129551858Y-45076241D01*
X129507342Y-45024865D01*
X129480135Y-44966520D01*
X129480134Y-44966518D01*
X129349657Y-44780179D01*
X129188820Y-44619342D01*
X129002482Y-44488865D01*
X128796328Y-44392734D01*
X128599999Y-44340127D01*
X128599999Y-45183498D01*
X128492315Y-45134320D01*
X128385763Y-45119000D01*
X128314237Y-45119000D01*
X128207685Y-45134320D01*
X128099999Y-45183498D01*
X128099999Y-44340127D01*
X127903671Y-44392734D01*
X127697517Y-44488865D01*
X127511179Y-44619342D01*
X127350342Y-44780179D01*
X127219867Y-44966515D01*
X127192657Y-45024867D01*
X127146484Y-45077306D01*
X127079290Y-45096457D01*
X127012409Y-45076241D01*
X126967893Y-45024865D01*
X126940685Y-44966518D01*
X126940568Y-44966266D01*
X126810047Y-44779861D01*
X126810045Y-44779858D01*
X126649141Y-44618954D01*
X126462734Y-44488432D01*
X126462732Y-44488431D01*
X126256497Y-44392261D01*
X126256488Y-44392258D01*
X126036697Y-44333366D01*
X126036693Y-44333365D01*
X126036692Y-44333365D01*
X126036691Y-44333364D01*
X126036686Y-44333364D01*
X125810002Y-44313532D01*
X125809998Y-44313532D01*
X125583313Y-44333364D01*
X125583302Y-44333366D01*
X125363511Y-44392258D01*
X125363502Y-44392261D01*
X125157267Y-44488431D01*
X125157265Y-44488432D01*
X124970858Y-44618954D01*
X124809954Y-44779858D01*
X124679432Y-44966265D01*
X124679431Y-44966267D01*
X124652382Y-45024275D01*
X124606209Y-45076714D01*
X124539016Y-45095866D01*
X124472135Y-45075650D01*
X124427618Y-45024275D01*
X124400686Y-44966520D01*
X124400568Y-44966266D01*
X124270047Y-44779861D01*
X124270045Y-44779858D01*
X124109141Y-44618954D01*
X123922734Y-44488432D01*
X123922732Y-44488431D01*
X123716497Y-44392261D01*
X123716488Y-44392258D01*
X123496697Y-44333366D01*
X123496693Y-44333365D01*
X123496692Y-44333365D01*
X123496691Y-44333364D01*
X123496686Y-44333364D01*
X123270002Y-44313532D01*
X123269998Y-44313532D01*
X123043313Y-44333364D01*
X123043302Y-44333366D01*
X122823511Y-44392258D01*
X122823502Y-44392261D01*
X122617267Y-44488431D01*
X122617265Y-44488432D01*
X122430858Y-44618954D01*
X122269954Y-44779858D01*
X122252725Y-44804464D01*
X122198147Y-44848088D01*
X122128648Y-44855280D01*
X122066294Y-44823757D01*
X122030882Y-44763526D01*
X122027861Y-44746591D01*
X122024091Y-44711516D01*
X121973797Y-44576671D01*
X121973793Y-44576664D01*
X121887547Y-44461455D01*
X121887544Y-44461452D01*
X121772335Y-44375206D01*
X121772328Y-44375202D01*
X121637482Y-44324908D01*
X121637483Y-44324908D01*
X121577883Y-44318501D01*
X121577881Y-44318500D01*
X121577873Y-44318500D01*
X121577864Y-44318500D01*
X119882129Y-44318500D01*
X119882123Y-44318501D01*
X119822516Y-44324908D01*
X119687671Y-44375202D01*
X119687664Y-44375206D01*
X119572455Y-44461452D01*
X119572452Y-44461455D01*
X119486206Y-44576664D01*
X119486202Y-44576671D01*
X119435908Y-44711517D01*
X119429501Y-44771116D01*
X119429500Y-44771135D01*
X119429500Y-46466870D01*
X119429501Y-46466876D01*
X119435908Y-46526483D01*
X119486202Y-46661328D01*
X119486206Y-46661335D01*
X119572452Y-46776544D01*
X119572455Y-46776547D01*
X119687664Y-46862793D01*
X119687671Y-46862797D01*
X119822517Y-46913091D01*
X119822516Y-46913091D01*
X119829444Y-46913835D01*
X119882127Y-46919500D01*
X121577872Y-46919499D01*
X121637483Y-46913091D01*
X121772331Y-46862796D01*
X121887546Y-46776546D01*
X121973796Y-46661331D01*
X122024091Y-46526483D01*
X122027862Y-46491401D01*
X122054599Y-46426855D01*
X122111990Y-46387006D01*
X122181816Y-46384511D01*
X122241905Y-46420163D01*
X122252726Y-46433536D01*
X122269956Y-46458143D01*
X122430858Y-46619045D01*
X122430861Y-46619047D01*
X122617266Y-46749568D01*
X122823504Y-46845739D01*
X122823509Y-46845740D01*
X122823511Y-46845741D01*
X122876415Y-46859916D01*
X123043308Y-46904635D01*
X123205230Y-46918801D01*
X123269998Y-46924468D01*
X123270000Y-46924468D01*
X123270002Y-46924468D01*
X123326807Y-46919498D01*
X123496692Y-46904635D01*
X123716496Y-46845739D01*
X123922734Y-46749568D01*
X124109139Y-46619047D01*
X124270047Y-46458139D01*
X124400568Y-46271734D01*
X124427618Y-46213724D01*
X124473790Y-46161285D01*
X124540983Y-46142133D01*
X124607865Y-46162348D01*
X124652382Y-46213725D01*
X124679429Y-46271728D01*
X124679432Y-46271734D01*
X124809954Y-46458141D01*
X124970858Y-46619045D01*
X124970861Y-46619047D01*
X125157266Y-46749568D01*
X125363504Y-46845739D01*
X125363509Y-46845740D01*
X125363511Y-46845741D01*
X125416415Y-46859916D01*
X125583308Y-46904635D01*
X125745230Y-46918801D01*
X125809998Y-46924468D01*
X125810000Y-46924468D01*
X125810002Y-46924468D01*
X125866807Y-46919498D01*
X126036692Y-46904635D01*
X126256496Y-46845739D01*
X126462734Y-46749568D01*
X126649139Y-46619047D01*
X126810047Y-46458139D01*
X126940568Y-46271734D01*
X126967895Y-46213129D01*
X127014064Y-46160695D01*
X127081257Y-46141542D01*
X127148139Y-46161757D01*
X127192657Y-46213133D01*
X127219865Y-46271482D01*
X127350342Y-46457820D01*
X127511179Y-46618657D01*
X127697517Y-46749134D01*
X127903673Y-46845265D01*
X127903682Y-46845269D01*
X128099999Y-46897872D01*
X128100000Y-46897871D01*
X128099999Y-46054501D01*
X128207685Y-46103680D01*
X128314237Y-46119000D01*
X128385763Y-46119000D01*
X128492315Y-46103680D01*
X128599999Y-46054501D01*
X128600000Y-46897871D01*
X128600000Y-46897872D01*
X128796317Y-46845269D01*
X128796326Y-46845265D01*
X129002482Y-46749134D01*
X129188820Y-46618657D01*
X129349657Y-46457820D01*
X129480132Y-46271484D01*
X129507341Y-46213134D01*
X129553513Y-46160695D01*
X129620707Y-46141542D01*
X129687588Y-46161757D01*
X129732105Y-46213132D01*
X129754088Y-46260275D01*
X129759431Y-46271732D01*
X129759432Y-46271734D01*
X129889954Y-46458141D01*
X130050858Y-46619045D01*
X130050861Y-46619047D01*
X130237266Y-46749568D01*
X130443504Y-46845739D01*
X130443509Y-46845740D01*
X130443511Y-46845741D01*
X130496415Y-46859916D01*
X130663308Y-46904635D01*
X130825230Y-46918801D01*
X130889998Y-46924468D01*
X130890000Y-46924468D01*
X130890002Y-46924468D01*
X130946807Y-46919498D01*
X131116692Y-46904635D01*
X131336496Y-46845739D01*
X131542734Y-46749568D01*
X131729139Y-46619047D01*
X131890047Y-46458139D01*
X132020568Y-46271734D01*
X132047618Y-46213724D01*
X132093790Y-46161285D01*
X132160983Y-46142133D01*
X132227865Y-46162348D01*
X132272382Y-46213725D01*
X132299429Y-46271728D01*
X132299432Y-46271734D01*
X132429954Y-46458141D01*
X132590858Y-46619045D01*
X132590861Y-46619047D01*
X132777266Y-46749568D01*
X132983504Y-46845739D01*
X132983509Y-46845740D01*
X132983511Y-46845741D01*
X133036415Y-46859916D01*
X133203308Y-46904635D01*
X133365230Y-46918801D01*
X133429998Y-46924468D01*
X133430000Y-46924468D01*
X133430002Y-46924468D01*
X133486807Y-46919498D01*
X133656692Y-46904635D01*
X133876496Y-46845739D01*
X134082734Y-46749568D01*
X134269139Y-46619047D01*
X134430047Y-46458139D01*
X134560568Y-46271734D01*
X134587618Y-46213724D01*
X134633790Y-46161285D01*
X134700983Y-46142133D01*
X134767865Y-46162348D01*
X134812382Y-46213725D01*
X134839429Y-46271728D01*
X134839432Y-46271734D01*
X134969954Y-46458141D01*
X135130858Y-46619045D01*
X135130861Y-46619047D01*
X135317266Y-46749568D01*
X135523504Y-46845739D01*
X135523509Y-46845740D01*
X135523511Y-46845741D01*
X135576415Y-46859916D01*
X135743308Y-46904635D01*
X135905230Y-46918801D01*
X135969998Y-46924468D01*
X135970000Y-46924468D01*
X135970002Y-46924468D01*
X136026807Y-46919498D01*
X136196692Y-46904635D01*
X136416496Y-46845739D01*
X136622734Y-46749568D01*
X136809139Y-46619047D01*
X136970047Y-46458139D01*
X137100568Y-46271734D01*
X137127618Y-46213724D01*
X137173790Y-46161285D01*
X137240983Y-46142133D01*
X137307865Y-46162348D01*
X137352382Y-46213725D01*
X137379429Y-46271728D01*
X137379432Y-46271734D01*
X137509954Y-46458141D01*
X137670858Y-46619045D01*
X137670861Y-46619047D01*
X137857266Y-46749568D01*
X138063504Y-46845739D01*
X138063509Y-46845740D01*
X138063511Y-46845741D01*
X138116415Y-46859916D01*
X138283308Y-46904635D01*
X138445230Y-46918801D01*
X138509998Y-46924468D01*
X138510000Y-46924468D01*
X138510002Y-46924468D01*
X138566807Y-46919498D01*
X138736692Y-46904635D01*
X138956496Y-46845739D01*
X139162734Y-46749568D01*
X139349139Y-46619047D01*
X139510047Y-46458139D01*
X139640568Y-46271734D01*
X139667619Y-46213721D01*
X139713788Y-46161286D01*
X139780981Y-46142133D01*
X139847862Y-46162348D01*
X139892380Y-46213722D01*
X139919432Y-46271734D01*
X139975317Y-46351546D01*
X140049954Y-46458141D01*
X140210858Y-46619045D01*
X140210861Y-46619047D01*
X140397266Y-46749568D01*
X140603504Y-46845739D01*
X140603509Y-46845740D01*
X140603511Y-46845741D01*
X140656415Y-46859916D01*
X140823308Y-46904635D01*
X140985230Y-46918801D01*
X141049998Y-46924468D01*
X141050000Y-46924468D01*
X141050002Y-46924468D01*
X141106807Y-46919498D01*
X141276692Y-46904635D01*
X141496496Y-46845739D01*
X141702734Y-46749568D01*
X141889139Y-46619047D01*
X142050047Y-46458139D01*
X142180568Y-46271734D01*
X142207619Y-46213721D01*
X142253788Y-46161286D01*
X142320981Y-46142133D01*
X142387862Y-46162348D01*
X142432380Y-46213722D01*
X142459432Y-46271734D01*
X142515317Y-46351546D01*
X142589954Y-46458141D01*
X142750858Y-46619045D01*
X142750861Y-46619047D01*
X142937266Y-46749568D01*
X143143504Y-46845739D01*
X143143509Y-46845740D01*
X143143511Y-46845741D01*
X143196415Y-46859916D01*
X143363308Y-46904635D01*
X143525230Y-46918801D01*
X143589998Y-46924468D01*
X143590000Y-46924468D01*
X143590002Y-46924468D01*
X143646807Y-46919498D01*
X143816692Y-46904635D01*
X144036496Y-46845739D01*
X144242734Y-46749568D01*
X144429139Y-46619047D01*
X144590047Y-46458139D01*
X144720568Y-46271734D01*
X144747619Y-46213721D01*
X144793788Y-46161286D01*
X144860981Y-46142133D01*
X144927862Y-46162348D01*
X144972380Y-46213722D01*
X144999432Y-46271734D01*
X145055316Y-46351546D01*
X145129954Y-46458141D01*
X145290858Y-46619045D01*
X145290861Y-46619047D01*
X145477266Y-46749568D01*
X145683504Y-46845739D01*
X145683509Y-46845740D01*
X145683511Y-46845741D01*
X145736415Y-46859916D01*
X145903308Y-46904635D01*
X146065230Y-46918801D01*
X146129998Y-46924468D01*
X146130000Y-46924468D01*
X146130002Y-46924468D01*
X146186807Y-46919498D01*
X146356692Y-46904635D01*
X146576496Y-46845739D01*
X146782734Y-46749568D01*
X146969139Y-46619047D01*
X147130047Y-46458139D01*
X147260568Y-46271734D01*
X147287618Y-46213724D01*
X147333790Y-46161285D01*
X147400983Y-46142133D01*
X147467865Y-46162348D01*
X147512382Y-46213725D01*
X147539429Y-46271728D01*
X147539432Y-46271734D01*
X147669954Y-46458141D01*
X147830858Y-46619045D01*
X147830861Y-46619047D01*
X148017266Y-46749568D01*
X148223504Y-46845739D01*
X148223509Y-46845740D01*
X148223511Y-46845741D01*
X148276415Y-46859916D01*
X148443308Y-46904635D01*
X148605230Y-46918801D01*
X148669998Y-46924468D01*
X148670000Y-46924468D01*
X148670002Y-46924468D01*
X148726807Y-46919498D01*
X148896692Y-46904635D01*
X149116496Y-46845739D01*
X149322734Y-46749568D01*
X149509139Y-46619047D01*
X149670047Y-46458139D01*
X149800568Y-46271734D01*
X149827618Y-46213724D01*
X149873790Y-46161285D01*
X149940983Y-46142133D01*
X150007865Y-46162348D01*
X150052382Y-46213725D01*
X150079429Y-46271728D01*
X150079432Y-46271734D01*
X150209954Y-46458141D01*
X150370858Y-46619045D01*
X150370861Y-46619047D01*
X150557266Y-46749568D01*
X150763504Y-46845739D01*
X150763509Y-46845740D01*
X150763511Y-46845741D01*
X150816415Y-46859916D01*
X150983308Y-46904635D01*
X151145230Y-46918801D01*
X151209998Y-46924468D01*
X151210000Y-46924468D01*
X151210002Y-46924468D01*
X151266807Y-46919498D01*
X151436692Y-46904635D01*
X151656496Y-46845739D01*
X151862734Y-46749568D01*
X152049139Y-46619047D01*
X152210047Y-46458139D01*
X152340568Y-46271734D01*
X152367618Y-46213724D01*
X152413790Y-46161285D01*
X152480983Y-46142133D01*
X152547865Y-46162348D01*
X152592382Y-46213725D01*
X152619429Y-46271728D01*
X152619432Y-46271734D01*
X152749954Y-46458141D01*
X152910858Y-46619045D01*
X152910861Y-46619047D01*
X153097266Y-46749568D01*
X153303504Y-46845739D01*
X153303509Y-46845740D01*
X153303511Y-46845741D01*
X153356415Y-46859916D01*
X153523308Y-46904635D01*
X153685230Y-46918801D01*
X153749998Y-46924468D01*
X153750000Y-46924468D01*
X153750002Y-46924468D01*
X153806807Y-46919498D01*
X153976692Y-46904635D01*
X154196496Y-46845739D01*
X154402734Y-46749568D01*
X154589139Y-46619047D01*
X154750047Y-46458139D01*
X154880568Y-46271734D01*
X154907618Y-46213724D01*
X154953790Y-46161285D01*
X155020983Y-46142133D01*
X155087865Y-46162348D01*
X155132382Y-46213725D01*
X155159429Y-46271728D01*
X155159432Y-46271734D01*
X155289954Y-46458141D01*
X155450858Y-46619045D01*
X155450861Y-46619047D01*
X155637266Y-46749568D01*
X155843504Y-46845739D01*
X155843509Y-46845740D01*
X155843511Y-46845741D01*
X155896415Y-46859916D01*
X156063308Y-46904635D01*
X156225230Y-46918801D01*
X156289998Y-46924468D01*
X156290000Y-46924468D01*
X156290002Y-46924468D01*
X156346807Y-46919498D01*
X156516692Y-46904635D01*
X156736496Y-46845739D01*
X156942734Y-46749568D01*
X157129139Y-46619047D01*
X157290047Y-46458139D01*
X157420568Y-46271734D01*
X157516739Y-46065496D01*
X157575635Y-45845692D01*
X157595468Y-45619000D01*
X157575635Y-45392308D01*
X157516739Y-45172504D01*
X157420568Y-44966266D01*
X157290047Y-44779861D01*
X157290045Y-44779858D01*
X157129141Y-44618954D01*
X156942734Y-44488432D01*
X156942732Y-44488431D01*
X156736497Y-44392261D01*
X156736488Y-44392258D01*
X156516697Y-44333366D01*
X156516693Y-44333365D01*
X156516692Y-44333365D01*
X156516691Y-44333364D01*
X156516686Y-44333364D01*
X156290002Y-44313532D01*
X156289998Y-44313532D01*
X156063313Y-44333364D01*
X156063302Y-44333366D01*
X155843511Y-44392258D01*
X155843502Y-44392261D01*
X155637267Y-44488431D01*
X155637265Y-44488432D01*
X155450858Y-44618954D01*
X155289954Y-44779858D01*
X155159432Y-44966265D01*
X155159431Y-44966267D01*
X155132382Y-45024275D01*
X155086209Y-45076714D01*
X155019016Y-45095866D01*
X154952135Y-45075650D01*
X154907618Y-45024275D01*
X154880686Y-44966520D01*
X154880568Y-44966266D01*
X154750047Y-44779861D01*
X154750045Y-44779858D01*
X154589141Y-44618954D01*
X154402734Y-44488432D01*
X154402732Y-44488431D01*
X154196497Y-44392261D01*
X154196488Y-44392258D01*
X153976697Y-44333366D01*
X153976693Y-44333365D01*
X153976692Y-44333365D01*
X153976691Y-44333364D01*
X153976686Y-44333364D01*
X153750002Y-44313532D01*
X153749998Y-44313532D01*
X153523313Y-44333364D01*
X153523302Y-44333366D01*
X153303511Y-44392258D01*
X153303502Y-44392261D01*
X153097267Y-44488431D01*
X153097265Y-44488432D01*
X152910858Y-44618954D01*
X152749954Y-44779858D01*
X152619432Y-44966265D01*
X152619431Y-44966267D01*
X152592382Y-45024275D01*
X152546209Y-45076714D01*
X152479016Y-45095866D01*
X152412135Y-45075650D01*
X152367618Y-45024275D01*
X152340686Y-44966520D01*
X152340568Y-44966266D01*
X152210047Y-44779861D01*
X152210045Y-44779858D01*
X152049141Y-44618954D01*
X151862734Y-44488432D01*
X151862732Y-44488431D01*
X151656497Y-44392261D01*
X151656488Y-44392258D01*
X151436697Y-44333366D01*
X151436693Y-44333365D01*
X151436692Y-44333365D01*
X151436691Y-44333364D01*
X151436686Y-44333364D01*
X151210002Y-44313532D01*
X151209998Y-44313532D01*
X150983313Y-44333364D01*
X150983302Y-44333366D01*
X150763511Y-44392258D01*
X150763502Y-44392261D01*
X150557267Y-44488431D01*
X150557265Y-44488432D01*
X150370858Y-44618954D01*
X150209954Y-44779858D01*
X150079432Y-44966265D01*
X150079431Y-44966267D01*
X150052382Y-45024275D01*
X150006209Y-45076714D01*
X149939016Y-45095866D01*
X149872135Y-45075650D01*
X149827618Y-45024275D01*
X149800686Y-44966520D01*
X149800568Y-44966266D01*
X149670047Y-44779861D01*
X149670045Y-44779858D01*
X149509141Y-44618954D01*
X149322734Y-44488432D01*
X149322732Y-44488431D01*
X149116497Y-44392261D01*
X149116488Y-44392258D01*
X148896697Y-44333366D01*
X148896693Y-44333365D01*
X148896692Y-44333365D01*
X148896691Y-44333364D01*
X148896686Y-44333364D01*
X148670002Y-44313532D01*
X148669998Y-44313532D01*
X148443313Y-44333364D01*
X148443302Y-44333366D01*
X148223511Y-44392258D01*
X148223502Y-44392261D01*
X148017267Y-44488431D01*
X148017265Y-44488432D01*
X147830858Y-44618954D01*
X147669954Y-44779858D01*
X147539432Y-44966265D01*
X147539431Y-44966267D01*
X147512382Y-45024275D01*
X147466209Y-45076714D01*
X147399016Y-45095866D01*
X147332135Y-45075650D01*
X147287618Y-45024275D01*
X147260686Y-44966520D01*
X147260568Y-44966266D01*
X147130047Y-44779861D01*
X147130045Y-44779858D01*
X146969141Y-44618954D01*
X146782734Y-44488432D01*
X146782732Y-44488431D01*
X146576497Y-44392261D01*
X146576488Y-44392258D01*
X146356697Y-44333366D01*
X146356693Y-44333365D01*
X146356692Y-44333365D01*
X146356691Y-44333364D01*
X146356686Y-44333364D01*
X146130002Y-44313532D01*
X146129998Y-44313532D01*
X145903313Y-44333364D01*
X145903302Y-44333366D01*
X145683511Y-44392258D01*
X145683502Y-44392261D01*
X145477267Y-44488431D01*
X145477265Y-44488432D01*
X145290858Y-44618954D01*
X145129954Y-44779858D01*
X144999432Y-44966265D01*
X144999431Y-44966267D01*
X144972382Y-45024275D01*
X144926209Y-45076714D01*
X144859016Y-45095866D01*
X144792135Y-45075650D01*
X144747618Y-45024275D01*
X144720686Y-44966520D01*
X144720568Y-44966266D01*
X144590047Y-44779861D01*
X144590045Y-44779858D01*
X144429141Y-44618954D01*
X144242734Y-44488432D01*
X144242732Y-44488431D01*
X144036497Y-44392261D01*
X144036488Y-44392258D01*
X143816697Y-44333366D01*
X143816693Y-44333365D01*
X143816692Y-44333365D01*
X143816691Y-44333364D01*
X143816686Y-44333364D01*
X143590002Y-44313532D01*
X143589998Y-44313532D01*
X143363313Y-44333364D01*
X143363302Y-44333366D01*
X143143511Y-44392258D01*
X143143502Y-44392261D01*
X142937267Y-44488431D01*
X142937265Y-44488432D01*
X142750858Y-44618954D01*
X142589954Y-44779858D01*
X142459432Y-44966265D01*
X142459431Y-44966267D01*
X142432382Y-45024275D01*
X142386209Y-45076714D01*
X142319016Y-45095866D01*
X142252135Y-45075650D01*
X142207618Y-45024275D01*
X142180686Y-44966520D01*
X142180568Y-44966266D01*
X142072924Y-44812532D01*
X142050597Y-44746326D01*
X142050500Y-44741410D01*
X142050500Y-42752451D01*
X142050520Y-42750881D01*
X142052756Y-42662642D01*
X142052755Y-42662641D01*
X142052756Y-42662636D01*
X142041929Y-42602233D01*
X142041282Y-42597620D01*
X142035074Y-42536562D01*
X142035073Y-42536560D01*
X142035073Y-42536557D01*
X142024790Y-42503787D01*
X142022917Y-42496154D01*
X142016858Y-42462348D01*
X141994102Y-42405378D01*
X141992521Y-42400937D01*
X141974157Y-42342407D01*
X141957488Y-42312378D01*
X141954117Y-42305278D01*
X141941378Y-42273386D01*
X141941377Y-42273383D01*
X141907620Y-42222163D01*
X141905180Y-42218134D01*
X141894379Y-42198675D01*
X141875409Y-42164498D01*
X141875407Y-42164495D01*
X141853033Y-42138434D01*
X141848302Y-42132159D01*
X141836965Y-42114957D01*
X141829402Y-42103481D01*
X141786012Y-42060091D01*
X141782822Y-42056648D01*
X141742867Y-42010106D01*
X141742863Y-42010102D01*
X141715698Y-41989074D01*
X141709811Y-41983890D01*
X138192011Y-38466091D01*
X138190915Y-38464967D01*
X138130061Y-38400949D01*
X138130060Y-38400948D01*
X138130059Y-38400947D01*
X138102204Y-38381559D01*
X138079709Y-38365902D01*
X138075946Y-38363064D01*
X138028413Y-38324305D01*
X138028406Y-38324300D01*
X137997959Y-38308397D01*
X137991251Y-38304334D01*
X137963049Y-38284705D01*
X137963046Y-38284703D01*
X137963045Y-38284703D01*
X137963041Y-38284701D01*
X137906680Y-38260514D01*
X137902424Y-38258493D01*
X137848057Y-38230094D01*
X137848050Y-38230091D01*
X137848049Y-38230091D01*
X137842008Y-38228362D01*
X137815030Y-38220642D01*
X137807630Y-38218008D01*
X137776057Y-38204459D01*
X137776058Y-38204459D01*
X137715966Y-38192109D01*
X137711391Y-38190986D01*
X137652420Y-38174113D01*
X137652425Y-38174113D01*
X137618158Y-38171503D01*
X137610380Y-38170412D01*
X137576742Y-38163500D01*
X137576741Y-38163500D01*
X137515402Y-38163500D01*
X137510695Y-38163321D01*
X137505121Y-38162896D01*
X137449524Y-38158662D01*
X137429589Y-38161201D01*
X137415440Y-38163003D01*
X137407611Y-38163500D01*
X115715782Y-38163500D01*
X115648743Y-38143815D01*
X115628101Y-38127181D01*
X114068750Y-36567830D01*
X112506131Y-35005211D01*
X112505073Y-35004125D01*
X112444219Y-34940107D01*
X112444218Y-34940106D01*
X112444217Y-34940105D01*
X112416362Y-34920717D01*
X112393867Y-34905060D01*
X112390104Y-34902222D01*
X112342571Y-34863463D01*
X112342564Y-34863458D01*
X112312117Y-34847555D01*
X112305409Y-34843492D01*
X112277207Y-34823863D01*
X112277204Y-34823861D01*
X112277203Y-34823861D01*
X112277199Y-34823859D01*
X112220838Y-34799672D01*
X112216582Y-34797651D01*
X112162215Y-34769252D01*
X112162208Y-34769249D01*
X112162207Y-34769249D01*
X112156166Y-34767520D01*
X112129188Y-34759800D01*
X112121788Y-34757166D01*
X112090215Y-34743617D01*
X112090216Y-34743617D01*
X112030124Y-34731267D01*
X112025549Y-34730144D01*
X111966578Y-34713271D01*
X111966583Y-34713271D01*
X111932316Y-34710661D01*
X111924538Y-34709570D01*
X111890900Y-34702658D01*
X111890899Y-34702658D01*
X111829560Y-34702658D01*
X111824853Y-34702479D01*
X111819279Y-34702054D01*
X111763682Y-34697820D01*
X111744225Y-34700299D01*
X111729598Y-34702161D01*
X111721769Y-34702658D01*
X104630682Y-34702658D01*
X104563643Y-34682973D01*
X104517888Y-34630169D01*
X104507944Y-34561011D01*
X104536969Y-34497455D01*
X104554518Y-34480806D01*
X104559740Y-34476741D01*
X104559744Y-34476738D01*
X104728164Y-34293785D01*
X104864173Y-34085607D01*
X104964063Y-33857881D01*
X105025108Y-33616821D01*
X105036974Y-33473622D01*
X105045643Y-33369005D01*
X105045643Y-33368994D01*
X105025109Y-33121187D01*
X105025107Y-33121175D01*
X104964063Y-32880118D01*
X104864173Y-32652393D01*
X104728166Y-32444217D01*
X104698824Y-32412343D01*
X104559744Y-32261262D01*
X104363509Y-32108526D01*
X104363507Y-32108525D01*
X104363506Y-32108524D01*
X104309596Y-32079350D01*
X104260006Y-32030130D01*
X104244898Y-31961914D01*
X104269068Y-31896358D01*
X104324844Y-31854277D01*
X104368614Y-31846295D01*
X113804565Y-31846295D01*
X113871604Y-31865980D01*
X113892246Y-31882614D01*
X118484270Y-36474638D01*
X118496051Y-36488270D01*
X118510388Y-36507528D01*
X118510389Y-36507529D01*
X118510390Y-36507530D01*
X118515696Y-36511982D01*
X118550409Y-36541111D01*
X118554397Y-36544766D01*
X118560217Y-36550586D01*
X118560222Y-36550590D01*
X118560223Y-36550591D01*
X118585263Y-36570390D01*
X118586644Y-36571515D01*
X118588607Y-36573162D01*
X118644786Y-36620302D01*
X118644787Y-36620302D01*
X118644789Y-36620304D01*
X118650818Y-36624270D01*
X118650785Y-36624319D01*
X118657147Y-36628372D01*
X118657179Y-36628321D01*
X118663319Y-36632108D01*
X118663323Y-36632111D01*
X118701278Y-36649809D01*
X118732137Y-36664200D01*
X118733760Y-36664986D01*
X118801562Y-36699038D01*
X118808357Y-36701511D01*
X118808336Y-36701567D01*
X118815457Y-36704043D01*
X118815476Y-36703986D01*
X118822319Y-36706253D01*
X118822327Y-36706257D01*
X118896748Y-36721623D01*
X118898371Y-36721983D01*
X118972279Y-36739500D01*
X118972280Y-36739500D01*
X118972284Y-36739501D01*
X118979453Y-36740339D01*
X118979446Y-36740398D01*
X118986944Y-36741164D01*
X118986950Y-36741105D01*
X118994139Y-36741734D01*
X118994143Y-36741733D01*
X118994144Y-36741734D01*
X119022229Y-36740916D01*
X119070032Y-36739526D01*
X119071835Y-36739500D01*
X132836295Y-36739500D01*
X132854265Y-36740809D01*
X132878023Y-36744289D01*
X132930068Y-36739735D01*
X132935470Y-36739500D01*
X132943704Y-36739500D01*
X132943709Y-36739500D01*
X132975458Y-36735788D01*
X132977075Y-36735622D01*
X133052797Y-36728999D01*
X133052805Y-36728996D01*
X133059866Y-36727539D01*
X133059878Y-36727598D01*
X133067243Y-36725965D01*
X133067229Y-36725906D01*
X133074251Y-36724241D01*
X133074255Y-36724241D01*
X133145587Y-36698277D01*
X133147286Y-36697688D01*
X133219334Y-36673814D01*
X133219342Y-36673808D01*
X133225882Y-36670760D01*
X133225908Y-36670816D01*
X133232690Y-36667532D01*
X133232663Y-36667478D01*
X133239109Y-36664239D01*
X133239117Y-36664237D01*
X133302612Y-36622475D01*
X133303977Y-36621605D01*
X133368656Y-36581712D01*
X133368661Y-36581706D01*
X133374325Y-36577229D01*
X133374363Y-36577277D01*
X133380200Y-36572522D01*
X133380161Y-36572475D01*
X133385691Y-36567833D01*
X133385696Y-36567830D01*
X133437799Y-36512602D01*
X133438993Y-36511373D01*
X138244652Y-31705714D01*
X138305973Y-31672231D01*
X138343135Y-31669869D01*
X138486366Y-31682400D01*
X138509999Y-31684468D01*
X138510000Y-31684468D01*
X138510002Y-31684468D01*
X138580340Y-31678314D01*
X138736692Y-31664635D01*
X138956496Y-31605739D01*
X139162734Y-31509568D01*
X139349139Y-31379047D01*
X139510047Y-31218139D01*
X139640568Y-31031734D01*
X139667618Y-30973724D01*
X139713790Y-30921285D01*
X139780983Y-30902133D01*
X139847865Y-30922348D01*
X139892382Y-30973725D01*
X139919429Y-31031728D01*
X139919432Y-31031734D01*
X140049954Y-31218141D01*
X140210858Y-31379045D01*
X140210861Y-31379047D01*
X140397266Y-31509568D01*
X140603504Y-31605739D01*
X140603509Y-31605740D01*
X140603511Y-31605741D01*
X140656415Y-31619916D01*
X140823308Y-31664635D01*
X140972893Y-31677722D01*
X141049998Y-31684468D01*
X141050000Y-31684468D01*
X141050002Y-31684468D01*
X141120340Y-31678314D01*
X141276692Y-31664635D01*
X141496496Y-31605739D01*
X141702734Y-31509568D01*
X141889139Y-31379047D01*
X142050047Y-31218139D01*
X142180568Y-31031734D01*
X142207619Y-30973721D01*
X142253788Y-30921286D01*
X142320981Y-30902133D01*
X142387862Y-30922348D01*
X142432380Y-30973722D01*
X142459432Y-31031734D01*
X142461424Y-31034579D01*
X142589954Y-31218141D01*
X142750858Y-31379045D01*
X142750861Y-31379047D01*
X142937266Y-31509568D01*
X143143504Y-31605739D01*
X143143509Y-31605740D01*
X143143511Y-31605741D01*
X143196415Y-31619916D01*
X143363308Y-31664635D01*
X143512893Y-31677722D01*
X143589998Y-31684468D01*
X143590000Y-31684468D01*
X143590002Y-31684468D01*
X143660340Y-31678314D01*
X143816692Y-31664635D01*
X144036496Y-31605739D01*
X144242734Y-31509568D01*
X144429139Y-31379047D01*
X144590047Y-31218139D01*
X144720568Y-31031734D01*
X144747619Y-30973721D01*
X144793788Y-30921286D01*
X144860981Y-30902133D01*
X144927862Y-30922348D01*
X144972380Y-30973722D01*
X144999432Y-31031734D01*
X145001424Y-31034579D01*
X145129954Y-31218141D01*
X145290858Y-31379045D01*
X145290861Y-31379047D01*
X145477266Y-31509568D01*
X145683504Y-31605739D01*
X145683509Y-31605740D01*
X145683511Y-31605741D01*
X145736415Y-31619916D01*
X145903308Y-31664635D01*
X146052893Y-31677722D01*
X146129998Y-31684468D01*
X146130000Y-31684468D01*
X146130002Y-31684468D01*
X146200340Y-31678314D01*
X146356692Y-31664635D01*
X146576496Y-31605739D01*
X146782734Y-31509568D01*
X146969139Y-31379047D01*
X147130047Y-31218139D01*
X147260568Y-31031734D01*
X147287618Y-30973724D01*
X147333790Y-30921285D01*
X147400983Y-30902133D01*
X147467865Y-30922348D01*
X147512382Y-30973725D01*
X147539429Y-31031728D01*
X147539432Y-31031734D01*
X147669954Y-31218141D01*
X147830858Y-31379045D01*
X147830861Y-31379047D01*
X148017266Y-31509568D01*
X148223504Y-31605739D01*
X148223509Y-31605740D01*
X148223511Y-31605741D01*
X148276415Y-31619916D01*
X148443308Y-31664635D01*
X148592893Y-31677722D01*
X148669998Y-31684468D01*
X148670000Y-31684468D01*
X148670002Y-31684468D01*
X148740340Y-31678314D01*
X148896692Y-31664635D01*
X149116496Y-31605739D01*
X149322734Y-31509568D01*
X149509139Y-31379047D01*
X149670047Y-31218139D01*
X149800568Y-31031734D01*
X149827618Y-30973724D01*
X149873790Y-30921285D01*
X149940983Y-30902133D01*
X150007865Y-30922348D01*
X150052382Y-30973725D01*
X150079429Y-31031728D01*
X150079432Y-31031734D01*
X150209954Y-31218141D01*
X150370858Y-31379045D01*
X150370861Y-31379047D01*
X150557266Y-31509568D01*
X150763504Y-31605739D01*
X150763509Y-31605740D01*
X150763511Y-31605741D01*
X150816415Y-31619916D01*
X150983308Y-31664635D01*
X151132893Y-31677722D01*
X151209998Y-31684468D01*
X151210000Y-31684468D01*
X151210002Y-31684468D01*
X151280340Y-31678314D01*
X151436692Y-31664635D01*
X151656496Y-31605739D01*
X151862734Y-31509568D01*
X152049139Y-31379047D01*
X152210047Y-31218139D01*
X152340568Y-31031734D01*
X152367618Y-30973724D01*
X152413790Y-30921285D01*
X152480983Y-30902133D01*
X152547865Y-30922348D01*
X152592382Y-30973725D01*
X152619429Y-31031728D01*
X152619432Y-31031734D01*
X152749954Y-31218141D01*
X152910858Y-31379045D01*
X152910861Y-31379047D01*
X153097266Y-31509568D01*
X153303504Y-31605739D01*
X153303509Y-31605740D01*
X153303511Y-31605741D01*
X153356415Y-31619916D01*
X153523308Y-31664635D01*
X153672893Y-31677722D01*
X153749998Y-31684468D01*
X153750000Y-31684468D01*
X153750002Y-31684468D01*
X153820340Y-31678314D01*
X153976692Y-31664635D01*
X154196496Y-31605739D01*
X154402734Y-31509568D01*
X154589139Y-31379047D01*
X154750047Y-31218139D01*
X154880568Y-31031734D01*
X154907618Y-30973724D01*
X154953790Y-30921285D01*
X155020983Y-30902133D01*
X155087865Y-30922348D01*
X155132382Y-30973725D01*
X155159429Y-31031728D01*
X155159432Y-31031734D01*
X155289954Y-31218141D01*
X155450858Y-31379045D01*
X155450861Y-31379047D01*
X155637266Y-31509568D01*
X155843504Y-31605739D01*
X155843509Y-31605740D01*
X155843511Y-31605741D01*
X155896415Y-31619916D01*
X156063308Y-31664635D01*
X156212893Y-31677722D01*
X156289998Y-31684468D01*
X156290000Y-31684468D01*
X156290002Y-31684468D01*
X156360340Y-31678314D01*
X156516692Y-31664635D01*
X156736496Y-31605739D01*
X156942734Y-31509568D01*
X157129139Y-31379047D01*
X157290047Y-31218139D01*
X157420568Y-31031734D01*
X157516739Y-30825496D01*
X157575635Y-30605692D01*
X157595468Y-30379000D01*
X157590823Y-30325913D01*
X157586991Y-30282111D01*
X157575635Y-30152308D01*
X157516739Y-29932504D01*
X157420568Y-29726266D01*
X157290047Y-29539861D01*
X157290045Y-29539858D01*
X157129141Y-29378954D01*
X156942734Y-29248432D01*
X156942732Y-29248431D01*
X156736497Y-29152261D01*
X156736488Y-29152258D01*
X156516697Y-29093366D01*
X156516693Y-29093365D01*
X156516692Y-29093365D01*
X156516691Y-29093364D01*
X156516686Y-29093364D01*
X156290002Y-29073532D01*
X156289998Y-29073532D01*
X156063313Y-29093364D01*
X156063302Y-29093366D01*
X155843511Y-29152258D01*
X155843502Y-29152261D01*
X155637267Y-29248431D01*
X155637265Y-29248432D01*
X155450858Y-29378954D01*
X155289954Y-29539858D01*
X155159432Y-29726265D01*
X155159431Y-29726267D01*
X155132382Y-29784275D01*
X155086209Y-29836714D01*
X155019016Y-29855866D01*
X154952135Y-29835650D01*
X154907618Y-29784275D01*
X154893544Y-29754093D01*
X154880568Y-29726266D01*
X154750047Y-29539861D01*
X154750045Y-29539858D01*
X154589141Y-29378954D01*
X154402734Y-29248432D01*
X154402732Y-29248431D01*
X154196497Y-29152261D01*
X154196488Y-29152258D01*
X153976697Y-29093366D01*
X153976693Y-29093365D01*
X153976692Y-29093365D01*
X153976691Y-29093364D01*
X153976686Y-29093364D01*
X153750002Y-29073532D01*
X153749998Y-29073532D01*
X153523313Y-29093364D01*
X153523302Y-29093366D01*
X153303511Y-29152258D01*
X153303502Y-29152261D01*
X153097267Y-29248431D01*
X153097265Y-29248432D01*
X152910858Y-29378954D01*
X152749954Y-29539858D01*
X152619432Y-29726265D01*
X152619431Y-29726267D01*
X152592382Y-29784275D01*
X152546209Y-29836714D01*
X152479016Y-29855866D01*
X152412135Y-29835650D01*
X152367618Y-29784275D01*
X152353544Y-29754093D01*
X152340568Y-29726266D01*
X152210047Y-29539861D01*
X152210045Y-29539858D01*
X152049141Y-29378954D01*
X151862734Y-29248432D01*
X151862732Y-29248431D01*
X151656497Y-29152261D01*
X151656488Y-29152258D01*
X151436697Y-29093366D01*
X151436693Y-29093365D01*
X151436692Y-29093365D01*
X151436691Y-29093364D01*
X151436686Y-29093364D01*
X151210002Y-29073532D01*
X151209998Y-29073532D01*
X150983313Y-29093364D01*
X150983302Y-29093366D01*
X150763511Y-29152258D01*
X150763502Y-29152261D01*
X150557267Y-29248431D01*
X150557265Y-29248432D01*
X150370858Y-29378954D01*
X150209954Y-29539858D01*
X150079432Y-29726265D01*
X150079431Y-29726267D01*
X150052382Y-29784275D01*
X150006209Y-29836714D01*
X149939016Y-29855866D01*
X149872135Y-29835650D01*
X149827618Y-29784275D01*
X149813544Y-29754093D01*
X149800568Y-29726266D01*
X149670047Y-29539861D01*
X149670045Y-29539858D01*
X149509141Y-29378954D01*
X149322734Y-29248432D01*
X149322732Y-29248431D01*
X149116497Y-29152261D01*
X149116488Y-29152258D01*
X148896697Y-29093366D01*
X148896693Y-29093365D01*
X148896692Y-29093365D01*
X148896691Y-29093364D01*
X148896686Y-29093364D01*
X148670002Y-29073532D01*
X148669998Y-29073532D01*
X148443313Y-29093364D01*
X148443302Y-29093366D01*
X148223511Y-29152258D01*
X148223502Y-29152261D01*
X148017267Y-29248431D01*
X148017265Y-29248432D01*
X147830858Y-29378954D01*
X147669954Y-29539858D01*
X147539432Y-29726265D01*
X147539431Y-29726267D01*
X147512382Y-29784275D01*
X147466209Y-29836714D01*
X147399016Y-29855866D01*
X147332135Y-29835650D01*
X147287618Y-29784275D01*
X147273544Y-29754093D01*
X147260568Y-29726266D01*
X147130047Y-29539861D01*
X147130045Y-29539858D01*
X146969141Y-29378954D01*
X146782734Y-29248432D01*
X146782732Y-29248431D01*
X146576497Y-29152261D01*
X146576488Y-29152258D01*
X146356697Y-29093366D01*
X146356693Y-29093365D01*
X146356692Y-29093365D01*
X146356691Y-29093364D01*
X146356686Y-29093364D01*
X146130002Y-29073532D01*
X146129998Y-29073532D01*
X145903313Y-29093364D01*
X145903302Y-29093366D01*
X145683511Y-29152258D01*
X145683502Y-29152261D01*
X145477267Y-29248431D01*
X145477265Y-29248432D01*
X145290858Y-29378954D01*
X145129954Y-29539858D01*
X144999432Y-29726265D01*
X144999430Y-29726268D01*
X144972380Y-29784277D01*
X144926207Y-29836715D01*
X144859013Y-29855866D01*
X144792132Y-29835649D01*
X144747619Y-29784277D01*
X144720568Y-29726266D01*
X144590047Y-29539861D01*
X144590045Y-29539858D01*
X144429141Y-29378954D01*
X144242734Y-29248432D01*
X144242732Y-29248431D01*
X144036497Y-29152261D01*
X144036488Y-29152258D01*
X143816697Y-29093366D01*
X143816693Y-29093365D01*
X143816692Y-29093365D01*
X143816691Y-29093364D01*
X143816686Y-29093364D01*
X143590002Y-29073532D01*
X143589998Y-29073532D01*
X143363313Y-29093364D01*
X143363302Y-29093366D01*
X143143511Y-29152258D01*
X143143502Y-29152261D01*
X142937267Y-29248431D01*
X142937265Y-29248432D01*
X142750858Y-29378954D01*
X142589954Y-29539858D01*
X142459432Y-29726265D01*
X142459430Y-29726268D01*
X142432380Y-29784277D01*
X142386207Y-29836715D01*
X142319013Y-29855866D01*
X142252132Y-29835649D01*
X142207619Y-29784277D01*
X142180568Y-29726266D01*
X142050047Y-29539861D01*
X142050045Y-29539858D01*
X141889141Y-29378954D01*
X141702734Y-29248432D01*
X141702732Y-29248431D01*
X141496497Y-29152261D01*
X141496488Y-29152258D01*
X141276697Y-29093366D01*
X141276693Y-29093365D01*
X141276692Y-29093365D01*
X141276691Y-29093364D01*
X141276686Y-29093364D01*
X141050002Y-29073532D01*
X141049998Y-29073532D01*
X140823313Y-29093364D01*
X140823302Y-29093366D01*
X140603511Y-29152258D01*
X140603502Y-29152261D01*
X140397267Y-29248431D01*
X140397265Y-29248432D01*
X140210858Y-29378954D01*
X140049954Y-29539858D01*
X139919432Y-29726265D01*
X139919430Y-29726268D01*
X139892380Y-29784277D01*
X139846207Y-29836715D01*
X139779013Y-29855866D01*
X139712132Y-29835649D01*
X139667619Y-29784277D01*
X139640568Y-29726266D01*
X139510047Y-29539861D01*
X139510045Y-29539858D01*
X139349141Y-29378954D01*
X139162734Y-29248432D01*
X139162732Y-29248431D01*
X138956497Y-29152261D01*
X138956488Y-29152258D01*
X138736697Y-29093366D01*
X138736693Y-29093365D01*
X138736692Y-29093365D01*
X138736691Y-29093364D01*
X138736686Y-29093364D01*
X138510002Y-29073532D01*
X138509998Y-29073532D01*
X138283313Y-29093364D01*
X138283302Y-29093366D01*
X138063511Y-29152258D01*
X138063502Y-29152261D01*
X137857267Y-29248431D01*
X137857265Y-29248432D01*
X137670858Y-29378954D01*
X137509954Y-29539858D01*
X137379432Y-29726265D01*
X137379430Y-29726268D01*
X137352380Y-29784277D01*
X137306207Y-29836715D01*
X137239013Y-29855866D01*
X137172132Y-29835649D01*
X137127619Y-29784277D01*
X137100568Y-29726266D01*
X136970047Y-29539861D01*
X136970045Y-29539858D01*
X136809141Y-29378954D01*
X136622734Y-29248432D01*
X136622732Y-29248431D01*
X136416497Y-29152261D01*
X136416488Y-29152258D01*
X136196697Y-29093366D01*
X136196693Y-29093365D01*
X136196692Y-29093365D01*
X136196691Y-29093364D01*
X136196686Y-29093364D01*
X135970002Y-29073532D01*
X135969998Y-29073532D01*
X135743313Y-29093364D01*
X135743302Y-29093366D01*
X135523511Y-29152258D01*
X135523502Y-29152261D01*
X135317267Y-29248431D01*
X135317265Y-29248432D01*
X135130858Y-29378954D01*
X134969954Y-29539858D01*
X134839432Y-29726265D01*
X134839430Y-29726268D01*
X134812380Y-29784277D01*
X134766207Y-29836715D01*
X134699013Y-29855866D01*
X134632132Y-29835649D01*
X134587619Y-29784277D01*
X134560568Y-29726266D01*
X134430047Y-29539861D01*
X134430045Y-29539858D01*
X134269141Y-29378954D01*
X134082734Y-29248432D01*
X134082732Y-29248431D01*
X133876497Y-29152261D01*
X133876488Y-29152258D01*
X133656697Y-29093366D01*
X133656693Y-29093365D01*
X133656692Y-29093365D01*
X133656691Y-29093364D01*
X133656686Y-29093364D01*
X133430002Y-29073532D01*
X133429998Y-29073532D01*
X133203313Y-29093364D01*
X133203302Y-29093366D01*
X132983511Y-29152258D01*
X132983502Y-29152261D01*
X132777267Y-29248431D01*
X132777265Y-29248432D01*
X132590858Y-29378954D01*
X132429954Y-29539858D01*
X132299432Y-29726265D01*
X132299431Y-29726267D01*
X132272382Y-29784275D01*
X132226209Y-29836714D01*
X132159016Y-29855866D01*
X132092135Y-29835650D01*
X132047618Y-29784275D01*
X132033544Y-29754093D01*
X132020568Y-29726266D01*
X131890047Y-29539861D01*
X131890045Y-29539858D01*
X131729141Y-29378954D01*
X131542734Y-29248432D01*
X131542732Y-29248431D01*
X131336497Y-29152261D01*
X131336488Y-29152258D01*
X131116697Y-29093366D01*
X131116693Y-29093365D01*
X131116692Y-29093365D01*
X131116691Y-29093364D01*
X131116686Y-29093364D01*
X130890002Y-29073532D01*
X130889998Y-29073532D01*
X130663313Y-29093364D01*
X130663302Y-29093366D01*
X130443511Y-29152258D01*
X130443502Y-29152261D01*
X130237267Y-29248431D01*
X130237265Y-29248432D01*
X130050858Y-29378954D01*
X129889954Y-29539858D01*
X129759432Y-29726265D01*
X129759431Y-29726267D01*
X129732382Y-29784275D01*
X129686209Y-29836714D01*
X129619016Y-29855866D01*
X129552135Y-29835650D01*
X129507618Y-29784275D01*
X129493544Y-29754093D01*
X129480568Y-29726266D01*
X129350047Y-29539861D01*
X129350045Y-29539858D01*
X129189141Y-29378954D01*
X129002734Y-29248432D01*
X129002732Y-29248431D01*
X128796497Y-29152261D01*
X128796488Y-29152258D01*
X128576697Y-29093366D01*
X128576693Y-29093365D01*
X128576692Y-29093365D01*
X128576691Y-29093364D01*
X128576686Y-29093364D01*
X128350002Y-29073532D01*
X128349998Y-29073532D01*
X128123313Y-29093364D01*
X128123302Y-29093366D01*
X127903511Y-29152258D01*
X127903502Y-29152261D01*
X127697267Y-29248431D01*
X127697265Y-29248432D01*
X127510858Y-29378954D01*
X127349954Y-29539858D01*
X127219432Y-29726265D01*
X127219431Y-29726267D01*
X127192382Y-29784275D01*
X127146209Y-29836714D01*
X127079016Y-29855866D01*
X127012135Y-29835650D01*
X126967618Y-29784275D01*
X126953544Y-29754093D01*
X126940568Y-29726266D01*
X126810047Y-29539861D01*
X126810045Y-29539858D01*
X126649141Y-29378954D01*
X126462734Y-29248432D01*
X126462732Y-29248431D01*
X126256497Y-29152261D01*
X126256488Y-29152258D01*
X126036697Y-29093366D01*
X126036693Y-29093365D01*
X126036692Y-29093365D01*
X126036691Y-29093364D01*
X126036686Y-29093364D01*
X125810002Y-29073532D01*
X125809998Y-29073532D01*
X125583313Y-29093364D01*
X125583302Y-29093366D01*
X125363511Y-29152258D01*
X125363502Y-29152261D01*
X125157267Y-29248431D01*
X125157265Y-29248432D01*
X124970858Y-29378954D01*
X124809954Y-29539858D01*
X124731089Y-29652491D01*
X124679432Y-29726266D01*
X124652383Y-29784274D01*
X124652106Y-29784867D01*
X124605933Y-29837306D01*
X124538739Y-29856457D01*
X124471858Y-29836241D01*
X124427342Y-29784865D01*
X124400135Y-29726520D01*
X124400134Y-29726518D01*
X124269657Y-29540179D01*
X124108820Y-29379342D01*
X123922482Y-29248865D01*
X123716328Y-29152734D01*
X123520000Y-29100127D01*
X123520000Y-29943498D01*
X123412315Y-29894320D01*
X123305763Y-29879000D01*
X123234237Y-29879000D01*
X123127685Y-29894320D01*
X123019999Y-29943498D01*
X123019999Y-29100127D01*
X122823672Y-29152734D01*
X122617517Y-29248865D01*
X122431179Y-29379342D01*
X122270342Y-29540179D01*
X122139867Y-29726515D01*
X122112657Y-29784867D01*
X122066484Y-29837306D01*
X121999290Y-29856457D01*
X121932409Y-29836241D01*
X121887893Y-29784865D01*
X121887617Y-29784274D01*
X121860568Y-29726266D01*
X121730047Y-29539861D01*
X121730045Y-29539858D01*
X121569141Y-29378954D01*
X121382734Y-29248432D01*
X121382732Y-29248431D01*
X121176497Y-29152261D01*
X121176488Y-29152258D01*
X120956697Y-29093366D01*
X120956693Y-29093365D01*
X120956692Y-29093365D01*
X120956691Y-29093364D01*
X120956686Y-29093364D01*
X120730002Y-29073532D01*
X120729998Y-29073532D01*
X120503313Y-29093364D01*
X120503302Y-29093366D01*
X120283511Y-29152258D01*
X120283502Y-29152261D01*
X120077267Y-29248431D01*
X120077265Y-29248432D01*
X119890858Y-29378954D01*
X119729954Y-29539858D01*
X119599432Y-29726265D01*
X119599431Y-29726267D01*
X119503261Y-29932502D01*
X119503258Y-29932511D01*
X119444366Y-30152302D01*
X119444364Y-30152313D01*
X119424532Y-30378998D01*
X119424532Y-30379001D01*
X119444364Y-30605686D01*
X119444366Y-30605697D01*
X119503258Y-30825488D01*
X119503261Y-30825497D01*
X119599431Y-31031732D01*
X119599432Y-31031734D01*
X119729954Y-31218141D01*
X119890858Y-31379045D01*
X119890861Y-31379047D01*
X120077266Y-31509568D01*
X120283504Y-31605739D01*
X120283509Y-31605740D01*
X120283511Y-31605741D01*
X120336415Y-31619916D01*
X120503308Y-31664635D01*
X120652893Y-31677722D01*
X120729998Y-31684468D01*
X120730000Y-31684468D01*
X120730002Y-31684468D01*
X120800340Y-31678314D01*
X120956692Y-31664635D01*
X121176496Y-31605739D01*
X121382734Y-31509568D01*
X121569139Y-31379047D01*
X121730047Y-31218139D01*
X121860568Y-31031734D01*
X121887895Y-30973129D01*
X121934064Y-30920695D01*
X122001257Y-30901542D01*
X122068139Y-30921757D01*
X122112657Y-30973133D01*
X122139865Y-31031482D01*
X122270342Y-31217820D01*
X122431179Y-31378657D01*
X122617517Y-31509134D01*
X122823673Y-31605265D01*
X122823679Y-31605268D01*
X123019998Y-31657871D01*
X123019999Y-31657871D01*
X123019999Y-30814501D01*
X123127685Y-30863680D01*
X123234237Y-30879000D01*
X123305763Y-30879000D01*
X123412315Y-30863680D01*
X123520000Y-30814501D01*
X123520000Y-31657872D01*
X123716317Y-31605269D01*
X123716326Y-31605265D01*
X123922482Y-31509134D01*
X124108820Y-31378657D01*
X124269657Y-31217820D01*
X124400132Y-31031484D01*
X124427341Y-30973134D01*
X124473513Y-30920695D01*
X124540707Y-30901542D01*
X124607588Y-30921757D01*
X124652105Y-30973132D01*
X124656808Y-30983216D01*
X124679431Y-31031732D01*
X124679432Y-31031734D01*
X124809954Y-31218141D01*
X124970858Y-31379045D01*
X124970861Y-31379047D01*
X125157266Y-31509568D01*
X125363504Y-31605739D01*
X125363509Y-31605740D01*
X125363511Y-31605741D01*
X125416415Y-31619916D01*
X125583308Y-31664635D01*
X125732893Y-31677722D01*
X125809998Y-31684468D01*
X125810000Y-31684468D01*
X125810002Y-31684468D01*
X125880340Y-31678314D01*
X126036692Y-31664635D01*
X126256496Y-31605739D01*
X126462734Y-31509568D01*
X126649139Y-31379047D01*
X126810047Y-31218139D01*
X126940568Y-31031734D01*
X126967618Y-30973724D01*
X127013790Y-30921285D01*
X127080983Y-30902133D01*
X127147865Y-30922348D01*
X127192382Y-30973725D01*
X127219429Y-31031728D01*
X127219432Y-31031734D01*
X127349954Y-31218141D01*
X127510858Y-31379045D01*
X127510861Y-31379047D01*
X127697266Y-31509568D01*
X127903504Y-31605739D01*
X127903509Y-31605740D01*
X127903511Y-31605741D01*
X127956415Y-31619916D01*
X128123308Y-31664635D01*
X128272893Y-31677722D01*
X128349998Y-31684468D01*
X128350000Y-31684468D01*
X128350002Y-31684468D01*
X128420340Y-31678314D01*
X128576692Y-31664635D01*
X128796496Y-31605739D01*
X129002734Y-31509568D01*
X129189139Y-31379047D01*
X129350047Y-31218139D01*
X129480568Y-31031734D01*
X129507618Y-30973724D01*
X129553790Y-30921285D01*
X129620983Y-30902133D01*
X129687865Y-30922348D01*
X129732382Y-30973725D01*
X129759429Y-31031728D01*
X129759432Y-31031734D01*
X129889954Y-31218141D01*
X130050858Y-31379045D01*
X130050861Y-31379047D01*
X130237266Y-31509568D01*
X130443504Y-31605739D01*
X130443509Y-31605740D01*
X130443511Y-31605741D01*
X130496415Y-31619916D01*
X130663308Y-31664635D01*
X130812893Y-31677722D01*
X130889998Y-31684468D01*
X130890000Y-31684468D01*
X130890002Y-31684468D01*
X130960340Y-31678314D01*
X131116692Y-31664635D01*
X131336496Y-31605739D01*
X131542734Y-31509568D01*
X131729139Y-31379047D01*
X131890047Y-31218139D01*
X132020568Y-31031734D01*
X132047618Y-30973724D01*
X132093790Y-30921285D01*
X132160983Y-30902133D01*
X132227865Y-30922348D01*
X132272382Y-30973725D01*
X132299429Y-31031728D01*
X132299432Y-31031734D01*
X132429954Y-31218141D01*
X132590858Y-31379045D01*
X132590861Y-31379047D01*
X132777266Y-31509568D01*
X132983504Y-31605739D01*
X132983509Y-31605740D01*
X132983511Y-31605741D01*
X133036415Y-31619916D01*
X133203308Y-31664635D01*
X133324327Y-31675222D01*
X133389394Y-31700674D01*
X133430372Y-31757265D01*
X133434251Y-31827027D01*
X133401199Y-31886431D01*
X132038451Y-33249181D01*
X131977128Y-33282666D01*
X131950770Y-33285500D01*
X131419713Y-33285500D01*
X131328013Y-33301669D01*
X131258574Y-33293924D01*
X131204345Y-33249867D01*
X131184363Y-33201067D01*
X131183049Y-33193608D01*
X131117204Y-33012644D01*
X131020933Y-32845865D01*
X130897162Y-32698338D01*
X130788144Y-32606850D01*
X130749656Y-32574551D01*
X130749654Y-32574549D01*
X130582887Y-32478256D01*
X130401928Y-32412386D01*
X130252885Y-32386104D01*
X130212285Y-32378945D01*
X130212284Y-32378945D01*
X130167407Y-32378945D01*
X130167254Y-32378900D01*
X130116000Y-32378900D01*
X130019711Y-32378900D01*
X129986267Y-32384797D01*
X129830060Y-32412343D01*
X129649093Y-32478215D01*
X129477960Y-32577030D01*
X129410060Y-32593506D01*
X129353950Y-32577030D01*
X129349587Y-32574511D01*
X129314219Y-32554089D01*
X129182887Y-32478256D01*
X129001928Y-32412386D01*
X128852885Y-32386104D01*
X128812285Y-32378945D01*
X128812284Y-32378945D01*
X128767407Y-32378945D01*
X128767254Y-32378900D01*
X128716000Y-32378900D01*
X128619711Y-32378900D01*
X128586267Y-32384797D01*
X128430060Y-32412343D01*
X128249093Y-32478215D01*
X128082327Y-32574507D01*
X128082323Y-32574510D01*
X127934809Y-32698304D01*
X127934802Y-32698310D01*
X127811030Y-32845837D01*
X127714753Y-33012629D01*
X127647056Y-33198684D01*
X127646030Y-33198310D01*
X127612549Y-33253249D01*
X127549704Y-33283782D01*
X127529133Y-33285500D01*
X119374230Y-33285500D01*
X119307191Y-33265815D01*
X119286549Y-33249181D01*
X115190729Y-29153361D01*
X115178949Y-29139730D01*
X115164610Y-29120470D01*
X115124596Y-29086894D01*
X115120606Y-29083238D01*
X115118549Y-29081181D01*
X115085064Y-29019858D01*
X115090048Y-28950166D01*
X115131920Y-28894233D01*
X115197384Y-28869816D01*
X115206230Y-28869500D01*
X117532507Y-28869500D01*
X117534069Y-28869519D01*
X117571283Y-28870462D01*
X117622358Y-28871757D01*
X117622358Y-28871756D01*
X117622363Y-28871757D01*
X117682753Y-28860932D01*
X117687412Y-28860280D01*
X117729607Y-28855988D01*
X117748438Y-28854074D01*
X117781227Y-28843786D01*
X117788840Y-28841918D01*
X117822653Y-28835858D01*
X117879621Y-28813101D01*
X117884053Y-28811524D01*
X117942588Y-28793159D01*
X117972627Y-28776484D01*
X117979708Y-28773122D01*
X118011617Y-28760377D01*
X118062854Y-28726608D01*
X118066851Y-28724187D01*
X118120502Y-28694409D01*
X118146568Y-28672030D01*
X118152843Y-28667300D01*
X118181519Y-28648402D01*
X118224892Y-28605027D01*
X118228350Y-28601823D01*
X118231613Y-28599020D01*
X118274895Y-28561866D01*
X118295928Y-28534691D01*
X118301098Y-28528821D01*
X119202100Y-27627819D01*
X119263424Y-27594334D01*
X119289782Y-27591500D01*
X155932217Y-27591500D01*
X155999256Y-27611185D01*
X156019898Y-27627819D01*
X158409181Y-30017101D01*
X158442666Y-30078424D01*
X158445500Y-30104782D01*
X158445500Y-49493217D01*
X158425815Y-49560256D01*
X158409181Y-49580898D01*
X154495899Y-53494181D01*
X154434576Y-53527666D01*
X154408218Y-53530500D01*
X146759493Y-53530500D01*
X146757930Y-53530480D01*
X146669637Y-53528243D01*
X146669628Y-53528243D01*
X146616636Y-53537741D01*
X146609254Y-53539064D01*
X146604595Y-53539718D01*
X146543564Y-53545925D01*
X146543562Y-53545926D01*
X146510780Y-53556210D01*
X146503156Y-53558081D01*
X146495308Y-53559488D01*
X146469349Y-53564141D01*
X146412381Y-53586895D01*
X146407945Y-53588474D01*
X146349414Y-53606840D01*
X146349410Y-53606842D01*
X146319378Y-53623510D01*
X146312284Y-53626879D01*
X146280382Y-53639623D01*
X146280377Y-53639625D01*
X146229156Y-53673381D01*
X146225128Y-53675822D01*
X146171501Y-53705588D01*
X146145434Y-53727965D01*
X146139165Y-53732692D01*
X146110484Y-53751595D01*
X146110478Y-53751600D01*
X146067109Y-53794968D01*
X146063655Y-53798169D01*
X146017102Y-53838136D01*
X145996076Y-53865298D01*
X145990885Y-53871192D01*
X141287899Y-58574181D01*
X141226576Y-58607666D01*
X141200218Y-58610500D01*
X137783564Y-58610500D01*
X137716525Y-58590815D01*
X137670770Y-58538011D01*
X137660826Y-58468853D01*
X137681989Y-58415377D01*
X137699457Y-58390430D01*
X137782568Y-58271734D01*
X137878739Y-58065496D01*
X137937635Y-57845692D01*
X137957468Y-57619000D01*
X137937635Y-57392308D01*
X137878739Y-57172504D01*
X137782568Y-56966266D01*
X137662991Y-56795491D01*
X137652045Y-56779858D01*
X137491141Y-56618954D01*
X137304734Y-56488432D01*
X137304732Y-56488431D01*
X137098497Y-56392261D01*
X137098488Y-56392258D01*
X136878697Y-56333366D01*
X136878693Y-56333365D01*
X136878692Y-56333365D01*
X136878691Y-56333364D01*
X136878686Y-56333364D01*
X136652002Y-56313532D01*
X136651998Y-56313532D01*
X136425313Y-56333364D01*
X136425302Y-56333366D01*
X136205511Y-56392258D01*
X136205502Y-56392261D01*
X135999267Y-56488431D01*
X135999265Y-56488432D01*
X135812858Y-56618954D01*
X135651954Y-56779858D01*
X135521432Y-56966265D01*
X135521431Y-56966267D01*
X135425261Y-57172502D01*
X135425258Y-57172511D01*
X135366366Y-57392302D01*
X135366364Y-57392313D01*
X135346532Y-57618998D01*
X135346532Y-57619001D01*
X135366364Y-57845686D01*
X135366366Y-57845697D01*
X135425258Y-58065488D01*
X135425261Y-58065497D01*
X135521431Y-58271732D01*
X135521432Y-58271734D01*
X135622011Y-58415377D01*
X135644338Y-58481583D01*
X135627328Y-58549351D01*
X135576379Y-58597163D01*
X135520436Y-58610500D01*
X133041564Y-58610500D01*
X132974525Y-58590815D01*
X132928770Y-58538011D01*
X132918826Y-58468853D01*
X132939989Y-58415377D01*
X132957457Y-58390430D01*
X133040568Y-58271734D01*
X133136739Y-58065496D01*
X133195635Y-57845692D01*
X133215468Y-57619000D01*
X133195635Y-57392308D01*
X133136739Y-57172504D01*
X133040568Y-56966266D01*
X132920991Y-56795491D01*
X132910045Y-56779858D01*
X132749141Y-56618954D01*
X132562734Y-56488432D01*
X132562732Y-56488431D01*
X132356497Y-56392261D01*
X132356488Y-56392258D01*
X132136697Y-56333366D01*
X132136693Y-56333365D01*
X132136692Y-56333365D01*
X132136691Y-56333364D01*
X132136686Y-56333364D01*
X131910002Y-56313532D01*
X131909998Y-56313532D01*
X131683313Y-56333364D01*
X131683302Y-56333366D01*
X131463511Y-56392258D01*
X131463502Y-56392261D01*
X131257267Y-56488431D01*
X131257265Y-56488432D01*
X131070858Y-56618954D01*
X130909954Y-56779858D01*
X130779432Y-56966265D01*
X130779431Y-56966267D01*
X130683261Y-57172502D01*
X130683258Y-57172511D01*
X130624366Y-57392302D01*
X130624364Y-57392313D01*
X130604532Y-57618998D01*
X130604532Y-57619001D01*
X130624364Y-57845686D01*
X130624366Y-57845697D01*
X130683258Y-58065488D01*
X130683261Y-58065497D01*
X130779431Y-58271732D01*
X130779432Y-58271734D01*
X130880011Y-58415377D01*
X130902338Y-58481583D01*
X130885328Y-58549351D01*
X130834379Y-58597163D01*
X130778436Y-58610500D01*
X117800953Y-58610500D01*
X117733914Y-58590815D01*
X117688159Y-58538011D01*
X117678215Y-58468853D01*
X117699378Y-58415376D01*
X117800133Y-58271482D01*
X117896265Y-58065326D01*
X117896269Y-58065317D01*
X117948872Y-57869000D01*
X116985686Y-57869000D01*
X116997641Y-57857045D01*
X117055165Y-57744148D01*
X117074986Y-57619000D01*
X117055165Y-57493852D01*
X116997641Y-57380955D01*
X116985686Y-57369000D01*
X117948872Y-57369000D01*
X117948872Y-57368999D01*
X117896269Y-57172682D01*
X117896265Y-57172673D01*
X117800134Y-56966517D01*
X117669657Y-56780179D01*
X117508820Y-56619342D01*
X117322482Y-56488865D01*
X117116328Y-56392734D01*
X116920000Y-56340127D01*
X116920000Y-57303314D01*
X116908045Y-57291359D01*
X116795148Y-57233835D01*
X116701481Y-57219000D01*
X116638519Y-57219000D01*
X116544852Y-57233835D01*
X116431955Y-57291359D01*
X116419999Y-57303314D01*
X116420000Y-56340127D01*
X116223671Y-56392734D01*
X116017517Y-56488865D01*
X115831179Y-56619342D01*
X115670342Y-56780179D01*
X115539865Y-56966517D01*
X115443734Y-57172673D01*
X115443730Y-57172682D01*
X115391127Y-57368999D01*
X115391128Y-57369000D01*
X116354314Y-57369000D01*
X116342359Y-57380955D01*
X116284835Y-57493852D01*
X116265014Y-57619000D01*
X116284835Y-57744148D01*
X116342359Y-57857045D01*
X116354314Y-57869000D01*
X115391128Y-57869000D01*
X115443730Y-58065317D01*
X115443734Y-58065326D01*
X115539866Y-58271482D01*
X115640622Y-58415376D01*
X115662949Y-58481582D01*
X115645939Y-58549350D01*
X115594991Y-58597163D01*
X115539047Y-58610500D01*
X114178783Y-58610500D01*
X114111744Y-58590815D01*
X114091102Y-58574181D01*
X113326819Y-57809898D01*
X113293334Y-57748575D01*
X113290500Y-57722217D01*
X113290500Y-55916588D01*
X113310185Y-55849549D01*
X113312925Y-55845465D01*
X113420568Y-55691734D01*
X113516739Y-55485496D01*
X113575635Y-55265692D01*
X113595468Y-55039000D01*
X113575635Y-54812308D01*
X113516739Y-54592504D01*
X113420568Y-54386266D01*
X113290047Y-54199861D01*
X113290045Y-54199858D01*
X113129141Y-54038954D01*
X112942734Y-53908432D01*
X112942732Y-53908431D01*
X112736497Y-53812261D01*
X112736488Y-53812258D01*
X112516697Y-53753366D01*
X112516693Y-53753365D01*
X112516692Y-53753365D01*
X112516691Y-53753364D01*
X112516686Y-53753364D01*
X112290002Y-53733532D01*
X112289998Y-53733532D01*
X112063313Y-53753364D01*
X112063302Y-53753366D01*
X111843511Y-53812258D01*
X111843502Y-53812261D01*
X111637267Y-53908431D01*
X111637265Y-53908432D01*
X111450858Y-54038954D01*
X111289954Y-54199858D01*
X111159432Y-54386265D01*
X111159431Y-54386267D01*
X111063261Y-54592502D01*
X111063258Y-54592511D01*
X111004366Y-54812302D01*
X111004364Y-54812313D01*
X110984532Y-55038998D01*
X110984532Y-55039001D01*
X111004364Y-55265686D01*
X111004366Y-55265697D01*
X111063258Y-55485488D01*
X111063261Y-55485497D01*
X111159431Y-55691732D01*
X111159432Y-55691734D01*
X111267075Y-55845465D01*
X111289402Y-55911671D01*
X111289500Y-55916588D01*
X111289500Y-58174506D01*
X111289480Y-58176070D01*
X111288270Y-58223811D01*
X111287243Y-58264362D01*
X111287243Y-58264370D01*
X111298064Y-58324739D01*
X111298718Y-58329404D01*
X111304925Y-58390430D01*
X111304927Y-58390444D01*
X111315208Y-58423213D01*
X111317079Y-58430837D01*
X111323142Y-58464652D01*
X111323142Y-58464655D01*
X111345894Y-58521612D01*
X111347474Y-58526051D01*
X111365841Y-58584588D01*
X111365844Y-58584595D01*
X111382509Y-58614619D01*
X111385879Y-58621714D01*
X111398622Y-58653614D01*
X111398627Y-58653624D01*
X111432377Y-58704833D01*
X111434818Y-58708863D01*
X111464588Y-58762498D01*
X111464589Y-58762499D01*
X111464591Y-58762502D01*
X111486968Y-58788567D01*
X111491693Y-58794835D01*
X111496486Y-58802107D01*
X111510598Y-58823519D01*
X111553978Y-58866899D01*
X111557169Y-58870343D01*
X111597131Y-58916892D01*
X111597130Y-58916892D01*
X111624299Y-58937923D01*
X111630186Y-58943107D01*
X112957885Y-60270805D01*
X112995987Y-60308907D01*
X112997052Y-60309998D01*
X113032252Y-60347028D01*
X113057940Y-60374052D01*
X113057943Y-60374055D01*
X113084768Y-60392725D01*
X113128546Y-60447178D01*
X113135935Y-60516656D01*
X113104589Y-60579100D01*
X113044459Y-60614683D01*
X113013931Y-60618500D01*
X33414500Y-60618500D01*
X33347461Y-60598815D01*
X33301706Y-60546011D01*
X33290500Y-60494500D01*
X33290500Y-57743335D01*
X34789500Y-57743335D01*
X34794547Y-57773579D01*
X34830429Y-57988616D01*
X34911169Y-58223802D01*
X34911172Y-58223811D01*
X35021116Y-58426969D01*
X35029526Y-58442509D01*
X35182262Y-58638744D01*
X35302178Y-58749134D01*
X35365217Y-58807166D01*
X35573393Y-58943173D01*
X35801118Y-59043063D01*
X36042175Y-59104107D01*
X36042179Y-59104108D01*
X36042181Y-59104108D01*
X36042186Y-59104109D01*
X36195589Y-59116819D01*
X36227933Y-59119500D01*
X36227937Y-59119500D01*
X36352063Y-59119500D01*
X36352067Y-59119500D01*
X36414677Y-59114311D01*
X36537813Y-59104109D01*
X36537816Y-59104108D01*
X36537821Y-59104108D01*
X36778881Y-59043063D01*
X37006607Y-58943173D01*
X37214785Y-58807164D01*
X37397738Y-58638744D01*
X37550474Y-58442509D01*
X37668828Y-58223810D01*
X37749571Y-57988614D01*
X37790500Y-57743335D01*
X37790500Y-57494665D01*
X37749571Y-57249386D01*
X37668828Y-57014190D01*
X37630960Y-56944217D01*
X37601079Y-56889000D01*
X37550474Y-56795491D01*
X37397738Y-56599256D01*
X37214785Y-56430836D01*
X37214782Y-56430833D01*
X37006606Y-56294826D01*
X36778881Y-56194936D01*
X36537824Y-56133892D01*
X36537813Y-56133890D01*
X36352077Y-56118500D01*
X36352067Y-56118500D01*
X36227933Y-56118500D01*
X36227922Y-56118500D01*
X36042186Y-56133890D01*
X36042175Y-56133892D01*
X35801118Y-56194936D01*
X35573393Y-56294826D01*
X35365217Y-56430833D01*
X35182261Y-56599257D01*
X35029524Y-56795493D01*
X34911172Y-57014188D01*
X34911169Y-57014197D01*
X34830429Y-57249383D01*
X34808614Y-57380118D01*
X34789500Y-57494665D01*
X34789500Y-57743335D01*
X33290500Y-57743335D01*
X33290500Y-23743334D01*
X34789500Y-23743334D01*
X34830429Y-23988616D01*
X34911169Y-24223802D01*
X34911172Y-24223811D01*
X35029524Y-24442506D01*
X35029526Y-24442509D01*
X35182262Y-24638744D01*
X35341744Y-24785557D01*
X35365217Y-24807166D01*
X35573393Y-24943173D01*
X35801118Y-25043063D01*
X36035004Y-25102291D01*
X36042179Y-25104108D01*
X36042181Y-25104108D01*
X36042186Y-25104109D01*
X36195589Y-25116819D01*
X36227933Y-25119500D01*
X36227937Y-25119500D01*
X36352063Y-25119500D01*
X36352067Y-25119500D01*
X36414677Y-25114311D01*
X36537813Y-25104109D01*
X36537816Y-25104108D01*
X36537821Y-25104108D01*
X36778881Y-25043063D01*
X37006607Y-24943173D01*
X37214785Y-24807164D01*
X37397738Y-24638744D01*
X37550474Y-24442509D01*
X37668828Y-24223810D01*
X37749571Y-23988614D01*
X37790500Y-23743335D01*
X37790500Y-23494665D01*
X37749571Y-23249386D01*
X37668828Y-23014190D01*
X37550474Y-22795491D01*
X37397738Y-22599256D01*
X37235458Y-22449867D01*
X37214782Y-22430833D01*
X37006606Y-22294826D01*
X36778881Y-22194936D01*
X36537824Y-22133892D01*
X36537813Y-22133890D01*
X36352077Y-22118500D01*
X36352067Y-22118500D01*
X36227933Y-22118500D01*
X36227922Y-22118500D01*
X36042186Y-22133890D01*
X36042175Y-22133892D01*
X35801118Y-22194936D01*
X35573393Y-22294826D01*
X35365217Y-22430833D01*
X35182261Y-22599257D01*
X35029524Y-22795493D01*
X34911172Y-23014188D01*
X34911169Y-23014197D01*
X34830429Y-23249383D01*
X34789500Y-23494665D01*
X34789500Y-23743334D01*
X33290500Y-23743334D01*
X33290500Y-20743500D01*
X33310185Y-20676461D01*
X33362989Y-20630706D01*
X33414500Y-20619500D01*
X44821769Y-20619500D01*
X44888808Y-20639185D01*
G37*
%TD.AperFunction*%
%TA.AperFunction,Conductor*%
G36*
X163232539Y-20639185D02*
G01*
X163278294Y-20691989D01*
X163289500Y-20743500D01*
X163289500Y-60494500D01*
X163269815Y-60561539D01*
X163217011Y-60607294D01*
X163165500Y-60618500D01*
X142368903Y-60618500D01*
X142301864Y-60598815D01*
X142256109Y-60546011D01*
X142246165Y-60476853D01*
X142275190Y-60413297D01*
X142296699Y-60394441D01*
X142296646Y-60394376D01*
X142298491Y-60392870D01*
X142300670Y-60390961D01*
X142301519Y-60390402D01*
X142344892Y-60347027D01*
X142348350Y-60343823D01*
X142351613Y-60341020D01*
X142394895Y-60303866D01*
X142415928Y-60276691D01*
X142421098Y-60270821D01*
X145322921Y-57368999D01*
X150613127Y-57368999D01*
X150613128Y-57369000D01*
X151576314Y-57369000D01*
X151564359Y-57380955D01*
X151506835Y-57493852D01*
X151487014Y-57619000D01*
X151506835Y-57744148D01*
X151564359Y-57857045D01*
X151576314Y-57869000D01*
X150613128Y-57869000D01*
X150665730Y-58065317D01*
X150665734Y-58065326D01*
X150761865Y-58271482D01*
X150892342Y-58457820D01*
X151053179Y-58618657D01*
X151239517Y-58749134D01*
X151445673Y-58845265D01*
X151445682Y-58845269D01*
X151641999Y-58897872D01*
X151642000Y-58897871D01*
X151642000Y-57934686D01*
X151653955Y-57946641D01*
X151766852Y-58004165D01*
X151860519Y-58019000D01*
X151923481Y-58019000D01*
X152017148Y-58004165D01*
X152130045Y-57946641D01*
X152142000Y-57934685D01*
X152142000Y-58897872D01*
X152338317Y-58845269D01*
X152338326Y-58845265D01*
X152544482Y-58749134D01*
X152730820Y-58618657D01*
X152891657Y-58457820D01*
X153022134Y-58271482D01*
X153118265Y-58065326D01*
X153118269Y-58065317D01*
X153170872Y-57869000D01*
X152207686Y-57869000D01*
X152219641Y-57857045D01*
X152277165Y-57744148D01*
X152277294Y-57743335D01*
X158789500Y-57743335D01*
X158794547Y-57773579D01*
X158830429Y-57988616D01*
X158911169Y-58223802D01*
X158911172Y-58223811D01*
X159021116Y-58426969D01*
X159029526Y-58442509D01*
X159182262Y-58638744D01*
X159302178Y-58749134D01*
X159365217Y-58807166D01*
X159573393Y-58943173D01*
X159801118Y-59043063D01*
X160042175Y-59104107D01*
X160042179Y-59104108D01*
X160042181Y-59104108D01*
X160042186Y-59104109D01*
X160195589Y-59116819D01*
X160227933Y-59119500D01*
X160227937Y-59119500D01*
X160352063Y-59119500D01*
X160352067Y-59119500D01*
X160414677Y-59114311D01*
X160537813Y-59104109D01*
X160537816Y-59104108D01*
X160537821Y-59104108D01*
X160778881Y-59043063D01*
X161006607Y-58943173D01*
X161214785Y-58807164D01*
X161397738Y-58638744D01*
X161550474Y-58442509D01*
X161668828Y-58223810D01*
X161749571Y-57988614D01*
X161790500Y-57743335D01*
X161790500Y-57494665D01*
X161749571Y-57249386D01*
X161668828Y-57014190D01*
X161630960Y-56944217D01*
X161601079Y-56889000D01*
X161550474Y-56795491D01*
X161397738Y-56599256D01*
X161214785Y-56430836D01*
X161214782Y-56430833D01*
X161006606Y-56294826D01*
X160778881Y-56194936D01*
X160537824Y-56133892D01*
X160537813Y-56133890D01*
X160352077Y-56118500D01*
X160352067Y-56118500D01*
X160227933Y-56118500D01*
X160227922Y-56118500D01*
X160042186Y-56133890D01*
X160042175Y-56133892D01*
X159801118Y-56194936D01*
X159573393Y-56294826D01*
X159365217Y-56430833D01*
X159182261Y-56599257D01*
X159029524Y-56795493D01*
X158911172Y-57014188D01*
X158911169Y-57014197D01*
X158830429Y-57249383D01*
X158808614Y-57380118D01*
X158789500Y-57494665D01*
X158789500Y-57743335D01*
X152277294Y-57743335D01*
X152296986Y-57619000D01*
X152277165Y-57493852D01*
X152219641Y-57380955D01*
X152207686Y-57369000D01*
X153170872Y-57369000D01*
X153170872Y-57368999D01*
X153118269Y-57172682D01*
X153118265Y-57172673D01*
X153022134Y-56966517D01*
X152891657Y-56780179D01*
X152730820Y-56619342D01*
X152544482Y-56488865D01*
X152338328Y-56392734D01*
X152142000Y-56340127D01*
X152142000Y-57303314D01*
X152130045Y-57291359D01*
X152017148Y-57233835D01*
X151923481Y-57219000D01*
X151860519Y-57219000D01*
X151766852Y-57233835D01*
X151653955Y-57291359D01*
X151642000Y-57303314D01*
X151642000Y-56340127D01*
X151445671Y-56392734D01*
X151239517Y-56488865D01*
X151053179Y-56619342D01*
X150892342Y-56780179D01*
X150761865Y-56966517D01*
X150665734Y-57172673D01*
X150665730Y-57172682D01*
X150613127Y-57368999D01*
X145322921Y-57368999D01*
X147124101Y-55567819D01*
X147185424Y-55534334D01*
X147211782Y-55531500D01*
X154860507Y-55531500D01*
X154862069Y-55531519D01*
X154899283Y-55532462D01*
X154950358Y-55533757D01*
X154950358Y-55533756D01*
X154950363Y-55533757D01*
X155010753Y-55522932D01*
X155015412Y-55522280D01*
X155057607Y-55517988D01*
X155076438Y-55516074D01*
X155109227Y-55505786D01*
X155116840Y-55503918D01*
X155150653Y-55497858D01*
X155207621Y-55475101D01*
X155212053Y-55473524D01*
X155270588Y-55455159D01*
X155300627Y-55438484D01*
X155307708Y-55435122D01*
X155339617Y-55422377D01*
X155390854Y-55388608D01*
X155394851Y-55386187D01*
X155448502Y-55356409D01*
X155474568Y-55334030D01*
X155480843Y-55329300D01*
X155481145Y-55329101D01*
X155509519Y-55310402D01*
X155552917Y-55267002D01*
X155556336Y-55263834D01*
X155602895Y-55223866D01*
X155623931Y-55196688D01*
X155629101Y-55190818D01*
X160144001Y-50675918D01*
X160145014Y-50674931D01*
X160209053Y-50614059D01*
X160244094Y-50563713D01*
X160246924Y-50559957D01*
X160285698Y-50512408D01*
X160301603Y-50481957D01*
X160305676Y-50475236D01*
X160325292Y-50447053D01*
X160325295Y-50447049D01*
X160349491Y-50390662D01*
X160351497Y-50386437D01*
X160379909Y-50332049D01*
X160389357Y-50299022D01*
X160391988Y-50291633D01*
X160405540Y-50260058D01*
X160417895Y-50199930D01*
X160418999Y-50195429D01*
X160435886Y-50136418D01*
X160438494Y-50102157D01*
X160439585Y-50094389D01*
X160446500Y-50060743D01*
X160446500Y-49999398D01*
X160446679Y-49994688D01*
X160446761Y-49993608D01*
X160451337Y-49933524D01*
X160446997Y-49899442D01*
X160446500Y-49891603D01*
X160446500Y-29652491D01*
X160446520Y-29650921D01*
X160448757Y-29562641D01*
X160448756Y-29562640D01*
X160448757Y-29562637D01*
X160437933Y-29502249D01*
X160437280Y-29497587D01*
X160432198Y-29447620D01*
X160431074Y-29436562D01*
X160420784Y-29403768D01*
X160418917Y-29396155D01*
X160415834Y-29378954D01*
X160412858Y-29362347D01*
X160390100Y-29305374D01*
X160388521Y-29300938D01*
X160372183Y-29248865D01*
X160370159Y-29242412D01*
X160370158Y-29242410D01*
X160370157Y-29242407D01*
X160353488Y-29212378D01*
X160350117Y-29205278D01*
X160337378Y-29173386D01*
X160337377Y-29173383D01*
X160303620Y-29122163D01*
X160301180Y-29118134D01*
X160287432Y-29093366D01*
X160271409Y-29064498D01*
X160271407Y-29064495D01*
X160249033Y-29038434D01*
X160244302Y-29032159D01*
X160236195Y-29019858D01*
X160225402Y-29003481D01*
X160182012Y-28960091D01*
X160178822Y-28956648D01*
X160138867Y-28910106D01*
X160138863Y-28910102D01*
X160111698Y-28889074D01*
X160105811Y-28883890D01*
X157115011Y-25893091D01*
X157113915Y-25891967D01*
X157053061Y-25827949D01*
X157053060Y-25827948D01*
X157053059Y-25827947D01*
X157007470Y-25796216D01*
X157002709Y-25792902D01*
X156998946Y-25790064D01*
X156951413Y-25751305D01*
X156951406Y-25751300D01*
X156920959Y-25735397D01*
X156914251Y-25731334D01*
X156886049Y-25711705D01*
X156886046Y-25711703D01*
X156886045Y-25711703D01*
X156886041Y-25711701D01*
X156829680Y-25687514D01*
X156825424Y-25685493D01*
X156771057Y-25657094D01*
X156771050Y-25657091D01*
X156771049Y-25657091D01*
X156765008Y-25655362D01*
X156738030Y-25647642D01*
X156730630Y-25645008D01*
X156699057Y-25631459D01*
X156699058Y-25631459D01*
X156638966Y-25619109D01*
X156634391Y-25617986D01*
X156575420Y-25601113D01*
X156575425Y-25601113D01*
X156541158Y-25598503D01*
X156533380Y-25597412D01*
X156499742Y-25590500D01*
X156499741Y-25590500D01*
X156438402Y-25590500D01*
X156433695Y-25590321D01*
X156428121Y-25589896D01*
X156372524Y-25585662D01*
X156352589Y-25588201D01*
X156338440Y-25590003D01*
X156330611Y-25590500D01*
X118837493Y-25590500D01*
X118835930Y-25590480D01*
X118747637Y-25588243D01*
X118747628Y-25588243D01*
X118696476Y-25597412D01*
X118687254Y-25599064D01*
X118682595Y-25599718D01*
X118621564Y-25605925D01*
X118621562Y-25605926D01*
X118588780Y-25616210D01*
X118581156Y-25618081D01*
X118578057Y-25618637D01*
X118547349Y-25624141D01*
X118490381Y-25646895D01*
X118485945Y-25648474D01*
X118427414Y-25666840D01*
X118427410Y-25666842D01*
X118397378Y-25683510D01*
X118390284Y-25686879D01*
X118358382Y-25699623D01*
X118358377Y-25699625D01*
X118307156Y-25733381D01*
X118303128Y-25735822D01*
X118249501Y-25765588D01*
X118223434Y-25787965D01*
X118217165Y-25792692D01*
X118188484Y-25811595D01*
X118188478Y-25811600D01*
X118145109Y-25854968D01*
X118141655Y-25858169D01*
X118095104Y-25898134D01*
X118074075Y-25925300D01*
X118068884Y-25931193D01*
X117167899Y-26832181D01*
X117106576Y-26865666D01*
X117080218Y-26868500D01*
X104712855Y-26868500D01*
X104645816Y-26848815D01*
X104621626Y-26828483D01*
X104559747Y-26761265D01*
X104559744Y-26761262D01*
X104479687Y-26698951D01*
X104363509Y-26608526D01*
X104363507Y-26608525D01*
X104363506Y-26608524D01*
X104144811Y-26490172D01*
X104144802Y-26490169D01*
X103909616Y-26409429D01*
X103664335Y-26368500D01*
X103415665Y-26368500D01*
X103170383Y-26409429D01*
X102935197Y-26490169D01*
X102935188Y-26490172D01*
X102716493Y-26608524D01*
X102520255Y-26761262D01*
X102520252Y-26761265D01*
X102458374Y-26828483D01*
X102398487Y-26864474D01*
X102367145Y-26868500D01*
X98212855Y-26868500D01*
X98145816Y-26848815D01*
X98121626Y-26828483D01*
X98059747Y-26761265D01*
X98059744Y-26761262D01*
X97979687Y-26698951D01*
X97863509Y-26608526D01*
X97863507Y-26608525D01*
X97863506Y-26608524D01*
X97644811Y-26490172D01*
X97644802Y-26490169D01*
X97409616Y-26409429D01*
X97164335Y-26368500D01*
X96915665Y-26368500D01*
X96670383Y-26409429D01*
X96435197Y-26490169D01*
X96435188Y-26490172D01*
X96216493Y-26608524D01*
X96020257Y-26761261D01*
X95851833Y-26944217D01*
X95715826Y-27152393D01*
X95615936Y-27380118D01*
X95554892Y-27621175D01*
X95554890Y-27621187D01*
X95534357Y-27868994D01*
X95534357Y-27869005D01*
X95554890Y-28116812D01*
X95554892Y-28116824D01*
X95615936Y-28357881D01*
X95715826Y-28585606D01*
X95788393Y-28696679D01*
X95808581Y-28763569D01*
X95789400Y-28830754D01*
X95736941Y-28876904D01*
X95684584Y-28888500D01*
X91977229Y-28888500D01*
X91910190Y-28868815D01*
X91889548Y-28852181D01*
X91348626Y-28311259D01*
X90806316Y-27768948D01*
X90772833Y-27707628D01*
X90769999Y-27681279D01*
X90769999Y-25712729D01*
X90789684Y-25645691D01*
X90806319Y-25625048D01*
X90844320Y-25587048D01*
X90905643Y-25553563D01*
X90975335Y-25558549D01*
X91019680Y-25587048D01*
X91113344Y-25680712D01*
X91262666Y-25772814D01*
X91429203Y-25827999D01*
X91531991Y-25838500D01*
X92157008Y-25838499D01*
X92157016Y-25838498D01*
X92157019Y-25838498D01*
X92213302Y-25832748D01*
X92259797Y-25827999D01*
X92426334Y-25772814D01*
X92575656Y-25680712D01*
X92581549Y-25674818D01*
X92642872Y-25641334D01*
X92669230Y-25638500D01*
X93712507Y-25638500D01*
X93714069Y-25638519D01*
X93751283Y-25639462D01*
X93802358Y-25640757D01*
X93802358Y-25640756D01*
X93802363Y-25640757D01*
X93862753Y-25629932D01*
X93867412Y-25629280D01*
X93909607Y-25624988D01*
X93928438Y-25623074D01*
X93961227Y-25612786D01*
X93968840Y-25610918D01*
X94002653Y-25604858D01*
X94059621Y-25582101D01*
X94064053Y-25580524D01*
X94122588Y-25562159D01*
X94152627Y-25545484D01*
X94159708Y-25542122D01*
X94191617Y-25529377D01*
X94242854Y-25495608D01*
X94246851Y-25493187D01*
X94300502Y-25463409D01*
X94326568Y-25441030D01*
X94332843Y-25436300D01*
X94361519Y-25417402D01*
X94404892Y-25374027D01*
X94408350Y-25370823D01*
X94411613Y-25368020D01*
X94454895Y-25330866D01*
X94475928Y-25303691D01*
X94481098Y-25297821D01*
X95373101Y-24405819D01*
X95434424Y-24372334D01*
X95460782Y-24369500D01*
X95867145Y-24369500D01*
X95934184Y-24389185D01*
X95958374Y-24409517D01*
X96020252Y-24476734D01*
X96020256Y-24476738D01*
X96216491Y-24629474D01*
X96435190Y-24747828D01*
X96670386Y-24828571D01*
X96915665Y-24869500D01*
X97164335Y-24869500D01*
X97409614Y-24828571D01*
X97644810Y-24747828D01*
X97863509Y-24629474D01*
X98059744Y-24476738D01*
X98228164Y-24293785D01*
X98364173Y-24085607D01*
X98464063Y-23857881D01*
X98525108Y-23616821D01*
X98525290Y-23614632D01*
X98545643Y-23369000D01*
X102034357Y-23369000D01*
X102054890Y-23616812D01*
X102054892Y-23616824D01*
X102115936Y-23857881D01*
X102215826Y-24085606D01*
X102351833Y-24293782D01*
X102351836Y-24293785D01*
X102520256Y-24476738D01*
X102716491Y-24629474D01*
X102935190Y-24747828D01*
X103170386Y-24828571D01*
X103415665Y-24869500D01*
X103664335Y-24869500D01*
X103909614Y-24828571D01*
X104144810Y-24747828D01*
X104363509Y-24629474D01*
X104559744Y-24476738D01*
X104728164Y-24293785D01*
X104864173Y-24085607D01*
X104964063Y-23857881D01*
X105024556Y-23619000D01*
X110394341Y-23619000D01*
X110414936Y-23854403D01*
X110414938Y-23854413D01*
X110476094Y-24082655D01*
X110476096Y-24082659D01*
X110476097Y-24082663D01*
X110541915Y-24223810D01*
X110575965Y-24296830D01*
X110575967Y-24296834D01*
X110677971Y-24442509D01*
X110711505Y-24490401D01*
X110878599Y-24657495D01*
X110946620Y-24705124D01*
X111072165Y-24793032D01*
X111072167Y-24793033D01*
X111072170Y-24793035D01*
X111286337Y-24892903D01*
X111286343Y-24892904D01*
X111286344Y-24892905D01*
X111311174Y-24899558D01*
X111514592Y-24954063D01*
X111685319Y-24969000D01*
X111749999Y-24974659D01*
X111750000Y-24974659D01*
X111750001Y-24974659D01*
X111814681Y-24969000D01*
X111985408Y-24954063D01*
X112213663Y-24892903D01*
X112427830Y-24793035D01*
X112621401Y-24657495D01*
X112743717Y-24535178D01*
X112805036Y-24501696D01*
X112874728Y-24506680D01*
X112930662Y-24548551D01*
X112947577Y-24579528D01*
X112996646Y-24711088D01*
X112996649Y-24711093D01*
X113082809Y-24826187D01*
X113082812Y-24826190D01*
X113197906Y-24912350D01*
X113197913Y-24912354D01*
X113332620Y-24962596D01*
X113332627Y-24962598D01*
X113392155Y-24968999D01*
X113392172Y-24969000D01*
X114040000Y-24969000D01*
X114040000Y-24054501D01*
X114147685Y-24103680D01*
X114254237Y-24119000D01*
X114325763Y-24119000D01*
X114432315Y-24103680D01*
X114540000Y-24054501D01*
X114540000Y-24969000D01*
X115187828Y-24969000D01*
X115187844Y-24968999D01*
X115247372Y-24962598D01*
X115247379Y-24962596D01*
X115382086Y-24912354D01*
X115382093Y-24912350D01*
X115497187Y-24826190D01*
X115497190Y-24826187D01*
X115583350Y-24711093D01*
X115583354Y-24711086D01*
X115633596Y-24576379D01*
X115633598Y-24576372D01*
X115639999Y-24516844D01*
X115640000Y-24516827D01*
X115640000Y-23869000D01*
X114723686Y-23869000D01*
X114749493Y-23828844D01*
X114774601Y-23743334D01*
X158789500Y-23743334D01*
X158830429Y-23988616D01*
X158911169Y-24223802D01*
X158911172Y-24223811D01*
X159029524Y-24442506D01*
X159029526Y-24442509D01*
X159182262Y-24638744D01*
X159341744Y-24785557D01*
X159365217Y-24807166D01*
X159573393Y-24943173D01*
X159801118Y-25043063D01*
X160035004Y-25102291D01*
X160042179Y-25104108D01*
X160042181Y-25104108D01*
X160042186Y-25104109D01*
X160195589Y-25116819D01*
X160227933Y-25119500D01*
X160227937Y-25119500D01*
X160352063Y-25119500D01*
X160352067Y-25119500D01*
X160414677Y-25114311D01*
X160537813Y-25104109D01*
X160537816Y-25104108D01*
X160537821Y-25104108D01*
X160778881Y-25043063D01*
X161006607Y-24943173D01*
X161214785Y-24807164D01*
X161397738Y-24638744D01*
X161550474Y-24442509D01*
X161668828Y-24223810D01*
X161749571Y-23988614D01*
X161790500Y-23743335D01*
X161790500Y-23494665D01*
X161749571Y-23249386D01*
X161668828Y-23014190D01*
X161550474Y-22795491D01*
X161397738Y-22599256D01*
X161235458Y-22449867D01*
X161214782Y-22430833D01*
X161006606Y-22294826D01*
X160778881Y-22194936D01*
X160537824Y-22133892D01*
X160537813Y-22133890D01*
X160352077Y-22118500D01*
X160352067Y-22118500D01*
X160227933Y-22118500D01*
X160227922Y-22118500D01*
X160042186Y-22133890D01*
X160042175Y-22133892D01*
X159801118Y-22194936D01*
X159573393Y-22294826D01*
X159365217Y-22430833D01*
X159182261Y-22599257D01*
X159029524Y-22795493D01*
X158911172Y-23014188D01*
X158911169Y-23014197D01*
X158830429Y-23249383D01*
X158789500Y-23494665D01*
X158789500Y-23743334D01*
X114774601Y-23743334D01*
X114790000Y-23690889D01*
X114790000Y-23547111D01*
X114749493Y-23409156D01*
X114723686Y-23369000D01*
X115639999Y-23369000D01*
X115640000Y-22721172D01*
X115639999Y-22721155D01*
X115633598Y-22661627D01*
X115633596Y-22661620D01*
X115583354Y-22526913D01*
X115583350Y-22526906D01*
X115497190Y-22411812D01*
X115497187Y-22411809D01*
X115382093Y-22325649D01*
X115382086Y-22325645D01*
X115247379Y-22275403D01*
X115247372Y-22275401D01*
X115187844Y-22269000D01*
X114540000Y-22269000D01*
X114540000Y-23183498D01*
X114432315Y-23134320D01*
X114325763Y-23119000D01*
X114254237Y-23119000D01*
X114147685Y-23134320D01*
X114040000Y-23183498D01*
X114040000Y-22269000D01*
X113392155Y-22269000D01*
X113332627Y-22275401D01*
X113332620Y-22275403D01*
X113197913Y-22325645D01*
X113197906Y-22325649D01*
X113082812Y-22411809D01*
X113082809Y-22411812D01*
X112996649Y-22526906D01*
X112996645Y-22526913D01*
X112947578Y-22658470D01*
X112905707Y-22714404D01*
X112840242Y-22738821D01*
X112771969Y-22723969D01*
X112743715Y-22702819D01*
X112693289Y-22652393D01*
X112621401Y-22580505D01*
X112621397Y-22580502D01*
X112621396Y-22580501D01*
X112427834Y-22444967D01*
X112427830Y-22444965D01*
X112356727Y-22411809D01*
X112213663Y-22345097D01*
X112213659Y-22345096D01*
X112213655Y-22345094D01*
X111985413Y-22283938D01*
X111985403Y-22283936D01*
X111750001Y-22263341D01*
X111749999Y-22263341D01*
X111514596Y-22283936D01*
X111514586Y-22283938D01*
X111286344Y-22345094D01*
X111286335Y-22345098D01*
X111072171Y-22444964D01*
X111072169Y-22444965D01*
X110878597Y-22580505D01*
X110711505Y-22747597D01*
X110575965Y-22941169D01*
X110575964Y-22941171D01*
X110476098Y-23155335D01*
X110476094Y-23155344D01*
X110414938Y-23383586D01*
X110414936Y-23383596D01*
X110394341Y-23618999D01*
X110394341Y-23619000D01*
X105024556Y-23619000D01*
X105025108Y-23616821D01*
X105025290Y-23614632D01*
X105045643Y-23369000D01*
X105045643Y-23368994D01*
X105025109Y-23121187D01*
X105025107Y-23121175D01*
X104964063Y-22880118D01*
X104864173Y-22652393D01*
X104728166Y-22444217D01*
X104678408Y-22390166D01*
X104559744Y-22261262D01*
X104363509Y-22108526D01*
X104363507Y-22108525D01*
X104363506Y-22108524D01*
X104144811Y-21990172D01*
X104144802Y-21990169D01*
X103909616Y-21909429D01*
X103664335Y-21868500D01*
X103415665Y-21868500D01*
X103170383Y-21909429D01*
X102935197Y-21990169D01*
X102935188Y-21990172D01*
X102716493Y-22108524D01*
X102520257Y-22261261D01*
X102351833Y-22444217D01*
X102215826Y-22652393D01*
X102115936Y-22880118D01*
X102054892Y-23121175D01*
X102054890Y-23121187D01*
X102034357Y-23368994D01*
X102034357Y-23369000D01*
X98545643Y-23369000D01*
X98545643Y-23368994D01*
X98525109Y-23121187D01*
X98525107Y-23121175D01*
X98464063Y-22880118D01*
X98364173Y-22652393D01*
X98228166Y-22444217D01*
X98178408Y-22390166D01*
X98059744Y-22261262D01*
X97863509Y-22108526D01*
X97863507Y-22108525D01*
X97863506Y-22108524D01*
X97644811Y-21990172D01*
X97644802Y-21990169D01*
X97409616Y-21909429D01*
X97164335Y-21868500D01*
X96915665Y-21868500D01*
X96670383Y-21909429D01*
X96435197Y-21990169D01*
X96435188Y-21990172D01*
X96216493Y-22108524D01*
X96020255Y-22261262D01*
X96020252Y-22261265D01*
X95958374Y-22328483D01*
X95898487Y-22364474D01*
X95867145Y-22368500D01*
X95008493Y-22368500D01*
X95006930Y-22368480D01*
X94918637Y-22366243D01*
X94918628Y-22366243D01*
X94865636Y-22375741D01*
X94858254Y-22377064D01*
X94853595Y-22377718D01*
X94792564Y-22383925D01*
X94792562Y-22383926D01*
X94759780Y-22394210D01*
X94752156Y-22396081D01*
X94744308Y-22397488D01*
X94718349Y-22402141D01*
X94661381Y-22424895D01*
X94656945Y-22426474D01*
X94598414Y-22444840D01*
X94598410Y-22444842D01*
X94568378Y-22461510D01*
X94561284Y-22464879D01*
X94529382Y-22477623D01*
X94529377Y-22477625D01*
X94478156Y-22511381D01*
X94474128Y-22513822D01*
X94420501Y-22543588D01*
X94394434Y-22565965D01*
X94388165Y-22570692D01*
X94359484Y-22589595D01*
X94359478Y-22589600D01*
X94316109Y-22632968D01*
X94312655Y-22636169D01*
X94266104Y-22676134D01*
X94245075Y-22703300D01*
X94239884Y-22709193D01*
X93347899Y-23601181D01*
X93286576Y-23634666D01*
X93260218Y-23637500D01*
X92669230Y-23637500D01*
X92602191Y-23617815D01*
X92581549Y-23601181D01*
X92575657Y-23595289D01*
X92575657Y-23595288D01*
X92575656Y-23595288D01*
X92426334Y-23503186D01*
X92259797Y-23448001D01*
X92259795Y-23448000D01*
X92157010Y-23437500D01*
X91531998Y-23437500D01*
X91531980Y-23437501D01*
X91429203Y-23448000D01*
X91429200Y-23448001D01*
X91262668Y-23503185D01*
X91262663Y-23503187D01*
X91113342Y-23595289D01*
X91019681Y-23688951D01*
X90958358Y-23722436D01*
X90888666Y-23717452D01*
X90844319Y-23688951D01*
X90806319Y-23650951D01*
X90772834Y-23589628D01*
X90770000Y-23563270D01*
X90770000Y-22773205D01*
X90771309Y-22755235D01*
X90774082Y-22736303D01*
X90774789Y-22731477D01*
X90774775Y-22731319D01*
X90770236Y-22679434D01*
X90770000Y-22674028D01*
X90770000Y-22665796D01*
X90770000Y-22665791D01*
X90766295Y-22634102D01*
X90766118Y-22632376D01*
X90759499Y-22556703D01*
X90759499Y-22556701D01*
X90758039Y-22549629D01*
X90758097Y-22549616D01*
X90756465Y-22542257D01*
X90756406Y-22542272D01*
X90754741Y-22535251D01*
X90754741Y-22535245D01*
X90734013Y-22478294D01*
X90728784Y-22463927D01*
X90728192Y-22462224D01*
X90704313Y-22390163D01*
X90701264Y-22383624D01*
X90701317Y-22383599D01*
X90698031Y-22376811D01*
X90697979Y-22376838D01*
X90694736Y-22370382D01*
X90693498Y-22368500D01*
X90667833Y-22329477D01*
X90653030Y-22306969D01*
X90652061Y-22305449D01*
X90612214Y-22240847D01*
X90607734Y-22235181D01*
X90607780Y-22235143D01*
X90603019Y-22229299D01*
X90602974Y-22229338D01*
X90598331Y-22223805D01*
X90543134Y-22171729D01*
X90541874Y-22170506D01*
X89269729Y-20898361D01*
X89257949Y-20884730D01*
X89243610Y-20865470D01*
X89211455Y-20838488D01*
X89172753Y-20780318D01*
X89171644Y-20710458D01*
X89208481Y-20651087D01*
X89271569Y-20621058D01*
X89291161Y-20619500D01*
X163165500Y-20619500D01*
X163232539Y-20639185D01*
G37*
%TD.AperFunction*%
%TA.AperFunction,Conductor*%
G36*
X79794049Y-20639185D02*
G01*
X79839804Y-20691989D01*
X79849748Y-20761147D01*
X79820723Y-20824703D01*
X79817202Y-20828596D01*
X79787229Y-20860364D01*
X79785973Y-20861657D01*
X79084358Y-21563272D01*
X79070729Y-21575051D01*
X79051468Y-21589390D01*
X79017898Y-21629397D01*
X79014253Y-21633376D01*
X79008407Y-21639223D01*
X78988618Y-21664251D01*
X78987481Y-21665647D01*
X78938694Y-21723790D01*
X78934729Y-21729819D01*
X78934682Y-21729788D01*
X78930630Y-21736147D01*
X78930679Y-21736177D01*
X78926889Y-21742321D01*
X78894812Y-21811110D01*
X78894027Y-21812731D01*
X78859957Y-21880572D01*
X78857488Y-21887357D01*
X78857432Y-21887336D01*
X78854960Y-21894450D01*
X78855015Y-21894469D01*
X78852743Y-21901325D01*
X78837391Y-21975670D01*
X78837001Y-21977428D01*
X78819499Y-22051279D01*
X78818661Y-22058454D01*
X78818601Y-22058447D01*
X78817835Y-22065945D01*
X78817895Y-22065951D01*
X78817265Y-22073140D01*
X78819474Y-22149030D01*
X78819500Y-22150833D01*
X78819500Y-22431298D01*
X78799815Y-22498337D01*
X78766625Y-22532872D01*
X78698595Y-22580507D01*
X78531505Y-22747597D01*
X78401575Y-22933158D01*
X78346998Y-22976783D01*
X78277500Y-22983977D01*
X78215145Y-22952454D01*
X78198425Y-22933158D01*
X78068494Y-22747597D01*
X77901402Y-22580506D01*
X77901395Y-22580501D01*
X77887386Y-22570692D01*
X77833487Y-22532951D01*
X77707834Y-22444967D01*
X77707830Y-22444965D01*
X77636727Y-22411809D01*
X77493663Y-22345097D01*
X77493659Y-22345096D01*
X77493655Y-22345094D01*
X77265413Y-22283938D01*
X77265403Y-22283936D01*
X77030001Y-22263341D01*
X77029999Y-22263341D01*
X76794596Y-22283936D01*
X76794586Y-22283938D01*
X76566344Y-22345094D01*
X76566335Y-22345098D01*
X76352171Y-22444964D01*
X76352169Y-22444965D01*
X76158600Y-22580503D01*
X76036284Y-22702819D01*
X75974961Y-22736303D01*
X75905269Y-22731319D01*
X75849336Y-22689447D01*
X75832421Y-22658470D01*
X75783354Y-22526913D01*
X75783350Y-22526906D01*
X75697190Y-22411812D01*
X75697187Y-22411809D01*
X75582093Y-22325649D01*
X75582086Y-22325645D01*
X75447379Y-22275403D01*
X75447372Y-22275401D01*
X75387844Y-22269000D01*
X74740000Y-22269000D01*
X74740000Y-23183498D01*
X74632315Y-23134320D01*
X74525763Y-23119000D01*
X74454237Y-23119000D01*
X74347685Y-23134320D01*
X74240000Y-23183498D01*
X74240000Y-22269000D01*
X73592155Y-22269000D01*
X73532627Y-22275401D01*
X73532620Y-22275403D01*
X73397913Y-22325645D01*
X73397906Y-22325649D01*
X73282812Y-22411809D01*
X73282809Y-22411812D01*
X73196649Y-22526906D01*
X73196645Y-22526913D01*
X73146403Y-22661620D01*
X73146401Y-22661627D01*
X73140000Y-22721155D01*
X73140000Y-23369000D01*
X74056314Y-23369000D01*
X74030507Y-23409156D01*
X73990000Y-23547111D01*
X73990000Y-23690889D01*
X74030507Y-23828844D01*
X74056314Y-23869000D01*
X73140000Y-23869000D01*
X73140000Y-24516844D01*
X73146401Y-24576372D01*
X73146403Y-24576379D01*
X73196645Y-24711086D01*
X73196649Y-24711093D01*
X73282809Y-24826187D01*
X73282812Y-24826190D01*
X73397906Y-24912350D01*
X73397913Y-24912354D01*
X73532620Y-24962596D01*
X73532627Y-24962598D01*
X73592155Y-24968999D01*
X73592172Y-24969000D01*
X74240000Y-24969000D01*
X74240000Y-24054501D01*
X74347685Y-24103680D01*
X74454237Y-24119000D01*
X74525763Y-24119000D01*
X74632315Y-24103680D01*
X74740000Y-24054501D01*
X74740000Y-24969000D01*
X75387828Y-24969000D01*
X75387844Y-24968999D01*
X75447372Y-24962598D01*
X75447379Y-24962596D01*
X75582086Y-24912354D01*
X75582093Y-24912350D01*
X75697187Y-24826190D01*
X75697190Y-24826187D01*
X75783350Y-24711093D01*
X75783354Y-24711086D01*
X75832422Y-24579529D01*
X75874293Y-24523595D01*
X75939757Y-24499178D01*
X76008030Y-24514030D01*
X76036285Y-24535181D01*
X76158599Y-24657495D01*
X76226620Y-24705124D01*
X76352165Y-24793032D01*
X76352167Y-24793033D01*
X76352170Y-24793035D01*
X76566337Y-24892903D01*
X76566343Y-24892904D01*
X76566344Y-24892905D01*
X76591174Y-24899558D01*
X76794592Y-24954063D01*
X76965319Y-24969000D01*
X77029999Y-24974659D01*
X77030000Y-24974659D01*
X77030001Y-24974659D01*
X77094681Y-24969000D01*
X77265408Y-24954063D01*
X77493663Y-24892903D01*
X77707830Y-24793035D01*
X77901401Y-24657495D01*
X78068495Y-24490401D01*
X78198424Y-24304842D01*
X78253002Y-24261217D01*
X78322500Y-24254023D01*
X78384855Y-24285546D01*
X78401575Y-24304842D01*
X78531501Y-24490396D01*
X78531506Y-24490402D01*
X78698595Y-24657492D01*
X78698598Y-24657494D01*
X78698599Y-24657495D01*
X78766623Y-24705125D01*
X78810248Y-24759701D01*
X78819500Y-24806700D01*
X78819500Y-38627976D01*
X78799815Y-38695015D01*
X78747011Y-38740770D01*
X78737902Y-38744501D01*
X78561218Y-38808794D01*
X78561215Y-38808795D01*
X78561214Y-38808796D01*
X78511694Y-38837382D01*
X78394436Y-38905071D01*
X78297286Y-38986582D01*
X78256454Y-39020841D01*
X78246915Y-39028844D01*
X78246908Y-39028851D01*
X78123135Y-39176346D01*
X78123130Y-39176353D01*
X78026839Y-39343121D01*
X77960973Y-39524075D01*
X77927533Y-39713715D01*
X77927533Y-39758605D01*
X77927500Y-39758717D01*
X77927500Y-39906287D01*
X77954430Y-40059010D01*
X77960942Y-40095935D01*
X77998457Y-40199000D01*
X78026810Y-40276894D01*
X78125622Y-40448029D01*
X78142097Y-40515928D01*
X78125622Y-40572035D01*
X78026840Y-40743119D01*
X77960973Y-40924075D01*
X77927533Y-41113715D01*
X77927533Y-41158605D01*
X77927500Y-41158717D01*
X77927500Y-41306287D01*
X77960941Y-41495932D01*
X78026809Y-41676892D01*
X78123103Y-41843665D01*
X78123108Y-41843672D01*
X78246046Y-41990172D01*
X78246893Y-41991181D01*
X78329043Y-42060105D01*
X78394417Y-42114955D01*
X78394418Y-42114956D01*
X78394420Y-42114957D01*
X78561200Y-42211234D01*
X78561201Y-42211234D01*
X78561204Y-42211236D01*
X78561206Y-42211237D01*
X78681653Y-42255065D01*
X78737902Y-42275533D01*
X78794169Y-42316955D01*
X78819109Y-42382221D01*
X78819500Y-42392058D01*
X78819500Y-49081770D01*
X78799815Y-49148809D01*
X78783181Y-49169451D01*
X73120451Y-54832181D01*
X73059128Y-54865666D01*
X73032770Y-54868500D01*
X69477701Y-54868500D01*
X69410662Y-54848815D01*
X69376126Y-54815623D01*
X69328494Y-54747597D01*
X69161402Y-54580506D01*
X69161401Y-54580505D01*
X68975405Y-54450269D01*
X68931781Y-54395692D01*
X68924588Y-54326193D01*
X68956110Y-54263839D01*
X68975405Y-54247119D01*
X69161082Y-54117105D01*
X69328105Y-53950082D01*
X69463600Y-53756578D01*
X69563429Y-53542492D01*
X69563432Y-53542486D01*
X69620636Y-53329000D01*
X68723686Y-53329000D01*
X68749493Y-53288844D01*
X68790000Y-53150889D01*
X68790000Y-53007111D01*
X68749493Y-52869156D01*
X68723686Y-52829000D01*
X69620636Y-52829000D01*
X69620635Y-52828999D01*
X69563432Y-52615513D01*
X69563429Y-52615507D01*
X69463600Y-52401422D01*
X69463599Y-52401420D01*
X69328113Y-52207926D01*
X69328108Y-52207920D01*
X69206053Y-52085865D01*
X69172568Y-52024542D01*
X69177552Y-51954850D01*
X69219424Y-51898917D01*
X69250400Y-51882002D01*
X69382331Y-51832796D01*
X69497546Y-51746546D01*
X69583796Y-51631331D01*
X69634091Y-51496483D01*
X69640500Y-51436873D01*
X69640499Y-49641128D01*
X69634091Y-49581517D01*
X69633860Y-49580898D01*
X69583797Y-49446671D01*
X69583793Y-49446664D01*
X69497547Y-49331455D01*
X69497544Y-49331452D01*
X69382335Y-49245206D01*
X69382328Y-49245202D01*
X69247482Y-49194908D01*
X69247483Y-49194908D01*
X69187883Y-49188501D01*
X69187881Y-49188500D01*
X69187873Y-49188500D01*
X69187864Y-49188500D01*
X67392129Y-49188500D01*
X67392123Y-49188501D01*
X67332516Y-49194908D01*
X67197671Y-49245202D01*
X67197664Y-49245206D01*
X67082455Y-49331452D01*
X67082452Y-49331455D01*
X66996206Y-49446664D01*
X66996202Y-49446671D01*
X66945908Y-49581517D01*
X66939501Y-49641116D01*
X66939501Y-49641123D01*
X66939500Y-49641135D01*
X66939500Y-51436870D01*
X66939501Y-51436876D01*
X66945908Y-51496483D01*
X66996202Y-51631328D01*
X66996206Y-51631335D01*
X67082452Y-51746544D01*
X67082455Y-51746547D01*
X67197664Y-51832793D01*
X67197671Y-51832797D01*
X67197674Y-51832798D01*
X67329598Y-51882002D01*
X67385531Y-51923873D01*
X67409949Y-51989337D01*
X67395098Y-52057610D01*
X67373947Y-52085865D01*
X67251886Y-52207926D01*
X67116400Y-52401420D01*
X67116399Y-52401422D01*
X67016570Y-52615507D01*
X67016567Y-52615513D01*
X66959364Y-52828999D01*
X66959364Y-52829000D01*
X67856314Y-52829000D01*
X67830507Y-52869156D01*
X67790000Y-53007111D01*
X67790000Y-53150889D01*
X67830507Y-53288844D01*
X67856314Y-53329000D01*
X66959364Y-53329000D01*
X67016567Y-53542486D01*
X67016570Y-53542492D01*
X67116399Y-53756578D01*
X67251894Y-53950082D01*
X67418917Y-54117105D01*
X67604595Y-54247119D01*
X67648219Y-54301696D01*
X67655412Y-54371195D01*
X67623890Y-54433549D01*
X67604595Y-54450269D01*
X67418594Y-54580508D01*
X67251506Y-54747596D01*
X67203874Y-54815623D01*
X67149297Y-54859248D01*
X67102299Y-54868500D01*
X65633229Y-54868500D01*
X65566190Y-54848815D01*
X65545548Y-54832181D01*
X53996818Y-43283451D01*
X53963333Y-43222128D01*
X53960499Y-43195770D01*
X53960499Y-42211234D01*
X53960500Y-41173224D01*
X53960499Y-41173224D01*
X53960499Y-38240345D01*
X53980184Y-38173310D01*
X54032988Y-38127555D01*
X54062957Y-38118235D01*
X54126211Y-38107076D01*
X54126216Y-38107074D01*
X54126225Y-38107073D01*
X54307163Y-38041200D01*
X54473914Y-37944910D01*
X54621413Y-37821128D01*
X54745178Y-37673616D01*
X54841450Y-37506854D01*
X54907304Y-37325909D01*
X54940739Y-37136278D01*
X54940738Y-37040000D01*
X54940738Y-36961119D01*
X54940738Y-36958168D01*
X54940700Y-36957461D01*
X54940701Y-36943725D01*
X54907267Y-36754101D01*
X54859381Y-36622525D01*
X54841419Y-36573169D01*
X54841417Y-36573165D01*
X54841416Y-36573162D01*
X54825023Y-36544766D01*
X54742614Y-36402017D01*
X54726144Y-36334116D01*
X54742614Y-36278023D01*
X54745152Y-36273626D01*
X54745156Y-36273622D01*
X54841431Y-36106860D01*
X54907287Y-35925913D01*
X54940724Y-35736279D01*
X54940723Y-35640000D01*
X54940723Y-35561119D01*
X54940723Y-35558016D01*
X54940700Y-35557595D01*
X54940701Y-35543723D01*
X54907265Y-35354093D01*
X54865194Y-35238500D01*
X54841414Y-35173160D01*
X54841412Y-35173157D01*
X54841410Y-35173150D01*
X54745137Y-35006391D01*
X54742623Y-35002036D01*
X54726153Y-34934135D01*
X54742623Y-34878043D01*
X54841447Y-34706859D01*
X54841446Y-34706859D01*
X54841450Y-34706854D01*
X54907304Y-34525909D01*
X54940739Y-34336278D01*
X54940738Y-34240000D01*
X54940738Y-34161119D01*
X54940738Y-34158168D01*
X54940700Y-34157461D01*
X54940701Y-34143725D01*
X54907267Y-33954101D01*
X54841416Y-33773162D01*
X54762392Y-33636277D01*
X54742614Y-33602017D01*
X54726144Y-33534116D01*
X54742614Y-33478023D01*
X54745152Y-33473626D01*
X54745156Y-33473622D01*
X54841431Y-33306860D01*
X54907287Y-33125913D01*
X54940724Y-32936279D01*
X54940723Y-32840000D01*
X54940723Y-32761119D01*
X54940723Y-32758016D01*
X54940700Y-32757595D01*
X54940701Y-32743723D01*
X54907265Y-32554093D01*
X54867275Y-32444217D01*
X54841414Y-32373160D01*
X54841412Y-32373157D01*
X54841410Y-32373150D01*
X54745137Y-32206391D01*
X54742613Y-32202019D01*
X54726143Y-32134119D01*
X54742614Y-32078024D01*
X54745153Y-32073624D01*
X54745156Y-32073622D01*
X54841431Y-31906860D01*
X54907287Y-31725913D01*
X54940724Y-31536279D01*
X54940723Y-31440000D01*
X54940723Y-31361119D01*
X54940723Y-31358016D01*
X54940700Y-31357595D01*
X54940701Y-31343723D01*
X54907265Y-31154093D01*
X54876985Y-31070897D01*
X54841414Y-30973160D01*
X54841412Y-30973157D01*
X54841410Y-30973150D01*
X54745137Y-30806391D01*
X54742613Y-30802019D01*
X54726143Y-30734119D01*
X54742614Y-30678024D01*
X54745153Y-30673624D01*
X54745156Y-30673622D01*
X54841431Y-30506860D01*
X54907287Y-30325913D01*
X54940724Y-30136279D01*
X54940723Y-30040000D01*
X54940723Y-29961119D01*
X54940723Y-29958016D01*
X54940700Y-29957595D01*
X54940700Y-29954048D01*
X54940701Y-29943723D01*
X54907265Y-29754093D01*
X54906053Y-29750764D01*
X54841414Y-29573160D01*
X54841412Y-29573157D01*
X54841410Y-29573150D01*
X54745137Y-29406391D01*
X54742613Y-29402019D01*
X54726143Y-29334119D01*
X54742614Y-29278024D01*
X54745153Y-29273624D01*
X54745156Y-29273622D01*
X54841431Y-29106860D01*
X54907287Y-28925913D01*
X54940724Y-28736279D01*
X54940723Y-28640000D01*
X54940723Y-28561119D01*
X54940723Y-28558016D01*
X54940700Y-28557595D01*
X54940701Y-28543723D01*
X54907265Y-28354093D01*
X54891675Y-28311259D01*
X54841414Y-28173160D01*
X54841412Y-28173157D01*
X54841410Y-28173150D01*
X54745137Y-28006391D01*
X54745135Y-28006388D01*
X54745133Y-28006385D01*
X54621372Y-27858885D01*
X54621368Y-27858881D01*
X54473870Y-27735106D01*
X54473869Y-27735105D01*
X54307116Y-27638820D01*
X54307115Y-27638819D01*
X54307114Y-27638819D01*
X54126182Y-27572955D01*
X54126177Y-27572954D01*
X54062958Y-27561802D01*
X54000358Y-27530771D01*
X53964472Y-27470822D01*
X53960500Y-27439688D01*
X53960500Y-24806700D01*
X53980185Y-24739661D01*
X54013375Y-24705126D01*
X54081401Y-24657495D01*
X54248495Y-24490401D01*
X54378424Y-24304842D01*
X54433002Y-24261217D01*
X54502500Y-24254023D01*
X54564855Y-24285546D01*
X54581575Y-24304842D01*
X54711500Y-24490395D01*
X54711505Y-24490401D01*
X54878599Y-24657495D01*
X54946620Y-24705124D01*
X55072165Y-24793032D01*
X55072167Y-24793033D01*
X55072170Y-24793035D01*
X55286337Y-24892903D01*
X55286343Y-24892904D01*
X55286344Y-24892905D01*
X55311174Y-24899558D01*
X55514592Y-24954063D01*
X55685319Y-24969000D01*
X55749999Y-24974659D01*
X55750000Y-24974659D01*
X55750001Y-24974659D01*
X55814681Y-24969000D01*
X55985408Y-24954063D01*
X56213663Y-24892903D01*
X56427830Y-24793035D01*
X56621401Y-24657495D01*
X56788495Y-24490401D01*
X56918424Y-24304842D01*
X56973002Y-24261217D01*
X57042500Y-24254023D01*
X57104855Y-24285546D01*
X57121575Y-24304842D01*
X57251500Y-24490395D01*
X57251505Y-24490401D01*
X57418599Y-24657495D01*
X57486620Y-24705124D01*
X57612165Y-24793032D01*
X57612167Y-24793033D01*
X57612170Y-24793035D01*
X57826337Y-24892903D01*
X57826343Y-24892904D01*
X57826344Y-24892905D01*
X57851174Y-24899558D01*
X58054592Y-24954063D01*
X58225319Y-24969000D01*
X58289999Y-24974659D01*
X58290000Y-24974659D01*
X58290001Y-24974659D01*
X58354681Y-24969000D01*
X58525408Y-24954063D01*
X58753663Y-24892903D01*
X58967830Y-24793035D01*
X59161401Y-24657495D01*
X59283717Y-24535178D01*
X59345036Y-24501696D01*
X59414728Y-24506680D01*
X59470662Y-24548551D01*
X59487577Y-24579528D01*
X59536646Y-24711088D01*
X59536649Y-24711093D01*
X59622809Y-24826187D01*
X59622812Y-24826190D01*
X59737906Y-24912350D01*
X59737913Y-24912354D01*
X59872620Y-24962596D01*
X59872627Y-24962598D01*
X59932155Y-24968999D01*
X59932172Y-24969000D01*
X60579999Y-24969000D01*
X60579999Y-24054501D01*
X60687685Y-24103680D01*
X60794237Y-24119000D01*
X60865763Y-24119000D01*
X60972315Y-24103680D01*
X61079999Y-24054501D01*
X61079999Y-24968999D01*
X61080000Y-24969000D01*
X61727828Y-24969000D01*
X61727844Y-24968999D01*
X61787372Y-24962598D01*
X61787379Y-24962596D01*
X61922086Y-24912354D01*
X61922093Y-24912350D01*
X62037187Y-24826190D01*
X62037190Y-24826187D01*
X62123350Y-24711093D01*
X62123354Y-24711086D01*
X62173596Y-24576379D01*
X62173598Y-24576372D01*
X62179999Y-24516844D01*
X62180000Y-24516827D01*
X62180000Y-23869000D01*
X61263686Y-23869000D01*
X61289493Y-23828844D01*
X61330000Y-23690889D01*
X61330000Y-23547111D01*
X61289493Y-23409156D01*
X61263686Y-23369000D01*
X62180000Y-23369000D01*
X62180000Y-22721172D01*
X62179999Y-22721155D01*
X62173598Y-22661627D01*
X62173596Y-22661620D01*
X62123354Y-22526913D01*
X62123350Y-22526906D01*
X62037190Y-22411812D01*
X62037187Y-22411809D01*
X61922093Y-22325649D01*
X61922086Y-22325645D01*
X61787379Y-22275403D01*
X61787372Y-22275401D01*
X61727844Y-22269000D01*
X61080000Y-22269000D01*
X61079999Y-23183498D01*
X60972315Y-23134320D01*
X60865763Y-23119000D01*
X60794237Y-23119000D01*
X60687685Y-23134320D01*
X60579999Y-23183498D01*
X60580000Y-22269000D01*
X59932155Y-22269000D01*
X59872627Y-22275401D01*
X59872620Y-22275403D01*
X59737913Y-22325645D01*
X59737906Y-22325649D01*
X59622812Y-22411809D01*
X59622809Y-22411812D01*
X59536649Y-22526906D01*
X59536645Y-22526913D01*
X59487578Y-22658470D01*
X59445707Y-22714404D01*
X59380242Y-22738821D01*
X59311969Y-22723969D01*
X59283715Y-22702819D01*
X59233289Y-22652393D01*
X59161401Y-22580505D01*
X59161397Y-22580502D01*
X59161396Y-22580501D01*
X58967834Y-22444967D01*
X58967830Y-22444965D01*
X58896727Y-22411809D01*
X58753663Y-22345097D01*
X58753659Y-22345096D01*
X58753655Y-22345094D01*
X58525413Y-22283938D01*
X58525403Y-22283936D01*
X58290001Y-22263341D01*
X58289999Y-22263341D01*
X58054596Y-22283936D01*
X58054586Y-22283938D01*
X57826344Y-22345094D01*
X57826335Y-22345098D01*
X57612171Y-22444964D01*
X57612169Y-22444965D01*
X57418597Y-22580505D01*
X57251505Y-22747597D01*
X57121575Y-22933158D01*
X57066998Y-22976783D01*
X56997500Y-22983977D01*
X56935145Y-22952454D01*
X56918425Y-22933158D01*
X56788494Y-22747597D01*
X56621404Y-22580507D01*
X56553375Y-22532872D01*
X56509751Y-22478294D01*
X56500500Y-22431298D01*
X56500500Y-22285705D01*
X56501809Y-22267735D01*
X56505289Y-22243974D01*
X56501160Y-22196788D01*
X56500735Y-22191933D01*
X56500500Y-22186532D01*
X56500500Y-22178296D01*
X56500500Y-22178291D01*
X56496787Y-22146534D01*
X56496620Y-22144898D01*
X56490343Y-22073144D01*
X56489999Y-22069208D01*
X56488538Y-22062135D01*
X56488598Y-22062122D01*
X56486965Y-22054757D01*
X56486906Y-22054772D01*
X56485241Y-22047749D01*
X56485241Y-22047745D01*
X56459274Y-21976403D01*
X56458698Y-21974746D01*
X56434814Y-21902665D01*
X56434809Y-21902658D01*
X56431761Y-21896118D01*
X56431815Y-21896092D01*
X56428533Y-21889312D01*
X56428480Y-21889340D01*
X56425238Y-21882885D01*
X56423717Y-21880572D01*
X56383527Y-21819466D01*
X56382580Y-21817980D01*
X56342714Y-21753347D01*
X56338234Y-21747681D01*
X56338280Y-21747643D01*
X56333519Y-21741799D01*
X56333474Y-21741838D01*
X56328831Y-21736305D01*
X56273634Y-21684229D01*
X56272374Y-21683006D01*
X55439728Y-20850360D01*
X55427944Y-20836724D01*
X55413666Y-20817544D01*
X55389425Y-20752015D01*
X55404459Y-20683782D01*
X55453997Y-20634509D01*
X55513132Y-20619500D01*
X79727010Y-20619500D01*
X79794049Y-20639185D01*
G37*
%TD.AperFunction*%
%TA.AperFunction,Conductor*%
G36*
X113483743Y-38813744D02*
G01*
X113494002Y-38822923D01*
X114533042Y-39861963D01*
X114534101Y-39863050D01*
X114594937Y-39927050D01*
X114594941Y-39927053D01*
X114645281Y-39962092D01*
X114649043Y-39964928D01*
X114696587Y-40003694D01*
X114696590Y-40003695D01*
X114696593Y-40003698D01*
X114727045Y-40019604D01*
X114733758Y-40023672D01*
X114761951Y-40043295D01*
X114818329Y-40067489D01*
X114822578Y-40069507D01*
X114876951Y-40097909D01*
X114904489Y-40105788D01*
X114909974Y-40107358D01*
X114917368Y-40109990D01*
X114948942Y-40123540D01*
X114948945Y-40123540D01*
X114948946Y-40123541D01*
X115009022Y-40135887D01*
X115013600Y-40137010D01*
X115021726Y-40139335D01*
X115072582Y-40153887D01*
X115106839Y-40156495D01*
X115114614Y-40157586D01*
X115148255Y-40164500D01*
X115148259Y-40164500D01*
X115209599Y-40164500D01*
X115214305Y-40164678D01*
X115249063Y-40167325D01*
X115275476Y-40169337D01*
X115275476Y-40169336D01*
X115275477Y-40169337D01*
X115309560Y-40164996D01*
X115317390Y-40164500D01*
X137009217Y-40164500D01*
X137076256Y-40184185D01*
X137096898Y-40200819D01*
X140013181Y-43117102D01*
X140046666Y-43178425D01*
X140049500Y-43204783D01*
X140049500Y-44741410D01*
X140029815Y-44808449D01*
X140027076Y-44812532D01*
X139919431Y-44966267D01*
X139892382Y-45024275D01*
X139846209Y-45076714D01*
X139779016Y-45095866D01*
X139712135Y-45075650D01*
X139667618Y-45024275D01*
X139640686Y-44966520D01*
X139640568Y-44966266D01*
X139510047Y-44779861D01*
X139510045Y-44779858D01*
X139349141Y-44618954D01*
X139162734Y-44488432D01*
X139162732Y-44488431D01*
X138956497Y-44392261D01*
X138956488Y-44392258D01*
X138736697Y-44333366D01*
X138736693Y-44333365D01*
X138736692Y-44333365D01*
X138736691Y-44333364D01*
X138736686Y-44333364D01*
X138510002Y-44313532D01*
X138509998Y-44313532D01*
X138283313Y-44333364D01*
X138283302Y-44333366D01*
X138063511Y-44392258D01*
X138063502Y-44392261D01*
X137857267Y-44488431D01*
X137857265Y-44488432D01*
X137670858Y-44618954D01*
X137509954Y-44779858D01*
X137379432Y-44966265D01*
X137379431Y-44966267D01*
X137352382Y-45024275D01*
X137306209Y-45076714D01*
X137239016Y-45095866D01*
X137172135Y-45075650D01*
X137127618Y-45024275D01*
X137100686Y-44966520D01*
X137100568Y-44966266D01*
X136970047Y-44779861D01*
X136970045Y-44779858D01*
X136809141Y-44618954D01*
X136622734Y-44488432D01*
X136622732Y-44488431D01*
X136416497Y-44392261D01*
X136416488Y-44392258D01*
X136196697Y-44333366D01*
X136196693Y-44333365D01*
X136196692Y-44333365D01*
X136196691Y-44333364D01*
X136196686Y-44333364D01*
X135970002Y-44313532D01*
X135969998Y-44313532D01*
X135743313Y-44333364D01*
X135743302Y-44333366D01*
X135523511Y-44392258D01*
X135523502Y-44392261D01*
X135317267Y-44488431D01*
X135317265Y-44488432D01*
X135130858Y-44618954D01*
X134969954Y-44779858D01*
X134839432Y-44966265D01*
X134839431Y-44966267D01*
X134812382Y-45024275D01*
X134766209Y-45076714D01*
X134699016Y-45095866D01*
X134632135Y-45075650D01*
X134587618Y-45024275D01*
X134560686Y-44966520D01*
X134560568Y-44966266D01*
X134452924Y-44812532D01*
X134430597Y-44746326D01*
X134430500Y-44741410D01*
X134430500Y-43781491D01*
X134430520Y-43779921D01*
X134432757Y-43691641D01*
X134432756Y-43691640D01*
X134432757Y-43691637D01*
X134421933Y-43631249D01*
X134421280Y-43626587D01*
X134415074Y-43565563D01*
X134415074Y-43565562D01*
X134404784Y-43532768D01*
X134402917Y-43525155D01*
X134400606Y-43512263D01*
X134396858Y-43491347D01*
X134374095Y-43434361D01*
X134372527Y-43429955D01*
X134363367Y-43400760D01*
X134354161Y-43371416D01*
X134354160Y-43371414D01*
X134337492Y-43341385D01*
X134334124Y-43334295D01*
X134321378Y-43302383D01*
X134287612Y-43251150D01*
X134285178Y-43247132D01*
X134255409Y-43193498D01*
X134233034Y-43167434D01*
X134228306Y-43161163D01*
X134209404Y-43132484D01*
X134209399Y-43132478D01*
X134187715Y-43110795D01*
X134166019Y-43089099D01*
X134162828Y-43085655D01*
X134122865Y-43039104D01*
X134095694Y-43018072D01*
X134089807Y-43012887D01*
X132288973Y-41212053D01*
X132287915Y-41210967D01*
X132227061Y-41146949D01*
X132227060Y-41146948D01*
X132227059Y-41146947D01*
X132179315Y-41113716D01*
X132176709Y-41111902D01*
X132172946Y-41109064D01*
X132125413Y-41070305D01*
X132125406Y-41070300D01*
X132094959Y-41054397D01*
X132088251Y-41050334D01*
X132060049Y-41030705D01*
X132060046Y-41030703D01*
X132060045Y-41030703D01*
X132060041Y-41030701D01*
X132003680Y-41006514D01*
X131999424Y-41004493D01*
X131945057Y-40976094D01*
X131945050Y-40976091D01*
X131945049Y-40976091D01*
X131939008Y-40974362D01*
X131912030Y-40966642D01*
X131904630Y-40964008D01*
X131873057Y-40950459D01*
X131873058Y-40950459D01*
X131812966Y-40938109D01*
X131808391Y-40936986D01*
X131749420Y-40920113D01*
X131749425Y-40920113D01*
X131715158Y-40917503D01*
X131707380Y-40916412D01*
X131673742Y-40909500D01*
X131673741Y-40909500D01*
X131612402Y-40909500D01*
X131607695Y-40909321D01*
X131602121Y-40908896D01*
X131546524Y-40904662D01*
X131526589Y-40907201D01*
X131512440Y-40909003D01*
X131504611Y-40909500D01*
X113317340Y-40909500D01*
X113250301Y-40889815D01*
X113204546Y-40837011D01*
X113194602Y-40767853D01*
X113223627Y-40704297D01*
X113229659Y-40697819D01*
X113289657Y-40637820D01*
X113420134Y-40451482D01*
X113516265Y-40245326D01*
X113516269Y-40245317D01*
X113568872Y-40049000D01*
X112605686Y-40049000D01*
X112617641Y-40037045D01*
X112675165Y-39924148D01*
X112694986Y-39799000D01*
X112675165Y-39673852D01*
X112617641Y-39560955D01*
X112605686Y-39549000D01*
X113568872Y-39549000D01*
X113568872Y-39548999D01*
X113516269Y-39352682D01*
X113516265Y-39352673D01*
X113420134Y-39146517D01*
X113304746Y-38981728D01*
X113282419Y-38915522D01*
X113299429Y-38847754D01*
X113350377Y-38799941D01*
X113419086Y-38787263D01*
X113483743Y-38813744D01*
G37*
%TD.AperFunction*%
%TA.AperFunction,Conductor*%
G36*
X111390414Y-36723343D02*
G01*
X111411056Y-36739977D01*
X113266076Y-38594997D01*
X113299561Y-38656320D01*
X113294577Y-38726012D01*
X113252705Y-38781945D01*
X113187241Y-38806362D01*
X113118968Y-38791510D01*
X113107271Y-38784253D01*
X112942482Y-38668865D01*
X112736328Y-38572734D01*
X112539999Y-38520127D01*
X112539999Y-39483312D01*
X112528045Y-39471359D01*
X112415148Y-39413835D01*
X112321481Y-39399000D01*
X112258519Y-39399000D01*
X112164852Y-39413835D01*
X112051955Y-39471359D01*
X112039999Y-39483314D01*
X112040000Y-38520127D01*
X111843671Y-38572734D01*
X111637517Y-38668865D01*
X111451179Y-38799342D01*
X111290342Y-38960179D01*
X111159865Y-39146517D01*
X111063734Y-39352673D01*
X111063730Y-39352682D01*
X111011127Y-39548999D01*
X111011128Y-39549000D01*
X111974314Y-39549000D01*
X111962359Y-39560955D01*
X111904835Y-39673852D01*
X111885014Y-39799000D01*
X111904835Y-39924148D01*
X111962359Y-40037045D01*
X111974314Y-40049000D01*
X111011128Y-40049000D01*
X111063730Y-40245317D01*
X111063734Y-40245326D01*
X111159865Y-40451482D01*
X111290342Y-40637820D01*
X111350341Y-40697819D01*
X111383826Y-40759142D01*
X111378842Y-40828834D01*
X111336970Y-40884767D01*
X111271506Y-40909184D01*
X111262660Y-40909500D01*
X108046783Y-40909500D01*
X107979744Y-40889815D01*
X107959102Y-40873181D01*
X105079342Y-37993422D01*
X105045857Y-37932099D01*
X105043447Y-37895499D01*
X105045643Y-37869003D01*
X105045643Y-37868995D01*
X105025109Y-37621187D01*
X105025107Y-37621175D01*
X104964063Y-37380118D01*
X104864173Y-37152393D01*
X104728163Y-36944213D01*
X104698178Y-36911641D01*
X104667255Y-36848987D01*
X104675115Y-36779561D01*
X104719262Y-36725405D01*
X104785679Y-36703714D01*
X104789407Y-36703658D01*
X111323375Y-36703658D01*
X111390414Y-36723343D01*
G37*
%TD.AperFunction*%
%TD*%
M02*
